<?xml version="1.0" encoding="utf-8"?>
<!-- Generator: Adobe Illustrator 18.0.0, SVG Export Plug-In . SVG Version: 6.00 Build 0)  -->
<!DOCTYPE svg PUBLIC "-//W3C//DTD SVG 1.1//EN" "http://www.w3.org/Graphics/SVG/1.1/DTD/svg11.dtd">
<svg version="1.1" id="Layer_1" xmlns="http://www.w3.org/2000/svg" xmlns:xlink="http://www.w3.org/1999/xlink" x="0px" y="0px"
	 viewBox="0 0 678 110" enable-background="new 0 0 678 110" xml:space="preserve">
<path fill="#FFFFFF" d="M322.2,7.7c-0.9-1-1.8-1.3-2.7-1.3c-2.6,0-4.4,2-4.4,4.6c0,2.7,1.7,4.7,4.4,4.7c1,0,2-0.5,2.9-1.5l1.9,1.3
	c-1.2,1.6-2.9,2.3-4.8,2.3c-3.9,0-6.7-2.7-6.7-6.6c0-4.1,2.8-6.8,6.7-6.8c1.7,0,3.2,0.6,4.5,2L322.2,7.7
	C322.2,7.7,322.2,7.7,322.2,7.7z M333.3,4.3c4-0.1,6.8,2.6,6.8,6.7c0,4-2.8,6.6-6.8,6.7c-3.9,0-6.7-2.7-6.7-6.6
	C326.6,7,329.4,4.3,333.3,4.3L333.3,4.3z M333.3,15.7c2.6,0,4.4-2,4.4-4.7c0-2.5-1.7-4.6-4.4-4.6c-2.6,0-4.4,2-4.4,4.6
	C328.9,13.7,330.7,15.7,333.3,15.7L333.3,15.7z M344,4.7h2.3v5.4h0.1l5.3-5.4h3.1l-6,5.9l6.4,6.9h-3.2l-5.5-6.3h-0.1v6.3H344
	L344,4.7L344,4.7z M358.2,4.7h8.4v2.1h-6.2v3.1h5.9v2.1h-5.9v3.5h6.5v2.1h-8.8L358.2,4.7L358.2,4.7z M113.5,46.6h-8.1v-5.5h22.4v5.5
	h-8.1v22.8h-6.2L113.5,46.6L113.5,46.6z M131.2,41.1h6.2v10.6h12.1V41.1h6.2v28.3h-6.2V57.2h-12.1v12.2h-6.2L131.2,41.1L131.2,41.1z
	 M162.1,41.1h19.2v5.8h-13v5.3h12.3v5.8h-12.3v5.8H182v5.8h-20L162.1,41.1L162.1,41.1z M197.5,41.1h6.8l4.5,18.2h0.1l5.9-18.2h5.8
	l5.9,18.6h0.1l4.8-18.6h6.3l-8.3,28.3h-5.6l-6.2-19.6h-0.1l-6.2,19.6h-5.4L197.5,41.1L197.5,41.1z M241.1,41.1h19.2v5.8h-13v5.3
	h12.3v5.8h-12.3v5.8H261v5.8h-20V41.1z M276.1,41.1h5.2l12.3,28.3h-7l-2.4-6h-11l-2.4,6h-6.9L276.1,41.1L276.1,41.1z M278.5,49.3
	l-3.4,8.8h6.9L278.5,49.3z M296.9,41.1h11c5.8,0,10.7,2,10.7,8.6c0,4-2.1,7-6.1,7.8l7.2,12h-7.5l-5.9-11.3h-3.1v11.3h-6.2
	L296.9,41.1L296.9,41.1z M303.1,52.8h3.7c2.3,0,5.2-0.1,5.2-3.2c0-2.8-2.6-3.3-4.8-3.3h-4.1L303.1,52.8L303.1,52.8z M333.9,41.1h5.2
	l12.3,28.3h-7l-2.4-6h-11l-2.4,6h-6.9L333.9,41.1z M336.3,49.3l-3.4,8.8h6.9L336.3,49.3z M354.6,41.1h10.6c5,0,10.4,1,10.4,7.2
	c0,3.2-2,5.3-4.9,6.2v0.1c3.7,0.5,6.2,3.2,6.2,6.9c0,5.9-5.6,7.9-10.6,7.9h-11.6V41.1z M360.9,52.4h4.5c1.9,0,3.9-0.8,3.9-3.1
	c0-2.4-2.2-3-4.2-3h-4.2L360.9,52.4L360.9,52.4z M360.9,64.1h5.6c2,0,4.2-0.8,4.2-3.3c0-2.7-3-3.1-5-3.1h-4.7L360.9,64.1L360.9,64.1
	z M381.4,41.1h6.2v22.6h11.6v5.8h-17.8V41.1z M402.8,41.1h19.2v5.8h-13v5.3h12.3v5.8h-12.3v5.8h13.7v5.8h-20L402.8,41.1L402.8,41.1z
	 M441.2,41.1h9.4l6.5,18.5h0.1l6.6-18.5h9.4v28.3H467V47.7h-0.1l-7.4,21.7h-4.8l-7.2-21.7h-0.1v21.7h-6.2L441.2,41.1L441.2,41.1z
	 M493.2,40.4c8.8,0,15.3,5.8,15.3,14.9c0,9.1-6.4,14.9-15.3,14.9c-8.8,0-15.3-5.8-15.3-14.9C478,46.2,484.4,40.4,493.2,40.4
	L493.2,40.4z M493.2,64.4c5.3,0,8.8-3.8,8.8-9.1c0-5.3-3.5-9.1-8.8-9.1c-5.3,0-8.8,3.8-8.8,9.1C484.4,60.5,487.9,64.4,493.2,64.4z
	 M509,41.1h7.1l7,18.6h0.1l7.1-18.6h6.7l-11.7,28.3h-5L509,41.1z M540.2,41.1h6.2v28.3h-6.2L540.2,41.1L540.2,41.1z M552.7,41.1
	h19.2v5.8h-13v5.3h12.3v5.8h-12.3v5.8h13.7v5.8h-20V41.1z M188.7,93.1h-4.6v-1.8h11v1.8h-4.6v12.4h-1.9V93.1z M197.2,90.3h1.8v7.1h0
	c0.5-1,1.7-1.7,3.1-1.7c1.8,0,3.4,1.1,3.4,3.6v6.1h-1.8v-5.6c0-1.8-1-2.4-2.2-2.4c-1.5,0-2.6,1-2.6,3.2v4.9h-1.8L197.2,90.3
	L197.2,90.3z M210.2,101.3c0,1.7,1.5,2.8,3.2,2.8c1.1,0,1.9-0.6,2.6-1.4l1.4,1c-1,1.3-2.4,1.9-4.2,1.9c-3,0-4.9-2.2-4.9-5
	c0-2.8,2.1-5,4.9-5c3.3,0,4.6,2.6,4.6,5v0.6L210.2,101.3L210.2,101.3z M215.8,99.9c0-1.6-0.9-2.8-2.7-2.8c-1.8,0-2.9,1.5-2.9,2.8
	H215.8L215.8,99.9z M225.1,95.9h2l2.1,7.1h0l2.3-7.1h1.9l2.4,7.1h0l2-7.1h1.9l-3.1,9.5H235l-2.5-7.1h0l-2.3,7.1h-1.9L225.1,95.9
	L225.1,95.9z M246.2,95.7c2.8,0,5,2.2,5,5c0,2.8-2.2,5-5,5s-5-2.2-5-5C241.2,97.9,243.4,95.7,246.2,95.7z M246.2,104
	c1.9,0,3.1-1.4,3.1-3.3s-1.2-3.3-3.1-3.3s-3.1,1.4-3.1,3.3S244.3,104,246.2,104z M253.9,95.9h1.8v1.5h0c0.5-1,1.7-1.7,2.8-1.7
	c0.3,0,0.6,0,0.8,0.1l-0.1,1.9c-0.3-0.1-0.6-0.1-0.9-0.1c-1.8,0-2.7,1-2.7,3v4.8h-1.8V95.9z M261.7,90.3h1.8v15.1h-1.8V90.3z
	 M276.2,105.4h-1.8v-1.4h0c-0.7,1-2,1.6-3.3,1.6c-2.9,0-4.8-2.2-4.8-5c0-2.8,1.9-5,4.8-5c1.4,0,2.7,0.6,3.3,1.6h0v-7h1.8
	L276.2,105.4L276.2,105.4z M274.4,100.7c0-1.9-1.2-3.3-3.1-3.3c-1.9,0-3.1,1.4-3.1,3.3c0,1.9,1.2,3.3,3.1,3.3
	C273.2,104,274.4,102.6,274.4,100.7z M287.4,98.3c-0.4-0.5-1-0.9-1.9-0.9c-0.8,0-1.6,0.4-1.6,1.1c0,1.1,1.6,1.3,2.4,1.5
	c1.6,0.4,2.8,1,2.8,2.8c0,2.1-2,3-3.8,3c-1.6,0-2.7-0.4-3.7-1.7l1.4-1.1c0.6,0.6,1.3,1.1,2.3,1.1c0.9,0,1.9-0.4,1.9-1.2
	c0-1.1-1.5-1.3-2.3-1.5c-1.5-0.4-2.9-0.9-2.9-2.7c0-2,1.8-2.9,3.6-2.9c1.3,0,2.6,0.4,3.2,1.6L287.4,98.3L287.4,98.3z M298.3,97.5h-2
	v-1.6h2v-2.1c0-2.5,0.9-3.8,3.2-3.8c0.4,0,0.8,0,1.3,0.1l-0.2,1.6c-0.3-0.1-0.7-0.2-1-0.2c-1.3,0-1.5,0.8-1.5,2.1v2.2h2.1v1.6h-2.2
	v7.9h-1.8V97.5z M305.9,91.2c0.7,0,1.3,0.6,1.3,1.3s-0.6,1.3-1.3,1.3c-0.7,0-1.3-0.6-1.3-1.3C304.6,91.8,305.2,91.2,305.9,91.2z
	 M305,95.9h1.8v9.5H305V95.9L305,95.9z M310,95.9h1.8v1.5h0c0.5-1,1.7-1.7,2.8-1.7c0.3,0,0.6,0,0.8,0.1l-0.1,1.9
	c-0.3-0.1-0.6-0.1-0.9-0.1c-1.8,0-2.7,1-2.7,3v4.8H310V95.9z M322.9,98.3c-0.4-0.5-1-0.9-1.9-0.9c-0.8,0-1.6,0.4-1.6,1.1
	c0,1.1,1.6,1.3,2.4,1.5c1.6,0.4,2.8,1,2.8,2.8c0,2.1-2,3-3.8,3c-1.6,0-2.7-0.4-3.7-1.7l1.4-1.1c0.6,0.6,1.3,1.1,2.3,1.1
	c0.9,0,1.9-0.4,1.9-1.2c0-1.1-1.5-1.3-2.3-1.5c-1.5-0.4-2.9-0.9-2.9-2.7c0-2,1.8-2.9,3.6-2.9c1.3,0,2.6,0.4,3.2,1.6L322.9,98.3
	L322.9,98.3z M332.5,97.5h-2.6v4.3c0,1.1,0,2.2,1.4,2.2c0.4,0,0.9-0.1,1.3-0.3v1.6c-0.4,0.2-1.3,0.3-1.6,0.3c-2.8,0-2.8-1.7-2.8-3.2
	v-4.9h-2.1v-1.6h2.1v-2.7h1.8v2.7h2.6V97.5L332.5,97.5z M340.1,95.9h2l2.1,7.1h0l2.3-7.1h1.9l2.4,7.1h0l2-7.1h1.9l-3.1,9.5h-1.8
	l-2.5-7.1h0l-2.3,7.1h-1.9L340.1,95.9L340.1,95.9z M358.1,101.3c0,1.7,1.5,2.8,3.2,2.8c1.1,0,1.9-0.6,2.6-1.4l1.4,1
	c-1,1.3-2.4,1.9-4.2,1.9c-3,0-4.9-2.2-4.9-5c0-2.8,2.1-5,4.9-5c3.3,0,4.6,2.6,4.6,5v0.6L358.1,101.3L358.1,101.3z M363.7,99.9
	c0-1.6-0.9-2.8-2.7-2.8c-1.8,0-2.9,1.5-2.9,2.8H363.7z M368.1,97.1c1-0.9,2.4-1.4,3.8-1.4c2.8,0,4,1.5,4,3.2v4.8
	c0,0.7,0,1.2,0.1,1.7h-1.6c0-0.5-0.1-1-0.1-1.4h0c-0.8,1.2-1.9,1.7-3.3,1.7c-1.8,0-3.3-1-3.3-2.8c0-2.4,2.3-3.3,5.2-3.3h1.3v-0.4
	c0-1-0.7-2-2.3-2c-1.4,0-2,0.6-2.7,1.1L368.1,97.1L368.1,97.1z M373.2,100.9c-1.7,0-3.8,0.3-3.8,1.8c0,1.1,0.8,1.5,2,1.5
	c2,0,2.7-1.5,2.7-2.8v-0.6L373.2,100.9L373.2,100.9z M379,95.9h1.8v1.5h0c0.5-1,1.7-1.7,2.8-1.7c0.3,0,0.6,0,0.8,0.1l-0.1,1.9
	c-0.3-0.1-0.6-0.1-0.9-0.1c-1.8,0-2.7,1-2.7,3v4.8H379V95.9z M386.6,97.1c1-0.9,2.4-1.4,3.8-1.4c2.8,0,4,1.5,4,3.2v4.8
	c0,0.7,0,1.2,0.1,1.7h-1.6c0-0.5-0.1-1-0.1-1.4h0c-0.8,1.2-1.9,1.7-3.3,1.7c-1.8,0-3.3-1-3.3-2.8c0-2.4,2.3-3.3,5.2-3.3h1.3v-0.4
	c0-1-0.7-2-2.3-2c-1.4,0-2,0.6-2.7,1.1L386.6,97.1L386.6,97.1z M391.7,100.9c-1.7,0-3.8,0.3-3.8,1.8c0,1.1,0.8,1.5,2,1.5
	c2,0,2.7-1.5,2.7-2.8v-0.6L391.7,100.9L391.7,100.9z M397.5,90.3h1.8v7h0c0.6-1,1.9-1.6,3.3-1.6c2.9,0,4.8,2.1,4.8,5
	c0,2.8-1.9,5-4.8,5c-1.3,0-2.6-0.6-3.3-1.6h0v1.4h-1.8V90.3L397.5,90.3z M405.5,100.7c0-1.9-1.2-3.3-3.1-3.3c-1.9,0-3.1,1.4-3.1,3.3
	c0,1.9,1.2,3.3,3.1,3.3C404.3,104,405.5,102.6,405.5,100.7z M410.2,90.3h1.8v15.1h-1.8V90.3z M416.6,101.3c0,1.7,1.5,2.8,3.2,2.8
	c1.1,0,1.9-0.6,2.6-1.4l1.4,1c-1,1.3-2.4,1.9-4.2,1.9c-3,0-4.9-2.2-4.9-5c0-2.8,2.1-5,4.9-5c3.3,0,4.6,2.6,4.6,5v0.6L416.6,101.3
	L416.6,101.3z M422.3,99.9c0-1.6-0.9-2.8-2.7-2.8c-1.8,0-2.9,1.5-2.9,2.8H422.3z M432.8,95.9h1.7v1.5h0c0.2-0.6,1.3-1.7,3-1.7
	c1.4,0,2.4,0.6,3,1.8c0.6-1.2,1.9-1.8,3-1.8c2.9,0,3.6,2.1,3.6,4.2v5.5h-1.8v-5.3c0-1.4-0.3-2.8-2-2.8s-2.4,1.2-2.4,2.9v5.2H439v-5
	c0-1.8-0.3-3.1-2-3.1c-1.3,0-2.5,1-2.5,3.1v4.9h-1.8L432.8,95.9L432.8,95.9z M454.8,95.7c2.8,0,5,2.2,5,5c0,2.8-2.2,5-5,5
	c-2.8,0-5-2.2-5-5C449.7,97.9,452,95.7,454.8,95.7z M454.8,104c1.9,0,3.1-1.4,3.1-3.3s-1.2-3.3-3.1-3.3c-1.9,0-3.1,1.4-3.1,3.3
	S452.9,104,454.8,104z M460.9,95.9h2.1l2.8,7.3l2.7-7.3h1.9l-3.7,9.5h-2L460.9,95.9L460.9,95.9z M473.5,91.2c0.7,0,1.3,0.6,1.3,1.3
	s-0.6,1.3-1.3,1.3s-1.3-0.6-1.3-1.3C472.2,91.8,472.8,91.2,473.5,91.2z M472.6,95.9h1.8v9.5h-1.8V95.9L472.6,95.9z M479,101.3
	c0,1.7,1.5,2.8,3.2,2.8c1.1,0,1.9-0.6,2.6-1.4l1.4,1c-1,1.3-2.4,1.9-4.2,1.9c-3,0-4.9-2.2-4.9-5c0-2.8,2.1-5,4.9-5
	c3.3,0,4.6,2.6,4.6,5v0.6L479,101.3L479,101.3z M484.6,99.9c0-1.6-0.9-2.8-2.7-2.8c-1.8,0-2.9,1.5-2.9,2.8H484.6z M488.8,104.2
	c0-0.7,0.6-1.3,1.3-1.3s1.3,0.6,1.3,1.3s-0.6,1.3-1.3,1.3S488.8,104.9,488.8,104.2z M280.5,95.8h-1.6l1.4-4.9h1.9L280.5,95.8z"/>
</svg>
