<svg xmlns="http://www.w3.org/2000/svg" viewBox="0 0 678 110" enable-background="new 0 0 678 110"><path fill="#fff" d="M290.6 14.7h2.5l1.2-2.9h5.5l1.2 2.9h2.6L298.1 2h-2l-5.5 12.7zm4.5-4.9l2-5.2 2 5.2h-4zM306.8 14.7h4.6c.6 0 1.2-.1 1.8-.2.6-.1 1.1-.3 1.5-.6.4-.3.8-.7 1.1-1.1.3-.5.4-1 .4-1.7 0-.4-.1-.8-.2-1.1-.1-.4-.3-.7-.6-.9-.2-.3-.5-.5-.9-.7-.3-.2-.7-.3-1.1-.3.7-.2 1.2-.5 1.6-1 .4-.5.6-1.1.6-1.8 0-.6-.1-1.1-.3-1.5-.2-.4-.5-.7-.9-1-.4-.3-.8-.4-1.3-.6-.3-.2-.8-.2-1.3-.2h-5v12.7zm2.3-10.8h1.9c.9 0 1.5.1 1.9.4.4.3.6.7.6 1.2s-.2.9-.6 1.2c-.4.3-.9.4-1.7.4h-2.1V3.9zm0 5.2h2.2c.9 0 1.6.1 2 .4.4.3.7.7.7 1.4 0 .4-.1.8-.3 1-.2.2-.4.4-.7.6l-.9.3c-.3 0-.6.1-.9.1h-2.1V9.1zM328 3c-.5-.5-1.1-.8-1.7-1-.6-.2-1.3-.3-2-.3-.6 0-1.2.1-1.7.2-.6.2-1.1.4-1.5.7-.4.3-.8.7-1.1 1.2-.3.5-.4 1.1-.4 1.7 0 .8.1 1.4.4 1.8.3.5.7.8 1.1 1.1.4.3.9.5 1.5.6.5.2 1 .3 1.5.5.4.2.8.4 1.1.6.3.3.5.6.5 1.1 0 .3-.1.5-.2.8-.1.2-.3.4-.5.5s-.5.3-.7.3c-.3.1-.5.1-.8.1-.5 0-1-.1-1.4-.4-.4-.2-.8-.6-1.1-1l-1.7 1.7c.5.6 1.2 1.1 1.9 1.3.7.3 1.5.4 2.3.4.6 0 1.2-.1 1.8-.3.6-.2 1.1-.4 1.5-.8.4-.3.8-.8 1-1.3.3-.5.4-1.1.4-1.8 0-.8-.2-1.4-.4-1.8-.3-.5-.7-.8-1.1-1.1-.4-.3-.9-.5-1.5-.6-.5-.2-1-.3-1.5-.5-.4-.2-.8-.4-1.1-.6-.3-.2-.4-.6-.4-1 0-.3.1-.5.2-.7.1-.2.3-.4.5-.5.2-.1.4-.2.7-.3.2-.1.5-.1.8-.1.4 0 .9.1 1.3.2.4.2.7.4 1 .8L328 3zM331.8 11.1c.3.8.8 1.5 1.4 2.1.6.6 1.3 1 2.1 1.3.8.3 1.7.5 2.7.5 1 0 1.9-.2 2.7-.5.8-.3 1.5-.8 2.1-1.4.6-.6 1.1-1.3 1.4-2.1.3-.8.5-1.7.5-2.7 0-1-.2-1.9-.5-2.8-.3-.8-.8-1.5-1.4-2.1-.6-.6-1.3-1-2.1-1.3s-1.7-.5-2.7-.5c-1 0-1.9.2-2.7.5-.8.3-1.5.8-2.1 1.4-.6.6-1.1 1.3-1.4 2.1-.3.8-.5 1.8-.5 2.8 0 1 .2 1.9.5 2.7zm2.2-4.6c.2-.6.5-1 .9-1.4.4-.4.8-.7 1.4-1 .5-.2 1.1-.4 1.8-.4s1.3.1 1.8.4c.5.2 1 .6 1.4 1 .4.4.7.9.9 1.4.2.6.3 1.1.3 1.8s-.1 1.3-.3 1.9c-.2.6-.5 1.1-.9 1.5-.4.4-.8.8-1.4 1-.5.2-1.1.4-1.8.4s-1.3-.1-1.8-.4c-.5-.2-1-.6-1.4-1-.4-.4-.7-.9-.9-1.5-.2-.6-.3-1.2-.3-1.9s.1-1.3.3-1.8zM348.7 14.7h7.7v-2.1H351V2h-2.3v12.7zM369.7 2h-2.3v8c0 .3 0 .6-.1 1-.1.3-.3.7-.5.9-.2.3-.5.5-.9.7-.4.2-.8.3-1.4.3s-1-.1-1.4-.3c-.4-.2-.7-.4-.9-.7-.2-.3-.4-.6-.5-.9-.1-.3-.1-.7-.1-1V2h-2.3v8c0 .8.1 1.5.4 2.1.3.6.6 1.1 1.1 1.6.5.4 1 .8 1.6 1 .6.2 1.3.4 2 .4s1.4-.1 2-.4c.6-.2 1.2-.6 1.6-1 .5-.4.8-1 1.1-1.6.3-.6.4-1.3.4-2.1V2zM376.9 14.7h2.3V4h3.9V2H373v2h3.9v10.7zM129.7 66.7h6.2V46.5h.1l12.4 20.2h8.2V38.4h-6.2v19.7h-.1l-12-19.7h-8.5v28.3zM162.7 66.7h6.2V38.4h-6.2v28.3zM200.9 49.9h-11.1v5.8h5.1v4.6c-.6.3-1.4.6-2.4.9-1 .3-2.2.5-3.5.5-1.3 0-2.5-.2-3.6-.7-1.1-.5-2-1.1-2.8-1.9-.8-.8-1.4-1.8-1.8-2.9-.4-1.1-.6-2.3-.6-3.7 0-1.3.2-2.5.6-3.6.4-1.1 1-2.1 1.8-2.9.8-.8 1.7-1.4 2.8-1.9 1.1-.5 2.3-.7 3.6-.7 1.6 0 2.9.2 4 .7 1.1.5 2 1.1 2.9 2l4.4-4.8c-1.4-1.3-3.1-2.3-5-2.8s-4-.8-6.3-.8c-2.2 0-4.3.3-6.1 1-1.9.7-3.5 1.7-4.8 3-1.4 1.3-2.4 2.9-3.2 4.7-.8 1.8-1.1 3.9-1.1 6.2 0 2.3.4 4.3 1.1 6.2.8 1.8 1.8 3.4 3.2 4.7 1.4 1.3 3 2.3 4.8 3 1.9.7 3.9 1 6.1 1 2.1 0 4.1-.2 6.1-.6 2-.4 3.9-1.1 5.8-2.1V49.9zM206.9 66.7h6.2V54.5h12.1v12.2h6.2V38.4h-6.2V49h-12.1V38.4h-6.2v28.3zM243 66.7h6.2V43.9h8.1v-5.5h-22.4v5.5h8.1v22.8zM279.4 40.6c-1.2-1.1-2.5-1.8-4-2.3-1.5-.5-3-.7-4.6-.7-1.4 0-2.7.2-4 .6-1.3.4-2.5 1-3.5 1.7-1 .8-1.8 1.7-2.4 2.9-.6 1.1-.9 2.5-.9 4 0 1.6.3 2.8 1 3.8s1.5 1.7 2.5 2.3c1 .6 2.1 1.1 3.2 1.4 1.1.3 2.2.7 3.2 1 1 .3 1.8.8 2.5 1.3s1 1.2 1 2c0 .5-.1.9-.4 1.3-.3.4-.6.7-1 .9-.4.2-.9.4-1.4.5s-1 .2-1.5.2c-1 0-2-.2-3-.7-1-.5-1.8-1.1-2.4-2l-4.4 4.9c1.4 1.3 2.8 2.2 4.4 2.7 1.6.6 3.3.8 5.1.8 1.5 0 2.9-.2 4.2-.6 1.3-.4 2.5-.9 3.5-1.7 1-.8 1.8-1.7 2.4-2.9.6-1.2.9-2.5.9-4.1 0-1.7-.3-3-1-4-.6-1-1.4-1.8-2.4-2.4-1-.6-2-1-3.1-1.4-1.1-.3-2.2-.6-3.1-1-1-.3-1.8-.7-2.4-1.2-.6-.5-1-1.1-1-2 0-.5.1-1 .4-1.4.3-.4.6-.7 1-.9.4-.2.9-.4 1.4-.5.5-.1.9-.2 1.4-.2.8 0 1.6.2 2.5.5.9.3 1.6.8 2.1 1.4l3.8-4.2zM297.5 66.7h11.6c1.3 0 2.5-.1 3.8-.4 1.3-.3 2.4-.7 3.4-1.3 1-.6 1.8-1.4 2.5-2.4.6-1 1-2.2 1-3.7 0-.9-.1-1.8-.4-2.6-.3-.8-.7-1.5-1.3-2.1-.5-.6-1.2-1.1-2-1.5-.8-.4-1.6-.6-2.5-.8v-.1c1.5-.5 2.6-1.2 3.5-2.3.9-1.1 1.3-2.4 1.3-4 0-1.5-.3-2.8-.9-3.7-.6-.9-1.4-1.7-2.4-2.2-1-.5-2.1-.9-3.3-1-1.2-.2-2.5-.3-3.7-.3h-10.6v28.4zm6.3-23h4.2c.5 0 1 0 1.5.1s1 .2 1.4.5c.4.2.7.5 1 .9.3.4.4.9.4 1.5s-.1 1-.3 1.4c-.2.4-.5.7-.9 1-.4.2-.8.4-1.3.5-.5.1-.9.2-1.4.2h-4.5v-6.1zm0 11.3h4.7c.5 0 1.1 0 1.6.1.6.1 1.1.2 1.6.4s.9.5 1.3.9c.3.4.5 1 .5 1.6 0 .6-.1 1.1-.4 1.6-.3.4-.6.8-1 1-.4.3-.8.5-1.3.6-.5.1-1 .2-1.5.2h-5.6V55zM330.2 66.7h6.2V54.6L347 38.4h-7.4L333.4 49l-6-10.6h-7.8l10.6 16.2v12.1zM359.7 66.7h6.9l2.4-6h11l2.4 6h7l-12.3-28.3H372l-12.3 28.3zm18.1-11.3h-6.9l3.4-8.8 3.5 8.8zM392.7 66.7h11.6c1.3 0 2.5-.1 3.8-.4 1.3-.3 2.4-.7 3.4-1.3 1-.6 1.8-1.4 2.5-2.4.6-1 1-2.2 1-3.7 0-.9-.1-1.8-.4-2.6-.3-.8-.7-1.5-1.3-2.1-.5-.6-1.2-1.1-2-1.5-.8-.4-1.6-.6-2.5-.8v-.1c1.5-.5 2.6-1.2 3.5-2.3.9-1.1 1.3-2.4 1.3-4 0-1.5-.3-2.8-.9-3.7-.6-.9-1.4-1.7-2.4-2.2-1-.5-2.1-.9-3.3-1-1.2-.2-2.5-.3-3.7-.3h-10.6v28.4zm6.2-23h4.2c.5 0 1 0 1.5.1s1 .2 1.4.5c.4.2.7.5 1 .9.3.4.4.9.4 1.5s-.1 1-.3 1.4c-.2.4-.5.7-.9 1-.4.2-.8.4-1.3.5-.5.1-.9.2-1.4.2H399v-6.1zm0 11.3h4.7c.5 0 1.1 0 1.6.1.6.1 1.1.2 1.6.4s.9.5 1.3.9c.3.4.5 1 .5 1.6 0 .6-.1 1.1-.4 1.6-.3.4-.6.8-1 1-.4.3-.8.5-1.3.6-.5.1-1 .2-1.5.2h-5.6V55zM437.4 40.6c-1.2-1.1-2.5-1.8-4-2.3-1.5-.5-3-.7-4.6-.7-1.4 0-2.7.2-4 .6-1.3.4-2.5 1-3.5 1.7-1 .8-1.8 1.7-2.4 2.9-.6 1.1-.9 2.5-.9 4 0 1.6.3 2.8 1 3.8s1.5 1.7 2.5 2.3c1 .6 2.1 1.1 3.2 1.4 1.1.3 2.2.7 3.2 1 1 .3 1.8.8 2.5 1.3s1 1.2 1 2c0 .5-.1.9-.4 1.3-.3.4-.6.7-1 .9-.4.2-.9.4-1.4.5s-1 .2-1.5.2c-1 0-2-.2-3-.7-1-.5-1.8-1.1-2.4-2l-4.4 4.9c1.4 1.3 2.8 2.2 4.4 2.7 1.6.6 3.3.8 5.1.8 1.5 0 2.9-.2 4.2-.6 1.3-.4 2.5-.9 3.5-1.7 1-.8 1.8-1.7 2.4-2.9.6-1.2.9-2.5.9-4.1 0-1.7-.3-3-1-4-.6-1-1.4-1.8-2.4-2.4-1-.6-2-1-3.1-1.4-1.1-.3-2.2-.6-3.1-1-1-.3-1.8-.7-2.4-1.2-.6-.5-1-1.1-1-2 0-.5.1-1 .4-1.4.3-.4.6-.7 1-.9.4-.2.9-.4 1.4-.5.5-.1.9-.2 1.4-.2.8 0 1.6.2 2.5.5.9.3 1.6.8 2.1 1.4l3.8-4.2zM441.8 58.7c.8 1.8 1.8 3.4 3.2 4.7 1.4 1.3 3 2.3 4.8 3 1.9.7 3.9 1 6.1 1 2.2 0 4.3-.3 6.1-1 1.9-.7 3.5-1.7 4.8-3 1.4-1.3 2.4-2.9 3.2-4.7.8-1.8 1.1-3.9 1.1-6.2 0-2.3-.4-4.3-1.1-6.2-.8-1.8-1.8-3.4-3.2-4.7-1.4-1.3-3-2.3-4.8-3-1.9-.7-3.9-1-6.1-1-2.2 0-4.3.3-6.1 1-1.9.7-3.5 1.7-4.8 3-1.4 1.3-2.4 2.9-3.2 4.7-.8 1.8-1.1 3.9-1.1 6.2 0 2.3.4 4.4 1.1 6.2zm6-9.8c.4-1.1 1-2.1 1.8-2.9.8-.8 1.7-1.4 2.8-1.9 1.1-.5 2.3-.7 3.6-.7 1.3 0 2.5.2 3.6.7 1.1.5 2 1.1 2.8 1.9.8.8 1.4 1.8 1.8 2.9.4 1.1.6 2.3.6 3.6 0 1.3-.2 2.6-.6 3.7-.4 1.1-1 2.1-1.8 2.9-.8.8-1.7 1.4-2.8 1.9-1.1.5-2.3.7-3.6.7-1.3 0-2.5-.2-3.6-.7-1.1-.5-2-1.1-2.8-1.9-.8-.8-1.4-1.8-1.8-2.9-.4-1.1-.6-2.3-.6-3.7 0-1.3.2-2.5.6-3.6zM476.1 66.7h17.8v-5.8h-11.6V38.4h-6.2v28.3zM520.9 38.4h-6.2v17.2c0 .9-.1 1.7-.4 2.4-.3.7-.7 1.4-1.2 1.9s-1.1 1-1.8 1.3c-.7.3-1.5.5-2.3.5-.8 0-1.6-.2-2.3-.5-.7-.3-1.3-.7-1.8-1.3-.5-.5-.9-1.2-1.2-1.9-.3-.7-.4-1.6-.4-2.4V38.4H497v17.4c0 1.7.3 3.2.8 4.6.5 1.4 1.3 2.6 2.3 3.7 1 1 2.2 1.9 3.7 2.4 1.5.6 3.2.9 5.2.9 1.9 0 3.7-.3 5.2-.9 1.5-.6 2.7-1.4 3.7-2.4s1.8-2.3 2.3-3.7c.5-1.4.8-3 .8-4.6V38.4zM532.4 66.7h6.2V43.9h8.1v-5.5h-22.4v5.5h8.1v22.8zM156.2 102.7h2.5v-6h1.8l3.3 6h3l-3.8-6.3c1.1-.1 1.9-.6 2.4-1.3.6-.7.9-1.6.9-2.6 0-.8-.1-1.5-.4-2-.3-.5-.7-.9-1.2-1.2-.5-.3-1.1-.5-1.7-.6-.6-.1-1.3-.2-2-.2h-4.9v14.2zm2.5-8.2v-3.8h2.2c.3 0 .6 0 1 .1.3 0 .6.1.9.2.3.1.5.3.7.6.2.3.3.6.3 1 0 .5-.1.8-.3 1.1-.2.3-.4.5-.7.6-.3.1-.6.2-1 .2s-.7.1-1.1.1h-2zM178 98.7V98c0-.8-.1-1.6-.3-2.2-.2-.6-.5-1.2-.9-1.6-.4-.4-.9-.8-1.4-1-.6-.2-1.2-.3-1.8-.3-.7 0-1.4.1-2 .4-.6.2-1.2.6-1.7 1s-.8 1-1.1 1.6c-.3.6-.4 1.3-.4 2.1s.1 1.4.4 2.1c.3.6.6 1.2 1.1 1.6.5.4 1 .8 1.7 1 .6.2 1.3.4 2 .4.8 0 1.5-.1 2.2-.4.7-.3 1.3-.8 1.9-1.5l-1.7-1.3c-.3.4-.7.7-1.1.9-.4.2-.9.4-1.5.4-.7 0-1.3-.2-1.7-.6-.5-.4-.8-1-.8-1.7h7.1zm-7.3-1.8c.1-.7.4-1.2.8-1.7.4-.4 1-.6 1.7-.6.8 0 1.4.2 1.8.6.4.4.6 1 .7 1.7h-5zM186.6 102.7h2.2v-6.3c0-.3-.1-.6-.1-.9-.1-.3-.2-.6-.4-.9-.2-.3-.4-.6-.7-.8-.3-.2-.7-.4-1.2-.6-.5-.2-1-.2-1.7-.2-.8 0-1.5.1-2.2.4-.7.2-1.3.6-1.9 1.2l1.3 1.3c.3-.3.7-.6 1.1-.7s.9-.3 1.4-.3c.6 0 1.2.1 1.6.4.4.3.6.8.6 1.3v.3h-1.9c-.5 0-.9.1-1.4.1-.4.1-.9.2-1.3.3-.4.1-.8.3-1.1.6-.3.2-.6.6-.8.9-.2.4-.3.8-.3 1.3s.1.9.3 1.3c.2.4.5.7.8.9.3.2.7.4 1.1.5.4.1.9.2 1.3.2.6 0 1.2-.1 1.8-.4.5-.2 1-.6 1.3-1.2h.1v1.3zm-.1-3.8c0 .7-.2 1.2-.6 1.6-.4.4-1 .6-1.8.6-.2 0-.4 0-.6-.1-.2 0-.4-.1-.5-.2-.2-.1-.3-.2-.4-.4-.1-.2-.1-.3-.1-.6s.1-.6.4-.8c.3-.2.6-.3.9-.4.4-.1.8-.2 1.2-.2h1.6v.5zM191.9 102.7h2.4V87.6h-2.4v15.1zM204.6 95.1v4.4c0 .6 0 1.1.1 1.5.1.4.2.8.5 1.1.2.3.6.5 1 .6.4.1.9.2 1.6.2.3 0 .6 0 1-.1.4 0 .7-.1.9-.2v-2c-.1.1-.3.2-.6.2s-.5.1-.7.1c-.5 0-.9-.1-1.1-.4-.2-.3-.3-.7-.3-1.1v-4.2h2.6v-2H207v-2.8h-2.4v2.8h-2v2h2zM211.9 102.7h2.4v-9.6h-2.4v9.6zm.1-11.8c.3.3.6.4 1.1.4s.8-.1 1.1-.4c.3-.3.4-.6.4-1s-.1-.8-.4-1c-.3-.3-.7-.4-1.1-.4s-.8.1-1.1.4c-.3.3-.4.6-.4 1 0 .3.1.7.4 1zM217.5 102.7h2.4v-5.2c0-.3 0-.6.1-.9.1-.3.2-.6.4-.8.2-.2.4-.4.7-.5.3-.1.6-.2 1-.2.6 0 1 .2 1.3.5.3.4.4.8.4 1.4v5.7h2.4v-5.2c0-.3 0-.6.1-.9.1-.3.2-.6.4-.8l.6-.6s.6-.2.9-.2c.4 0 .7.1.9.2.2.1.4.3.5.5.1.2.2.4.3.7.1.3.1.6.1.8v5.4h2.4V97c0-.6-.1-1.1-.2-1.6s-.3-.9-.6-1.3-.6-.7-1.1-.9c-.4-.2-1-.3-1.6-.3-.7 0-1.3.1-1.9.4-.5.3-1 .7-1.3 1.3-.5-1.2-1.5-1.8-3-1.8-.8 0-1.4.2-1.9.5-.5.4-.8.8-1 1.2V93h-2.3v9.7zM244.6 98.7V98c0-.8-.1-1.6-.3-2.2-.2-.6-.5-1.2-.9-1.6-.4-.4-.9-.8-1.4-1-.6-.2-1.2-.3-1.8-.3-.7 0-1.4.1-2 .4-.6.2-1.2.6-1.7 1s-.8 1-1.1 1.6c-.3.6-.4 1.3-.4 2.1s.1 1.4.4 2.1c.3.6.6 1.2 1.1 1.6.5.4 1 .8 1.7 1 .6.2 1.3.4 2 .4.8 0 1.5-.1 2.2-.4.7-.3 1.3-.8 1.9-1.5l-1.7-1.3c-.3.4-.7.7-1.1.9-.4.2-.9.4-1.5.4-.7 0-1.3-.2-1.7-.6-.5-.4-.8-1-.8-1.7h7.1zm-7.3-1.8c.1-.7.4-1.2.8-1.7.4-.4 1-.6 1.7-.6.8 0 1.4.2 1.8.6.4.4.6 1 .7 1.7h-5zM260.3 94.3c-.4-.5-.9-.9-1.5-1.1-.6-.2-1.3-.3-1.9-.3-.5 0-1 .1-1.4.2-.5.1-.9.3-1.2.6-.4.3-.6.6-.9 1-.2.4-.3.9-.3 1.4 0 .6.1 1.1.4 1.4.3.3.6.6 1 .8.4.2.8.3 1.2.4.4.1.9.2 1.3.3.4.1.7.2 1 .4.3.2.4.4.4.7 0 .2-.1.3-.1.5-.1.1-.2.3-.4.3-.2.1-.3.2-.5.2s-.4.1-.5.1c-.5 0-.9-.1-1.3-.3-.4-.2-.7-.5-1-.8l-1.6 1.5c.5.6 1.1.9 1.7 1.2.6.2 1.3.3 2.1.3.5 0 1-.1 1.5-.2s.9-.3 1.3-.5.7-.6 1-1c.2-.4.4-.9.4-1.4 0-.6-.1-1.1-.4-1.5-.3-.4-.6-.6-1-.8-.4-.2-.8-.4-1.2-.5-.4-.1-.9-.2-1.2-.3-.4-.1-.7-.2-1-.3-.3-.1-.4-.3-.4-.6 0-.4.2-.6.5-.8.3-.2.6-.2.9-.2.8 0 1.4.3 1.9 1l1.2-1.7zM262.9 100c.3.6.6 1.2 1.1 1.6.5.4 1 .8 1.7 1 .6.2 1.3.4 2 .4s1.4-.1 2-.4c.6-.2 1.2-.6 1.7-1s.8-1 1.1-1.6c.3-.6.4-1.3.4-2.1s-.1-1.5-.4-2.1c-.3-.6-.6-1.2-1.1-1.6-.5-.4-1-.8-1.7-1-.6-.2-1.3-.4-2-.4s-1.4.1-2 .4c-.6.2-1.2.6-1.7 1s-.8 1-1.1 1.6c-.3.6-.4 1.3-.4 2.1s.1 1.5.4 2.1zm2.2-3.2c.1-.3.3-.7.6-.9.2-.3.5-.5.9-.6.3-.2.7-.2 1.2-.2s.8.1 1.2.2l.9.6.6.9c.1.3.2.7.2 1.1 0 .4-.1.7-.2 1.1-.1.3-.3.7-.6.9-.2.3-.5.5-.9.6-.3.2-.7.2-1.2.2s-.8-.1-1.2-.2l-.9-.6-.6-.9c-.1-.3-.2-.7-.2-1.1 0-.4 0-.7.2-1.1zM283.7 94.3c-.5-.5-1-.9-1.6-1.1-.6-.2-1.2-.3-1.8-.3-.7 0-1.4.1-2 .4-.6.2-1.2.6-1.7 1s-.8 1-1.1 1.6c-.3.6-.4 1.3-.4 2.1s.1 1.4.4 2.1c.3.6.6 1.2 1.1 1.6.5.4 1 .8 1.7 1 .6.2 1.3.4 2 .4.2 0 .5 0 .8-.1.3 0 .6-.1.9-.2.3-.1.6-.2.9-.4.3-.2.6-.4.8-.6l-1.6-1.7c-.2.3-.5.5-.8.7-.3.2-.7.2-1 .2-.4 0-.8-.1-1.2-.2l-.9-.6-.6-.9c-.1-.3-.2-.7-.2-1.1 0-.4.1-.7.2-1.1.1-.3.3-.7.6-.9.2-.3.5-.5.9-.6.3-.2.7-.2 1.2-.2.3 0 .6.1.9.3.3.2.6.4.9.7l1.6-2.1zM285.7 102.7h2.4v-9.6h-2.4v9.6zm.1-11.8c.3.3.6.4 1.1.4s.8-.1 1.1-.4c.3-.3.4-.6.4-1s-.1-.8-.4-1c-.3-.3-.7-.4-1.1-.4s-.8.1-1.1.4c-.3.3-.4.6-.4 1-.1.3.1.7.4 1zM297.2 102.7h2.2v-6.3c0-.3-.1-.6-.1-.9-.1-.3-.2-.6-.4-.9-.2-.3-.4-.6-.7-.8-.3-.2-.7-.4-1.2-.6-.5-.2-1-.2-1.7-.2-.8 0-1.5.1-2.2.4-.7.2-1.3.6-1.9 1.2l1.3 1.3c.3-.3.7-.6 1.1-.7s.9-.3 1.4-.3c.6 0 1.2.1 1.6.4.4.3.6.8.6 1.3v.3h-1.9c-.5 0-.9.1-1.4.1-.4.1-.9.2-1.3.3-.4.1-.8.3-1.1.6-.3.2-.6.6-.8.9-.2.4-.3.8-.3 1.3s.1.9.3 1.3c.2.4.5.7.8.9.3.2.7.4 1.1.5.4.1.9.2 1.3.2.6 0 1.2-.1 1.8-.4.5-.2 1-.6 1.3-1.2h.1v1.3zm-.1-3.8c0 .7-.2 1.2-.6 1.6-.4.4-1 .6-1.8.6-.2 0-.4 0-.6-.1-.2 0-.4-.1-.5-.2-.2-.1-.3-.2-.4-.4-.1-.2-.1-.3-.1-.6s.1-.6.4-.8c.3-.2.6-.3.9-.4.4-.1.8-.2 1.2-.2h1.6v.5zM302.5 102.7h2.4V87.6h-2.4v15.1zM322.6 94.3c-.5-.5-1-.9-1.6-1.1-.6-.2-1.2-.3-1.9-.3s-1.4.1-2 .4c-.6.2-1.2.6-1.7 1s-.8 1-1.1 1.6c-.3.6-.4 1.3-.4 2.1s.1 1.4.4 2.1c.3.6.6 1.2 1.1 1.6.5.4 1 .8 1.7 1 .6.2 1.3.4 2 .4.2 0 .5 0 .8-.1.3 0 .6-.1.9-.2.3-.1.6-.2 1-.4.3-.2.6-.4.8-.6l-1.6-1.7c-.2.3-.5.5-.8.7-.3.2-.7.2-1 .2-.4 0-.8-.1-1.2-.2l-.9-.6-.6-.9c-.1-.3-.2-.7-.2-1.1 0-.4.1-.7.2-1.1.1-.3.3-.7.6-.9.2-.3.5-.5.9-.6.3-.2.7-.2 1.2-.2.3 0 .6.1.9.3.3.2.6.4.9.7l1.6-2.1zM324.2 100c.3.6.6 1.2 1.1 1.6.5.4 1 .8 1.7 1 .6.2 1.3.4 2 .4s1.4-.1 2-.4c.6-.2 1.2-.6 1.7-1s.8-1 1.1-1.6c.3-.6.4-1.3.4-2.1s-.1-1.5-.4-2.1c-.3-.6-.6-1.2-1.1-1.6-.5-.4-1-.8-1.7-1-.6-.2-1.3-.4-2-.4s-1.4.1-2 .4c-.6.2-1.2.6-1.7 1s-.8 1-1.1 1.6c-.3.6-.4 1.3-.4 2.1s.2 1.5.4 2.1zm2.2-3.2c.1-.3.3-.7.6-.9.2-.3.5-.5.9-.6.3-.2.7-.2 1.2-.2.4 0 .8.1 1.2.2l.9.6.6.9c.1.3.2.7.2 1.1 0 .4-.1.7-.2 1.1-.1.3-.3.7-.6.9-.2.3-.5.5-.9.6-.3.2-.7.2-1.2.2-.4 0-.8-.1-1.2-.2l-.9-.6-.6-.9c-.1-.3-.2-.7-.2-1.1 0-.4.1-.7.2-1.1zM336.9 102.7h2.4v-5.2c0-.3 0-.6.1-.9.1-.3.2-.6.4-.8.2-.2.4-.4.7-.5.3-.1.6-.2 1-.2s.7.1 1 .3c.2.2.4.4.5.7.1.3.2.6.2.9V102.8h2.4v-6.1c0-.5-.1-1-.2-1.4-.1-.5-.3-.9-.6-1.2-.3-.3-.6-.6-1.1-.8-.4-.2-1-.3-1.6-.3-.8 0-1.4.2-1.9.5-.5.4-.8.8-1 1.2v-1.5h-2.3v9.5zM349.6 95.1v4.4c0 .6 0 1.1.1 1.5.1.4.2.8.5 1.1.2.3.6.5 1 .6.4.1.9.2 1.6.2.3 0 .6 0 1-.1.4 0 .7-.1.9-.2v-2c-.1.1-.3.2-.6.2s-.5.1-.7.1c-.5 0-.9-.1-1.1-.4-.2-.3-.3-.7-.3-1.1v-4.2h2.6v-2H352v-2.8h-2.4v2.8h-2v2h2zM366 98.7V98c0-.8-.1-1.6-.3-2.2-.2-.6-.5-1.2-.9-1.6-.4-.4-.9-.8-1.4-1-.6-.2-1.2-.3-1.8-.3-.7 0-1.4.1-2 .4-.6.2-1.2.6-1.7 1s-.8 1-1.1 1.6c-.3.6-.4 1.3-.4 2.1s.1 1.4.4 2.1c.3.6.6 1.2 1.1 1.6.5.4 1 .8 1.7 1 .6.2 1.3.4 2 .4.8 0 1.5-.1 2.2-.4.7-.3 1.3-.8 1.9-1.5l-1.7-1.3c-.3.4-.7.7-1.1.9-.4.2-.9.4-1.5.4-.7 0-1.3-.2-1.7-.6-.5-.4-.8-1-.8-1.7h7.1zm-7.3-1.8c.1-.7.4-1.2.8-1.7.4-.4 1-.6 1.7-.6.8 0 1.4.2 1.8.6.4.4.6 1 .7 1.7h-5zM368.7 102.7h2.4v-5.2c0-.3 0-.6.1-.9.1-.3.2-.6.4-.8.2-.2.4-.4.7-.5.3-.1.6-.2 1-.2s.7.1 1 .3c.2.2.4.4.5.7.1.3.2.6.2.9V102.8h2.4v-6.1c0-.5-.1-1-.2-1.4-.1-.5-.3-.9-.6-1.2-.3-.3-.6-.6-1.1-.8-.4-.2-1-.3-1.6-.3-.8 0-1.4.2-1.9.5-.5.4-.8.8-1 1.2v-1.5h-2.3v9.5zM381.4 95.1v4.4c0 .6 0 1.1.1 1.5.1.4.2.8.5 1.1.2.3.6.5 1 .6.4.1.9.2 1.6.2.3 0 .6 0 1-.1.4 0 .7-.1.9-.2v-2c-.1.1-.3.2-.6.2s-.5.1-.7.1c-.5 0-.9-.1-1.1-.4-.2-.3-.3-.7-.3-1.1v-4.2h2.6v-2h-2.6v-2.8h-2.4v2.8h-2v2h2zM401 102.7h2.2v-6.3c0-.3-.1-.6-.1-.9-.1-.3-.2-.6-.4-.9-.2-.3-.4-.6-.7-.8-.3-.2-.7-.4-1.2-.6-.5-.2-1-.2-1.7-.2-.8 0-1.5.1-2.2.4-.7.2-1.3.6-1.9 1.2l1.3 1.3c.3-.3.7-.6 1.1-.7s.9-.3 1.4-.3c.6 0 1.2.1 1.6.4.4.3.6.8.6 1.3v.3h-1.9c-.5 0-.9.1-1.4.1-.4.1-.9.2-1.3.3-.4.1-.8.3-1.1.6-.3.2-.6.6-.8.9-.2.4-.3.8-.3 1.3s.1.9.3 1.3.5.7.8.9c.3.2.7.4 1.1.5.4.1.9.2 1.3.2.6 0 1.2-.1 1.8-.4.5-.2 1-.6 1.3-1.2h.1v1.3zm-.1-3.8c0 .7-.2 1.2-.6 1.6-.4.4-1 .6-1.8.6-.2 0-.4 0-.6-.1-.2 0-.4-.1-.5-.2-.2-.1-.3-.2-.4-.4-.1-.2-.1-.3-.1-.6s.1-.6.4-.8c.3-.2.6-.3.9-.4.4-.1.8-.2 1.2-.2h1.6v.5zM413.8 93.1v1.4c-.3-.6-.8-1-1.4-1.3-.6-.3-1.2-.4-1.9-.4s-1.4.1-2 .4c-.6.3-1.1.6-1.5 1.1-.4.5-.7 1-.9 1.6-.2.6-.3 1.3-.3 2s.1 1.3.3 1.9c.2.6.5 1.1 1 1.6.4.4.9.8 1.5 1.1.6.3 1.2.4 2 .4.6 0 1.2-.1 1.8-.3.6-.2 1-.6 1.4-1.1v.7c0 .5 0 .9-.1 1.3s-.3.7-.5 1c-.2.3-.5.5-.9.7-.4.2-.9.2-1.5.2-.7 0-1.3-.1-1.8-.4-.5-.2-1-.6-1.5-1l-1.4 2c.7.6 1.4 1 2.2 1.2.8.2 1.6.3 2.5.3.9 0 1.7-.1 2.4-.4.7-.3 1.2-.6 1.7-1.1.4-.5.8-1.1 1-1.8.2-.7.3-1.5.3-2.3v-8.7h-2.4zm-.8 2.7c.5.5.8 1.2.8 2 0 .4-.1.8-.2 1.1-.1.3-.3.6-.6.9-.2.2-.5.4-.9.6-.4.1-.8.2-1.2.2-.4 0-.8-.1-1.1-.2-.3-.1-.6-.3-.9-.6-.3-.3-.5-.5-.6-.9-.1-.3-.2-.7-.2-1.1 0-.4.1-.8.2-1.2.1-.4.3-.7.6-.9.2-.2.5-.4.9-.6.3-.1.7-.2 1.2-.2.8.1 1.5.4 2 .9zM426.8 93.1v1.4c-.3-.6-.8-1-1.4-1.3-.6-.3-1.2-.4-1.9-.4s-1.4.1-2 .4c-.6.3-1.1.6-1.5 1.1-.4.5-.7 1-.9 1.6-.2.6-.3 1.3-.3 2s.1 1.3.3 1.9c.2.6.5 1.1 1 1.6.4.4.9.8 1.5 1.1.6.3 1.2.4 2 .4.6 0 1.2-.1 1.8-.3.6-.2 1-.6 1.4-1.1v.7c0 .5-.1.9-.2 1.3s-.3.7-.5 1c-.2.3-.5.5-.9.7-.4.2-.9.2-1.5.2-.7 0-1.3-.1-1.8-.4-.5-.2-1-.6-1.5-1l-1.4 2c.7.6 1.4 1 2.2 1.2.8.2 1.6.3 2.5.3.9 0 1.7-.1 2.4-.4.7-.3 1.2-.6 1.7-1.1.4-.5.8-1.1 1-1.8.2-.7.3-1.5.3-2.3v-8.7h-2.3zm-.7 2.7c.5.5.8 1.2.8 2 0 .4-.1.8-.2 1.1-.1.3-.3.6-.6.9-.2.2-.5.4-.9.6-.4.1-.8.2-1.2.2-.4 0-.8-.1-1.1-.2-.3-.1-.6-.3-.9-.6-.3-.3-.4-.5-.6-.9-.1-.3-.2-.7-.2-1.1 0-.4.1-.8.2-1.2.1-.4.3-.7.6-.9.2-.2.5-.4.9-.6.3-.1.7-.2 1.2-.2.8.1 1.5.4 2 .9zM432.3 102.7h2.4v-5.1c0-.1 0-.3.1-.6s.2-.5.4-.8c.2-.3.4-.5.8-.7.3-.2.8-.3 1.4-.3.2 0 .4 0 .6.1.2 0 .4.1.6.1V93c-.1 0-.3-.1-.4-.1h-.4c-.6 0-1.2.2-1.7.5s-.9.7-1.1 1.3v-1.5h-2.4v9.5zM449.7 98.7V98c0-.8-.1-1.6-.3-2.2-.2-.6-.5-1.2-.9-1.6-.4-.4-.9-.8-1.4-1-.6-.2-1.2-.3-1.8-.3-.7 0-1.4.1-2 .4-.6.2-1.2.6-1.7 1s-.8 1-1.1 1.6c-.3.6-.4 1.3-.4 2.1s.1 1.4.4 2.1c.3.6.6 1.2 1.1 1.6.5.4 1 .8 1.7 1 .6.2 1.3.4 2 .4.8 0 1.5-.1 2.2-.4.7-.3 1.3-.8 1.9-1.5l-1.7-1.3c-.3.4-.7.7-1.1.9-.4.2-.9.4-1.5.4-.7 0-1.3-.2-1.7-.6-.5-.4-.8-1-.8-1.7h7.1zm-7.3-1.8c.1-.7.3-1.2.8-1.7.4-.4 1-.6 1.7-.6.8 0 1.4.2 1.8.6.4.4.6 1 .7 1.7h-5zM459.9 93.1v1.4c-.3-.6-.8-1-1.4-1.3-.6-.3-1.2-.4-1.9-.4s-1.4.1-2 .4-1.1.6-1.5 1.1c-.4.5-.7 1-.9 1.6-.2.6-.3 1.3-.3 2s.1 1.3.3 1.9c.2.6.6 1.1 1 1.6.4.4.9.8 1.5 1.1.6.3 1.2.4 2 .4.6 0 1.2-.1 1.8-.3.6-.2 1-.6 1.4-1.1v.7c0 .5 0 .9-.1 1.3s-.3.7-.5 1c-.2.3-.5.5-.9.7-.4.2-.9.2-1.4.2-.7 0-1.3-.1-1.8-.4-.5-.2-1-.6-1.5-1l-1.4 2c.7.6 1.4 1 2.2 1.2.8.2 1.6.3 2.5.3.9 0 1.7-.1 2.4-.4.7-.3 1.2-.6 1.7-1.1.4-.5.8-1.1 1-1.8.2-.7.3-1.5.3-2.3v-8.7h-2.5zm-.7 2.7c.5.5.8 1.2.8 2 0 .4-.1.8-.2 1.1-.1.3-.3.6-.6.9-.2.2-.5.4-.9.6-.4.1-.8.2-1.2.2-.4 0-.8-.1-1.1-.2-.3-.1-.6-.3-.9-.6-.3-.3-.5-.5-.6-.9-.1-.3-.2-.7-.2-1.1 0-.4.1-.8.2-1.2.1-.4.3-.7.6-.9.2-.2.5-.4.9-.6.3-.1.7-.2 1.2-.2.8.1 1.5.4 2 .9zM471.4 102.7h2.2v-6.3c0-.3-.1-.6-.1-.9-.1-.3-.2-.6-.4-.9-.2-.3-.4-.6-.7-.8-.3-.2-.7-.4-1.2-.6-.5-.2-1-.2-1.7-.2-.8 0-1.5.1-2.2.4-.7.2-1.3.6-1.9 1.2l1.3 1.3c.3-.3.7-.6 1.1-.7s.9-.3 1.4-.3c.6 0 1.2.1 1.6.4.4.3.6.8.6 1.3v.3h-1.9c-.5 0-.9.1-1.4.1-.4.1-.9.2-1.3.3-.4.1-.8.3-1.1.6-.3.2-.6.6-.8.9-.2.4-.3.8-.3 1.3s.1.9.3 1.3c.2.4.5.7.8.9.3.2.7.4 1.1.5.4.1.8.2 1.3.2.6 0 1.2-.1 1.8-.4.5-.2 1-.6 1.3-1.2h.1v1.3zm-.2-3.8c0 .7-.2 1.2-.6 1.6-.4.4-1 .6-1.8.6-.2 0-.4 0-.6-.1-.2 0-.4-.1-.5-.2-.2-.1-.3-.2-.4-.4-.1-.2-.1-.3-.1-.6s.1-.6.4-.8c.3-.2.6-.3.9-.4.4-.1.8-.2 1.2-.2h1.6v.5zM477.4 95.1v4.4c0 .6 0 1.1.1 1.5.1.4.2.8.5 1.1.2.3.6.5 1 .6.4.1.9.2 1.6.2.3 0 .6 0 1-.1.4 0 .7-.1.9-.2v-2c-.1.1-.3.2-.6.2s-.5.1-.7.1c-.5 0-.9-.1-1.1-.4-.2-.3-.3-.7-.3-1.1v-4.2h2.6v-2h-2.6v-2.8h-2.4v2.8h-2v2h2zM484.7 102.7h2.4v-9.6h-2.4v9.6zm.1-11.8c.3.3.6.4 1.1.4s.8-.1 1.1-.4c.3-.3.5-.6.5-1s-.1-.8-.5-1c-.3-.3-.7-.4-1.1-.4s-.8.1-1.1.4c-.3.3-.4.6-.4 1 0 .3.1.7.4 1zM490.2 100c.3.6.6 1.2 1.1 1.6.5.4 1 .8 1.7 1 .6.2 1.3.4 2 .4s1.4-.1 2-.4c.6-.2 1.2-.6 1.7-1s.8-1 1.1-1.6c.3-.6.4-1.3.4-2.1s-.1-1.5-.4-2.1c-.3-.6-.6-1.2-1.1-1.6-.5-.4-1-.8-1.7-1-.6-.2-1.3-.4-2-.4s-1.4.1-2 .4c-.6.2-1.2.6-1.7 1s-.8 1-1.1 1.6c-.3.6-.4 1.3-.4 2.1s.1 1.5.4 2.1zm2.2-3.2c.1-.3.3-.7.6-.9.2-.3.5-.5.9-.6.3-.2.7-.2 1.2-.2s.8.1 1.2.2l.9.6.6.9c.1.3.2.7.2 1.1 0 .4-.1.7-.2 1.1-.1.3-.3.7-.6.9-.2.3-.5.5-.9.6-.3.2-.7.2-1.2.2s-.8-.1-1.2-.2l-.9-.6-.6-.9c-.1-.3-.2-.7-.2-1.1 0-.4 0-.7.2-1.1zM502.8 102.7h2.4v-5.2c0-.3 0-.6.1-.9.1-.3.2-.6.4-.8.2-.2.4-.4.7-.5.3-.1.6-.2 1-.2s.7.1 1 .3c.2.2.4.4.5.7.1.3.2.6.2.9V102.8h2.4v-6.1c0-.5-.1-1-.2-1.4-.1-.5-.3-.9-.6-1.2-.3-.3-.6-.6-1.1-.8-.4-.2-1-.3-1.6-.3-.8 0-1.4.2-1.9.5-.5.4-.8.8-1 1.2v-1.5h-2.3v9.5zM514.7 101.9c.1.2.2.3.3.5.1.1.3.2.5.3.2.1.4.1.6.1.4 0 .8-.2 1.1-.5.3-.3.5-.7.5-1.1 0-.4-.2-.8-.5-1.1-.3-.3-.7-.4-1.1-.4-.4 0-.8.2-1.1.5-.3.3-.5.7-.5 1.1.1.2.1.4.2.6z"/></svg>