<svg xmlns="http://www.w3.org/2000/svg" viewBox="0 0 678 110" enable-background="new 0 0 678 110"><path d="M80.5 89.9h1.7l6.1 14.2H86l-1.4-3.5h-6.7l-1.4 3.5h-2.2l6.2-14.2zm3.4 9l-2.6-6.5-2.7 6.5h5.3zm6.3-4.3H92v1.5c.5-1 1.7-1.7 3.1-1.7 1.8 0 3.4 1.1 3.4 3.6v6.1h-1.8v-5.6c0-1.8-1-2.4-2.2-2.4-1.5 0-2.6 1-2.6 3.2v4.9h-1.8v-9.6zm18.6-4.7c.7 0 1.3.6 1.3 1.3 0 .7-.6 1.3-1.3 1.3s-1.3-.6-1.3-1.3c-.1-.7.5-1.3 1.3-1.3zm-.9 4.7h1.8v9.5h-1.8v-9.5zm5 0h1.8v1.5c.5-1 1.7-1.7 3.1-1.7 1.8 0 3.4 1.1 3.4 3.6v6.1h-1.8v-5.6c0-1.8-1-2.4-2.2-2.4-1.5 0-2.6 1-2.6 3.2v4.9h-1.8v-9.6zm16.7 1.6H127v4.3c0 1.1 0 2.2 1.4 2.2.4 0 .9-.1 1.3-.3v1.6c-.4.2-1.3.3-1.6.3-2.8 0-2.8-1.7-2.8-3.2v-4.9h-2.1v-1.6h2.1V92h1.8v2.7h2.6l-.1 1.5zm3.7 3.8c0 1.7 1.5 2.8 3.2 2.8 1.1 0 1.9-.6 2.6-1.4l1.4 1c-1 1.3-2.4 1.9-4.2 1.9-3 0-4.9-2.2-4.9-5s2.1-5 4.9-5c3.3 0 4.6 2.6 4.6 5v.6l-7.6.1zm5.7-1.4c0-1.6-.9-2.8-2.7-2.8-1.8 0-2.9 1.5-2.9 2.8h5.6zm4.5-4h1.8v1.5c.5-1 1.7-1.7 2.8-1.7.3 0 .6 0 .8.1l-.1 1.9c-.3-.1-.6-.1-.9-.1-1.8 0-2.7 1-2.7 3v4.8h-1.8l.1-9.5zm7.7 1.2c1-.9 2.4-1.4 3.8-1.4 2.8 0 4 1.5 4 3.2v4.8c0 .7 0 1.2.1 1.7h-1.6c0-.5-.1-1-.1-1.4-.8 1.2-1.9 1.7-3.3 1.7-1.8 0-3.3-1-3.3-2.8 0-2.4 2.3-3.3 5.2-3.3h1.3v-.4c0-1-.7-2-2.3-2-1.4 0-2 .6-2.7 1.1l-1.1-1.2zm5.1 3.7c-1.7 0-3.8.3-3.8 1.8 0 1.1.8 1.5 2 1.5 2 0 2.7-1.5 2.7-2.8v-.6h-.9v.1zm12.5-2.4c-.7-.7-1.4-1.1-2.4-1.1-2 0-3 1.6-3 3.4 0 1.8 1.2 3.2 3.1 3.2 1 0 1.7-.4 2.3-1.1l1.3 1.3c-.9 1-2.2 1.5-3.6 1.5-2.9 0-5-2-5-4.9s2-5 5-5c1.4 0 2.7.5 3.6 1.5l-1.3 1.2zm9.1-.9h-2.6v4.3c0 1.1 0 2.2 1.4 2.2.4 0 .9-.1 1.3-.3v1.6c-.4.2-1.3.3-1.6.3-2.8 0-2.8-1.7-2.8-3.2v-4.9h-2.1v-1.6h2.1V92h1.8v2.7h2.6l-.1 1.5zm3.4-6.3c.7 0 1.3.6 1.3 1.3 0 .7-.6 1.3-1.3 1.3s-1.3-.6-1.3-1.3c0-.7.6-1.3 1.3-1.3zm-.9 4.7h1.8v9.5h-1.8v-9.5zm3.9 0h2.1l2.8 7.3 2.7-7.3h1.9l-3.7 9.5h-2l-3.8-9.5zm12.6 5.4c0 1.7 1.5 2.8 3.2 2.8 1.1 0 1.9-.6 2.6-1.4l1.4 1c-1 1.3-2.4 1.9-4.2 1.9-3 0-4.9-2.2-4.9-5s2.1-5 4.9-5c3.3 0 4.6 2.6 4.6 5v.6l-7.6.1zm5.7-1.4c0-1.6-.9-2.8-2.7-2.8-1.8 0-2.9 1.5-2.9 2.8h5.6zm12.3-4v10.8c0 1 0 3.4-2.9 3.4-.4 0-.8 0-1.2-.2l.2-1.7c.2.1.5.2.7.2 1 0 1.3-.6 1.3-1.8V94.6h1.9zm-.9-4.7c.7 0 1.3.6 1.3 1.3 0 .7-.6 1.3-1.3 1.3s-1.3-.6-1.3-1.3c0-.7.6-1.3 1.3-1.3zm8.7 4.5c2.8 0 5 2.2 5 5s-2.2 5-5 5-5-2.2-5-5c-.1-2.8 2.1-5 5-5zm0 8.3c1.9 0 3.1-1.4 3.1-3.3s-1.2-3.3-3.1-3.3-3.1 1.4-3.1 3.3c-.1 1.9 1.1 3.3 3.1 3.3zm16 1.4h-1.8v-1.5c-.5 1-1.7 1.7-3.1 1.7-1.8 0-3.4-1.1-3.4-3.6v-6.1h1.8v5.6c0 1.8 1 2.4 2.2 2.4 1.5 0 2.6-1 2.6-3.2v-4.9h1.8l-.1 9.6zm3.2-9.5h1.8v1.5c.5-1 1.7-1.7 2.8-1.7.3 0 .6 0 .8.1l-.1 1.9c-.3-.1-.6-.1-.9-.1-1.8 0-2.7 1-2.7 3v4.8h-1.8l.1-9.5zm7.7 0h1.8v1.5c.5-1 1.7-1.7 3.1-1.7 1.8 0 3.4 1.1 3.4 3.6v6.1h-1.8v-5.6c0-1.8-1-2.4-2.2-2.4-1.5 0-2.6 1-2.6 3.2v4.9h-1.8v-9.6zm12.9 5.4c0 1.7 1.5 2.8 3.2 2.8 1.1 0 1.9-.6 2.6-1.4l1.4 1c-1 1.3-2.4 1.9-4.2 1.9-3 0-4.9-2.2-4.9-5s2.1-5 4.9-5c3.3 0 4.6 2.6 4.6 5v.6l-7.6.1zm5.7-1.4c0-1.6-.9-2.8-2.7-2.8-1.8 0-2.9 1.5-2.9 2.8h5.6zm3-4h2.1l2.8 7.4 2.7-7.4h1.9l-4.5 11.5c-.6 1.6-1.3 2.8-3.2 2.8-.5 0-1.1-.1-1.6-.3l.2-1.6c.3.1.7.2 1.1.2 1.1 0 1.5-.6 1.8-1.6l.6-1.5-3.9-9.5zm22.6 1.6h-2.6v4.3c0 1.1 0 2.2 1.4 2.2.4 0 .9-.1 1.3-.3v1.6c-.4.2-1.3.3-1.6.3-2.8 0-2.8-1.7-2.8-3.2v-4.9h-2.1v-1.6h2.1V92h1.8v2.7h2.6l-.1 1.5zm2.5-7.2h1.8v7.1c.5-1 1.7-1.7 3.1-1.7 1.8 0 3.4 1.1 3.4 3.6v6.1h-1.8v-5.6c0-1.8-1-2.4-2.2-2.4-1.5 0-2.6 1-2.6 3.2v4.9h-1.8V89h.1zm11.6 5.6h1.8v1.5c.5-1 1.7-1.7 2.8-1.7.3 0 .6 0 .8.1l-.1 1.9c-.3-.1-.6-.1-.9-.1-1.8 0-2.7 1-2.7 3v4.8h-1.8l.1-9.5zm12.1-.2c2.8 0 5 2.2 5 5s-2.2 5-5 5-5-2.2-5-5 2.2-5 5-5zm0 8.3c1.9 0 3.1-1.4 3.1-3.3s-1.2-3.3-3.1-3.3c-1.9 0-3.1 1.4-3.1 3.3s1.2 3.3 3.1 3.3zm16.1 1.4h-1.8v-1.5c-.5 1-1.7 1.7-3.1 1.7-1.8 0-3.4-1.1-3.4-3.6v-6.1h1.8v5.6c0 1.8 1 2.4 2.2 2.4 1.5 0 2.6-1 2.6-3.2v-4.9h1.8l-.1 9.6zm12.6-.1c0 2.9-2.1 4.9-5.2 4.9-1.8 0-3.3-.5-4.6-1.7l1.2-1.5c.9 1 2 1.5 3.4 1.5 2.7 0 3.4-1.7 3.4-3.3v-1.4h-.1c-.7 1.1-2 1.7-3.3 1.7-2.8 0-4.8-2.1-4.8-4.9 0-2.8 1.9-5 4.8-5 1.3 0 2.6.6 3.3 1.6v-1.4h1.8l.1 9.5zm-8-4.6c0 1.9 1.2 3.2 3.1 3.2 1.9 0 3.1-1.3 3.1-3.2 0-1.9-1.2-3.3-3.1-3.3s-3.1 1.3-3.1 3.3zM351.9 89h1.8v7.1c.5-1 1.7-1.7 3.1-1.7 1.8 0 3.4 1.1 3.4 3.6v6.1h-1.8v-5.6c0-1.8-1-2.4-2.2-2.4-1.5 0-2.6 1-2.6 3.2v4.9h-1.8l.1-15.2zm22.5 7.2h-2.6v4.3c0 1.1 0 2.2 1.4 2.2.4 0 .9-.1 1.3-.3v1.6c-.4.2-1.3.3-1.6.3-2.8 0-2.8-1.7-2.8-3.2v-4.9H368v-1.6h2.1V92h1.8v2.7h2.6v1.5h-.1zM377 89h1.8v7.1c.5-1 1.7-1.7 3.1-1.7 1.8 0 3.4 1.1 3.4 3.6v6.1h-1.8v-5.6c0-1.8-1-2.4-2.2-2.4-1.5 0-2.6 1-2.6 3.2v4.9H377V89zm12.9 11c0 1.7 1.5 2.8 3.2 2.8 1.1 0 1.9-.6 2.6-1.4l1.4 1c-1 1.3-2.4 1.9-4.2 1.9-3 0-4.9-2.2-4.9-5s2.1-5 4.9-5c3.3 0 4.6 2.6 4.6 5v.6l-7.6.1zm5.7-1.4c0-1.6-.9-2.8-2.7-2.8-1.8 0-2.9 1.5-2.9 2.8h5.6zm10.4-4h1.7v1.5c.2-.6 1.3-1.7 3-1.7 1.4 0 2.4.6 3 1.8.6-1.2 1.9-1.8 3-1.8 2.9 0 3.6 2.1 3.6 4.2v5.5h-1.8v-5.3c0-1.4-.3-2.8-2-2.8s-2.4 1.2-2.4 2.9v5.2h-1.8v-5c0-1.8-.3-3.1-2-3.1-1.3 0-2.5 1-2.5 3.1v4.9H406v-9.4zm17.4 1.2c1-.9 2.4-1.4 3.8-1.4 2.8 0 4 1.5 4 3.2v4.8c0 .7 0 1.2.1 1.7h-1.6c0-.5-.1-1-.1-1.4-.8 1.2-1.9 1.7-3.3 1.7-1.8 0-3.3-1-3.3-2.8 0-2.4 2.3-3.3 5.2-3.3h1.3v-.4c0-1-.7-2-2.3-2-1.4 0-2 .6-2.7 1.1l-1.1-1.2zm5.1 3.7c-1.7 0-3.8.3-3.8 1.8 0 1.1.8 1.5 2 1.5 2 0 2.7-1.5 2.7-2.8v-.6h-.9v.1zm15.1 4.5c0 2.9-2.1 4.9-5.2 4.9-1.8 0-3.3-.5-4.6-1.7l1.2-1.5c.9 1 2 1.5 3.4 1.5 2.7 0 3.4-1.7 3.4-3.3v-1.4h-.1c-.7 1.1-2 1.7-3.3 1.7-2.8 0-4.8-2.1-4.8-4.9 0-2.8 1.9-5 4.8-5 1.3 0 2.6.6 3.3 1.6v-1.4h1.8v9.5h.1zm-8-4.6c0 1.9 1.2 3.2 3.1 3.2s3.1-1.3 3.1-3.2c0-1.9-1.2-3.3-3.1-3.3s-3.1 1.3-3.1 3.3zm12.2-9.5c.7 0 1.3.6 1.3 1.3 0 .7-.6 1.3-1.3 1.3s-1.3-.6-1.3-1.3c0-.7.6-1.3 1.3-1.3zm-.9 4.7h1.8v9.5h-1.8v-9.5zm11.7 2.5c-.7-.7-1.4-1.1-2.4-1.1-2 0-3 1.6-3 3.4 0 1.8 1.2 3.2 3.1 3.2 1 0 1.7-.4 2.3-1.1l1.3 1.3c-.9 1-2.2 1.5-3.6 1.5-2.9 0-5-2-5-4.9s2-5 5-5c1.4 0 2.7.5 3.6 1.5l-1.3 1.2zm13.8-2.7c2.8 0 5 2.2 5 5s-2.2 5-5 5-5-2.2-5-5 2.2-5 5-5zm0 8.3c1.9 0 3.1-1.4 3.1-3.3s-1.2-3.3-3.1-3.3-3.1 1.4-3.1 3.3 1.2 3.3 3.1 3.3zm8.4-6.5h-2v-1.6h2v-2.1c0-2.5.9-3.8 3.2-3.8.4 0 .8 0 1.3.1l-.2 1.6c-.3-.1-.7-.2-1-.2-1.3 0-1.5.8-1.5 2.1v2.2h2.1v1.6h-2.2v7.9h-1.8l.1-7.8zm12.8-6.3h2.5l7.8 11.6V89.9h1.9v14.2h-2.4l-7.9-11.6v11.6h-1.9V89.9zm20.3 4.5c2.8 0 5 2.2 5 5s-2.2 5-5 5-5-2.2-5-5 2.2-5 5-5zm0 8.3c1.9 0 3.1-1.4 3.1-3.3s-1.2-3.3-3.1-3.3c-1.9 0-3.1 1.4-3.1 3.3s1.2 3.3 3.1 3.3zm7.7-8.1h1.8v1.5c.5-1 1.7-1.7 2.8-1.7.3 0 .6 0 .8.1l-.1 1.9c-.3-.1-.6-.1-.9-.1-1.8 0-2.7 1-2.7 3v4.8h-1.8l.1-9.5zm13.5 1.6h-2.6v4.3c0 1.1 0 2.2 1.4 2.2.4 0 .9-.1 1.3-.3v1.6c-.4.2-1.3.3-1.6.3-2.8 0-2.8-1.7-2.8-3.2v-4.9h-2.1v-1.6h2.1V92h1.8v2.7h2.6l-.1 1.5zm2.5-7.2h1.8v7.1c.5-1 1.7-1.7 3.1-1.7 1.8 0 3.4 1.1 3.4 3.6v6.1h-1.8v-5.6c0-1.8-1-2.4-2.2-2.4-1.5 0-2.6 1-2.6 3.2v4.9h-1.8l.1-15.2zm11.6 0h1.8v15.1h-1.8V89zm5 6.8c1-.9 2.4-1.4 3.8-1.4 2.8 0 4 1.5 4 3.2v4.8c0 .7 0 1.2.1 1.7h-1.6c0-.5-.1-1-.1-1.4-.8 1.2-1.9 1.7-3.3 1.7-1.8 0-3.3-1-3.3-2.8 0-2.4 2.3-3.3 5.2-3.3h1.3v-.4c0-1-.7-2-2.3-2-1.4 0-2 .6-2.7 1.1l-1.1-1.2zm5.1 3.7c-1.7 0-3.8.3-3.8 1.8 0 1.1.8 1.5 2 1.5 2 0 2.7-1.5 2.7-2.8v-.6h-.9zm5.8-4.9h1.8v1.5c.5-1 1.7-1.7 3.1-1.7 1.8 0 3.4 1.1 3.4 3.6v6.1h-1.8v-5.6c0-1.8-1-2.4-2.2-2.4-1.5 0-2.6 1-2.6 3.2v4.9H565l.1-9.6zm21 9.5h-1.8v-1.4c-.7 1-2 1.6-3.3 1.6-2.9 0-4.8-2.2-4.8-5s1.9-5 4.8-5c1.4 0 2.7.6 3.3 1.6v-7h1.8v15.2zm-1.8-4.7c0-1.9-1.2-3.3-3.1-3.3s-3.1 1.4-3.1 3.3 1.2 3.3 3.1 3.3 3.1-1.4 3.1-3.3zm4.2 3.1l5.4-6.3h-5.2v-1.6h7.4v1.6l-5.4 6.3h5.7v1.6h-7.9v-1.6z"/><path fill="#fff" d="M598.7 102.9c0-.7.6-1.3 1.3-1.3.7 0 1.3.6 1.3 1.3s-.6 1.3-1.3 1.3c-.7 0-1.3-.6-1.3-1.3z"/><path fill="#010101" d="M321.7 2.1h1.8v4.1c-.6.1-1.2 0-1.7 0-.1-1.2-.9-1.8-1.8-2.2-1.5-.7-3.8-.9-5.8-.7-1 .1-2 .4-2.3 1-.4.9.7 1.2 1.5 1.4s1.4.2 2 .2c2.8.3 5.7.4 7.6 1.8.9.6 1.6 1.7 1.4 3.1-.1 1.3-1 2.1-2 2.6-1 .6-2.3.9-3.6 1-.7.1-1.4.2-2 .1-1.4-.1-2.7-.4-3.9-.7-.5-.1-.9-.2-1.4-.4-.2-.1-.4-.2-.9-.2-.1.2 0 .5 0 .8h-2.1V9.5h2c.1 1.2.8 1.8 1.6 2.3.9.5 1.9.8 3 .9 2.3.3 5.1.2 6-1.5-.1-.6-.5-.8-.9-1-1.3-.6-3.1-.7-4.7-.8-2.2-.2-4.4-.6-5.8-1.5-.8-.5-1.3-1.3-1.3-2.5.1-1.1.7-1.8 1.3-2.3 1.3-1 3.4-1.7 5.7-1.8 1.9-.1 3.6.4 5.1.9.2.1.5.2.7.3.2.1.4.3.7.2-.1-.1-.2-.4-.2-.6m13.7-.7c2.6-.1 4.8.6 6.5 1.5.9.5 1.5 1 2.2 1.8.6.7 1.1 1.7 1.2 2.8.2 2.5-1.2 4.2-2.6 5.3-.8.6-1.7 1-2.7 1.4-1 .4-2.2.6-3.4.6-.7 0-1.4 0-2-.1-1.8-.2-3.3-.7-4.6-1.5-.9-.5-1.6-1.1-2.2-1.8-.6-.7-1.1-1.7-1.2-2.8-.1-1.3.2-2.3.7-3.2 1-1.7 2.6-2.8 4.7-3.4.5-.2 1-.3 1.6-.4.5-.1 1.1-.2 1.8-.2M332 4.9c-.6.6-1.2 1.4-1.5 2.3-.1.3-.1.8-.1 1 .1 1.5.9 2.6 1.7 3.3 1 .7 2.3 1.2 3.9 1.2 1.5 0 2.8-.6 3.8-1.4.9-.7 1.7-1.8 1.6-3.4-.1-1.6-.9-2.6-1.8-3.3-1-.7-2.3-1.2-3.9-1.2-1.4.2-2.8.8-3.7 1.5m14.9-2.4h5.5c.2 0 .6-.1.7 0 .2.1.4.3.6.4l7.8 6.9V4.5c-.2-.7-1.6-.3-2.5-.4V2.4h7.3v1.7h-1c-.6 0-1.1-.1-1.2.3-.1.3-.1.8-.1 1.2v8.7h-2.6c-.1 0-.6-.4-.6-.5-2.9-2.6-5.9-5.3-8.9-7.8v5.8c0 .3-.1.7.1.8.1.1.9.1 1.2.1h1.2v1.6h-7.3v-1.6h1.2c.4 0 .9.1 1-.1.1-.1.1-.7.1-1V5.3c0-.3.1-.9 0-1-.4-.3-.9-.3-1.3-.3h-1.2V2.5m20.7 0h8.6v1.7h-.7c-.2 0-.5-.1-.6.1-.1.2.1.4.2.6.9 1 1.7 1.8 2.6 2.8l.2.2.2-.2c.9-1 1.7-2 2.7-2.9l.2-.2c0-.4-1-.2-1.4-.2v-2h6.9v1.7H385c-.2 0-.4-.1-.5 0-.1 0-.2.2-.4.4-1.4 1.4-2.6 2.8-3.9 4.1-.4.4-.7.7-1 1.1l-.4.4c-.1.2 0 .4 0 .7v1.3c0 .2 0 .5.1.6.1.2.7.1 1.1.1h1.3v1.5H373v-1.5h1.2c.3 0 .9.1 1-.1.1-.2.1-.9.1-1.3v-.7c0-.2.1-.5 0-.7 0-.1-.2-.2-.3-.4-1.6-1.7-3.1-3.4-4.7-5.1-.1-.1-.2-.3-.4-.4-.1-.1-.4 0-.6 0h-1.6c-.1-.4-.1-1.1-.1-1.6"/><path fill="#151B1C" d="M60.9 35.4c-2.2-1-4.6-1.4-7-1.4-4 0-8.5 1.7-8.5 6.7 0 3.2 1.7 4.8 5.7 7.7 4.5 3.3 7.1 5.8 7.1 10.4 0 6.8-5.5 9.6-11.8 9.6-3.1 0-6.9-.8-9.6-2.2l.8-2.4c2.7 1.4 6 2.2 8.8 2.2 5 0 8.9-2.1 8.9-6.9 0-3.5-2.1-5.7-6.3-8.6-4.1-2.8-6.5-5.2-6.5-9.5 0-6.8 5.9-9.3 11.4-9.3 2.7 0 5.4.5 7.7 1.4l-.7 2.3zM80 32.1h17.1l-.5 2.4H82.3l-2.9 13.6h13.9l-.5 2.4H78.9l-3.1 14.7h15.7l-.5 2.4H72.5L80 32.1zm34.3 0h9.5c5.6 0 10.3 2.6 10.3 8.5 0 8-6.4 11.5-13.9 11.5h-7.3l-3.3 15.7h-2.8l7.5-35.7zm-.9 17.5h7.1c5 0 10.7-1.8 10.7-8.7 0-4.8-3.8-6.3-8.1-6.3h-6.5l-3.2 15zm26.9 18.2h-3.2l21.5-35.6h3.9l4.7 35.6h-3l-1.4-11.3h-15.7l-6.8 11.3zm8.1-13.9h14.1l-2.3-19.6-11.8 19.6zm40.7-21.8h10.3c5.7 0 9.8 2.5 9.8 8 0 5.9-3.6 8.8-8.4 9.8l-.1.1c1.9.5 2.9 1.8 3.4 5 .7 4.1 1.3 8.4 2.1 12.7h-2.9c-.6-3.6-1.3-8.7-1.9-12.2-.6-3.7-2.1-4.5-5.9-4.5H188l-3.6 16.8h-2.8l7.5-35.7zm-.6 16.4h7.6c6.3 0 10.3-2.4 10.3-8.2 0-3.9-2.8-5.8-7.6-5.8h-7.3l-3 14zm30.4 19.3h-3.2l21.5-35.6h3.9l4.7 35.6h-3l-1.4-11.3h-15.7l-6.8 11.3zm8.1-13.9h14.1l-2.3-19.6L227 53.9zm42.4-19.3h-10.7l.5-2.4h24l-.5 2.4h-10.4l-7 33.2h-2.8l6.9-33.2zm28.3-2.5h17.1l-.5 2.4H300l-2.9 13.6H311l-.5 2.4h-13.9l-3.1 14.7h15.7l-.5 2.4h-18.5l7.5-35.5zm62.3 2.5h-10.7l.5-2.4h24l-.5 2.4h-10.4l-7 33.2H353l7-33.2zm33 33.7c-8.3 0-12.4-5.4-12.4-13.2 0-11.9 6.8-23.6 18.6-23.6 8.4 0 12.3 5.4 12.3 13.1 0 10.6-5.8 23.7-18.5 23.7zm15.6-23.2c0-6.3-3-11.1-9.7-11.1-9.4 0-15.5 10.2-15.5 20.8 0 6.3 3 11.1 9.8 11.1 10.4 0 15.4-11.5 15.4-20.8zm44.3-9.5c-2.1-1-4.7-1.6-7.6-1.6-11.1 0-17.3 9.2-17.3 19.5 0 6.8 4 12.5 12.2 12.5 2.7 0 4.9-.4 6.9-1.2l2.8-13.1h-8.2l.5-2.4h11.1l-3.7 17.3c-3 1.4-6.1 1.9-9.4 1.9-10.3 0-15-6.8-15-14.8 0-11.7 7.4-22 20.3-22 3.3 0 6.2.5 8.5 1.5l-1.1 2.4zm21.5-3.5h17.1l-.5 2.4h-14.3l-2.9 13.6h13.9l-.5 2.4h-13.9l-3.1 14.7h15.7l-.5 2.4h-18.5l7.5-35.5zm40.1 2.5h-10.7l.5-2.4h24l-.5 2.4h-10.4l-7 33.2h-2.8l6.9-33.2zm28.4-2.5h2.8l-3.4 16h18.2l3.4-16h2.8l-7.5 35.6h-2.8l3.6-17.2h-18.2l-3.6 17.2h-2.8l7.5-35.6zm41.8 0h17.1l-.5 2.4H587l-2.9 13.6H598l-.5 2.4h-13.9l-3.1 14.7h15.7l-.5 2.4h-18.5l7.5-35.5zm35 0H630c5.7 0 9.8 2.5 9.8 8 0 5.9-3.6 8.8-8.4 9.8v.1c1.9.5 2.9 1.8 3.4 5 .7 4.1 1.4 8.4 2.1 12.7H634c-.6-3.6-1.3-8.7-1.9-12.2-.6-3.7-2.1-4.5-5.9-4.5h-7.5L615 67.8h-2.8l7.5-35.7zm-.6 16.4h7.6c6.3 0 10.3-2.4 10.3-8.2 0-3.9-2.8-5.8-7.6-5.8H622l-2.9 14z"/><path d="M599.3 101.8c.3 0 .6.1.9.4s.4.5.4.9-.1.6-.4.9c-.3.2-.5.4-.9.4s-.6-.1-.9-.4c-.3-.2-.4-.5-.4-.9s.1-.6.4-.9.5-.4.9-.4z"/></svg>