<svg xmlns="http://www.w3.org/2000/svg" viewBox="0 0 678 110" enable-background="new 0 0 678 110"><path fill="#fff" d="M180.9 66l-5.2-3.9c-.6 1-1.5 1.7-2.4 2.2-1 .5-2.1.8-3.4.8-1.1 0-2.2-.2-3.1-.7-1-.5-1.8-1.1-2.5-1.9s-1.3-1.8-1.7-2.9c-.4-1.1-.6-2.3-.6-3.7 0-1.3.2-2.5.6-3.6.4-1.1 1-2.1 1.7-2.9.7-.8 1.6-1.4 2.6-1.9s2.1-.7 3.3-.7c1.2 0 2.2.2 3.1.6s1.6 1 2.3 1.7l4.8-3.9c-.6-.8-1.3-1.4-2.1-2-.8-.5-1.6-1-2.4-1.3s-1.7-.6-2.6-.7-1.7-.2-2.5-.2c-2.2 0-4.3.3-6.1 1-1.9.7-3.5 1.7-4.8 3-1.4 1.3-2.4 2.9-3.2 4.7s-1.1 3.9-1.1 6.2.4 4.3 1.1 6.2c.8 1.8 1.8 3.4 3.2 4.7 1.4 1.3 3 2.3 4.8 3 1.9.7 3.9 1 6.1 1 1.9 0 3.8-.4 5.7-1.2 1.7-.7 3.2-1.9 4.4-3.6zm27.6-20.8c-1.4-1.3-3-2.3-4.8-3-1.9-.7-3.9-1-6.1-1-2.2 0-4.3.3-6.1 1-1.9.7-3.5 1.7-4.8 3-1.4 1.3-2.4 2.9-3.2 4.7s-1.1 3.9-1.1 6.2c0 2.3.4 4.3 1.1 6.2.8 1.8 1.8 3.4 3.2 4.7 1.4 1.3 3 2.3 4.8 3 1.9.7 3.9 1 6.1 1 2.2 0 4.3-.3 6.1-1 1.9-.7 3.5-1.7 4.8-3 1.4-1.3 2.4-2.9 3.2-4.7.8-1.8 1.1-3.9 1.1-6.2s-.4-4.3-1.1-6.2c-.8-1.9-1.9-3.4-3.2-4.7zm-2.8 14.5c-.4 1.1-1 2.1-1.8 2.9-.8.8-1.7 1.4-2.8 1.9-1.1.5-2.3.7-3.6.7s-2.5-.2-3.6-.7c-1.1-.5-2-1.1-2.8-1.9-.8-.8-1.4-1.8-1.8-2.9-.4-1.1-.6-2.3-.6-3.7 0-1.3.2-2.5.6-3.6.4-1.1 1-2.1 1.8-2.9.8-.8 1.7-1.4 2.8-1.9 1.1-.5 2.3-.7 3.6-.7s2.5.2 3.6.7c1.1.5 2 1.1 2.8 1.9.8.8 1.4 1.8 1.8 2.9.4 1.1.6 2.3.6 3.6 0 1.4-.2 2.6-.6 3.7zm27.8.7l-6.6-18.5h-9.4v28.3h6.2V48.5h.1l7.2 21.7h4.8l7.4-21.7h.1v21.7h6.2V41.9h-9.4l-6.6 18.5zm42.4 4h-13.7v-5.8h12.3v-5.8h-12.3v-5.3h13v-5.8H256V70h20v-5.6zm10.7 5.8h6.2V47.4h8.1v-5.5h-22.4v5.5h8.1v22.8zm50.3-.5c1.8-.8 3.4-2 4.6-3.7l-5.2-3.9c-.6 1-1.5 1.7-2.4 2.2-1 .5-2.1.8-3.4.8-1.1 0-2.2-.2-3.1-.7-1-.5-1.8-1.1-2.5-1.9s-1.3-1.8-1.7-2.9c-.4-1.1-.6-2.3-.6-3.7 0-1.3.2-2.5.6-3.6.4-1.1 1-2.1 1.7-2.9.7-.8 1.6-1.4 2.6-1.9s2.1-.7 3.3-.7 2.2.2 3.1.6c.9.4 1.6 1 2.3 1.7l4.8-3.9c-.6-.8-1.3-1.4-2.1-2-.8-.5-1.6-1-2.4-1.3-.8-.3-1.7-.6-2.6-.7-.9-.1-1.7-.2-2.5-.2-2.2 0-4.3.3-6.1 1-1.9.7-3.5 1.7-4.8 3-1.4 1.3-2.4 2.9-3.2 4.7-.8 1.8-1.1 3.9-1.1 6.2s.4 4.3 1.1 6.2c.8 1.8 1.8 3.4 3.2 4.7 1.4 1.3 3 2.3 4.8 3 1.9.7 3.9 1 6.1 1 1.8.1 3.7-.3 5.5-1.1zM369 45.2c-1.4-1.3-3-2.3-4.8-3-1.9-.7-3.9-1-6.1-1-2.2 0-4.3.3-6.1 1s-3.5 1.7-4.8 3c-1.4 1.3-2.4 2.9-3.2 4.7-.8 1.8-1.1 3.9-1.1 6.2 0 2.3.4 4.3 1.1 6.2.8 1.8 1.8 3.4 3.2 4.7 1.4 1.3 3 2.3 4.8 3s3.9 1 6.1 1c2.2 0 4.3-.3 6.1-1 1.9-.7 3.5-1.7 4.8-3 1.4-1.3 2.4-2.9 3.2-4.7.8-1.8 1.1-3.9 1.1-6.2s-.4-4.3-1.1-6.2c-.8-1.9-1.8-3.4-3.2-4.7zm-2.8 14.5c-.4 1.1-1 2.1-1.8 2.9-.8.8-1.7 1.4-2.8 1.9-1.1.5-2.3.7-3.6.7-1.3 0-2.5-.2-3.6-.7-1.1-.5-2-1.1-2.8-1.9-.8-.8-1.4-1.8-1.8-2.9-.4-1.1-.6-2.3-.6-3.7 0-1.3.2-2.5.6-3.6.4-1.1 1-2.1 1.8-2.9.8-.8 1.7-1.4 2.8-1.9 1.1-.5 2.3-.7 3.6-.7 1.3 0 2.5.2 3.6.7 1.1.5 2 1.1 2.8 1.9.8.8 1.4 1.8 1.8 2.9.4 1.1.6 2.3.6 3.6.1 1.4-.2 2.6-.6 3.7zm18.2-17.8h-6.2v28.3H396v-5.8h-11.6V41.9zm33 22.5h-11.6V41.9h-6.2v28.3h17.8v-5.8zm9.7-22.5h-6.2v28.3h6.2V41.9zm32.4 14.2c0-2.6-.4-4.8-1.3-6.6-.9-1.8-2.1-3.3-3.6-4.4-1.5-1.1-3.3-2-5.3-2.5s-4.2-.8-6.5-.8h-9.4v28.3h10.2c2.1 0 4.1-.3 6-.9 1.9-.6 3.6-1.5 5.1-2.7s2.6-2.7 3.5-4.4c.8-1.7 1.3-3.7 1.3-6zm-7.3 3.8c-.5 1.1-1.2 2-2.1 2.7-.9.7-2 1.2-3.2 1.5-1.2.3-2.6.4-4 .4h-3.2V47.6h3.7c1.3 0 2.6.2 3.7.5 1.2.3 2.2.8 3.1 1.5.9.7 1.6 1.5 2.1 2.5s.8 2.2.8 3.6c-.1 1.7-.4 3.1-.9 4.2zm32.1 4.5h-13.7v-5.8h12.3v-5.8h-12.3v-5.3h13v-5.8h-19.2V70h20l-.1-5.6zm20.9-6.2c2-.4 3.5-1.3 4.6-2.7 1-1.4 1.6-3.1 1.6-5.1 0-1.7-.3-3-.9-4.1-.6-1.1-1.3-2-2.3-2.6-1-.7-2.1-1.1-3.4-1.4-1.3-.3-2.7-.4-4.1-.4h-11v28.3h6.2V58.9h3.1l5.9 11.3h7.5l-7.2-12zm-.8-6c-.3.4-.8.7-1.3.9-.5.2-1.1.3-1.7.4s-1.2.1-1.8.1h-3.7v-6.4h4.1c.6 0 1.1 0 1.7.1s1.1.2 1.6.5c.5.2.8.6 1.1 1 .3.4.4 1 .4 1.7.1.7-.1 1.3-.4 1.7zM181 92l-6.2 14.2h2.8l1.3-3.2h6.1l1.3 3.2h2.9l-6-14.2H181zm-1.2 8.8L182 95l2.2 5.8h-4.4zm31.6-3.2c-.3-.4-.6-.7-1.1-.9s-1-.3-1.6-.3c-.7 0-1.3.1-1.9.4s-1 .7-1.3 1.4c-.5-1.2-1.5-1.8-3-1.8-.8 0-1.4.2-1.9.5-.5.4-.8.8-1 1.2v-1.5h-2.3v9.6h2.4V101c0-.3 0-.6.1-.9.1-.3.2-.6.4-.8.2-.2.4-.4.7-.5.3-.1.6-.2 1-.2.6 0 1 .2 1.3.5.3.4.4.8.4 1.4v5.7h2.4V101c0-.3 0-.6.1-.9.1-.3.2-.6.4-.8l.6-.6c.3-.1.6-.2.9-.2.4 0 .7.1.9.2.2.1.4.3.5.5.1.2.2.4.3.7.1.3.1.6.1.8v5.4h2.4v-5.7c0-.6-.1-1.1-.2-1.6s-.4-.9-.6-1.2zm12.2.1c-.5-.4-1-.8-1.7-1-.6-.2-1.3-.4-2-.4s-1.4.1-2 .4c-.6.2-1.2.6-1.7 1s-.8 1-1.1 1.6c-.3.6-.4 1.3-.4 2.1s.1 1.4.4 2.1c.3.6.6 1.2 1.1 1.6.5.4 1 .8 1.7 1s1.3.4 2 .4 1.4-.1 2-.4 1.2-.6 1.7-1 .8-1 1.1-1.6c.3-.6.4-1.3.4-2.1s-.1-1.5-.4-2.1c-.3-.6-.6-1.1-1.1-1.6zm-1.1 4.8c-.1.3-.3.7-.6.9-.2.3-.5.5-.9.6-.3.2-.7.2-1.2.2s-.8-.1-1.2-.2-.6-.4-.9-.6l-.6-.9c-.1-.3-.2-.7-.2-1.1 0-.4.1-.7.2-1.1.1-.3.3-.7.6-.9.2-.3.5-.5.9-.6.3-.2.7-.2 1.2-.2s.8.1 1.2.2l.9.6.6.9c.1.3.2.7.2 1.1 0 .4 0 .7-.2 1.1zm14.3-4.7c-.4-.5-.9-.8-1.5-1.1s-1.2-.4-1.9-.4c-.5 0-.9 0-1.2.1s-.7.2-.9.4-.5.3-.7.5l-.5.5h-.1v-6.7h-2.4v15.1h2.3v-1.4c.3.6.8 1 1.4 1.3.6.3 1.2.4 1.9.4s1.4-.1 2-.4c.6-.3 1.1-.6 1.5-1.1.4-.5.7-1 .9-1.6.2-.6.3-1.3.3-2s-.1-1.4-.3-2-.4-1.1-.8-1.6zm-1.3 4.7c-.1.3-.3.7-.6.9-.2.3-.5.5-.9.6-.3.2-.7.2-1.2.2s-.8-.1-1.2-.2-.6-.4-.9-.6l-.6-.9c-.1-.3-.2-.7-.2-1.1 0-.4.1-.7.2-1.1.1-.3.3-.7.6-.9.2-.3.5-.5.9-.6.3-.2.7-.2 1.2-.2s.8.1 1.2.2l.9.6.6.9c.1.3.2.7.2 1.1 0 .4 0 .7-.2 1.1zm6.5-10.6c-.4 0-.8.1-1.1.4s-.4.6-.4 1 .1.7.4 1c.3.3.6.4 1.1.4s.8-.1 1.1-.4c.3-.3.4-.6.4-1s-.1-.8-.4-1c-.3-.3-.7-.4-1.1-.4zm-1.2 14.3h2.4v-9.6h-2.4v9.6zm5.6 0h2.4V91.1h-2.4v15.1zm13.6-8.5c-.4-.4-.9-.8-1.4-1-.6-.2-1.2-.4-1.8-.4-.7 0-1.4.1-2 .4-.6.2-1.2.6-1.7 1s-.8 1-1.1 1.6c-.3.6-.4 1.3-.4 2.1s.1 1.4.4 2.1c.3.6.6 1.2 1.1 1.6.5.4 1 .8 1.7 1 .6.2 1.3.4 2 .4.8 0 1.5-.1 2.2-.4s1.3-.8 1.9-1.5l-1.7-1.3c-.3.4-.7.7-1.1.9-.4.2-.9.4-1.5.4-.7 0-1.3-.2-1.7-.6-.5-.4-.8-1-.8-1.7h7.3v-.7c0-.8-.1-1.6-.3-2.2-.4-.7-.7-1.2-1.1-1.7zm-6.1 2.7c.1-.7.4-1.2.8-1.7.4-.4 1-.6 1.7-.6.8 0 1.4.2 1.8.6s.6 1 .7 1.7h-5zm17.5-8.5c-.4 0-.8.1-1.1.4-.3.3-.4.6-.4 1s.1.7.4 1c.3.3.6.4 1.1.4s.8-.1 1.1-.4c.3-.3.5-.6.5-1s-.1-.8-.5-1c-.3-.3-.7-.4-1.1-.4zm-1.2 14.3h2.4v-9.6h-2.4v9.6zm13.6-8.7c-.3-.3-.6-.6-1.1-.8-.4-.2-1-.3-1.6-.3-.8 0-1.4.2-1.9.5-.5.4-.8.8-1 1.2v-1.5h-2.3v9.6h2.4V101c0-.3 0-.6.1-.9.1-.3.2-.6.4-.8.2-.2.4-.4.7-.5.3-.1.6-.2 1-.2s.7.1 1 .3c.2.2.4.4.5.7.1.3.2.6.2.9V106.3h2.4v-6.1c0-.5-.1-1-.2-1.4-.1-.5-.3-.9-.6-1.3zm7.1-3.7h-2.4v2.8h-2v2h2v4.4c0 .6 0 1.1.1 1.5.1.4.2.8.5 1.1s.6.5 1 .6c.4.1.9.2 1.6.2.3 0 .6 0 1-.1.4 0 .7-.1.9-.2v-2c-.1.1-.3.2-.6.2s-.5.1-.7.1c-.5 0-.9-.1-1.1-.4-.2-.3-.3-.7-.3-1.1v-4.2h2.6v-2h-2.6v-2.9zm12.8 3.9c-.4-.4-.9-.8-1.4-1-.6-.2-1.2-.4-1.8-.4-.7 0-1.4.1-2 .4-.6.2-1.2.6-1.7 1s-.8 1-1.1 1.6c-.3.6-.4 1.3-.4 2.1s.1 1.4.4 2.1c.3.6.6 1.2 1.1 1.6.5.4 1 .8 1.7 1 .6.2 1.3.4 2 .4.8 0 1.5-.1 2.2-.4s1.3-.8 1.9-1.5l-1.7-1.3c-.3.4-.7.7-1.1.9-.4.2-.9.4-1.5.4-.7 0-1.3-.2-1.7-.6-.5-.4-.8-1-.8-1.7h7.3v-.7c0-.8-.1-1.6-.3-2.2-.4-.7-.7-1.2-1.1-1.7zm-6.1 2.7c.1-.7.4-1.2.8-1.7.4-.4 1-.6 1.7-.6.8 0 1.4.2 1.8.6s.6 1 .7 1.7h-5zm15.3-4c-.6 0-1.2.2-1.7.5s-.9.7-1.1 1.3v-1.5h-2.4v9.6h2.4v-5.1c0-.1 0-.3.1-.6s.2-.5.4-.8c.2-.3.4-.5.8-.7.3-.2.8-.3 1.4-.3h.6c.2 0 .4.1.6.1v-2.3c-.1 0-.3-.1-.4-.1s-.6-.1-.7-.1zm10.9 2.6c-.1-.3-.2-.6-.4-.9-.2-.3-.4-.6-.7-.8-.3-.2-.7-.4-1.2-.6-.5-.2-1-.2-1.7-.2-.8 0-1.5.1-2.2.4-.7.2-1.3.6-1.9 1.2l1.3 1.3c.3-.3.7-.6 1.1-.7.4-.2.9-.3 1.4-.3.6 0 1.2.1 1.6.4.4.3.6.8.6 1.4v.3h-1.9c-.5 0-.9.1-1.4.1s-.9.2-1.3.3c-.4.1-.8.3-1.1.6-.3.2-.6.6-.8.9-.2.4-.3.8-.3 1.3s.1.9.3 1.3c.2.4.5.7.8.9.3.2.7.4 1.1.5.4.1.9.2 1.3.2.6 0 1.2-.1 1.8-.4.5-.2 1-.6 1.3-1.2h.1v1.3h2.2V100c.1-.4.1-.7 0-1zm-2.2 3.4c0 .7-.2 1.2-.6 1.6-.4.4-1 .6-1.8.6-.2 0-.4 0-.6-.1s-.4-.1-.5-.2c-.2-.1-.3-.2-.4-.4-.1-.2-.1-.3-.1-.6s.1-.6.4-.8.6-.3.9-.4c.4-.1.8-.2 1.2-.2h1.6l-.1.5zm8-3c.2-.3.5-.5.9-.6.3-.2.7-.2 1.2-.2.3 0 .6.1.9.3.3.2.6.4.9.7l1.7-1.7c-.5-.5-1-.9-1.6-1.1-.6-.2-1.2-.4-1.9-.4s-1.4.1-2 .4c-.6.2-1.2.6-1.7 1s-.8 1-1.1 1.6c-.3.6-.4 1.3-.4 2.1s.1 1.4.4 2.1c.3.6.6 1.2 1.1 1.6.5.4 1 .8 1.7 1s1.3.4 2 .4c.2 0 .5 0 .8-.1.3 0 .6-.1.9-.2.3-.1.6-.2 1-.4.3-.2.6-.4.8-.6l-1.6-1.7c-.2.3-.5.5-.8.7-.3.2-.7.2-1 .2-.4 0-.8-.1-1.2-.2l-.9-.6-.6-.9c-.1-.3-.2-.7-.2-1.1 0-.4.1-.7.2-1.1.1-.6.3-.9.5-1.2zm11.3-5.6h-2.4v2.8h-2v2h2v4.4c0 .6 0 1.1.1 1.5.1.4.2.8.5 1.1s.6.5 1 .6c.4.1.9.2 1.6.2.3 0 .6 0 1-.1.4 0 .7-.1.9-.2v-2c-.1.1-.3.2-.6.2s-.5.1-.7.1c-.5 0-.9-.1-1.1-.4-.2-.3-.3-.7-.3-1.1v-4.2h2.6v-2h-2.6v-2.9zm5 12.4h2.4v-9.6h-2.4v9.6zm1.1-14.3c-.4 0-.8.1-1.1.4-.3.3-.4.6-.4 1s.1.7.4 1c.3.3.6.4 1.1.4.4 0 .8-.1 1.1-.4.3-.3.5-.6.5-1s-.1-.8-.5-1c-.3-.3-.6-.4-1.1-.4zm8.4 11.4l-2.6-6.7h-2.6l3.9 9.6h2.6l3.8-9.6H358l-2.6 6.7zm14.6-5.6c-.4-.4-.9-.8-1.4-1-.6-.2-1.2-.4-1.8-.4-.7 0-1.4.1-2 .4-.6.2-1.2.6-1.7 1s-.8 1-1.1 1.6c-.3.6-.4 1.3-.4 2.1s.1 1.4.4 2.1c.3.6.6 1.2 1.1 1.6.5.4 1 .8 1.7 1 .6.2 1.3.4 2 .4.8 0 1.5-.1 2.2-.4s1.3-.8 1.9-1.5l-1.7-1.3c-.3.4-.7.7-1.1.9-.4.2-.9.4-1.5.4-.7 0-1.3-.2-1.7-.6-.5-.4-.8-1-.8-1.7h7.3v-.7c0-.8-.1-1.6-.3-2.2-.4-.7-.7-1.2-1.1-1.7zm-6.1 2.7c.1-.7.4-1.2.8-1.7.4-.4 1-.6 1.7-.6.8 0 1.4.2 1.8.6.4.4.6 1 .7 1.7h-5zm17.5-8.5c-.4 0-.8.1-1.1.4-.3.3-.4.6-.4 1s.1.7.4 1c.3.3.6.4 1.1.4.4 0 .8-.1 1.1-.4.3-.3.4-.6.4-1s-.1-.8-.4-1-.6-.4-1.1-.4zm-1.2 14.3h2.4v-9.6h-2.4v9.6zm13.6-8.7c-.3-.3-.6-.6-1.1-.8-.4-.2-1-.3-1.6-.3-.8 0-1.4.2-1.9.5-.5.4-.8.8-1 1.2v-1.5h-2.3v9.6h2.4V101c0-.3 0-.6.1-.9.1-.3.2-.6.4-.8.2-.2.4-.4.7-.5.3-.1.6-.2 1-.2s.7.1 1 .3c.2.2.4.4.5.7.1.3.2.6.2.9V106.3h2.4v-6.1c0-.5-.1-1-.2-1.4-.1-.5-.3-.9-.6-1.3zm9.6 3.5c-.4-.2-.8-.4-1.2-.5-.4-.1-.9-.2-1.2-.3-.4-.1-.7-.2-1-.3-.3-.1-.4-.3-.4-.6 0-.4.2-.6.5-.8.3-.2.6-.2.9-.2.8 0 1.4.3 1.9 1l1.6-1.4c-.4-.5-.9-.9-1.5-1.1-.6-.2-1.3-.3-1.9-.3-.5 0-1 .1-1.4.2-.5.1-.9.3-1.2.6-.4.3-.6.6-.9 1-.2.4-.3.9-.3 1.4 0 .6.1 1.1.4 1.4.3.3.6.6 1 .8.4.2.8.3 1.2.4.4.1.9.2 1.2.3.4.1.7.2 1 .4.3.2.4.4.4.7 0 .2 0 .3-.1.5-.1.1-.2.3-.4.4-.2.1-.3.2-.5.2s-.4.1-.5.1c-.5 0-.9-.1-1.3-.3-.4-.2-.7-.5-1-.8l-1.6 1.5c.5.6 1.1.9 1.7 1.2.6.2 1.3.3 2.1.3.5 0 1-.1 1.5-.2s.9-.3 1.3-.5.7-.6 1-.9c.2-.4.4-.9.4-1.4 0-.6-.1-1.1-.4-1.5-.5-.8-.9-1.1-1.3-1.3zm7.2-7.2h-2.4v2.8h-2v2h2v4.4c0 .6 0 1.1.1 1.5.1.4.2.8.5 1.1.2.3.6.5 1 .6.4.1.9.2 1.6.2.3 0 .6 0 1-.1.4 0 .7-.1.9-.2v-2c-.1.1-.3.2-.6.2s-.5.1-.7.1c-.5 0-.9-.1-1.1-.4-.2-.3-.3-.7-.3-1.1v-4.2h2.6v-2h-2.6v-2.9zm13.1 5.2c-.1-.3-.2-.6-.4-.9-.2-.3-.4-.6-.7-.8-.3-.2-.7-.4-1.2-.6-.5-.2-1-.2-1.7-.2-.8 0-1.5.1-2.2.4-.7.2-1.3.6-1.9 1.2l1.3 1.3c.3-.3.7-.6 1.1-.7.4-.2.9-.3 1.4-.3.6 0 1.2.1 1.6.4.4.3.6.8.6 1.4v.3h-1.9s-.9.1-1.4.1c-.4.1-.9.2-1.3.3-.4.1-.8.3-1.1.6-.3.2-.6.6-.8.9-.2.4-.3.8-.3 1.3s.1.9.3 1.3c.2.4.5.7.8.9.3.2.7.4 1.1.5.4.1.9.2 1.3.2.6 0 1.2-.1 1.8-.4.5-.2 1-.6 1.3-1.2h.1v1.3h2.2V100c.2-.4.1-.7 0-1zm-2.1 3.4c0 .7-.2 1.2-.6 1.6-.4.4-1 .6-1.8.6-.2 0-.4 0-.6-.1s-.4-.1-.5-.2c-.2-.1-.3-.2-.4-.4-.1-.2-.1-.3-.1-.6s.1-.6.4-.8c.3-.2.6-.3.9-.4.4-.1.8-.2 1.2-.2h1.6v.5h-.1zm5.4 3.8h2.4V91.1H427v15.1zm5.6 0h2.4V91.1h-2.4v15.1zm13.6-7.2c-.1-.3-.2-.6-.4-.9-.2-.3-.4-.6-.7-.8-.3-.2-.7-.4-1.2-.6-.5-.2-1-.2-1.7-.2-.8 0-1.5.1-2.2.4-.7.2-1.3.6-1.9 1.2l1.3 1.3c.3-.3.7-.6 1.1-.7.4-.2.9-.3 1.4-.3.6 0 1.2.1 1.6.4.4.3.6.8.6 1.4v.3h-1.9c-.5 0-.9.1-1.4.1-.4.1-.9.2-1.3.3-.4.1-.8.3-1.1.6-.3.2-.6.6-.8.9-.2.4-.3.8-.3 1.3s.1.9.3 1.3c.2.4.5.7.8.9.3.2.7.4 1.1.5.4.1.9.2 1.3.2.6 0 1.2-.1 1.8-.4.5-.2 1-.6 1.3-1.2h.1v1.3h2.2V100c.1-.4.1-.7 0-1zm-2.2 3.4c0 .7-.2 1.2-.6 1.6-.4.4-1 .6-1.8.6-.2 0-.4 0-.6-.1-.2 0-.4-.1-.5-.2-.2-.1-.3-.2-.4-.4-.1-.2-.1-.3-.1-.6s.1-.6.4-.8c.3-.2.6-.3.9-.4.4-.1.8-.2 1.2-.2h1.6v.5zm8.6-8.6h-2.4v2.8h-2v2h2v4.4c0 .6 0 1.1.1 1.5.1.4.2.8.5 1.1.2.3.6.5 1 .6s.9.2 1.6.2c.3 0 .6 0 1-.1.4 0 .7-.1.9-.2v-2c-.1.1-.3.2-.6.2s-.5.1-.7.1c-.5 0-.9-.1-1.1-.4-.2-.3-.3-.7-.3-1.1v-4.2h2.6v-2h-2.6v-2.9zm6.1-1.9c-.4 0-.8.1-1.1.4-.3.3-.4.6-.4 1s.1.7.4 1c.3.3.6.4 1.1.4s.8-.1 1.1-.4c.3-.3.5-.6.5-1s-.1-.8-.5-1-.6-.4-1.1-.4zm-1.2 14.3h2.4v-9.6h-2.4v9.6zm14-8.5c-.5-.4-1-.8-1.7-1-.6-.2-1.3-.4-2-.4s-1.4.1-2 .4c-.6.2-1.2.6-1.7 1s-.8 1-1.1 1.6c-.3.6-.4 1.3-.4 2.1s.1 1.4.4 2.1c.3.6.6 1.2 1.1 1.6.5.4 1 .8 1.7 1 .6.2 1.3.4 2 .4s1.4-.1 2-.4c.6-.2 1.2-.6 1.7-1s.8-1 1.1-1.6c.3-.6.4-1.3.4-2.1s-.1-1.5-.4-2.1c-.3-.6-.7-1.1-1.1-1.6zm-1.1 4.8c-.1.3-.3.7-.6.9-.2.3-.5.5-.9.6-.3.2-.7.2-1.2.2s-.8-.1-1.2-.2l-.9-.6-.6-.9c-.1-.3-.2-.7-.2-1.1 0-.4.1-.7.2-1.1.1-.3.3-.7.6-.9.2-.3.5-.5.9-.6.3-.2.7-.2 1.2-.2.4 0 .8.1 1.2.2l.9.6.6.9c.1.3.2.7.2 1.1 0 .4-.1.7-.2 1.1zm13.2-5c-.3-.3-.6-.6-1.1-.8s-1-.3-1.6-.3c-.8 0-1.4.2-1.9.5-.5.4-.8.8-1 1.2v-1.5h-2.3v9.6h2.4V101c0-.3 0-.6.1-.9.1-.3.2-.6.4-.8.2-.2.4-.4.7-.5.3-.1.6-.2 1-.2s.7.1 1 .3c.2.2.4.4.5.7.1.3.2.6.2.9V106.3h2.4v-6.1c0-.5-.1-1-.2-1.4-.1-.5-.3-.9-.6-1.3zm5.4 5.7c-.4 0-.8.2-1.1.5-.3.3-.5.7-.5 1.1 0 .2 0 .4.1.6.1.2.2.3.4.5.1.1.3.2.5.3.2.1.4.1.6.1.4 0 .8-.2 1.1-.5.3-.3.5-.7.5-1.1 0-.4-.2-.8-.5-1.1s-.7-.4-1.1-.4z"/></svg>