<svg xmlns="http://www.w3.org/2000/svg" viewBox="0 0 678 110" enable-background="new 0 0 678 110"><path fill="#fff" d="M293.1 1.9h2.3V7h6V1.9h2.3v12.7h-2.3V9h-6v5.6h-2.3V1.9zm18.4 7.3l-4.8-7.3h2.8l3.1 5.1 3.2-5.1h2.7l-4.8 7.3v5.5h-2.3l.1-5.5zm20.4.8c0 3.1-2.2 5-5.1 5-2.9 0-5.1-1.9-5.1-5V1.9h2.3v8c0 1.3.7 2.9 2.9 2.9s2.9-1.7 2.9-2.9v-8h2.3l-.2 8.1zm4.5-8.1h3l6.2 9.5V1.9h2.3v12.7H345l-6.3-9.8v9.8h-2.3V1.9zm16.1 0h5c3.4 0 6.5 2.1 6.5 6.4 0 4.4-3.7 6.4-6.8 6.4h-4.8l.1-12.8zm3.9 10.7c2.8 0 5.2-1.2 5.2-4.3s-2-4.3-4.8-4.3h-2.1v8.6h1.7zm15-10.7h2l5.5 12.7h-2.6l-1.2-2.9h-5.5l-1.1 2.9H366l5.4-12.7zm2.8 7.9l-2-5.2-2 5.2h4zm7.8-7.9h2.3v12.7H382V1.9zM9.1 43.9h-8v-5.5h22.4v5.5h-8.1v22.8H9.1V43.9zm17.8-5.6h6.2v10.6h12.1V38.3h6.2v28.3h-6.2V54.4H33.1v12.2h-6.2V38.3zm30.8 0H77v5.8H64v5.3h12.3v5.8H64V61h13.7v5.8h-20V38.3zm35.5 0h6.8l4.5 18.2h.1l5.9-18.2h5.8l5.9 18.6h.1l4.8-18.6h6.3L125 66.7h-5.6l-6.2-19.6h-.1l-6.2 19.6h-5.4l-8.3-28.4zm50.6 0h5.2l12.3 28.3h-7l-2.4-6h-11l-2.4 6h-6.9l12.2-28.3zm2.4 8.3l-3.4 8.8h6.9l-3.5-8.8zm18.4-8.3h6.2v22.6h11.6v5.8h-17.8V38.3zm21.4 0h6.2v11.8l11-11.8h8.2l-12.6 13.2 13.7 15.2h-8.7l-11.5-13.4v13.4H186V38.3zm29.4 0h6.2v28.3h-6.2V38.3zm12.3 0h8.5l12 19.7h.1V38.3h6.2v28.3h-8.2L234 46.5v20.2h-6.2l-.1-28.4zm58.7 26.4c-3.7 1.9-7.7 2.7-11.9 2.7-8.8 0-15.3-5.8-15.3-14.9 0-9.1 6.4-14.9 15.3-14.9 4.5 0 8.4 1 11.3 3.6l-4.4 4.8c-1.7-1.8-3.7-2.7-6.9-2.7-5.3 0-8.8 3.8-8.8 9.1s3.5 9.1 8.8 9.1c2.7 0 4.7-.8 5.9-1.4v-4.6h-5.1v-5.8h11.1v15zm18.9-26.4h9.4c9.1 0 16.8 3.9 16.8 14.2 0 9.2-7.5 14.1-15.9 14.1h-10.2l-.1-28.3zm6.3 22.6h3.2c5.8 0 10.2-2.2 10.2-8.6 0-5.6-4.4-8.2-9.7-8.2h-3.7v16.8zm24.6-22.6h19.2v5.8h-13v5.3h12.3v5.8h-12.3V61h13.7v5.8h-20l.1-28.5zm35.1 0h5.2l12.3 28.3h-7l-2.4-6h-11l-2.4 6h-6.9l12.2-28.3zm2.4 8.3l-3.4 8.8h6.9l-3.5-8.8zm18.3-8.3h9.4c9.1 0 16.8 3.9 16.8 14.2 0 9.2-7.5 14.1-15.9 14.1H392V38.3zm6.3 22.6h3.2c5.8 0 10.2-2.2 10.2-8.6 0-5.6-4.4-8.2-9.7-8.2h-3.7v16.8zm56.1-15.2c-1.2-1.5-3-2.3-5.4-2.3-4.7 0-8.2 3.8-8.2 9.1s3.5 9.1 8 9.1c2.5 0 4.6-1.1 5.8-3l5.2 3.9c-2.4 3.4-6.4 4.9-10.2 4.9-8.8 0-15.3-5.8-15.3-14.9s6.4-14.9 15.3-14.9c3.2 0 7.2 1.1 9.6 4.2l-4.8 3.9zm8.9-7.4h6.2v10.6h12.1V38.3h6.2v28.3h-6.2V54.4h-12.1v12.2h-6.2V38.3zm44.6-.7c8.8 0 15.3 5.8 15.3 14.9 0 9.1-6.4 14.9-15.3 14.9-8.8 0-15.3-5.8-15.3-14.9 0-9.1 6.5-14.9 15.3-14.9zm0 24c5.3 0 8.8-3.8 8.8-9.1s-3.5-9.1-8.8-9.1c-5.3 0-8.8 3.8-8.8 9.1s3.5 9.1 8.8 9.1zm20-23.3h10.5c5.9 0 10.8 1.9 10.8 8.6 0 6.6-4.5 8.7-10.5 8.7h-4.6v11h-6.2V38.3zm6.2 12h4.2c2.2 0 4.4-.8 4.4-3.4 0-2.9-3-3.3-5.4-3.3h-3.2v6.7zm46.4-5c-1-1.3-3-1.9-4.5-1.9-1.8 0-4.2.8-4.2 2.9 0 5.2 13 1.8 13 11.8 0 6.3-5.1 9.3-10.9 9.3-3.6 0-6.8-1.1-9.5-3.6l4.4-4.9c1.3 1.7 3.4 2.7 5.4 2.7 2 0 4.3-1 4.3-3 0-5.2-13.3-2.4-13.3-11.8 0-6 5.2-9.2 10.8-9.2 3.2 0 6.3.8 8.7 3l-4.2 4.7zm9.2-7h6.2v10.6H608V38.3h6.2v28.3H608V54.4h-12.1v12.2h-6.2V38.3zm44.5-.7c8.8 0 15.3 5.8 15.3 14.9 0 9.1-6.4 14.9-15.3 14.9-8.8 0-15.3-5.8-15.3-14.9.1-9.1 6.5-14.9 15.3-14.9zm0 24c5.3 0 8.8-3.8 8.8-9.1s-3.5-9.1-8.8-9.1c-5.3 0-8.8 3.8-8.8 9.1.1 5.3 3.5 9.1 8.8 9.1zm20-23.3h10.5c5.9 0 10.8 1.9 10.8 8.6 0 6.6-4.5 8.7-10.5 8.7h-4.6v11h-6.2V38.3zm6.3 12h4.2c2.2 0 4.4-.8 4.4-3.4 0-2.9-3-3.3-5.4-3.3h-3.2v6.7zm-618.7 40h-4.6v-1.8h11v1.8h-4.6v12.4h-1.9V90.3zm8.5-2.8h1.8v7.1c.5-1 1.7-1.7 3.1-1.7 1.8 0 3.4 1.1 3.4 3.6v6.1h-1.8V97c0-1.8-1-2.4-2.2-2.4-1.5 0-2.6 1-2.6 3.2v4.9h-1.8V87.5zm13 11.1c0 1.7 1.5 2.8 3.2 2.8 1.1 0 1.9-.6 2.6-1.4l1.4 1c-1 1.3-2.4 1.9-4.2 1.9-3 0-4.9-2.2-4.9-5s2.1-5 4.9-5c3.3 0 4.6 2.6 4.6 5v.6l-7.6.1zm5.6-1.5c0-1.6-.9-2.8-2.7-2.8-1.8 0-2.9 1.5-2.9 2.8h5.6zM84 92.9c2.8 0 5 2.2 5 5s-2.2 5-5 5-5-2.2-5-5 2.1-5 5-5zm0 8.3c1.9 0 3.1-1.4 3.1-3.3s-1.2-3.3-3.1-3.3-3.1 1.4-3.1 3.3c-.1 1.9 1.1 3.3 3.1 3.3zm7.7-8h1.8v1.5c.5-1 1.7-1.7 3.1-1.7 1.8 0 3.4 1.1 3.4 3.6v6.1h-1.8v-5.6c0-1.8-1-2.4-2.2-2.4-1.5 0-2.6 1-2.6 3.2v4.9h-1.8v-9.6h.1zm11.6-5.7h1.8v15.1h-1.8V87.5zm3.9 5.7h2.1l2.8 7.4 2.7-7.4h1.9l-4.5 11.5c-.6 1.6-1.3 2.8-3.2 2.8-.5 0-1.1-.1-1.6-.3l.2-1.6c.3.1.7.2 1.1.2 1.1 0 1.5-.6 1.8-1.6l.6-1.5-3.9-9.5zm17.5 1.1c1-.9 2.4-1.4 3.8-1.4 2.8 0 4 1.5 4 3.2v4.8c0 .7 0 1.2.1 1.7H131c0-.5-.1-1-.1-1.4-.8 1.2-1.9 1.7-3.3 1.7-1.8 0-3.3-1-3.3-2.8 0-2.4 2.3-3.3 5.2-3.3h1.3v-.4c0-1-.7-2-2.3-2-1.4 0-2 .6-2.7 1.1l-1.1-1.2zm5.1 3.8c-1.7 0-3.8.3-3.8 1.8 0 1.1.8 1.5 2 1.5 2 0 2.7-1.5 2.7-2.8V98l-.9.1zm5.8-4.9h1.8v1.4c.7-1 2-1.6 3.3-1.6 2.9 0 4.8 2.2 4.8 5s-1.9 5-4.8 5c-1.4 0-2.7-.6-3.3-1.6v7h-1.8V93.2zm1.8 4.7c0 1.9 1.2 3.3 3.1 3.3s3.1-1.4 3.1-3.3-1.2-3.3-3.1-3.3-3.1 1.4-3.1 3.3zm10.8-4.7h1.8v1.4c.7-1 2-1.6 3.3-1.6 2.9 0 4.8 2.2 4.8 5s-1.9 5-4.8 5c-1.4 0-2.7-.6-3.3-1.6v7h-1.8V93.2zm1.8 4.7c0 1.9 1.2 3.3 3.1 3.3s3.1-1.4 3.1-3.3-1.2-3.3-3.1-3.3-3.1 1.4-3.1 3.3zm15.7-4.7h2.1l2.8 7.4 2.7-7.4h1.9l-4.5 11.5c-.6 1.6-1.3 2.8-3.2 2.8-.5 0-1.1-.1-1.6-.3l.2-1.6c.3.1.7.2 1.1.2 1.1 0 1.5-.6 1.8-1.6l.6-1.5-3.9-9.5zm15.7-.3c2.8 0 5 2.2 5 5s-2.2 5-5 5-5-2.2-5-5 2.2-5 5-5zm0 8.3c1.9 0 3.1-1.4 3.1-3.3s-1.2-3.3-3.1-3.3-3.1 1.4-3.1 3.3 1.2 3.3 3.1 3.3zm16.1 1.5h-1.8v-1.5c-.5 1-1.7 1.7-3.1 1.7-1.8 0-3.4-1.1-3.4-3.6v-6.1h1.8v5.6c0 1.8 1 2.4 2.2 2.4 1.5 0 2.6-1 2.6-3.2v-4.9h1.8l-.1 9.6zm4.4-9.3h-1.6l1.4-4.9h1.9l-1.7 4.9zm4.2-5.9h1.8v15.1h-1.8V87.5zm5.1 0h1.8v15.1h-1.8V87.5zm12.4 11.1c0 1.7 1.5 2.8 3.2 2.8 1.1 0 1.9-.6 2.6-1.4l1.4 1c-1 1.3-2.4 1.9-4.2 1.9-3 0-4.9-2.2-4.9-5s2.1-5 4.9-5c3.3 0 4.6 2.6 4.6 5v.6l-7.6.1zm5.6-1.5c0-1.6-.9-2.8-2.7-2.8-1.8 0-2.9 1.5-2.9 2.8h5.6zm3.1-3.9h2.1l2.8 7.3 2.7-7.3h1.9l-3.7 9.5h-2l-3.8-9.5zm12.6 5.4c0 1.7 1.5 2.8 3.2 2.8 1.1 0 1.9-.6 2.6-1.4l1.4 1c-1 1.3-2.4 1.9-4.2 1.9-3 0-4.9-2.2-4.9-5s2.1-5 4.9-5c3.3 0 4.6 2.6 4.6 5v.6l-7.6.1zm5.7-1.5c0-1.6-.9-2.8-2.7-2.8-1.8 0-2.9 1.5-2.9 2.8h5.6zm4.5-3.9h1.8v1.5c.5-1 1.7-1.7 2.8-1.7.3 0 .6 0 .8.1l-.1 1.9c-.3-.1-.6-.1-.9-.1-1.8 0-2.7 1-2.7 3v4.8H255v-9.5h.1zm13.8 0h1.8v1.5c.5-1 1.7-1.7 3.1-1.7 1.8 0 3.4 1.1 3.4 3.6v6.1h-1.8v-5.6c0-1.8-1-2.4-2.2-2.4-1.5 0-2.6 1-2.6 3.2v4.9h-1.8l.1-9.6zm12.9 5.4c0 1.7 1.5 2.8 3.2 2.8 1.1 0 1.9-.6 2.6-1.4l1.4 1c-1 1.3-2.4 1.9-4.2 1.9-3 0-4.9-2.2-4.9-5s2.1-5 4.9-5c3.3 0 4.6 2.6 4.6 5v.6l-7.6.1zm5.7-1.5c0-1.6-.9-2.8-2.7-2.8-1.8 0-2.9 1.5-2.9 2.8h5.6zm5.9 1.5c0 1.7 1.5 2.8 3.2 2.8 1.1 0 1.9-.6 2.6-1.4l1.4 1c-1 1.3-2.4 1.9-4.2 1.9-3 0-4.9-2.2-4.9-5s2.1-5 4.9-5c3.3 0 4.6 2.6 4.6 5v.6l-7.6.1zm5.7-1.5c0-1.6-.9-2.8-2.7-2.8-1.8 0-2.9 1.5-2.9 2.8h5.6zm14 5.6h-1.8v-1.4c-.7 1-2 1.6-3.3 1.6-2.9 0-4.8-2.2-4.8-5s1.9-5 4.8-5c1.4 0 2.7.6 3.3 1.6v-7h1.8v15.2zm-1.8-4.8c0-1.9-1.2-3.3-3.1-3.3-1.9 0-3.1 1.4-3.1 3.3s1.2 3.3 3.1 3.3c1.9 0 3.1-1.4 3.1-3.3zm16-3.2h-2.6V99c0 1.1 0 2.2 1.4 2.2.4 0 .9-.1 1.3-.3v1.6c-.4.2-1.3.3-1.6.3-2.8 0-2.8-1.7-2.8-3.2v-4.9h-2.1v-1.6h2.1v-2.7h1.8v2.7h2.6l-.1 1.6zm6.8-1.8c2.8 0 5 2.2 5 5s-2.2 5-5 5-5-2.2-5-5 2.2-5 5-5zm0 8.3c1.9 0 3.1-1.4 3.1-3.3s-1.2-3.3-3.1-3.3-3.1 1.4-3.1 3.3 1.2 3.3 3.1 3.3zm18.7-5.6c-.4-.5-1-.9-1.9-.9-.8 0-1.6.4-1.6 1.1 0 1.1 1.6 1.3 2.4 1.5 1.6.4 2.8 1 2.8 2.8 0 2.1-2 3-3.8 3-1.6 0-2.7-.4-3.7-1.7l1.4-1.1c.6.6 1.3 1.1 2.3 1.1.9 0 1.9-.4 1.9-1.2 0-1.1-1.5-1.3-2.3-1.5-1.5-.4-2.9-.9-2.9-2.7 0-2 1.8-2.9 3.6-2.9 1.3 0 2.6.4 3.2 1.6l-1.4.9zm12.6 7.1h-1.8v-1.5c-.5 1-1.7 1.7-3.1 1.7-1.8 0-3.4-1.1-3.4-3.6v-6.1h1.8v5.6c0 1.8 1 2.4 2.2 2.4 1.5 0 2.6-1 2.6-3.2v-4.9h1.8v9.6h-.1zm3.2-9.5h1.8v1.5c.5-1 1.7-1.7 2.8-1.7.3 0 .6 0 .8.1V95c-.3-.1-.6-.1-.9-.1-1.8 0-2.7 1-2.7 3v4.8h-1.8v-9.5zm7.1 0h2.1l2.8 7.3 2.7-7.3h1.9l-3.7 9.5h-2l-3.8-9.5zm12.6-4.7c.7 0 1.3.6 1.3 1.3s-.6 1.3-1.3 1.3-1.3-.6-1.3-1.3.6-1.3 1.3-1.3zm-.9 4.7h1.8v9.5h-1.8v-9.5zm3.9 0h2.1l2.8 7.3 2.7-7.3h1.9l-3.7 9.5h-2l-3.8-9.5zm12.6 5.4c0 1.7 1.5 2.8 3.2 2.8 1.1 0 1.9-.6 2.6-1.4l1.4 1c-1 1.3-2.4 1.9-4.2 1.9-3 0-4.9-2.2-4.9-5s2.1-5 4.9-5c3.3 0 4.6 2.6 4.6 5v.6l-7.6.1zm5.6-1.5c0-1.6-.9-2.8-2.7-2.8-1.8 0-2.9 1.5-2.9 2.8h5.6zm15.6-2.4h-2.6V99c0 1.1 0 2.2 1.4 2.2.4 0 .9-.1 1.3-.3v1.6c-.4.2-1.3.3-1.6.3-2.8 0-2.8-1.7-2.8-3.2v-4.9h-2.1v-1.6h2.1v-2.7h1.8v2.7h2.6l-.1 1.6zm2.5-7.2h1.8v7.1c.5-1 1.7-1.7 3.1-1.7 1.8 0 3.4 1.1 3.4 3.6v6.1h-1.8V97c0-1.8-1-2.4-2.2-2.4-1.5 0-2.6 1-2.6 3.2v4.9h-1.8l.1-15.2zm12.9 11.1c0 1.7 1.5 2.8 3.2 2.8 1.1 0 1.9-.6 2.6-1.4l1.4 1c-1 1.3-2.4 1.9-4.2 1.9-3 0-4.9-2.2-4.9-5s2.1-5 4.9-5c3.3 0 4.6 2.6 4.6 5v.6l-7.6.1zm5.7-1.5c0-1.6-.9-2.8-2.7-2.8-1.8 0-2.9 1.5-2.9 2.8h5.6zm9.8 3.9l5.4-6.3h-5.2v-1.6h7.4v1.6l-5.4 6.3h5.7v1.6H456V101zm14.4-8.1c2.8 0 5 2.2 5 5s-2.2 5-5 5-5-2.2-5-5 2.2-5 5-5zm0 8.3c1.9 0 3.1-1.4 3.1-3.3s-1.2-3.3-3.1-3.3-3.1 1.4-3.1 3.3 1.2 3.3 3.1 3.3zm7.7-8h1.7v1.5c.2-.6 1.3-1.7 3-1.7 1.4 0 2.4.6 3 1.8.6-1.2 1.9-1.8 3-1.8 2.9 0 3.6 2.1 3.6 4.2v5.5h-1.8v-5.3c0-1.4-.3-2.8-2-2.8s-2.4 1.2-2.4 2.9v5.2h-1.8v-5c0-1.8-.3-3.1-2-3.1-1.3 0-2.5 1-2.5 3.1v4.9h-1.8v-9.4zm17.5-5.7h1.8v7c.6-1 1.9-1.6 3.3-1.6 2.9 0 4.8 2.1 4.8 5 0 2.8-1.9 5-4.8 5-1.3 0-2.6-.6-3.3-1.6v1.4h-1.8V87.5zm8.1 10.4c0-1.9-1.2-3.3-3.1-3.3s-3.1 1.4-3.1 3.3 1.2 3.3 3.1 3.3c1.9 0 3.1-1.4 3.1-3.3zm5.5-9.4c.7 0 1.3.6 1.3 1.3s-.6 1.3-1.3 1.3-1.3-.6-1.3-1.3.6-1.3 1.3-1.3zm-.9 4.7h1.8v9.5h-1.8v-9.5zm6.4 5.4c0 1.7 1.5 2.8 3.2 2.8 1.1 0 1.9-.6 2.6-1.4l1.4 1c-1 1.3-2.4 1.9-4.2 1.9-3 0-4.9-2.2-4.9-5s2.1-5 4.9-5c3.3 0 4.6 2.6 4.6 5v.6l-7.6.1zm5.6-1.5c0-1.6-.9-2.8-2.7-2.8-1.8 0-2.9 1.5-2.9 2.8h5.6zm10.5-2.8c1-.9 2.4-1.4 3.8-1.4 2.8 0 4 1.5 4 3.2v4.8c0 .7 0 1.2.1 1.7H537c0-.5-.1-1-.1-1.4-.8 1.2-1.9 1.7-3.3 1.7-1.8 0-3.3-1-3.3-2.8 0-2.4 2.3-3.3 5.2-3.3h1.3v-.4c0-1-.7-2-2.3-2-1.4 0-2 .6-2.7 1.1l-1-1.2zm5.1 3.8c-1.7 0-3.8.3-3.8 1.8 0 1.1.8 1.5 2 1.5 2 0 2.7-1.5 2.7-2.8V98l-.9.1zm5.8-4.9h1.8v1.4c.7-1 2-1.6 3.3-1.6 2.9 0 4.8 2.2 4.8 5s-1.9 5-4.8 5c-1.4 0-2.7-.6-3.3-1.6v7h-1.8V93.2zm1.8 4.7c0 1.9 1.2 3.3 3.1 3.3 1.9 0 3.1-1.4 3.1-3.3s-1.2-3.3-3.1-3.3-3.1 1.4-3.1 3.3zm15.3-5c2.8 0 5 2.2 5 5s-2.2 5-5 5-5-2.2-5-5 2.2-5 5-5zm0 8.3c1.9 0 3.1-1.4 3.1-3.3s-1.2-3.3-3.1-3.3-3.1 1.4-3.1 3.3 1.2 3.3 3.1 3.3zm14.5-5.5c-.7-.7-1.4-1.1-2.4-1.1-2 0-3 1.6-3 3.4s1.2 3.2 3.1 3.2c1 0 1.7-.4 2.3-1.1l1.3 1.3c-.9 1-2.2 1.5-3.6 1.5-2.9 0-5-2-5-4.9 0-2.9 2-5 5-5 1.4 0 2.7.5 3.6 1.5l-1.3 1.2zm3.5-1.4c1-.9 2.4-1.4 3.8-1.4 2.8 0 4 1.5 4 3.2v4.8c0 .7 0 1.2.1 1.7H583c0-.5-.1-1-.1-1.4-.8 1.2-1.9 1.7-3.3 1.7-1.8 0-3.3-1-3.3-2.8 0-2.4 2.3-3.3 5.2-3.3h1.3v-.4c0-1-.7-2-2.3-2-1.4 0-2 .6-2.7 1.1l-1-1.2zm5.1 3.8c-1.7 0-3.8.3-3.8 1.8 0 1.1.8 1.5 2 1.5 2 0 2.7-1.5 2.7-2.8V98l-.9.1zm5.8-10.6h1.8v15.1h-1.8V87.5zm3.9 5.7h2.1l2.8 7.4 2.7-7.4h1.9l-4.5 11.5c-.6 1.6-1.3 2.8-3.2 2.8-.5 0-1.1-.1-1.6-.3l.2-1.6c.3.1.7.2 1.1.2 1.1 0 1.5-.6 1.8-1.6l.6-1.5-3.9-9.5zm11.6 0h1.8v1.4c.7-1 2-1.6 3.3-1.6 2.9 0 4.8 2.2 4.8 5s-1.9 5-4.8 5c-1.4 0-2.7-.6-3.3-1.6v7h-1.8V93.2zm1.8 4.7c0 1.9 1.2 3.3 3.1 3.3s3.1-1.4 3.1-3.3-1.2-3.3-3.1-3.3-3.1 1.4-3.1 3.3zm15.8-2.3c-.4-.5-1-.9-1.9-.9-.8 0-1.6.4-1.6 1.1 0 1.1 1.6 1.3 2.4 1.5 1.6.4 2.8 1 2.8 2.8 0 2.1-2 3-3.8 3-1.6 0-2.7-.4-3.7-1.7l1.4-1.1c.6.6 1.3 1.1 2.3 1.1.9 0 1.9-.4 1.9-1.2 0-1.1-1.5-1.3-2.3-1.5-1.5-.4-2.9-.9-2.9-2.7 0-2 1.8-2.9 3.6-2.9 1.3 0 2.6.4 3.2 1.6l-1.4.9zm5.5 3c0 1.7 1.5 2.8 3.2 2.8 1.1 0 1.9-.6 2.6-1.4l1.4 1c-1 1.3-2.4 1.9-4.2 1.9-3 0-4.9-2.2-4.9-5s2.1-5 4.9-5c3.3 0 4.6 2.6 4.6 5v.6l-7.6.1zm5.7-1.5c0-1.6-.9-2.8-2.7-2.8-1.8 0-2.9 1.5-2.9 2.8h5.6zm4.2 4.4c0-.7.6-1.3 1.3-1.3.7 0 1.3.6 1.3 1.3 0 .7-.6 1.3-1.3 1.3-.7 0-1.3-.6-1.3-1.3z"/></svg>