<svg xmlns="http://www.w3.org/2000/svg" viewBox="0 0 678 110" enable-background="new 0 0 678 110"><path fill="#fff" d="M322.2 7.7c-.9-1-1.8-1.3-2.7-1.3-2.6 0-4.4 2-4.4 4.6 0 2.7 1.7 4.7 4.4 4.7 1 0 2-.5 2.9-1.5l1.9 1.3c-1.2 1.6-2.9 2.3-4.8 2.3-3.9 0-6.7-2.7-6.7-6.6 0-4.1 2.8-6.8 6.7-6.8 1.7 0 3.2.6 4.5 2l-1.8 1.3zm11.1-3.4c4-.1 6.8 2.6 6.8 6.7 0 4-2.8 6.6-6.8 6.7-3.9 0-6.7-2.7-6.7-6.6 0-4.1 2.8-6.8 6.7-6.8zm0 11.4c2.6 0 4.4-2 4.4-4.7 0-2.5-1.7-4.6-4.4-4.6-2.6 0-4.4 2-4.4 4.6 0 2.7 1.8 4.7 4.4 4.7zm10.7-11h2.3v5.4h.1l5.3-5.4h3.1l-6 5.9 6.4 6.9H352l-5.5-6.3h-.1v6.3H344V4.7zm14.2 0h8.4v2.1h-6.2v3.1h5.9V12h-5.9v3.5h6.5v2.1h-8.8l.1-12.9zM113.5 46.6h-8.1v-5.5h22.4v5.5h-8.1v22.8h-6.2V46.6zm17.7-5.5h6.2v10.6h12.1V41.1h6.2v28.3h-6.2V57.2h-12.1v12.2h-6.2V41.1zm30.9 0h19.2v5.8h-13v5.3h12.3V58h-12.3v5.8H182v5.8h-20l.1-28.5zm35.4 0h6.8l4.5 18.2h.1l5.9-18.2h5.8l5.9 18.6h.1l4.8-18.6h6.3l-8.3 28.3h-5.6l-6.2-19.6h-.1l-6.2 19.6h-5.4l-8.4-28.3zm43.6 0h19.2v5.8h-13v5.3h12.3V58h-12.3v5.8H261v5.8h-20V41.1zm35 0h5.2l12.3 28.3h-7l-2.4-6h-11l-2.4 6h-6.9l12.2-28.3zm2.4 8.2l-3.4 8.8h6.9l-3.5-8.8zm18.4-8.2h11c5.8 0 10.7 2 10.7 8.6 0 4-2.1 7-6.1 7.8l7.2 12h-7.5l-5.9-11.3h-3.1v11.3H297l-.1-28.4zm6.2 11.7h3.7c2.3 0 5.2-.1 5.2-3.2 0-2.8-2.6-3.3-4.8-3.3h-4.1v6.5zm30.8-11.7h5.2l12.3 28.3h-7l-2.4-6h-11l-2.4 6h-6.9l12.2-28.3zm2.4 8.2l-3.4 8.8h6.9l-3.5-8.8zm18.3-8.2h10.6c5 0 10.4 1 10.4 7.2 0 3.2-2 5.3-4.9 6.2v.1c3.7.5 6.2 3.2 6.2 6.9 0 5.9-5.6 7.9-10.6 7.9h-11.6V41.1zm6.3 11.3h4.5c1.9 0 3.9-.8 3.9-3.1 0-2.4-2.2-3-4.2-3h-4.2v6.1zm0 11.7h5.6c2 0 4.2-.8 4.2-3.3 0-2.7-3-3.1-5-3.1H361l-.1 6.4zm20.5-23h6.2v22.6h11.6v5.8h-17.8V41.1zm21.4 0H422v5.8h-13v5.3h12.3V58H409v5.8h13.7v5.8h-20l.1-28.5zm38.4 0h9.4l6.5 18.5h.1l6.6-18.5h9.4v28.3H467V47.7h-.1l-7.4 21.7h-4.8l-7.2-21.7h-.1v21.7h-6.2V41.1zm52-.7c8.8 0 15.3 5.8 15.3 14.9 0 9.1-6.4 14.9-15.3 14.9-8.8 0-15.3-5.8-15.3-14.9.1-9.1 6.5-14.9 15.3-14.9zm0 24c5.3 0 8.8-3.8 8.8-9.1s-3.5-9.1-8.8-9.1c-5.3 0-8.8 3.8-8.8 9.1 0 5.2 3.5 9.1 8.8 9.1zM509 41.1h7.1l7 18.6h.1l7.1-18.6h6.7l-11.7 28.3h-5L509 41.1zm31.2 0h6.2v28.3h-6.2V41.1zm12.5 0h19.2v5.8h-13v5.3h12.3V58h-12.3v5.8h13.7v5.8h-20V41.1zm-364 52h-4.6v-1.8h11v1.8h-4.6v12.4h-1.9V93.1zm8.5-2.8h1.8v7.1c.5-1 1.7-1.7 3.1-1.7 1.8 0 3.4 1.1 3.4 3.6v6.1h-1.8v-5.6c0-1.8-1-2.4-2.2-2.4-1.5 0-2.6 1-2.6 3.2v4.9h-1.8l.1-15.2zm13 11c0 1.7 1.5 2.8 3.2 2.8 1.1 0 1.9-.6 2.6-1.4l1.4 1c-1 1.3-2.4 1.9-4.2 1.9-3 0-4.9-2.2-4.9-5s2.1-5 4.9-5c3.3 0 4.6 2.6 4.6 5v.6l-7.6.1zm5.6-1.4c0-1.6-.9-2.8-2.7-2.8-1.8 0-2.9 1.5-2.9 2.8h5.6zm9.3-4h2l2.1 7.1 2.3-7.1h1.9l2.4 7.1 2-7.1h1.9l-3.1 9.5H235l-2.5-7.1-2.3 7.1h-1.9l-3.2-9.5zm21.1-.2c2.8 0 5 2.2 5 5s-2.2 5-5 5-5-2.2-5-5 2.2-5 5-5zm0 8.3c1.9 0 3.1-1.4 3.1-3.3s-1.2-3.3-3.1-3.3-3.1 1.4-3.1 3.3 1.2 3.3 3.1 3.3zm7.7-8.1h1.8v1.5c.5-1 1.7-1.7 2.8-1.7.3 0 .6 0 .8.1l-.1 1.9c-.3-.1-.6-.1-.9-.1-1.8 0-2.7 1-2.7 3v4.8h-1.8v-9.5zm7.8-5.6h1.8v15.1h-1.8V90.3zm14.5 15.1h-1.8V104c-.7 1-2 1.6-3.3 1.6-2.9 0-4.8-2.2-4.8-5s1.9-5 4.8-5c1.4 0 2.7.6 3.3 1.6v-7h1.8v15.2zm-1.8-4.7c0-1.9-1.2-3.3-3.1-3.3-1.9 0-3.1 1.4-3.1 3.3s1.2 3.3 3.1 3.3c1.9 0 3.1-1.4 3.1-3.3zm13-2.4c-.4-.5-1-.9-1.9-.9-.8 0-1.6.4-1.6 1.1 0 1.1 1.6 1.3 2.4 1.5 1.6.4 2.8 1 2.8 2.8 0 2.1-2 3-3.8 3-1.6 0-2.7-.4-3.7-1.7l1.4-1.1c.6.6 1.3 1.1 2.3 1.1.9 0 1.9-.4 1.9-1.2 0-1.1-1.5-1.3-2.3-1.5-1.5-.4-2.9-.9-2.9-2.7 0-2 1.8-2.9 3.6-2.9 1.3 0 2.6.4 3.2 1.6l-1.4.9zm10.9-.8h-2v-1.6h2v-2.1c0-2.5.9-3.8 3.2-3.8.4 0 .8 0 1.3.1l-.2 1.6c-.3-.1-.7-.2-1-.2-1.3 0-1.5.8-1.5 2.1v2.2h2.1v1.6H300v7.9h-1.8v-7.8zm7.6-6.3c.7 0 1.3.6 1.3 1.3s-.6 1.3-1.3 1.3c-.7 0-1.3-.6-1.3-1.3 0-.7.6-1.3 1.3-1.3zm-.9 4.7h1.8v9.5H305v-9.5zm5 0h1.8v1.5c.5-1 1.7-1.7 2.8-1.7.3 0 .6 0 .8.1l-.1 1.9c-.3-.1-.6-.1-.9-.1-1.8 0-2.7 1-2.7 3v4.8H310v-9.5zm12.9 2.4c-.4-.5-1-.9-1.9-.9-.8 0-1.6.4-1.6 1.1 0 1.1 1.6 1.3 2.4 1.5 1.6.4 2.8 1 2.8 2.8 0 2.1-2 3-3.8 3-1.6 0-2.7-.4-3.7-1.7l1.4-1.1c.6.6 1.3 1.1 2.3 1.1.9 0 1.9-.4 1.9-1.2 0-1.1-1.5-1.3-2.3-1.5-1.5-.4-2.9-.9-2.9-2.7 0-2 1.8-2.9 3.6-2.9 1.3 0 2.6.4 3.2 1.6l-1.4.9zm9.6-.8h-2.6v4.3c0 1.1 0 2.2 1.4 2.2.4 0 .9-.1 1.3-.3v1.6c-.4.2-1.3.3-1.6.3-2.8 0-2.8-1.7-2.8-3.2v-4.9h-2.1v-1.6h2.1v-2.7h1.8v2.7h2.6v1.6h-.1zm7.6-1.6h2l2.1 7.1 2.3-7.1h1.9l2.4 7.1 2-7.1h1.9l-3.1 9.5h-1.8l-2.5-7.1-2.3 7.1h-1.9l-3-9.5zm18 5.4c0 1.7 1.5 2.8 3.2 2.8 1.1 0 1.9-.6 2.6-1.4l1.4 1c-1 1.3-2.4 1.9-4.2 1.9-3 0-4.9-2.2-4.9-5s2.1-5 4.9-5c3.3 0 4.6 2.6 4.6 5v.6l-7.6.1zm5.6-1.4c0-1.6-.9-2.8-2.7-2.8-1.8 0-2.9 1.5-2.9 2.8h5.6zm4.4-2.8c1-.9 2.4-1.4 3.8-1.4 2.8 0 4 1.5 4 3.2v4.8c0 .7 0 1.2.1 1.7h-1.6c0-.5-.1-1-.1-1.4-.8 1.2-1.9 1.7-3.3 1.7-1.8 0-3.3-1-3.3-2.8 0-2.4 2.3-3.3 5.2-3.3h1.3v-.4c0-1-.7-2-2.3-2-1.4 0-2 .6-2.7 1.1l-1.1-1.2zm5.1 3.8c-1.7 0-3.8.3-3.8 1.8 0 1.1.8 1.5 2 1.5 2 0 2.7-1.5 2.7-2.8v-.6l-.9.1zm5.8-5h1.8v1.5c.5-1 1.7-1.7 2.8-1.7.3 0 .6 0 .8.1l-.1 1.9c-.3-.1-.6-.1-.9-.1-1.8 0-2.7 1-2.7 3v4.8H379v-9.5zm7.6 1.2c1-.9 2.4-1.4 3.8-1.4 2.8 0 4 1.5 4 3.2v4.8c0 .7 0 1.2.1 1.7h-1.6c0-.5-.1-1-.1-1.4-.8 1.2-1.9 1.7-3.3 1.7-1.8 0-3.3-1-3.3-2.8 0-2.4 2.3-3.3 5.2-3.3h1.3v-.4c0-1-.7-2-2.3-2-1.4 0-2 .6-2.7 1.1l-1.1-1.2zm5.1 3.8c-1.7 0-3.8.3-3.8 1.8 0 1.1.8 1.5 2 1.5 2 0 2.7-1.5 2.7-2.8v-.6l-.9.1zm5.8-10.6h1.8v7c.6-1 1.9-1.6 3.3-1.6 2.9 0 4.8 2.1 4.8 5 0 2.8-1.9 5-4.8 5-1.3 0-2.6-.6-3.3-1.6v1.4h-1.8V90.3zm8 10.4c0-1.9-1.2-3.3-3.1-3.3-1.9 0-3.1 1.4-3.1 3.3s1.2 3.3 3.1 3.3c1.9 0 3.1-1.4 3.1-3.3zm4.7-10.4h1.8v15.1h-1.8V90.3zm6.4 11c0 1.7 1.5 2.8 3.2 2.8 1.1 0 1.9-.6 2.6-1.4l1.4 1c-1 1.3-2.4 1.9-4.2 1.9-3 0-4.9-2.2-4.9-5s2.1-5 4.9-5c3.3 0 4.6 2.6 4.6 5v.6l-7.6.1zm5.7-1.4c0-1.6-.9-2.8-2.7-2.8-1.8 0-2.9 1.5-2.9 2.8h5.6zm10.5-4h1.7v1.5c.2-.6 1.3-1.7 3-1.7 1.4 0 2.4.6 3 1.8.6-1.2 1.9-1.8 3-1.8 2.9 0 3.6 2.1 3.6 4.2v5.5h-1.8v-5.3c0-1.4-.3-2.8-2-2.8s-2.4 1.2-2.4 2.9v5.2H439v-5c0-1.8-.3-3.1-2-3.1-1.3 0-2.5 1-2.5 3.1v4.9h-1.8l.1-9.4zm22-.2c2.8 0 5 2.2 5 5s-2.2 5-5 5-5-2.2-5-5c-.1-2.8 2.2-5 5-5zm0 8.3c1.9 0 3.1-1.4 3.1-3.3s-1.2-3.3-3.1-3.3c-1.9 0-3.1 1.4-3.1 3.3s1.2 3.3 3.1 3.3zm6.1-8.1h2.1l2.8 7.3 2.7-7.3h1.9l-3.7 9.5h-2l-3.8-9.5zm12.6-4.7c.7 0 1.3.6 1.3 1.3s-.6 1.3-1.3 1.3-1.3-.6-1.3-1.3c0-.7.6-1.3 1.3-1.3zm-.9 4.7h1.8v9.5h-1.8v-9.5zm6.4 5.4c0 1.7 1.5 2.8 3.2 2.8 1.1 0 1.9-.6 2.6-1.4l1.4 1c-1 1.3-2.4 1.9-4.2 1.9-3 0-4.9-2.2-4.9-5s2.1-5 4.9-5c3.3 0 4.6 2.6 4.6 5v.6l-7.6.1zm5.6-1.4c0-1.6-.9-2.8-2.7-2.8-1.8 0-2.9 1.5-2.9 2.8h5.6zm4.2 4.3c0-.7.6-1.3 1.3-1.3s1.3.6 1.3 1.3-.6 1.3-1.3 1.3-1.3-.6-1.3-1.3zm-208.3-8.4h-1.6l1.4-4.9h1.9l-1.7 4.9z"/></svg>