<svg xmlns="http://www.w3.org/2000/svg" viewBox="0 0 785 139" enable-background="new 0 0 785 139"><path fill="#fff" d="M337.8 7.6c.5-.5 1.1-.8 3.1-.8h1.5l-2.6 11.8c-.5 2.1-.6 2.3-2.6 2.4l-.2.8h7.4l.2-.8c-2.2-.2-2.4-.4-2-2.4L345 6.8h1.2c1.6 0 3 .1 4.3.2-.9 5-2 10.4-3 14.9l.2.2c.8-.2 1.7-.4 2.5-.5.2-1.3.7-3.5 1-4.7 1.2-1.9 3.4-4.2 4.3-4.2.3 0 .4.4.2 1.4l-1.3 5.5c-.4 1.9-.1 2.5.6 2.5.8 0 2.5-.9 4-2.5l-.3-.7c-.6.6-1.3 1-1.6 1-.2 0-.2-.2 0-1l1.2-5.3c.6-2.6-.2-3-.9-3-.5 0-1.2.2-1.9.6-.9.5-2.6 1.8-4 3.7.7-3.4 1.4-6.6 2-9.9.1-.6.1-.8-.2-.8-.4 0-1.5.4-2.4.7l-.1.3c-.1.4-.4.5-2.1.5h-10.1c-.7 0-.9 0-1.1-.6h-.6c-.3 1.3-.7 3-1.2 4.6h.9c.3-1 .8-1.7 1.2-2.1zm25.9 14.6c1.5 0 3.4-.7 5.6-3l-.5-.6c-1.2 1.1-2.6 1.9-3.6 1.9-1.4 0-1.8-1.2-1.8-2.5v-.7c2.4-.6 6.4-1.9 6.4-4.4 0-1.1-.8-2.1-2.4-2.1-1.2 0-2.8.7-3.8 1.5-1.9 1.5-2.9 4-2.9 6.3.1 2.8 1.7 3.6 3 3.6zm2-10.1c.2-.2.6-.3.9-.3.4 0 1 .4 1 1.3 0 1.3-1 2.3-3.9 3.2.3-2.6 1.4-3.9 2-4.2zm23.7 5.9l-.8-.3c-.5 1-1.2 1.9-1.7 2.4-.6.6-1.4.8-3 .8-1.2 0-1.9-.1-2.2-.5-.3-.3-.3-.9-.1-2.1l.8-4.2h1.9c2.1 0 2.1.2 2.1 2h.8l1-4.9h-.8c-.7 1.7-.8 1.8-2.8 1.8h-1.9l1-5.1c.2-.9.3-1 1.2-1h1.5c1.5 0 2 .2 2.2.7.3.4.4 1.3.4 2.2l.8-.1c.2-1.3.4-3.2.4-3.8h-11.1l-.2.8c2 .2 2.1.4 1.8 2.3l-1.9 9.9c-.4 2-.6 2.1-2.5 2.3l-.1.8H388c.3-1 1.2-3.2 1.4-4zm2.8 4.2c.8 0 2.6-.9 4.1-2.6l-.4-.6c-.6.6-1.5 1.1-1.7 1.1-.1 0-.2-.2-.1-.9 1-4.6 1.9-9.2 2.9-13.8.1-.6.1-.9-.2-.9-.4 0-2 .7-4.2.9l-.2.6h.7c1.1.1 1.2.2.9 1.5-.8 3.8-1.6 7.7-2.4 11.5-.5 2.6 0 3.2.6 3.2zm7.3 0c.8 0 1.8-.6 2.5-1.2.8-.7 1.8-1.7 2.7-2.9l-.3 1.7c-.4 2.1.1 2.4.6 2.4.8 0 2.5-.9 4.1-2.8l-.4-.6c-.6.6-1.5 1.2-1.7 1.2-.1 0-.2-.2 0-1 .5-3 1.2-5.9 1.7-7.8l-.1-.1c-.4 0-.8-.1-1.3-.2s-1.1-.2-1.6-.2c-1.9 0-3.9 1.1-5.1 2.1-1.7 1.5-2.8 4-2.8 6.4.1 2 .9 3 1.7 3zm3.7-9.9c.3-.3.8-.4 1.3-.4s1.2.2 1.5.3c-.1.8-.5 2.7-.9 3.9-.6 1.2-3 4.1-3.9 4.1-.3 0-.6-.4-.6-1.5.1-2.2 1-5.2 2.6-6.4zm9.7.5c.2 0 .2.2 0 1-.6 2.8-1.3 5.6-1.9 8.1l.2.2c.6-.2 1.6-.4 2.4-.5.3-1.6.7-3.2 1-4.5 1-1.8 3.5-4.5 4.4-4.5.3 0 .4.3.1 1.6-.4 1.8-.8 3.5-1.2 5.3-.5 2 0 2.6.6 2.6.8 0 2.2-.7 4-2.5l-.4-.7c-.6.6-1.3 1.1-1.5 1.1s-.2-.3-.1-.9c.4-1.6.7-3.2 1.1-4.7.7-3.3 0-3.7-.8-3.7-.5 0-1.2.2-1.9.7-1.1.7-2.6 2-3.9 3.9l.4-1.6c.5-2.2.2-3-.4-3-.8 0-2.4.9-3.9 2.5l.3.7c.5-.6 1.3-1.1 1.5-1.1zm13.9-.6l-1.4 6.5c-.5 2.6 0 3.4.8 3.4 1.4 0 3.5-1.6 4.3-2.8l-.4-.6c-.6.6-1.7 1.3-2.1 1.3-.2 0-.4-.3-.1-1.5l1.3-6.4 2.3-.1.7-1h-2.8l.9-3.8-.3-.2-2.5 1.7-.5 2.3h-1.5l-.7.9.1.2c.1.1 1.9.1 1.9.1zm7.8.7c.2 0 .2.3 0 1.1-.5 2.6-1.1 5.4-1.7 7.9l.2.2c.7-.2 1.7-.4 2.4-.5.2-1.5.6-3.3.9-4.8.3-.8.9-2 1.5-2.8.5-.7.8-.9 1.1-.9.3 0 .6.1.9.4.2.1.4.1.6 0 .3-.2.5-.5.8-.9.3-.5.3-1 .1-1.4-.2-.4-.7-.6-1.1-.6-1.1 0-2.4 1.7-3.6 4h-.1l.2-1.1c.4-1.9.3-2.9-.4-2.9-.8 0-2.4 1.1-3.8 2.5l.3.6c.6-.3 1.4-.8 1.7-.8zm9.1 9.3c.8 0 1.8-.6 2.5-1.2.8-.7 1.8-1.7 2.7-2.9l-.3 1.7c-.4 2.1.1 2.4.6 2.4.8 0 2.5-.9 4.1-2.8l-.4-.6c-.6.6-1.5 1.2-1.7 1.2-.1 0-.2-.2 0-1 .5-3 1.2-5.9 1.7-7.8l-.1-.1c-.4 0-.8-.1-1.3-.2s-1.1-.2-1.6-.2c-1.9 0-3.9 1.1-5.1 2.1-1.7 1.5-2.8 4-2.8 6.4.1 2 .9 3 1.7 3zm3.6-9.9c.3-.3.8-.4 1.3-.4s1.2.2 1.5.3c-.1.8-.5 2.7-.9 3.9-.6 1.2-3 4.1-3.9 4.1-.3 0-.6-.4-.6-1.5.2-2.2 1-5.2 2.6-6.4zM152.9 123.4c-.2 0-.3-.3-.1-1.1l1.4-6.1c.7-3-.2-3.5-1-3.5-.6 0-1.3.3-2.2.7-1.1.6-3 2.1-4.6 4.3h-.1c.8-3.9 1.6-7.6 2.4-11.4.2-.7.1-1-.2-1-.5 0-1.7.5-2.7.8l-.1.4c-.2.4-.5.5-2.4.5h-11.7c-.8 0-1-.1-1.3-.7h-.7c-.3 1.5-.8 3.5-1.4 5.3h1c.6-1.3 1.1-2.1 1.6-2.6.5-.6 1.2-.9 3.6-.9h1.7l-3 13.7c-.5 2.4-.7 2.6-3 2.8l-.2.9h8.5l.2-.9c-2.6-.2-2.7-.4-2.2-2.8l2.8-13.7h1.4c1.9 0 3.4.1 5 .3-1.1 5.8-2.3 12-3.5 17.2l.2.2c.9-.3 1.9-.5 2.9-.6.3-1.5.8-4.1 1.1-5.5 1.3-2.2 4-4.9 5-4.9.4 0 .5.5.3 1.6l-1.5 6.4c-.5 2.2-.1 2.9.7 2.9.9 0 2.8-1 4.6-2.9l-.4-.8c-1 .9-1.9 1.4-2.1 1.4zm12.8-10.7c-1.2 0-2.8 2-4.1 4.6h-.1l.3-1.3c.5-2.2.3-3.3-.5-3.3-1 0-2.8 1.2-4.4 2.9l.4.7c.6-.6 1.6-1.2 1.9-1.2.2 0 .2.4.1 1.3-.6 3-1.3 6.2-2 9.2l.2.3c.8-.3 1.9-.5 2.8-.6.3-1.7.7-3.8 1.1-5.5.3-1 1.1-2.3 1.8-3.3.6-.8.9-1 1.3-1 .3 0 .7.2 1.1.5.2.2.4.2.7 0 .3-.2.6-.6.9-1.1.3-.5.4-1.1.1-1.6-.6-.3-1.1-.6-1.6-.6zm12.1 2.4c0-1.3-1-2.4-2.8-2.4-1.4 0-3.2.8-4.4 1.7-2.2 1.7-3.4 4.6-3.4 7.2 0 3.4 1.8 4.2 3.4 4.2 1.8 0 3.9-.8 6.5-3.4l-.5-.7c-1.4 1.3-3 2.1-4.1 2.1-1.6 0-2.1-1.4-2.1-2.9v-.8c2.8-.7 7.4-2.1 7.4-5zm-5-.8c.3-.2.7-.3 1-.3.5 0 1.2.5 1.2 1.5 0 1.5-1.1 2.7-4.5 3.7.4-3 1.7-4.5 2.3-4.9zm16.4.8c0-1.3-1-2.4-2.8-2.4-1.4 0-3.2.8-4.4 1.7-2.2 1.7-3.4 4.6-3.4 7.2 0 3.4 1.8 4.2 3.4 4.2 1.8 0 3.9-.8 6.5-3.4l-.5-.7c-1.4 1.3-3 2.1-4.1 2.1-1.6 0-2.1-1.4-2.1-2.9v-.8c2.9-.7 7.4-2.1 7.4-5zm-4.9-.8c.3-.2.7-.3 1-.3.5 0 1.2.5 1.2 1.5 0 1.5-1.1 2.7-4.5 3.7.4-3 1.6-4.5 2.3-4.9zm25.1-.9l-.3-.6c-.5.3-1.6.7-3.4.7-.7-.5-1.5-.8-2.6-.8-1.2 0-2.8.5-4 1.4-1.6 1.1-2.4 2.9-2.4 4.7 0 1.8.9 3.1 2.8 3.4-1.5.8-2 1.4-2 1.9s.4 1 1 1.4c-2.8 1.4-4.6 2.5-4.7 3.9 0 1.8 2.3 3.2 5.3 3.2s7.2-1.9 7.2-4.4c0-1.3-1.1-2.4-4.1-3.9-1.4-.7-2-1.1-2-1.5 0-.3.2-.5.4-.7 1.9-.4 3.2-1.1 4-1.8 1-.8 2.1-2.2 2.1-4.1 0-.5-.1-1-.2-1.4.3 0 .4-.1.6-.1.6.1 1.3-.3 2.3-1.3zm-7.7 14c1.3.7 1.8 1.3 1.8 2 0 1-1.2 1.9-3.1 1.9-1.8 0-3.5-1.1-3.5-2.4 0-1 1.1-2.1 2.4-2.8.7.3 1.5.8 2.4 1.3zm-.6-6.3c-.9 0-1.4-.8-1.4-2.2 0-1.3.4-2.6.9-3.5.4-.9 1.1-1.6 1.9-1.6 1 0 1.5 1 1.5 2.4-.1 3-1.6 4.9-2.9 4.9zm16.3-8.4c-1.2 0-2.8 2-4.1 4.6h-.1l.3-1.3c.5-2.2.3-3.3-.5-3.3-1 0-2.8 1.2-4.4 2.9l.4.7c.6-.6 1.6-1.2 1.9-1.2.2 0 .2.4.1 1.3-.6 3-1.3 6.2-2 9.2l.2.3c.8-.3 1.9-.5 2.8-.6.3-1.7.7-3.8 1.1-5.5.3-1 1.1-2.3 1.8-3.3.6-.8.9-1 1.3-1 .3 0 .7.2 1.1.5.2.2.4.2.7 0 .3-.2.6-.6.9-1.1.3-.5.4-1.1.1-1.6-.5-.3-1.1-.6-1.6-.6zm12.1 2.4c0-1.3-1-2.4-2.8-2.4-1.4 0-3.2.8-4.4 1.7-2.2 1.7-3.4 4.6-3.4 7.2 0 3.4 1.8 4.2 3.4 4.2 1.8 0 3.9-.8 6.5-3.4l-.5-.7c-1.4 1.3-3 2.1-4.1 2.1-1.6 0-2.1-1.4-2.1-2.9v-.8c2.8-.7 7.4-2.1 7.4-5zm-4.9-.8c.3-.2.7-.3 1-.3.5 0 1.2.5 1.2 1.5 0 1.5-1.1 2.7-4.5 3.7.3-3 1.6-4.5 2.3-4.9zm16.3 9.1c-.2 0-.2-.3-.1-1.2.6-3.4 1.3-6.8 1.9-9l-.1-.1c-.4 0-.9-.1-1.5-.2s-1.2-.2-1.8-.2c-2.2 0-4.5 1.2-5.8 2.4-1.9 1.7-3.2 4.7-3.2 7.4 0 2.2.9 3.4 1.9 3.4.9 0 2.1-.7 2.9-1.4.9-.8 2.1-1.9 3.1-3.4h.1l-.4 1.9c-.5 2.4.1 2.8.7 2.8.9 0 2.9-1.1 4.7-3.2l-.4-.7c-.7.8-1.7 1.5-2 1.5zm-2.2-4.5c-.7 1.4-3.4 4.7-4.4 4.7-.4 0-.7-.5-.7-1.7 0-2.6 1-6 2.8-7.4.4-.3.9-.5 1.5-.5s1.4.2 1.7.4c-.1.9-.6 3.2-.9 4.5zm12.7-10.1l-.3-.2-2.9 2-.6 2.6h-1.7l-.8 1 .1.3h2.1l-1.6 7.5c-.6 3 0 3.9.9 3.9 1.6 0 4-1.9 5-3.2l-.4-.7c-.7.7-2 1.5-2.4 1.5-.3 0-.4-.4-.1-1.7l1.5-7.4 2.7-.1.8-1.1h-3.2l.9-4.4zm15.8 3.9c-1.5 0-3.5 1-4.8 2.1-2 1.7-3 4.5-3 6.9 0 2.8 1.3 4.2 3.4 4.2 1.8 0 4-1.1 5.9-3.2l-.5-.8c-.7.7-2.3 1.9-3.6 1.9-1.2 0-1.9-.9-1.9-3s.5-4 1.1-5.2c.5-1 1.1-1.5 1.8-1.5.8 0 1.5.5 2.2 1.6.2.3.5.3.8.1.8-.5 1.1-1.1 1.1-1.6 0-.8-1.1-1.5-2.5-1.5zm14 10.7c-.2 0-.3-.3-.1-1.1l1.3-5.6c.8-3.6-.2-4-1-4-.6 0-1.5.3-2.2.7-1.2.7-2.8 2-4.6 4.2h-.1l2.4-11.2c.2-.8.1-1-.2-1-.5 0-2.1.8-4.8 1l-.2.9h.7c1.2.1 1.4.1 1.1 1.5-1.1 5.9-2.2 11.4-3.4 16.8l.2.2c.9-.3 1.9-.5 2.9-.6.3-1.5.8-4.2 1.1-5.6 1.4-2.3 4-4.8 5-4.8.4 0 .5.5.2 1.7l-1.4 6.2c-.5 2.3-.1 3 .7 3 1 0 2.8-1 4.6-2.9l-.4-.8c-.7.9-1.6 1.4-1.8 1.4zm11.7-10.7c-1.1 0-2.4.4-3.5 1-2.2 1.2-4.3 3.9-4.3 7.6 0 2.2.9 4.6 4.1 4.6 1.7 0 3.5-.8 4.7-1.8 2.1-1.7 3-4.4 3-6.9 0-2.8-1.4-4.5-4-4.5zm-1.8 11.9c-.3.1-.5.1-.8.1-1.1 0-2-1.1-2-3.3 0-4.6 1.8-6.9 2.7-7.3.3-.1.6-.2.8-.2 1.1 0 1.9 1 1.9 3.2 0 3.9-1.4 6.9-2.6 7.5zm11.4-1.2c-.2 0-.3-.3-.1-1.1l1.7-7c.4-1.6.3-2.6-.5-2.6-.9 0-3 1.1-4.9 2.9l.4.7c.7-.6 1.6-1.1 1.8-1.1.2 0 .2.3 0 1l-1.6 6.7c-.6 2.4-.1 3 .7 3 .9 0 3.1-1.2 4.7-3l-.4-.7c-.7.7-1.5 1.2-1.8 1.2zm1.3-16.3c-1.3 0-1.9 1.1-1.9 2 0 1 .5 1.6 1.4 1.6 1.1 0 1.9-.9 1.9-2 .1-.9-.4-1.6-1.4-1.6zm10.4 5.6c-1.5 0-3.5 1-4.8 2.1-2 1.7-3 4.5-3 6.9 0 2.8 1.3 4.2 3.4 4.2 1.8 0 4-1.1 5.9-3.2l-.5-.8c-.7.7-2.3 1.9-3.6 1.9-1.2 0-1.9-.9-1.9-3s.5-4 1.1-5.2c.5-1 1.1-1.5 1.8-1.5.8 0 1.5.5 2.2 1.6.2.3.5.3.8.1.8-.5 1.1-1.1 1.1-1.6-.1-.8-1.1-1.5-2.5-1.5zm13.6 2.4c0-1.3-1-2.4-2.8-2.4-1.4 0-3.2.8-4.4 1.7-2.2 1.7-3.4 4.6-3.4 7.2 0 3.4 1.8 4.2 3.4 4.2 1.8 0 3.9-.8 6.5-3.4l-.5-.7c-1.4 1.3-3 2.1-4.1 2.1-1.6 0-2.1-1.4-2.1-2.9v-.8c2.8-.7 7.4-2.1 7.4-5zm-5-.8c.3-.2.7-.3 1-.3.5 0 1.2.5 1.2 1.5 0 1.5-1.1 2.7-4.5 3.7.4-3 1.7-4.5 2.3-4.9zm11.9-1.6c-1.1 0-2.4.6-3.4 1.4-1.3 1.1-1.7 2.1-1.7 3 0 1.7 1.5 2.7 2.7 3.6 1.4 1.1 1.8 1.6 1.8 2.2 0 .7-.6 1.3-1.5 1.3s-2.1-.8-3.1-2c-.2-.3-.5-.3-.9-.1-.5.3-.9.9-.9 1.5 0 1.2 1.7 2.2 3.2 2.2 2.4 0 5.5-2.1 5.5-4.5 0-1.4-1-2.4-2.6-3.5-1.1-.7-1.9-1.5-2-2.3 0-.7.5-1.2 1.3-1.2 1.1 0 1.9.7 2.4 1.5.2.3.4.3.7.1.5-.3.9-.9.9-1.4.1-.9-.9-1.8-2.4-1.8zm5.7 9.3c-1.2 0-2 .9-2 2.1 0 1.1.7 1.8 1.7 1.8s2-.8 2-2.1c0-1.1-.7-1.8-1.7-1.8zm22.2-15.4c-6.1 0-10.5 5.3-10.5 11.3 0 4.9 3.2 8.1 7.8 8.1 6.2 0 10.5-5 10.5-11.2-.1-4.8-3.1-8.2-7.8-8.2zm-2.6 18.3c-3 0-4.3-2.8-4.3-6.4 0-5.3 2.9-10.7 6.7-10.7 3.1 0 4.3 2.8 4.3 6.4 0 4.9-2.6 10.7-6.7 10.7zm22.8-1.5c-.2 0-.3-.3-.1-1 .4-1.8.8-3.6 1.3-5.4.9-3.8 0-4.3-.9-4.3-.6 0-1.4.3-2.2.8-1.2.8-3 2.3-4.5 4.4h-.1l.4-1.8c.6-2.6.3-3.4-.5-3.4-1 0-2.7 1-4.6 2.8l.4.8c.6-.6 1.6-1.2 1.8-1.2.2 0 .2.2 0 1.1-.7 3.2-1.5 6.4-2.2 9.4l.2.3c.7-.3 1.9-.5 2.8-.6.3-1.8.8-3.7 1.2-5.2 1.1-2 4-5.2 5-5.2.4 0 .5.4.1 1.9-.5 2-.9 4-1.4 6.1-.5 2.4-.1 3 .7 3 .9 0 2.6-.9 4.6-2.9l-.5-.8c-.5.7-1.3 1.2-1.5 1.2zm14.4-8.3c0-1.3-1-2.4-2.8-2.4-1.4 0-3.2.8-4.4 1.7-2.2 1.7-3.4 4.6-3.4 7.2 0 3.4 1.8 4.2 3.4 4.2 1.8 0 3.9-.8 6.5-3.4l-.5-.7c-1.4 1.3-3 2.1-4.1 2.1-1.6 0-2.1-1.4-2.1-2.9v-.8c2.8-.7 7.4-2.1 7.4-5zm-5-.8c.3-.2.7-.3 1-.3.5 0 1.2.5 1.2 1.5 0 1.5-1.1 2.7-4.5 3.7.4-3 1.7-4.5 2.3-4.9zm22.5 9.1c-.2 0-.2-.3-.1-1.2.6-3.4 1.3-6.8 1.9-9l-.1-.1c-.4 0-.9-.1-1.5-.2s-1.2-.2-1.8-.2c-2.2 0-4.5 1.2-5.8 2.4-1.9 1.7-3.2 4.7-3.2 7.4 0 2.2.9 3.4 1.9 3.4.9 0 2.1-.7 2.9-1.4.9-.8 2.1-1.9 3.1-3.4h.1l-.4 1.9c-.5 2.4.1 2.8.7 2.8.9 0 2.9-1.1 4.7-3.2l-.4-.7c-.8.8-1.8 1.5-2 1.5zm-2.3-4.5c-.7 1.4-3.4 4.7-4.4 4.7-.4 0-.7-.5-.7-1.7 0-2.6 1-6 2.8-7.4.4-.3.9-.5 1.5-.5s1.4.2 1.7.4c0 .9-.5 3.2-.9 4.5zm24.4 4.5c-.2 0-.3-.2-.1-.9l1.3-5.6c.9-3.8-.1-4.2-.8-4.2-.6 0-1.1.2-1.9.6-1.1.6-2.8 2-4.7 4.5h-.1l.2-.9c.8-3.7-.1-4.2-.9-4.2-.6 0-1.2.2-1.9.6-1 .6-2.8 2-4.7 4.6h-.1l.4-1.8c.6-2.3.5-3.4-.4-3.4-1 0-2.8 1.1-4.6 2.9l.4.8c.6-.5 1.5-1.2 1.9-1.2.2 0 .2.3 0 1.1-.7 3.2-1.4 6.3-2.3 9.4l.2.3c.8-.3 1.9-.5 2.8-.6.4-1.8.8-3.9 1.3-5.3.9-1.7 3.8-5.1 4.9-5.1.5 0 .5.7.1 2.4-.6 2.7-1.3 5.5-2 8.3l.2.3c.8-.3 1.9-.5 2.9-.6.3-1.8.8-3.7 1.1-5.3 1-1.8 3.9-5.1 4.9-5.1.3 0 .5.5.2 1.7l-1.5 6.4c-.5 2.2-.1 2.9.7 2.9.9 0 2.8-1 4.6-2.9l-.4-.8c-.5.5-1.4 1.1-1.7 1.1zm14.5 0c-.2 0-.2-.3-.1-1.2.6-3.4 1.3-6.8 1.9-9l-.1-.1c-.4 0-.9-.1-1.5-.2s-1.2-.2-1.8-.2c-2.2 0-4.5 1.2-5.8 2.4-1.9 1.7-3.2 4.7-3.2 7.4 0 2.2.9 3.4 1.9 3.4.9 0 2.1-.7 2.9-1.4.9-.8 2.1-1.9 3.1-3.4h.1l-.4 1.9c-.5 2.4.1 2.8.7 2.8.9 0 2.9-1.1 4.7-3.2l-.4-.7c-.8.8-1.8 1.5-2 1.5zm-2.3-4.5c-.7 1.4-3.4 4.7-4.4 4.7-.4 0-.7-.5-.7-1.7 0-2.6 1-6 2.8-7.4.4-.3.9-.5 1.5-.5s1.4.2 1.7.4c0 .9-.5 3.2-.9 4.5zm15.8-3.7c.8-.9 1.5-1.7 2-2.2l-.6-.7c-.7.7-1.4 1.1-1.9 1.1s-1.1 0-2.6-.3c-1.3-.3-2-.3-2.7-.3-.7 0-1.5.6-2.2 1.7-.4.7-.9 1.5-1.3 2.5l.8.5c.9-1.4 1.5-2.2 3-2.2.7 0 1.6.1 2.3.1.7.1 1.4 0 1.9-.1-2.5 2.6-5.9 5.7-7.7 7.5-1.9 2-1.6 3-1.1 3.2.1 0 .3-.1.4-.3.2-.4.5-.7.9-1 .4-.3.9-.4 2 .2 1.2.6 2.7 1.3 3.7 1.3 1.3 0 2.6-1 4.3-4.5l-.7-.6c-1.3 1.9-2.1 2.4-2.9 2.4-.7 0-1.4-.3-2.3-.6-.9-.3-1.7-.5-2.3-.4 1.5-1.7 4.9-5 7-7.3zm5.7 8.2c-.2 0-.3-.3-.1-1.1l1.7-7c.4-1.6.3-2.6-.5-2.6-.9 0-3 1.1-4.9 2.9l.4.7c.7-.6 1.6-1.1 1.8-1.1.2 0 .2.3 0 1l-1.6 6.7c-.6 2.4-.1 3 .7 3 .9 0 3.1-1.2 4.7-3l-.4-.7c-.7.7-1.5 1.2-1.8 1.2zm1.4-16.3c-1.3 0-1.9 1.1-1.9 2 0 1 .5 1.6 1.4 1.6 1.1 0 1.9-.9 1.9-2 .1-.9-.4-1.6-1.4-1.6zm15.6 15.1c-.7.7-1.5 1.2-1.8 1.2s-.3-.3-.1-1c.4-1.8.8-3.6 1.3-5.4.9-3.8 0-4.3-.9-4.3-.6 0-1.4.3-2.2.8-1.2.8-3 2.3-4.5 4.4h-.1l.4-1.8c.6-2.6.3-3.4-.5-3.4-1 0-2.7 1-4.6 2.8l.4.8c.6-.6 1.6-1.2 1.8-1.2.2 0 .2.2 0 1.1-.7 3.2-1.5 6.4-2.2 9.4l.2.3c.7-.3 1.9-.5 2.8-.6.3-1.8.8-3.7 1.2-5.2 1.1-2 4-5.2 5-5.2.4 0 .5.4.1 1.9-.5 2-.9 4-1.4 6.1-.5 2.4-.1 3 .7 3 .9 0 2.6-.9 4.6-2.9l-.2-.8zm11.7-8.7c-.7-.5-1.5-.8-2.6-.8-1.2 0-2.8.5-4 1.4-1.6 1.1-2.4 2.9-2.4 4.7 0 1.8.9 3.1 2.8 3.4-1.5.8-2 1.4-2 1.9s.4 1 1 1.4c-2.8 1.4-4.6 2.5-4.7 3.9 0 1.8 2.3 3.2 5.3 3.2s7.2-1.9 7.2-4.4c0-1.3-1.1-2.4-4.1-3.9-1.4-.7-2-1.1-2-1.5 0-.3.2-.5.4-.7 1.9-.4 3.2-1.1 4-1.8 1-.8 2-2.2 2-4.1 0-.5-.1-1-.2-1.4.3 0 .4-.1.6-.1.5-.1 1.3-.5 2.3-1.5l-.3-.6c-.5.5-1.6.9-3.3.9zm-4 13.9c1.3.7 1.8 1.3 1.8 2 0 1-1.2 1.9-3.1 1.9-1.8 0-3.5-1.1-3.5-2.4 0-1 1.1-2.1 2.4-2.8.6.3 1.4.8 2.4 1.3zm-.7-6.3c-.9 0-1.4-.8-1.4-2.2 0-1.3.4-2.6.9-3.5.4-.9 1.1-1.6 1.9-1.6 1 0 1.5 1 1.5 2.4-.1 3-1.6 4.9-2.9 4.9zm30.4-8.4c-.6 0-1.2.5-1.4 1-.1.3-.1.6 0 .8.2.3.3.8.3 1.4 0 1.8-2.3 5-3.4 6.5h-.1c-.4-3-.7-6.1-1.2-9.3h-.9c-1.6 2.9-3.3 5.8-4.8 8.5h-.1c0-1.5 0-3.5-.1-5.7s-.5-3.2-1.3-3.2c-1.1 0-2.8 1.4-4.1 3.1l.5.7c.9-.9 1.3-1.3 1.6-1.3.3 0 .4.5.5 1.6.2 2.1.4 6.6.5 9.2h1c1.6-2.4 3.4-5.4 5-8.1h.1c.3 2.6.7 5.4 1 8.1h1c1.6-2 5.2-7 6.1-8.5.7-1.1 1.1-2 1.1-2.9.1-1.2-.5-1.9-1.3-1.9zm14.8 10l-.4-.7c-.7.7-1.7 1.4-2 1.4-.2 0-.2-.3-.1-1.2.6-3.4 1.3-6.8 1.9-9l-.1-.1c-.4 0-.9-.1-1.5-.2s-1.2-.2-1.8-.2c-2.2 0-4.5 1.2-5.8 2.4-1.9 1.7-3.2 4.7-3.2 7.4 0 2.2.9 3.4 1.9 3.4.9 0 2.1-.7 2.9-1.4.9-.8 2.1-1.9 3.1-3.4h.1l-.4 1.9c-.5 2.4.1 2.8.7 2.8.9.1 3-.9 4.7-3.1zm-4.6-3.8c-.7 1.4-3.4 4.7-4.4 4.7-.4 0-.7-.5-.7-1.7 0-2.6 1-6 2.8-7.4.4-.3.9-.5 1.5-.5s1.4.2 1.7.4c-.1.9-.6 3.2-.9 4.5zm16.8-6.2c-.5 0-1.1.3-1.4.9-.2.3-.2.6-.1.9.1.4.4.8.4 1.5 0 2-1.9 5-3.3 7.1h-.1c-.1-2.4-.3-4.4-.6-6.7-.3-2.6-.9-3.6-1.8-3.6-1.2 0-2.7 1.6-3.8 3.3l.6.7c.8-1.1 1.4-1.5 1.6-1.5.2 0 .4.3.6 1.5.5 2.6 1 7.3 1 9.5-1.5 2-3.4 3.8-6.4 5.8l.2.7 3.5-.9c1.9-2.1 3.6-4.5 5.3-6.9 1.6-2.2 3.5-5.1 4.8-7.3.8-1.3 1.1-2.3 1.1-3.1-.3-1.3-.9-1.9-1.6-1.9zm13.5 1.7l2.7-.1.8-1.1h-3.2l1-4.4-.3-.2-2.9 2-.6 2.6h-1.7l-.8 1 .1.3h2.1L561 122c-.6 3 0 3.9.9 3.9 1.6 0 4-1.9 5-3.2l-.4-.7c-.7.7-2 1.5-2.4 1.5-.3 0-.4-.4-.1-1.7l1.4-7.4zm11.1-1.7c-1.1 0-2.4.4-3.5 1-2.2 1.2-4.3 3.9-4.3 7.6 0 2.2.9 4.6 4.1 4.6 1.7 0 3.5-.8 4.7-1.8 2-1.7 3-4.4 3-6.9.1-2.8-1.4-4.5-4-4.5zm-1.8 11.9c-.3.1-.5.1-.8.1-1.1 0-2-1.1-2-3.3 0-4.6 1.8-6.9 2.7-7.3.3-.1.6-.2.8-.2 1.1 0 1.9 1 1.9 3.2 0 3.9-1.4 6.9-2.6 7.5zm27.5-19.1c-.5 0-2.2.7-4.9 1l-.1.9h.7c1.3 0 1.5.1 1.2 1.4l-.8 4.2c-.7-.2-1.1-.2-1.6-.2-1.3 0-3.7 1.1-5.1 2.2-2.1 1.7-3.3 4.8-3.3 7.5 0 2.3 1 3.5 2.1 3.5.9 0 1.8-.5 2.8-1.3 1.1-.8 2.3-2 3.4-3.5h.1l-.4 2.1c-.5 2.3 0 2.7.7 2.7.9 0 2.9-1 4.6-3.1l-.4-.7c-.8.8-1.6 1.3-1.9 1.3-.2 0-.3-.3-.1-1.1 1-5.3 2-10.4 3.3-15.9.1-.8 0-1-.3-1zm-5.3 13.4c-.9 1.7-3.4 4.7-4.7 4.7-.5 0-.8-.6-.8-1.8 0-2.2 1-6 2.8-7.3.4-.3.8-.5 1.5-.5s1.6.3 2.1.8l-.9 4.1zm16.5-3.8c0-1.3-1-2.4-2.8-2.4-1.4 0-3.2.8-4.4 1.7-2.2 1.7-3.4 4.6-3.4 7.2 0 3.4 1.8 4.2 3.4 4.2 1.8 0 3.9-.8 6.5-3.4l-.5-.7c-1.4 1.3-3 2.1-4.1 2.1-1.6 0-2.1-1.4-2.1-2.9v-.8c2.8-.7 7.4-2.1 7.4-5zm-5-.8c.3-.2.7-.3 1-.3.5 0 1.2.5 1.2 1.5 0 1.5-1.1 2.7-4.5 3.7.4-3 1.7-4.5 2.3-4.9zm13.7-1.6c-1.5 0-3.5 1-4.8 2.1-2 1.7-3 4.5-3 6.9 0 2.8 1.3 4.2 3.4 4.2 1.8 0 4-1.1 5.9-3.2l-.5-.8c-.7.7-2.3 1.9-3.6 1.9-1.2 0-1.9-.9-1.9-3s.5-4 1.1-5.2c.5-1 1.1-1.5 1.8-1.5.8 0 1.5.5 2.2 1.6.2.3.5.3.8.1.8-.5 1.1-1.1 1.1-1.6 0-.8-1.1-1.5-2.5-1.5zm7.1 10.7c-.2 0-.3-.3-.1-1.1l1.7-7c.4-1.6.3-2.6-.5-2.6-.9 0-3 1.1-4.9 2.9l.4.7c.7-.6 1.6-1.1 1.8-1.1.2 0 .2.3 0 1l-1.6 6.7c-.6 2.4-.1 3 .7 3 .9 0 3.1-1.2 4.7-3l-.4-.7c-.7.7-1.5 1.2-1.8 1.2zm1.3-16.3c-1.3 0-1.9 1.1-1.9 2 0 1 .5 1.6 1.4 1.6 1.1 0 1.9-.9 1.9-2 .1-.9-.4-1.6-1.4-1.6zm16.6-1.6c-.5 0-2.2.7-4.9 1l-.1.9h.7c1.3 0 1.5.1 1.2 1.4l-.8 4.2c-.7-.2-1.1-.2-1.6-.2-1.3 0-3.7 1.1-5.1 2.2-2 1.7-3.3 4.8-3.3 7.5 0 2.3 1 3.5 2.1 3.5.9 0 1.8-.5 2.8-1.3 1.1-.8 2.3-2 3.4-3.5h.1l-.4 2.1c-.5 2.3 0 2.7.7 2.7.9 0 2.9-1 4.6-3.1l-.4-.7c-.8.8-1.6 1.3-1.9 1.3-.2 0-.3-.3-.1-1.1 1-5.3 2-10.4 3.3-15.9 0-.8 0-1-.3-1zm-5.3 13.4c-.9 1.7-3.4 4.7-4.7 4.7-.5 0-.8-.6-.8-1.8 0-2.2 1-6 2.8-7.3.4-.3.8-.5 1.5-.5s1.6.3 2.1.8l-.9 4.1zm16.5-3.8c0-1.3-1-2.4-2.8-2.4-1.4 0-3.2.8-4.4 1.7-2.2 1.7-3.4 4.6-3.4 7.2 0 3.4 1.8 4.2 3.4 4.2 1.8 0 3.9-.8 6.5-3.4l-.5-.7c-1.4 1.3-3 2.1-4.1 2.1-1.6 0-2.1-1.4-2.1-2.9v-.8c2.8-.7 7.4-2.1 7.4-5zm-5-.8c.3-.2.7-.3 1-.3.5 0 1.2.5 1.2 1.5 0 1.5-1.1 2.7-4.5 3.7.4-3 1.6-4.5 2.3-4.9zm7.9 7.7c-1.2 0-2 .9-2 2.1 0 1.1.7 1.8 1.7 1.8s2-.8 2-2.1c.1-1.1-.7-1.8-1.7-1.8zM38.6 42c-1.2-2.1-2.9-3.8-5-4.9-2.2-1.1-5-1.7-8.5-1.7H8.5v50.2h15.9c3.4 0 6.2-.5 8.4-1.5s4-2.6 5.3-4.7 2.2-4.8 2.8-8c.5-3.3.8-7.1.8-11.5 0-3.7-.2-7-.6-10-.5-3.2-1.3-5.7-2.5-7.9zm-7.3 26.6c-.2 2.3-.6 4.1-1.3 5.5-.6 1.4-1.5 2.4-2.6 3-1.1.6-2.5.9-4.3.9h-4.5V42.9h4.3c1.9 0 3.5.4 4.6 1.1 1.1.7 2 1.8 2.6 3.2.6 1.4 1 3.2 1.2 5.4.2 2.2.3 4.7.3 7.5 0 3.4-.1 6.2-.3 8.5zm47.6 13.7c-.2-1.4-.3-3.4-.4-6.1 0-1.4-.1-2.6-.1-3.7s-.1-2.1-.2-3.1c-.3-2.8-1-4.8-2.2-6.1-1.2-1.3-3-2.1-5.6-2.5v-.1c2.9-.6 5-2 6.3-4.1 1.4-2.1 2-4.9 2-8.3 0-4.4-1.2-7.6-3.5-9.7-2.3-2.1-5.6-3.2-9.8-3.2H46.8v50.2h10.1V64.4h5.4c2.1 0 3.6.6 4.5 1.7.9 1.1 1.4 2.7 1.5 4.6l.3 9.6c0 1 .1 1.9.3 2.8s.5 1.7 1 2.4h11v-.4c-1.1-.5-1.7-1.4-2-2.8zM66.7 55.6c-1.3 1.1-3.2 1.7-5.6 1.7h-4.2V42.9h4.8c4.7 0 7 2.3 7 7 0 2.6-.7 4.6-2 5.7zm81.1 30l11.5-50.2h-10.5l-7.4 37.1h-.2l-7.1-37.1h-10.8l11.5 50.2h13zm23.7-21.8h16.9v-8.3h-16.9V43.7h17.9v-8.3h-28v50.2h28.7v-8.3h-18.6V63.8zm39.6 21.8l5.6-36.4h.1l5.6 36.4h11.3l9.1-50.2h-9.7l-5.6 37.1h-.1l-5.9-37.1h-9.7L206 72.5h-.1l-5.6-37.1h-9.7l9.1 50.2h11.4zm59.3 0h10.5l-13.3-50.2h-12.5l-13.3 50.2h10.5l2.3-10.6h13.3l2.5 10.6zm-13.9-18.9l4.8-22.6h.1l4.8 22.6h-9.7zm33.1 18.9h10.1V65.8l13-30.4h-11l-7 19.4h-.1L288 35.4h-11.4l13 30.4v19.8zm66.7-6.3c1.3-2.1 2.2-4.8 2.8-8 .5-3.3.8-7.1.8-11.5 0-3.7-.2-7-.6-10-.4-3-1.2-5.6-2.4-7.7-1.2-2.1-2.9-3.8-5-4.9-2.2-1.1-5-1.7-8.5-1.7h-16.6v50.2h15.9c3.4 0 6.2-.5 8.4-1.5 2.1-1.2 3.9-2.8 5.2-4.9zm-6.9-10.7c-.2 2.3-.6 4.1-1.3 5.5-.6 1.4-1.5 2.4-2.6 3-1.1.6-2.5.9-4.3.9h-4.5V42.9h4.3c1.9 0 3.5.4 4.6 1.1 1.1.7 2 1.8 2.6 3.2.6 1.4 1 3.2 1.2 5.4.2 2.2.3 4.7.3 7.5.1 3.4 0 6.2-.3 8.5zm43.1-24.9v-8.3h-28v50.2h28.7v-8.3h-18.6V63.8h16.9v-8.3h-16.9V43.7h17.9zm27.8 41.1c2.1-1 3.7-2.5 4.8-4.3 1.1-1.8 1.9-4 2.4-6.4.4-2.4.6-5 .6-7.7H418c0 2.7-.2 4.9-.5 6.6-.3 1.7-.8 3-1.3 3.9-.6.9-1.2 1.5-2 1.8-.8.3-1.6.5-2.5.5-1.1 0-2-.2-2.8-.7-.8-.4-1.5-1.3-2-2.6s-.9-3.1-1.2-5.4c-.3-2.3-.4-5.4-.4-9.2 0-3.6.1-6.6.3-9s.5-4.4 1-6 1.1-2.6 1.9-3.3c.8-.7 1.9-1 3.1-1 2.3 0 3.9.8 4.7 2.5.9 1.7 1.3 4.3 1.3 8h10.1c0-1.8-.1-3.8-.4-5.9-.3-2.1-.9-4-1.9-5.8-1-1.8-2.6-3.3-4.7-4.5-2.1-1.2-4.9-1.8-8.5-1.8-3.8 0-6.8.6-9.1 1.9-2.2 1.3-4 3.1-5.2 5.4-1.2 2.3-2 5-2.3 8.3-.4 3.2-.5 6.7-.5 10.5s.2 7.4.5 10.5c.4 3.2 1.1 5.9 2.3 8.2 1.2 2.3 2.9 4.1 5.2 5.3 2.2 1.2 5.3 1.8 9.1 1.8 3.3-.1 6-.6 8.1-1.6zm11.9.8h10.1V35.4h-10.1v50.2zm47-14.4c0-1.5-.1-3-.4-4.2-.3-1.3-.8-2.4-1.5-3.5s-1.7-2-2.9-3c-1.2-.9-2.8-1.8-4.7-2.6l-7.8-3.4c-2.2-.9-3.6-1.9-4.2-2.9-.7-1.1-1-2.4-1-3.9 0-.7.1-1.5.2-2.2.2-.7.5-1.3.9-1.9.4-.5 1-1 1.8-1.3.7-.3 1.7-.5 2.8-.5 2 0 3.4.6 4.2 1.9.8 1.3 1.3 3.1 1.3 5.5h9.7v-1.4c0-2.4-.4-4.4-1.2-6.1s-1.9-3.1-3.2-4.2c-1.4-1.1-3-1.9-4.9-2.4-1.9-.5-4-.7-6.2-.7-4.8 0-8.6 1.2-11.4 3.7-2.8 2.4-4.1 6.1-4.1 11.1 0 2.1.3 3.9.8 5.4.5 1.6 1.3 3 2.4 4.1 1.1 1.2 2.5 2.2 4.1 3.1 1.6.9 3.6 1.7 5.8 2.5 1.7.6 3.1 1.1 4.3 1.7 1.1.5 2.1 1.1 2.8 1.8.7.7 1.2 1.4 1.5 2.2.3.8.5 1.8.5 2.9 0 2.1-.6 3.7-1.9 4.7-1.2 1-2.6 1.5-4.2 1.5-1.3 0-2.4-.2-3.3-.6s-1.6-.9-2.1-1.5c-.5-.7-.9-1.5-1.1-2.4-.2-1-.3-2-.3-3.2v-1.5h-10.1v2c0 4.6 1.2 8.2 3.7 10.7s6.5 3.7 12.3 3.7c5.5 0 9.8-1.2 12.8-3.6 3-2.4 4.6-6.2 4.6-11.5zm13.5-35.8h-10.1v50.2h10.1V35.4zm30.5 49.1c2.2-1.2 4-3 5.2-5.3 1.2-2.3 2-5 2.3-8.2.4-3.2.5-6.7.5-10.5s-.2-7.3-.5-10.5c-.4-3.2-1.1-6-2.3-8.3-1.2-2.3-2.9-4.1-5.2-5.4-2.2-1.3-5.3-1.9-9.1-1.9s-6.8.6-9.1 1.9c-2.2 1.3-4 3.1-5.2 5.4-1.2 2.3-2 5-2.3 8.3-.4 3.2-.5 6.7-.5 10.5s.2 7.4.5 10.5c.4 3.2 1.1 5.9 2.3 8.2 1.2 2.3 2.9 4.1 5.2 5.3 2.2 1.2 5.3 1.8 9.1 1.8s6.9-.6 9.1-1.8zm-14.8-9.6c-.5-1.5-.8-3.4-1-5.8-.2-2.4-.2-5.2-.2-8.6s.1-6.2.2-8.6c.2-2.3.5-4.3 1-5.8s1.2-2.6 2.1-3.3c.9-.7 2.1-1 3.6-1s2.7.3 3.6 1c.9.7 1.6 1.8 2.1 3.3.5 1.5.8 3.4 1 5.8.2 2.3.2 5.2.2 8.6s-.1 6.2-.2 8.6-.5 4.3-1 5.8-1.2 2.6-2.1 3.2c-.9.7-2.1 1-3.6 1s-2.7-.3-3.6-1c-.9-.7-1.6-1.8-2.1-3.2zm60-39.5h-9.3v34.4h-.1l-12.2-34.4h-11.7v50.2h9.3V50.4h.1l12.4 35.1h11.5V35.4zm31.9 10.1h.1l8.9 40h7.9l8.9-40h.1v40h9.3V35.4h-15l-7.2 35.4h-.1L606 35.4h-15v50.2h9.3V45.5zm50.2-10.1l-13.3 50.2h10.5L650 75h13.3l2.3 10.6h10.5L663 35.4h-12.5zm1.3 31.3l4.8-22.6h.1l4.8 22.6h-9.7zm59.9-31.3h-11L688 55.5h-.1V35.4h-10.1v50.2h10.1V70.7l3.7-5.7 10.3 20.6h11.4l-15.2-28.7 13.6-21.5zm11.7 28.4h16.9v-8.3h-16.9V43.7h17.9v-8.3h-28v50.2H742v-8.3h-18.6V63.8zm53.8 18.5c-.2-1.4-.3-3.4-.4-6.1 0-1.4-.1-2.6-.1-3.7s-.1-2.1-.2-3.1c-.3-2.8-1-4.8-2.2-6.1-1.2-1.3-3-2.1-5.5-2.5v-.1c2.9-.6 5-2 6.3-4.1 1.4-2.1 2-4.9 2-8.3 0-4.4-1.2-7.6-3.5-9.7-2.3-2.1-5.6-3.2-9.8-3.2H745v50.2h10.1V64.4h5.4c2.1 0 3.6.6 4.5 1.7.9 1.1 1.4 2.7 1.5 4.6l.3 9.6c0 1 .1 1.9.3 2.8s.5 1.7 1 2.4h11v-.4c-1-.5-1.6-1.4-1.9-2.8zM765 55.6c-1.3 1.1-3.2 1.7-5.6 1.7h-4.2V42.9h4.8c4.7 0 7 2.3 7 7-.1 2.6-.7 4.6-2 5.7z"/><linearGradient id="a" gradientUnits="userSpaceOnUse" x1="74.173" y1="119.547" x2="107.959" y2="89.284" gradientTransform="matrix(1 0 0 -1 0 140)"><stop offset="0" stop-color="#87BCE5"/><stop offset=".387" stop-color="#0079FC"/><stop offset="1" stop-color="#084BB7"/></linearGradient><path fill="url(#a)" d="M101.4 89.8v-.6c-.6-11.4-7.4-26.8-17-38.3-5.8-7-7.9-13.3-7.9-16.8 0-13.5 11.5-24.5 25.6-24.5s25.6 11 25.6 24.5c0 3.5-2.1 9.8-7.9 16.8-9.5 11.5-16.4 26.9-17 38.3v.6h-1.4z"/><path fill="#fff" d="M102.1 10.2c13.8 0 25 10.7 25 23.9 0 3.8-2.4 10.1-7.8 16.5-9.8 11.8-16.5 27.1-17.1 38.6h-.2c-.6-11.5-7.4-26.9-17.1-38.6-5.3-6.4-7.8-12.7-7.8-16.5 0-13.2 11.2-23.9 25-23.9m0-1.2C87.7 9 75.9 20.2 75.9 34c0 3.6 2.1 10.1 8 17.2 9.5 11.4 16.2 26.7 16.8 38l.1 1.1h2.5l.1-1.1c.6-11.3 7.4-26.5 16.8-38 5.9-7.2 8-13.6 8-17.2.1-13.8-11.7-25-26.1-25z"/><linearGradient id="b" gradientUnits="userSpaceOnUse" x1="102.092" y1="116.486" x2="102.092" y2="95.486" gradientTransform="matrix(1 0 0 -1 0 140)"><stop offset="0" stop-color="#fff"/><stop offset="1" stop-color="#231F20"/></linearGradient><circle opacity=".2" fill="url(#b)" enable-background="new" cx="102.1" cy="34" r="10.5"/><linearGradient id="c" gradientUnits="userSpaceOnUse" x1="102.093" y1="113.589" x2="102.093" y2="95.132" gradientTransform="matrix(1 0 0 -1 0 140)"><stop offset=".437" stop-color="#fff"/><stop offset=".632" stop-color="#EAEBEB"/><stop offset=".987" stop-color="#BBBDBF"/></linearGradient><circle fill="url(#c)" cx="102.1" cy="34" r="10"/></svg>