<svg xmlns="http://www.w3.org/2000/svg" viewBox="0 0 678 156.5" enable-background="new 0 0 678 156.5"><path fill="#fff" d="M168.4 34.1h-8.8v-22h-6.2v27.2h14.9l.1-5.2zm22.9-.9h-10.6v-4.4h8.8v-5.3h-8.8v-5.3h9.7v-6.1h-15.8v27.2h16.7v-6.1zm26.4-21.1h-6.2l-4 7.1-4-7.1h-7l7.7 12.3-8.6 14.9h6.2l5.7-9.7 5.7 9.7h6.2l-8.6-14.9 6.9-12.3zm17.6 27.2c6.3 0 12.3-4 12.3-11.4V12.1h-6.2v15.8c0 3.7-2.8 6.1-6.2 6.1-3.2 0-5.3-2.5-5.3-6.1V12.1h-6.2v15.8c.2 7.4 5.4 11.4 11.6 11.4zm36-7.9c0-4.4-2.7-6.2-5.3-7.3-3.1-1.4-6.6-2.1-6.6-4.5 0-1.1 1-2.6 3.7-2.6 2 0 3.9.7 5.1 1.5l2.7-4.4c-2.2-1.6-4.9-2-7.5-2-4.8 0-9.7 2.4-9.7 7.9 0 4.3 1.9 5.5 4.6 7 2.3 1.3 7.2 2.2 7.2 4.9 0 1.6-1.2 3.1-3.9 3.1-2.2 0-4.1-1.6-5.7-2.8l-3.1 4.1c2.6 2 5 3.1 8.7 3.1 6-.1 9.8-2.9 9.8-8zm81.8 7.1h-16.7v-8.8h15v-7.9h-15V13h15.8V3.4h-25.5v44.7h26.4v-9.6zm26.3 2c-3.7 0-7.5-1.8-10.1-3.9l-4.7 7c4.3 3.3 8.7 5.3 15 5.3 9.7 0 15.8-4.7 15.8-13.2 0-7.4-5.1-10.6-9.5-12.5-5.2-2.3-10.9-3.5-10.9-7.6 0-1.8 1.6-4.4 6.1-4.4 3.3 0 6.1 1 8.1 2.5l4.4-7c-3.6-2.7-8.1-3.5-12.3-3.5-7.9 0-15.8 3.1-15.8 12.3 0 7.1 3.2 10.1 7.7 12.6 3.7 2.1 12.5 4 12.5 8.5 0 2.8-1.8 3.9-6.3 3.9zm37.9-37.1h-9.7v44.7h9.7V3.4zm35.2 30.7h11.4c-1.7 4.3-6 6.5-11.4 6.5-7.7 0-13.3-6.8-13.3-14.7 0-7.7 5.6-14.4 13.1-14.4 4.5 0 8.9 1.2 11.6 4.2l6.2-6.1c-3.9-4.2-9.7-7-17.6-7-12.5 0-22.9 9.8-22.9 23.7 0 13.8 9.5 22.8 22.9 22.8 12.2 0 22-8 22-22.8h-22v7.8zm43.1-13.2l21.1 27.2h7.9V3.4h-9.7v27.2L494.7 3.4h-8.8v44.7h9.7V20.9zM168 60.3h-14.5v47.2h15.3c12.5 0 24.3-7.8 24.3-23.4 0-15.3-11.7-23.8-25.1-23.8zm.8 37.3h-5.3V70.2h5.3c8.3 0 14.6 5.6 14.6 13.9 0 7.9-5.9 13.5-14.6 13.5zm35.8 9.9h9.9V60.3h-9.9v47.2zm43.4-26c-5.5-2.4-11.8-3.7-11.8-7.9 0-1.9 2.2-4.4 7-4.4 3.4 0 6.7 1 8.7 2.5l4.7-7.7c-3.8-2.8-8.9-4.5-13.4-4.5-8.3 0-16.7 4.3-16.7 14 0 7.5 3.4 10.5 8.1 13.1 3.9 2.2 13 4.2 13 8.9 0 2.8-1.4 4.4-6.2 4.4-3.9 0-8.2-2.1-11-4.3l-5.4 7.2c4.5 3.5 9.8 6.8 16.4 6.8 10.2 0 15.8-6 15.8-14.9.1-7.9-4.6-11.2-9.2-13.2zm54.1-6.2c0-8.1-5.9-14.9-15.8-14.9h-17.6v47.4h10.6v-22l13.2 21.9h12.3l-12.9-19.6c6.2-1.6 10.2-5.8 10.2-12.8zm-15.8 5.3h-7V69.2h7c3.3 0 6.2 2 6.2 5.3-.1 3.6-2.6 6.1-6.2 6.1zm58 7.8c0 6.4-4.7 10.5-10.6 10.5-5.7 0-10.6-4.1-10.6-10.5v-28h-9.7v28.1c0 12.9 9 20.2 19.9 20.2 11 0 20.5-7.3 20.5-20.2V60.4h-9.7v28zm38.7-28h-15.8v47.4h9.7V89.3h4.9c10.6 0 17.9-6 17.9-14.9 0-8.8-6.1-14-16.7-14zm0 20.2h-6.2V69.2h6.2c4.6 0 7 1.4 7 5.3.1 3.7-2.3 6.1-7 6.1zM406.8 70h9.7v37.7h9.7V70h9.7v-9.6h-29l-.1 9.6zm50.1 19.3h15.8v-8.8h-15.8V70h16.7v-9.6h-27.3v47.4h28.1v-9.6h-17.6v-8.9zm44-28.9h-14.1v47.4h14.1c12.5 0 24.6-8.1 24.6-23.7 0-15.3-11.2-23.7-24.6-23.7zm.8 38.6h-5.3V69.2h4.4c8.3 0 15 6.6 15 14.9 0 7.9-5.3 14.9-14.1 14.9zM291.6 3.4h-14.1V13h14.1c7.9 0 12.3 5.3 12.3 13.2 0 7.6-4.8 12.3-13.2 12.3h-13.2v9.6h13.2c11.9 0 23.7-7.1 23.7-21.9 0-14.5-10.1-22.8-22.8-22.8zM160.6 135l-6.2 14.2h2.8l1.3-3.2h6.1l1.3 3.2h2.9l-6.1-14.2h-2.1zm-1.2 8.8l2.2-5.8 2.2 5.8h-4.4zm19.3-3.3c-.3-.3-.6-.6-1.1-.8s-1-.3-1.6-.3c-.8 0-1.4.2-1.9.5-.5.4-.8.8-1 1.2v-1.5h-2.3v9.6h2.4V144c0-.3 0-.6.1-.9.1-.3.2-.6.4-.8.2-.2.4-.4.7-.5.3-.1.6-.2 1-.2s.7.1 1 .3c.2.2.4.4.5.7.1.3.2.6.2.9V149.3h2.4v-6.1c0-.5-.1-1-.2-1.4-.1-.5-.3-.9-.6-1.3zm11.4-5.6c-.4 0-.8.1-1.1.4-.3.3-.4.6-.4 1s.1.7.4 1c.3.3.6.4 1.1.4s.8-.1 1.1-.4c.3-.3.4-.6.4-1s-.1-.8-.4-1c-.3-.3-.6-.4-1.1-.4zm-1.1 14.3h2.4v-9.6H189v9.6zm13.5-8.7c-.3-.3-.6-.6-1.1-.8-.4-.2-1-.3-1.6-.3-.8 0-1.4.2-1.9.5-.5.4-.8.8-1 1.2v-1.5h-2.3v9.6h2.4V144c0-.3 0-.6.1-.9.1-.3.2-.6.4-.8.2-.2.4-.4.7-.5.3-.1.6-.2 1-.2s.7.1 1 .3c.2.2.4.4.5.7.1.3.2.6.2.9V149.3h2.4v-6.1c0-.5-.1-1-.2-1.4-.1-.5-.3-.9-.6-1.3zm7.1-3.7h-2.4v2.8h-2v2h2v4.4c0 .6 0 1.1.1 1.5.1.4.2.8.5 1.1s.6.5 1 .6c.4.1.9.2 1.6.2.3 0 .6 0 1-.1.4 0 .7-.1.9-.2v-2c-.1.1-.3.2-.6.2s-.5.1-.7.1c-.5 0-.9-.1-1.1-.4-.2-.3-.3-.7-.3-1.1v-4.2h2.6v-2h-2.6v-2.9zm12.8 3.9c-.4-.4-.9-.8-1.4-1s-1.2-.4-1.8-.4c-.7 0-1.4.1-2 .4-.6.2-1.2.6-1.7 1s-.8 1-1.1 1.6c-.3.6-.4 1.3-.4 2.1s.1 1.4.4 2.1.6 1.1 1.1 1.6c.5.4 1 .8 1.7 1 .6.2 1.3.4 2 .4.8 0 1.5-.1 2.2-.4s1.3-.8 1.9-1.5l-1.7-1.3c-.3.4-.7.7-1.1.9-.4.2-.9.4-1.5.4-.7 0-1.3-.2-1.7-.6s-.8-1-.8-1.7h7.3v-.7c0-.8-.1-1.6-.3-2.2-.4-.7-.7-1.2-1.1-1.7zm-6.1 2.7c.1-.7.4-1.2.8-1.7.4-.4 1-.6 1.7-.6.8 0 1.4.2 1.8.6.4.4.6 1 .7 1.7h-5zm15.3-4c-.6 0-1.2.2-1.7.5s-.9.7-1.1 1.3v-1.5h-2.4v9.6h2.4v-5.1c0-.1 0-.3.1-.6s.2-.5.4-.8c.2-.3.4-.5.8-.7.3-.2.8-.3 1.4-.3.2 0 .4 0 .6.1s.4.1.6.1v-2.3c-.1 0-.3-.1-.4-.1-.4-.2-.6-.2-.7-.2zm10.9 2.6c-.1-.3-.2-.6-.4-.9-.2-.3-.4-.6-.7-.8s-.7-.4-1.2-.6-1-.2-1.7-.2c-.8 0-1.5.1-2.2.4-.7.2-1.3.6-1.9 1.2l1.3 1.3c.3-.3.7-.6 1.1-.7s.9-.3 1.4-.3c.6 0 1.2.1 1.6.4.4.3.6.8.6 1.4v.3h-1.9c-.5 0-.9.1-1.4.1-.4.1-.9.2-1.3.3-.4.1-.8.3-1.1.6-.3.2-.6.6-.8.9-.2.4-.3.8-.3 1.3s.1.9.3 1.3c.2.4.5.7.8.9.3.2.7.4 1.1.5s.9.2 1.3.2c.6 0 1.2-.1 1.8-.4.5-.2 1-.6 1.3-1.2h.1v1.3h2.2V143c.1-.4.1-.7 0-1zm-2.1 3.4c0 .7-.2 1.2-.6 1.6-.4.4-1 .6-1.8.6-.2 0-.4 0-.6-.1-.2 0-.4-.1-.5-.2-.2-.1-.3-.2-.4-.4-.1-.2-.1-.3-.1-.6s.1-.6.4-.8c.3-.2.6-.3.9-.4s.8-.2 1.2-.2h1.6v.5zm7.9-3c.2-.3.5-.5.9-.6.3-.2.7-.2 1.2-.2.3 0 .6.1.9.3.3.2.6.4.9.7l1.7-1.7c-.5-.5-1-.9-1.6-1.1s-1.2-.4-1.9-.4-1.4.1-2 .4c-.6.2-1.2.6-1.7 1s-.8 1-1.1 1.6c-.3.6-.4 1.3-.4 2.1s.1 1.4.4 2.1.6 1.1 1.1 1.6 1 .8 1.7 1c.6.2 1.3.4 2 .4.2 0 .5 0 .8-.1.3 0 .6-.1.9-.2s.6-.2.9-.4.6-.4.8-.6l-1.6-1.7c-.2.3-.5.5-.8.7s-.7.2-1 .2c-.4 0-.8-.1-1.2-.2l-.9-.6-.6-.9c-.1-.3-.2-.7-.2-1.1 0-.4.1-.7.2-1.1.2-.6.4-.9.6-1.2zm11.3-5.6h-2.4v2.8h-2v2h2v4.4c0 .6 0 1.1.1 1.5.1.4.2.8.5 1.1s.6.5 1 .6c.4.1.9.2 1.6.2.3 0 .6 0 1-.1.4 0 .7-.1.9-.2v-2c-.1.1-.3.2-.6.2s-.5.1-.7.1c-.5 0-.9-.1-1.1-.4-.2-.3-.3-.7-.3-1.1v-4.2h2.6v-2h-2.6v-2.9zm6.2-1.9c-.4 0-.8.1-1.1.4-.3.3-.4.6-.4 1s.1.7.4 1c.3.3.6.4 1.1.4s.8-.1 1.1-.4c.3-.3.5-.6.5-1s-.1-.8-.5-1c-.3-.3-.7-.4-1.1-.4zm-1.2 14.3h2.4v-9.6h-2.4v9.6zm9.6-2.9l-2.6-6.7H269l3.9 9.6h2.6l3.8-9.6h-2.5l-2.6 6.7zm14.5-5.6c-.4-.4-.9-.8-1.4-1s-1.2-.4-1.8-.4c-.7 0-1.4.1-2 .4-.6.2-1.2.6-1.7 1s-.8 1-1.1 1.6c-.3.6-.4 1.3-.4 2.1s.1 1.4.4 2.1.6 1.1 1.1 1.6c.5.4 1 .8 1.7 1 .6.2 1.3.4 2 .4.8 0 1.5-.1 2.2-.4s1.3-.8 1.9-1.5l-1.7-1.3c-.3.4-.7.7-1.1.9-.4.2-.9.4-1.5.4-.7 0-1.3-.2-1.7-.6-.5-.4-.8-1-.8-1.7h7.3v-.7c0-.8-.1-1.6-.3-2.2-.4-.7-.7-1.2-1.1-1.7zm-6.1 2.7c.1-.7.4-1.2.8-1.7.4-.4 1-.6 1.7-.6.8 0 1.4.2 1.8.6.4.4.6 1 .7 1.7h-5zm24.3-2.9c-.3-.3-.6-.6-1.1-.8s-1-.3-1.6-.3c-.7 0-1.4.2-1.8.5-.5.3-.8.7-1 1.1v-6.9H299v15.1h2.4V144c0-.3 0-.6.1-.9.1-.3.2-.6.4-.8.2-.2.4-.4.7-.5.3-.1.6-.2 1-.2s.7.1 1 .3c.2.2.4.4.5.7.1.3.2.6.2.9V149.3h2.4v-6.1c0-.5-.1-1-.2-1.4-.1-.5-.3-.9-.6-1.3zm12.3.2c-.5-.4-1-.8-1.7-1-.6-.2-1.3-.4-2-.4s-1.4.1-2 .4c-.6.2-1.2.6-1.7 1s-.8 1-1.1 1.6c-.3.6-.4 1.3-.4 2.1s.1 1.4.4 2.1.6 1.1 1.1 1.6c.5.4 1 .8 1.7 1 .6.2 1.3.4 2 .4s1.4-.1 2-.4 1.2-.6 1.7-1 .8-1 1.1-1.6c.3-.6.4-1.3.4-2.1s-.1-1.5-.4-2.1c-.3-.6-.6-1.1-1.1-1.6zm-1.1 4.8c-.1.3-.3.7-.6.9-.2.3-.5.5-.9.6-.3.2-.7.2-1.2.2s-.8-.1-1.2-.2l-.9-.6-.6-.9c-.1-.3-.2-.7-.2-1.1 0-.4.1-.7.2-1.1.1-.3.3-.7.6-.9.2-.3.5-.5.9-.6.3-.2.7-.2 1.2-.2s.8.1 1.2.2l.9.6.6.9c.1.3.2.7.2 1.1 0 .4 0 .7-.2 1.1zm5.3 3.7h2.4v-15.1h-2.4v15.1zm14-8.5c-.5-.4-1-.8-1.7-1-.6-.2-1.3-.4-2-.4s-1.4.1-2 .4c-.6.2-1.2.6-1.7 1s-.8 1-1.1 1.6c-.3.6-.4 1.3-.4 2.1s.1 1.4.4 2.1.6 1.1 1.1 1.6c.5.4 1 .8 1.7 1 .6.2 1.3.4 2 .4s1.4-.1 2-.4 1.2-.6 1.7-1 .8-1 1.1-1.6c.3-.6.4-1.3.4-2.1s-.1-1.5-.4-2.1c-.2-.6-.6-1.1-1.1-1.6zm-1 4.8c-.1.3-.3.7-.6.9-.2.3-.5.5-.9.6-.3.2-.7.2-1.2.2s-.8-.1-1.2-.2l-.9-.6-.6-.9c-.1-.3-.2-.7-.2-1.1 0-.4.1-.7.2-1.1.1-.3.3-.7.6-.9.2-.3.5-.5.9-.6.3-.2.7-.2 1.2-.2s.8.1 1.2.2.6.4.9.6l.6.9c.1.3.2.7.2 1.1-.1.4-.1.7-.2 1.1zm12.8-4.5c-.4-.6-.9-1-1.4-1.3s-1.2-.4-1.9-.4-1.4.1-2 .4-1.1.6-1.5 1.1-.7 1-.9 1.6c-.2.6-.3 1.3-.3 2s.1 1.3.3 1.9c.2.6.5 1.1 1 1.6s.9.8 1.5 1.1c.6.3 1.2.4 2 .4.6 0 1.2-.1 1.8-.4s1-.6 1.4-1.1v.7c0 .5 0 .9-.1 1.3s-.3.7-.5 1-.5.5-.9.7c-.4.2-.9.2-1.5.2-.7 0-1.3-.1-1.8-.4-.5-.2-1-.6-1.5-1l-1.4 2c.7.6 1.4 1 2.2 1.2.8.2 1.6.3 2.5.3.9 0 1.7-.1 2.4-.4.7-.3 1.2-.6 1.7-1.1.4-.5.8-1.1 1-1.8.2-.7.3-1.5.3-2.4v-8.7h-2.3l-.1 1.5zm-.2 4.5c-.1.3-.3.6-.6.9-.2.2-.5.4-.9.6-.4.1-.8.2-1.2.2-.4 0-.8-.1-1.1-.2-.3-.1-.6-.3-.9-.6-.3-.3-.5-.5-.6-.9-.1-.3-.2-.7-.2-1.1 0-.4.1-.8.2-1.2.1-.4.3-.7.6-.9.2-.2.5-.4.9-.6.3-.1.7-.2 1.2-.2.9 0 1.6.3 2.1.8s.8 1.2.8 2l-.3 1.2zm10.9-6.1c-.6 0-1.2.2-1.7.5s-.9.7-1.1 1.3v-1.5h-2.4v9.6h2.4v-5.1c0-.1 0-.3.1-.6s.2-.5.4-.8c.2-.3.4-.5.8-.7.3-.2.8-.3 1.4-.3.2 0 .4 0 .6.1s.4.1.6.1v-2.3c-.1 0-.3-.1-.4-.1-.4-.2-.6-.2-.7-.2zm10.9 2.6c-.1-.3-.2-.6-.4-.9-.2-.3-.4-.6-.7-.8s-.7-.4-1.2-.6-1-.2-1.7-.2c-.8 0-1.5.1-2.2.4-.7.2-1.3.6-1.9 1.2l1.3 1.3c.3-.3.7-.6 1.1-.7.4-.2.9-.3 1.4-.3.6 0 1.2.1 1.6.4.4.3.6.8.6 1.4v.3h-1.9c-.5 0-.9.1-1.4.1s-.9.2-1.3.3c-.4.1-.8.3-1.1.6-.3.2-.6.6-.8.9-.2.4-.3.8-.3 1.3s.1.9.3 1.3c.2.4.5.7.8.9.3.2.7.4 1.1.5s.9.2 1.3.2c.6 0 1.2-.1 1.8-.4.5-.2 1-.6 1.3-1.2h.1v1.3h2.2V143c.1-.4.1-.7 0-1zm-2.1 3.4c0 .7-.2 1.2-.6 1.6s-1 .6-1.8.6c-.2 0-.4 0-.6-.1s-.4-.1-.5-.2c-.2-.1-.3-.2-.4-.4-.1-.2-.1-.3-.1-.6s.1-.6.4-.8c.3-.2.6-.3.9-.4.4-.1.8-.2 1.2-.2h1.6l-.1.5zm14.4-4.6c-.4-.5-.9-.8-1.5-1.1s-1.2-.4-2-.4c-.7 0-1.3.1-1.9.4s-1.1.7-1.4 1.3v-1.4H374v14.2h2.4V148h.1c.1.2.3.3.5.5s.4.3.7.5.6.3.9.4c.3.1.7.1 1.2.1.7 0 1.3-.1 1.9-.4s1.1-.6 1.5-1.1c.4-.5.7-1 .9-1.6s.3-1.3.3-2-.1-1.4-.3-2c-.2-.6-.5-1.1-1-1.6zm-1.3 4.7c-.1.3-.3.7-.6.9-.2.3-.5.5-.9.6-.3.2-.7.2-1.2.2-.4 0-.8-.1-1.2-.2l-.9-.6-.6-.9c-.1-.3-.2-.7-.2-1.1 0-.4.1-.7.2-1.1.1-.3.3-.7.6-.9.2-.3.5-.5.9-.6s.7-.2 1.2-.2.8.1 1.2.2l.9.6.6.9c.1.3.2.7.2 1.1 0 .4-.1.7-.2 1.1zm13.3-5c-.3-.3-.6-.6-1.1-.8-.4-.2-1-.3-1.6-.3-.7 0-1.4.2-1.8.5-.5.3-.8.7-1 1.1v-6.9h-2.4v15.1h2.4V144c0-.3 0-.6.1-.9.1-.3.2-.6.4-.8.2-.2.4-.4.7-.5.3-.1.6-.2 1-.2s.7.1 1 .3c.2.2.4.4.5.7.1.3.2.6.2.9V149.3h2.4v-6.1c0-.5-.1-1-.2-1.4-.1-.5-.3-.9-.6-1.3zm5.1-5.6c-.4 0-.8.1-1.1.4s-.4.6-.4 1 .1.7.4 1c.3.3.6.4 1.1.4s.8-.1 1.1-.4c.3-.3.5-.6.5-1s-.1-.8-.5-1c-.3-.3-.7-.4-1.1-.4zm-1.2 14.3h2.4v-9.6H399v9.6zm8.2-6.8c.2-.3.5-.5.9-.6s.7-.2 1.2-.2c.3 0 .6.1.9.3.3.2.6.4.9.7l1.7-1.7c-.5-.5-1-.9-1.6-1.1s-1.2-.4-1.9-.4-1.4.1-2 .4c-.6.2-1.2.6-1.7 1s-.8 1-1.1 1.6c-.3.6-.4 1.3-.4 2.1s.1 1.4.4 2.1.6 1.1 1.1 1.6c.5.4 1 .8 1.7 1 .6.2 1.3.4 2 .4.2 0 .5 0 .8-.1.3 0 .6-.1.9-.2s.6-.2 1-.4.6-.4.8-.6l-1.6-1.7c-.2.3-.5.5-.8.7-.3.2-.7.2-1 .2-.4 0-.8-.1-1.2-.2l-.9-.6-.6-.9c-.1-.3-.2-.7-.2-1.1 0-.4.1-.7.2-1.1 0-.6.2-.9.5-1.2zm14.9-7.5c-.4 0-.8.1-1.1.4-.3.3-.4.6-.4 1s.1.7.4 1c.3.3.6.4 1.1.4.4 0 .8-.1 1.1-.4.3-.3.5-.6.5-1s-.1-.8-.5-1c-.3-.3-.7-.4-1.1-.4zm-1.2 14.3h2.4v-9.6h-2.4v9.6zm13.6-8.7c-.3-.3-.6-.6-1.1-.8-.4-.2-1-.3-1.6-.3-.8 0-1.4.2-1.9.5-.5.4-.8.8-1 1.2v-1.5h-2.3v9.6h2.4V144c0-.3 0-.6.1-.9.1-.3.2-.6.4-.8s.4-.4.7-.5c.3-.1.6-.2 1-.2s.7.1 1 .3c.2.2.4.4.5.7.1.3.2.6.2.9V149.3h2.4v-6.1c0-.5-.1-1-.2-1.4-.2-.5-.4-.9-.6-1.3zm9.6 3.5c-.4-.2-.8-.4-1.2-.5-.4-.1-.9-.2-1.2-.3-.4-.1-.7-.2-1-.3-.3-.1-.4-.3-.4-.6 0-.4.2-.6.5-.8s.6-.2.9-.2c.8 0 1.4.3 1.9 1l1.6-1.4c-.4-.5-.9-.9-1.5-1.1-.6-.2-1.3-.3-1.9-.3-.5 0-1 .1-1.4.2s-.9.3-1.2.6c-.4.3-.6.6-.9 1-.2.4-.3.9-.3 1.4 0 .6.1 1.1.4 1.4.3.3.6.6 1 .8.4.2.8.3 1.2.4.4.1.9.2 1.2.3.4.1.7.2 1 .4.3.2.4.4.4.7 0 .2 0 .4-.1.5-.1.1-.2.3-.4.4s-.3.2-.5.2-.4.1-.5.1c-.5 0-.9-.1-1.3-.3s-.7-.5-1-.9l-1.6 1.5c.5.6 1.1.9 1.7 1.2.6.2 1.3.3 2.1.3.5 0 1-.1 1.5-.2s.9-.3 1.3-.5.7-.6 1-.9c.2-.4.4-.9.4-1.4 0-.6-.1-1.1-.4-1.5s-.9-1-1.3-1.2zm7.2-7.2h-2.4v2.8h-2v2h2v4.4c0 .6 0 1.1.1 1.5.1.4.2.8.5 1.1.2.3.6.5 1 .6.4.1.9.2 1.6.2.3 0 .6 0 1-.1.4 0 .7-.1.9-.2v-2c-.1.1-.3.2-.6.2s-.5.1-.7.1c-.5 0-.9-.1-1.1-.4-.2-.3-.3-.7-.3-1.1v-4.2h2.6v-2h-2.6v-2.9zm13.1 5.2c-.1-.3-.2-.6-.4-.9-.2-.3-.4-.6-.7-.8s-.7-.4-1.2-.6-1-.2-1.7-.2c-.8 0-1.5.1-2.2.4-.7.2-1.3.6-1.9 1.2l1.3 1.3c.3-.3.7-.6 1.1-.7.4-.2.9-.3 1.4-.3.6 0 1.2.1 1.6.4.4.3.6.8.6 1.4v.3h-1.9s-.9.1-1.4.1c-.4.1-.9.2-1.3.3-.4.1-.8.3-1.1.6-.3.2-.6.6-.8.9-.2.4-.3.8-.3 1.3s.1.9.3 1.3c.2.4.5.7.8.9.3.2.7.4 1.1.5s.9.2 1.3.2c.6 0 1.2-.1 1.8-.4.5-.2 1-.6 1.3-1.2h.1v1.3h2.2V143c.1-.4.1-.7 0-1zm-2.2 3.4c0 .7-.2 1.2-.6 1.6-.4.4-1 .6-1.8.6-.2 0-.4 0-.6-.1s-.4-.1-.5-.2c-.2-.1-.3-.2-.4-.4-.1-.2-.1-.3-.1-.6s.1-.6.4-.8c.3-.2.6-.3.9-.4.4-.1.8-.2 1.2-.2h1.6l-.1.5zm5.4 3.8h2.4v-15.1h-2.4v15.1zm5.6 0h2.4v-15.1h-2.4v15.1zm13.6-7.2c-.1-.3-.2-.6-.4-.9-.2-.3-.4-.6-.7-.8s-.7-.4-1.2-.6c-.5-.2-1-.2-1.7-.2-.8 0-1.5.1-2.2.4-.7.2-1.3.6-1.9 1.2l1.3 1.3c.3-.3.7-.6 1.1-.7.4-.2.9-.3 1.4-.3.6 0 1.2.1 1.6.4.4.3.6.8.6 1.4v.3h-1.9c-.5 0-.9.1-1.4.1-.4.1-.9.2-1.3.3-.4.1-.8.3-1.1.6-.3.2-.6.6-.8.9-.2.4-.3.8-.3 1.3s.1.9.3 1.3c.2.4.5.7.8.9.3.2.7.4 1.1.5.4.1.9.2 1.3.2.6 0 1.2-.1 1.8-.4.5-.2 1-.6 1.3-1.2h.1v1.3h2.2V143s.1-.7 0-1zm-2.1 3.4c0 .7-.2 1.2-.6 1.6s-1 .6-1.8.6c-.2 0-.4 0-.6-.1s-.4-.1-.5-.2c-.2-.1-.3-.2-.4-.4-.1-.2-.1-.3-.1-.6s.1-.6.4-.8.6-.3.9-.4c.4-.1.8-.2 1.2-.2h1.6l-.1.5zm8.6-8.6h-2.4v2.8h-2v2h2v4.4c0 .6 0 1.1.1 1.5.1.4.2.8.5 1.1.2.3.6.5 1 .6.4.1.9.2 1.6.2.3 0 .6 0 1-.1.4 0 .7-.1.9-.2v-2c-.1.1-.3.2-.6.2s-.5.1-.7.1c-.5 0-.9-.1-1.1-.4-.2-.3-.3-.7-.3-1.1v-4.2h2.6v-2h-2.6v-2.9zm6.1-1.9c-.4 0-.8.1-1.1.4-.3.3-.4.6-.4 1s.1.7.4 1c.3.3.6.4 1.1.4s.8-.1 1.1-.4c.3-.3.5-.6.5-1s-.1-.8-.5-1c-.3-.3-.7-.4-1.1-.4zm-1.2 14.3h2.4v-9.6h-2.4v9.6zm13.9-8.5c-.5-.4-1-.8-1.7-1-.6-.2-1.3-.4-2-.4s-1.4.1-2 .4c-.6.2-1.2.6-1.7 1s-.8 1-1.1 1.6c-.3.6-.4 1.3-.4 2.1s.1 1.4.4 2.1.6 1.1 1.1 1.6c.5.4 1 .8 1.7 1 .6.2 1.3.4 2 .4s1.4-.1 2-.4c.6-.2 1.2-.6 1.7-1s.8-1 1.1-1.6.4-1.3.4-2.1-.1-1.5-.4-2.1c-.2-.6-.6-1.1-1.1-1.6zm-1 4.8c-.1.3-.3.7-.6.9-.2.3-.5.5-.9.6-.3.2-.7.2-1.2.2s-.8-.1-1.2-.2l-.9-.6-.6-.9c-.1-.3-.2-.7-.2-1.1 0-.4.1-.7.2-1.1.1-.3.3-.7.6-.9.2-.3.5-.5.9-.6s.7-.2 1.2-.2c.4 0 .8.1 1.2.2s.6.4.9.6l.6.9c.1.3.2.7.2 1.1 0 .4-.1.7-.2 1.1zm13.8-3.8c-.1-.5-.3-.9-.6-1.2-.3-.3-.6-.6-1.1-.8-.4-.2-1-.3-1.6-.3-.8 0-1.4.2-1.9.5-.5.4-.8.8-1 1.2v-1.5h-2.3v9.6h2.4V144c0-.3 0-.6.1-.9.1-.3.2-.6.4-.8.2-.2.4-.4.7-.5.3-.1.6-.2 1-.2s.7.1 1 .3c.2.2.4.4.5.7.1.3.2.6.2.9V149.3h2.4v-6.1c-.1-.6-.1-1-.2-1.5z"/></svg>