<svg xmlns="http://www.w3.org/2000/svg" width="678" height="110" viewBox="0 0 678 110"><path fill="#fff" d="M190.47 63.947h-11.56v-22.56h-6.24v28.32h17.8v-5.76zm9.872-5.76h12.28v-5.76h-12.28v-5.28h13v-5.76h-19.24v28.32h19.96v-5.76h-13.72v-5.76zm16.368-11.28h8.08v22.8h6.24v-22.8h8.08v-5.52h-22.4v5.52zm36.968 17.04c-.414.24-.88.42-1.4.54-.52.12-1.034.18-1.54.18-1.04 0-2.047-.23-3.02-.7-.974-.466-1.78-1.125-2.42-1.978l-4.44 4.88c1.36 1.253 2.826 2.158 4.4 2.72 1.573.56 3.28.84 5.12.84 1.466 0 2.86-.187 4.18-.56 1.32-.374 2.48-.947 3.48-1.72s1.793-1.747 2.38-2.92c.586-1.175.88-2.548.88-4.122 0-1.652-.32-2.973-.96-3.96-.64-.985-1.447-1.772-2.42-2.36-.974-.585-2.02-1.04-3.14-1.36-1.12-.32-2.167-.64-3.14-.96-.974-.32-1.78-.706-2.42-1.16-.64-.452-.96-1.105-.96-1.96 0-.532.133-.985.4-1.36.266-.372.613-.672 1.04-.898.426-.227.88-.394 1.36-.5s.946-.16 1.4-.16c.773 0 1.593.153 2.46.46.866.307 1.553.78 2.06 1.42l4.28-4.68c-1.2-1.066-2.547-1.827-4.04-2.28-1.494-.453-3.04-.68-4.64-.68-1.387 0-2.734.193-4.04.58-1.307.387-2.46.967-3.46 1.74-1 .774-1.8 1.734-2.4 2.88-.6 1.147-.9 2.48-.9 4 0 1.574.326 2.84.98 3.8.653.96 1.473 1.733 2.46 2.32.986.586 2.053 1.053 3.2 1.4 1.146.345 2.213.69 3.2 1.038.986.348 1.806.768 2.46 1.26.653.494.98 1.168.98 2.02 0 .508-.127.947-.38 1.32-.254.372-.587.68-1 .92zm33.075-6.78c-.547-.6-1.2-1.093-1.96-1.48-.76-.385-1.606-.645-2.54-.778v-.08c1.466-.454 2.646-1.208 3.54-2.26.894-1.054 1.34-2.38 1.34-3.98 0-1.547-.307-2.787-.92-3.72-.613-.933-1.413-1.66-2.4-2.18-.986-.52-2.1-.866-3.34-1.04-1.24-.173-2.473-.26-3.7-.26h-10.56v28.32h11.6c1.254 0 2.514-.134 3.78-.4 1.267-.267 2.407-.705 3.42-1.32 1.014-.61 1.84-1.42 2.48-2.42.64-1 .96-2.245.96-3.738 0-.907-.146-1.762-.44-2.56-.294-.804-.714-1.504-1.26-2.104zm-14.3-10.5h4.24c.48 0 .973.047 1.48.14.506.095.96.248 1.36.46.4.215.726.515.98.9.253.388.38.874.38 1.46 0 .56-.114 1.04-.34 1.44-.227.4-.527.72-.9.96-.374.24-.794.414-1.26.52-.467.107-.94.16-1.42.16h-4.52v-6.04zm9.38 16c-.253.428-.58.774-.98 1.04s-.847.454-1.34.56c-.494.108-.98.16-1.46.16h-5.6V57.99h4.72c.506 0 1.053.038 1.64.118.586.08 1.133.228 1.64.44.506.214.926.526 1.26.938.333.414.5.955.5 1.62 0 .615-.127 1.135-.38 1.562zm35.648-17.98c-1.36-1.292-2.974-2.285-4.84-2.978s-3.906-1.04-6.12-1.04c-2.213 0-4.253.346-6.12 1.04-1.867.692-3.48 1.686-4.84 2.978-1.36 1.294-2.42 2.86-3.18 4.7-.76 1.84-1.14 3.894-1.14 6.16 0 2.267.38 4.32 1.14 6.16.76 1.84 1.82 3.406 3.18 4.7 1.36 1.293 2.973 2.285 4.84 2.98 1.866.692 3.906 1.04 6.12 1.04s4.254-.348 6.12-1.04 3.48-1.688 4.84-2.98c1.36-1.294 2.42-2.86 3.18-4.7.76-1.84 1.14-3.894 1.14-6.16s-.38-4.32-1.14-6.16c-.76-1.84-1.82-3.407-3.18-4.7zm-2.78 14.52c-.413 1.107-1.006 2.066-1.78 2.88-.772.813-1.7 1.447-2.78 1.9-1.08.454-2.286.68-3.618.68-1.334 0-2.54-.226-3.62-.68-1.08-.453-2.008-1.087-2.78-1.9-.775-.81-1.368-1.772-1.78-2.88-.415-1.105-.62-2.326-.62-3.66 0-1.306.205-2.52.62-3.64.412-1.12 1.005-2.085 1.78-2.9.772-.812 1.7-1.445 2.78-1.9 1.08-.452 2.285-.68 3.62-.68 1.332 0 2.54.23 3.62.68 1.08.455 2.006 1.088 2.78 1.9s1.365 1.78 1.78 2.9c.412 1.12.62 2.334.62 3.64 0 1.334-.208 2.555-.62 3.66zm26.36-4.42c-.973-.585-2.02-1.04-3.14-1.36-1.12-.32-2.166-.64-3.14-.96-.974-.32-1.78-.706-2.42-1.16-.64-.452-.96-1.105-.96-1.96 0-.532.134-.985.4-1.36.267-.372.613-.672 1.04-.898.426-.228.88-.395 1.36-.5.48-.107.945-.16 1.4-.16.772 0 1.593.152 2.46.46.865.306 1.553.78 2.06 1.42l4.28-4.68c-1.2-1.067-2.548-1.828-4.04-2.28-1.494-.454-3.04-.68-4.64-.68-1.388 0-2.734.192-4.04.58-1.308.386-2.46.966-3.46 1.74-1 .773-1.8 1.733-2.4 2.88-.6 1.146-.9 2.48-.9 4 0 1.573.326 2.84.98 3.8.652.96 1.473 1.732 2.46 2.318.985.587 2.053 1.054 3.2 1.4 1.145.346 2.213.692 3.2 1.04.985.347 1.806.767 2.46 1.26.652.493.98 1.167.98 2.02 0 .507-.128.946-.38 1.318-.255.375-.588.682-1 .92-.415.24-.88.42-1.4.54-.52.12-1.035.182-1.54.182-1.04 0-2.048-.233-3.02-.7-.976-.467-1.78-1.126-2.42-1.98L324 66.87c1.36 1.255 2.825 2.16 4.4 2.722 1.57.56 3.278.84 5.118.84 1.467 0 2.86-.187 4.18-.56 1.32-.374 2.48-.947 3.48-1.722 1-.77 1.793-1.746 2.38-2.92.586-1.172.88-2.545.88-4.12 0-1.652-.32-2.973-.96-3.96-.637-.987-1.445-1.773-2.417-2.36zM366.37 65.23c.586-1.175.88-2.548.88-4.122 0-1.652-.32-2.973-.96-3.96s-1.447-1.772-2.42-2.36c-.975-.585-2.02-1.04-3.142-1.36-1.118-.32-2.166-.64-3.14-.96-.974-.32-1.78-.706-2.42-1.16-.64-.452-.96-1.105-.96-1.96 0-.532.133-.985.4-1.36.266-.372.61-.672 1.04-.898.426-.227.88-.394 1.358-.5.48-.106.946-.16 1.4-.16.77 0 1.593.153 2.46.46.866.307 1.553.78 2.06 1.42l4.28-4.68c-1.2-1.066-2.547-1.827-4.04-2.28-1.494-.453-3.04-.68-4.64-.68-1.39 0-2.734.193-4.04.58-1.31.387-2.46.967-3.46 1.74-1 .774-1.802 1.734-2.4 2.88-.6 1.147-.9 2.48-.9 4 0 1.574.327 2.84.98 3.8s1.473 1.733 2.46 2.32c.986.586 2.053 1.053 3.2 1.4 1.146.345 2.213.69 3.2 1.038.985.348 1.806.768 2.46 1.26.65.494.98 1.168.98 2.02 0 .508-.128.947-.38 1.32-.255.374-.588.68-1 .92-.415.24-.88.42-1.4.54-.52.12-1.033.18-1.54.18-1.04 0-2.048-.232-3.02-.7-.975-.466-1.78-1.125-2.42-1.978l-4.44 4.88c1.36 1.254 2.825 2.16 4.4 2.72 1.572.562 3.28.84 5.12.84 1.465 0 2.857-.186 4.18-.56 1.32-.373 2.48-.946 3.48-1.72 1.004-.775 1.797-1.75 2.384-2.92zm22.543-1.522l2.44 6h7.04l-12.32-28.32h-5.16l-12.238 28.32h6.88l2.36-6h11zm-5.598-14.08l3.48 8.8h-6.922l3.442-8.8zm20.895 20.04c.453.186.934.28 1.44.28.506 0 .985-.095 1.44-.28.452-.188.845-.447 1.18-.78.332-.333.593-.727.78-1.18.186-.454.278-.935.278-1.44s-.094-.985-.28-1.438c-.187-.453-.446-.847-.78-1.18-.333-.335-.726-.595-1.18-.78-.453-.188-.934-.28-1.438-.28-.508 0-.987.095-1.44.28-.453.187-.847.445-1.18.78-.334.333-.595.727-.78 1.18-.187.453-.28.935-.28 1.438 0 .508.094.986.28 1.44.187.453.446.847.78 1.18.333.333.727.592 1.18.78zm33.616-4.16l-5.2-3.88c-.64.96-1.454 1.706-2.44 2.24-.985.532-2.118.8-3.398.8-1.12 0-2.167-.227-3.142-.682-.974-.452-1.818-1.086-2.54-1.898s-1.285-1.773-1.698-2.88c-.414-1.106-.62-2.327-.62-3.66 0-1.307.206-2.52.62-3.64.413-1.12.985-2.086 1.72-2.9.734-.814 1.6-1.446 2.6-1.9 1-.453 2.087-.68 3.262-.68 1.173 0 2.206.2 3.1.6s1.646.974 2.26 1.72l4.8-3.92c-.612-.773-1.307-1.426-2.078-1.96-.775-.533-1.58-.96-2.423-1.28-.84-.32-1.692-.554-2.56-.7s-1.7-.22-2.5-.22c-2.214 0-4.254.347-6.12 1.04-1.867.693-3.48 1.687-4.84 2.98-1.36 1.293-2.42 2.86-3.18 4.7-.76 1.84-1.142 3.893-1.142 6.16s.38 4.318 1.142 6.16c.76 1.84 1.818 3.405 3.18 4.7 1.36 1.292 2.973 2.285 4.84 2.978 1.866.693 3.906 1.04 6.12 1.04 1.946 0 3.84-.4 5.68-1.2 1.837-.798 3.356-2.038 4.556-3.718zm27.508.9c1.36-1.294 2.42-2.86 3.18-4.7.762-1.84 1.143-3.894 1.143-6.16s-.38-4.32-1.142-6.16c-.76-1.84-1.817-3.406-3.18-4.7-1.36-1.293-2.973-2.286-4.84-2.98-1.866-.692-3.906-1.04-6.12-1.04-2.213 0-4.253.348-6.12 1.04-1.866.694-3.478 1.688-4.84 2.98-1.36 1.294-2.42 2.86-3.18 4.7-.76 1.84-1.14 3.894-1.14 6.16 0 2.267.38 4.32 1.14 6.16.76 1.84 1.82 3.406 3.18 4.7 1.36 1.293 2.974 2.285 4.84 2.98 1.867.692 3.907 1.04 6.12 1.04 2.214 0 4.254-.348 6.12-1.04 1.867-.695 3.48-1.687 4.84-2.98zm-10.96-1.74c-1.333 0-2.54-.227-3.62-.682-1.08-.452-2.006-1.086-2.78-1.898-.77-.812-1.364-1.773-1.777-2.88-.414-1.106-.62-2.327-.62-3.66 0-1.307.206-2.52.62-3.64.413-1.12 1.006-2.086 1.778-2.9.774-.814 1.7-1.446 2.78-1.9 1.08-.453 2.287-.68 3.62-.68 1.334 0 2.54.228 3.62.68 1.08.454 2.007 1.087 2.78 1.9.772.813 1.365 1.78 1.78 2.9.412 1.12.62 2.333.62 3.64 0 1.333-.208 2.554-.62 3.66-.415 1.106-1.008 2.065-1.78 2.88-.773.812-1.7 1.446-2.78 1.898-1.08.455-2.286.682-3.62.682zm45.685-16.68h.08v21.72h6.24v-28.32h-9.4l-6.56 18.48h-.08l-6.52-18.48h-9.44v28.32h6.24v-21.72h.08l7.158 21.72h4.76l7.442-21.72zM69.188 91.547l-6.16 14.16h2.82l1.28-3.24h6.14l1.32 3.24h2.88l-6.1-14.16h-2.18zm-1.2 8.76l2.22-5.76 2.18 5.76h-4.4zm19.338-3.28c-.28-.347-.644-.628-1.09-.84-.447-.214-.99-.32-1.63-.32-.8 0-1.434.177-1.9.528-.467.354-.813.77-1.04 1.25h-.04v-1.54h-2.28v9.602h2.4v-5.24c0-.32.04-.627.12-.92.08-.294.21-.554.39-.78.18-.227.406-.406.68-.54.273-.133.61-.2 1.01-.2.413 0 .74.1.98.29.24.193.417.435.53.72.113.288.183.595.21.922.027.326.04.623.04.89v4.86h2.4v-6.06c0-.494-.06-.968-.18-1.42-.12-.457-.32-.855-.6-1.203zm19.58.16h-6.62v-5.64h-2.52v14.16h2.52v-6.24h6.62v6.24h2.52v-14.16h-2.52v5.64zm4.546-3.36h4.34v11.88h2.52v-11.88h4.34v-2.28h-11.2v2.28zm20.876 7.64l-3.78-9.92h-3.84v14.16h2.4v-11.76h.04l4.3 11.76h1.76l4.3-11.76h.04v11.76h2.4v-14.16h-3.8l-3.82 9.92zm13.7-9.92h-2.52v14.16h8.54v-2.28h-6.02v-11.88zm22.26 6.08c-.414-.413-.91-.73-1.49-.95-.58-.22-1.218-.33-1.91-.33-.254 0-.524.014-.81.04-.288.026-.524.073-.71.14l.06-2.818h5.7v-2.16h-8.06l-.14 7.64c.425-.212.895-.38 1.41-.5.513-.12 1.03-.18 1.55-.18.44 0 .86.05 1.26.15.4.1.752.26 1.06.48.306.218.55.5.73.85.18.346.27.766.27 1.26 0 .347-.06.666-.18.96-.12.293-.29.55-.51.77-.22.22-.48.39-.78.51-.3.12-.63.182-.99.182-.614 0-1.114-.146-1.5-.44-.388-.292-.66-.692-.82-1.2l-2.52.682c.332 1.094.895 1.906 1.69 2.44.792.532 1.755.8 2.89.8.72 0 1.392-.114 2.02-.342.625-.227 1.17-.55 1.63-.97.46-.42.82-.934 1.08-1.54.26-.605.39-1.29.39-2.05 0-.72-.118-1.366-.35-1.94-.234-.578-.558-1.07-.97-1.484zm18.65-.4c-.395-.44-.868-.775-1.42-1.01-.555-.233-1.165-.35-1.83-.35-.72 0-1.4.118-2.04.358s-1.194.58-1.66 1.02c-.468.44-.838.97-1.11 1.59s-.41 1.312-.41 2.07.136 1.45.41 2.07c.272.62.642 1.15 1.11 1.59.466.44 1.02.78 1.66 1.02.64.24 1.32.36 2.04.36.76 0 1.485-.147 2.18-.44.693-.293 1.32-.787 1.88-1.48l-1.72-1.3c-.308.374-.665.685-1.07.932-.408.245-.91.368-1.51.368-.68 0-1.26-.198-1.74-.6-.48-.4-.76-.96-.84-1.68h7.32v-.66c0-.84-.11-1.584-.33-2.23-.22-.644-.528-1.188-.92-1.627zm-6.07 2.72c.092-.694.35-1.247.77-1.66.42-.413.99-.62 1.71-.62.76 0 1.353.203 1.78.61.426.405.645.963.66 1.67h-4.92zm18.47-3.84h-2.74l-2.08 2.878-1.92-2.88h-2.92l3.32 4.44-3.86 5.16h2.84l2.52-3.44 2.5 3.44h2.92l-3.86-5.16 3.28-4.44zm11.58 1.22c-.415-.453-.915-.81-1.5-1.07-.588-.26-1.248-.39-1.98-.39-.68 0-1.314.133-1.9.4s-1.055.69-1.4 1.278h-.04v-1.44h-2.28v14.16h2.4v-5.78h.06c.12.16.272.324.46.49.186.168.412.323.68.47.266.147.572.268.92.36.346.094.746.14 1.2.14.68 0 1.305-.13 1.88-.39.572-.26 1.062-.615 1.47-1.07.405-.452.722-.985.95-1.6.226-.613.34-1.272.34-1.98 0-.706-.108-1.366-.32-1.98-.215-.612-.528-1.145-.94-1.598zm-1.332 4.658c-.127.348-.313.654-.56.922-.247.267-.543.48-.89.64-.347.16-.74.24-1.18.24s-.833-.08-1.18-.24c-.347-.16-.644-.373-.89-.64-.247-.268-.434-.574-.56-.922-.127-.346-.19-.705-.19-1.078 0-.374.063-.733.19-1.08.126-.348.313-.653.56-.92.246-.268.543-.48.89-.64.347-.163.74-.24 1.18-.24s.833.08 1.18.24c.346.158.643.372.89.64.247.267.433.572.56.92.126.347.19.706.19 1.08 0 .373-.063.733-.19 1.078zm13.204-4.757c-.393-.44-.867-.777-1.42-1.012-.553-.233-1.163-.35-1.83-.35-.72 0-1.4.118-2.04.358s-1.193.58-1.66 1.02c-.467.44-.837.97-1.11 1.59s-.41 1.312-.41 2.07.137 1.45.41 2.07c.273.62.644 1.15 1.11 1.59.466.44 1.02.78 1.66 1.02s1.32.36 2.04.36c.76 0 1.487-.147 2.18-.44.693-.293 1.32-.787 1.88-1.48l-1.72-1.3c-.307.374-.664.685-1.07.932-.407.245-.91.368-1.51.368-.68 0-1.26-.198-1.74-.6-.48-.4-.76-.96-.84-1.68h7.32v-.66c0-.84-.11-1.584-.33-2.23-.22-.645-.526-1.188-.92-1.627zm-6.07 2.717c.093-.693.35-1.246.77-1.66.42-.412.99-.62 1.71-.62.76 0 1.353.204 1.78.61.427.406.647.964.66 1.67h-4.92zm15.266-4.08c-.64 0-1.207.154-1.7.46-.494.308-.874.74-1.14 1.3h-.04v-1.52h-2.4v9.6h2.4v-5.14c0-.134.03-.333.09-.6.06-.268.18-.534.36-.8.18-.268.44-.505.78-.71.34-.208.79-.312 1.35-.312.187 0 .376.017.57.05.194.032.39.077.59.13v-2.32c-.147-.04-.29-.072-.43-.1s-.283-.038-.43-.038zm2.926 9.84h2.4v-9.6h-2.4v9.6zm1.18-14.3c-.44 0-.803.144-1.09.43s-.43.624-.43 1.01.143.726.43 1.01c.287.288.65.432 1.09.432.44 0 .81-.137 1.11-.41.3-.273.45-.617.45-1.03 0-.413-.15-.757-.45-1.03-.3-.275-.67-.412-1.11-.412zm18.464 5.66c-.273-.374-.63-.667-1.07-.88s-.98-.32-1.62-.32c-.72 0-1.34.144-1.86.43-.52.287-.954.737-1.3 1.352-.493-1.19-1.493-1.78-3-1.78-.8 0-1.437.177-1.91.53-.474.353-.817.756-1.03 1.208h-.04v-1.5h-2.28v9.602h2.4v-5.24c0-.32.04-.627.12-.92.08-.294.21-.554.39-.78.18-.227.406-.405.68-.54.273-.133.61-.2 1.01-.2.586 0 1.006.178 1.26.53.254.354.38.83.38 1.43v5.722h2.4v-5.2c0-.307.036-.61.11-.91.073-.3.193-.565.36-.8.167-.233.38-.42.64-.56.26-.14.577-.21.95-.21.36 0 .653.06.88.18s.406.283.54.49c.133.206.227.446.28.72.053.273.08.557.08.85v5.44h2.4v-5.72c0-.574-.06-1.11-.18-1.61-.12-.504-.317-.94-.59-1.316zm11.79.162c-.394-.44-.867-.777-1.42-1.012-.554-.233-1.164-.35-1.83-.35-.72 0-1.4.118-2.04.358-.64.24-1.193.58-1.66 1.02-.467.44-.837.97-1.11 1.59s-.41 1.312-.41 2.07.137 1.45.41 2.07c.273.62.643 1.15 1.11 1.59.467.44 1.02.78 1.66 1.02.64.24 1.32.36 2.04.36.76 0 1.486-.147 2.18-.44.693-.293 1.32-.787 1.88-1.48l-1.72-1.3c-.307.374-.664.685-1.07.932-.407.245-.91.368-1.51.368-.68 0-1.26-.198-1.74-.6-.48-.4-.76-.96-.84-1.68h7.32v-.66c0-.84-.11-1.584-.33-2.23-.22-.645-.527-1.188-.92-1.627zm-6.07 2.717c.093-.693.35-1.246.77-1.66.42-.412.99-.62 1.71-.62.76 0 1.353.204 1.78.61.426.406.646.964.66 1.67h-4.92zm17.965-2.92c-.28-.346-.642-.627-1.09-.84-.446-.213-.99-.32-1.63-.32-.8 0-1.433.178-1.9.53-.466.353-.812.77-1.04 1.25h-.04v-1.54h-2.28v9.6h2.4v-5.24c0-.318.04-.626.12-.92.08-.293.21-.553.39-.78.18-.225.408-.405.68-.538.274-.135.61-.202 1.01-.202.414 0 .74.1.98.29.24.193.418.435.53.72.114.288.184.595.21.922.027.326.04.623.04.89v4.86h2.4v-6.06c0-.494-.06-.968-.18-1.42-.118-.457-.32-.855-.6-1.203zm7.127-3.7h-2.4v2.78h-1.98v2.04h1.98v4.4c0 .56.043 1.054.13 1.478.086.428.247.783.48 1.07s.553.5.96.64c.407.142.93.21 1.57.21.28 0 .603-.022.97-.068.367-.047.677-.13.93-.25v-2.02c-.147.106-.347.184-.6.23-.253.046-.487.07-.7.07-.533 0-.89-.142-1.07-.423-.18-.278-.27-.658-.27-1.14v-4.2h2.64v-2.04h-2.64V93.33zm14.5 0h-2.4v2.78h-1.98v2.04h1.98v4.4c0 .56.043 1.054.13 1.478.087.428.247.783.48 1.07s.553.5.96.64c.406.142.93.21 1.57.21.28 0 .603-.022.97-.068.366-.047.676-.13.93-.25v-2.02c-.147.106-.347.184-.6.23-.253.045-.487.07-.7.07-.534 0-.89-.142-1.07-.423-.18-.278-.27-.658-.27-1.14v-4.2h2.64v-2.04h-2.64V93.33zm13.194 3.92c-.466-.438-1.02-.78-1.658-1.02-.64-.24-1.32-.36-2.04-.36s-1.4.12-2.04.36c-.64.24-1.193.58-1.66 1.02-.467.44-.837.97-1.11 1.59-.273.62-.41 1.312-.41 2.07s.137 1.45.41 2.07c.273.62.643 1.15 1.11 1.59.467.44 1.02.78 1.66 1.02.64.24 1.32.36 2.04.36s1.4-.12 2.04-.36c.64-.24 1.192-.58 1.66-1.02.467-.44.837-.97 1.11-1.59.272-.62.41-1.31.41-2.07 0-.76-.138-1.45-.41-2.07s-.645-1.15-1.11-1.59zm-1.07 4.74c-.126.347-.312.653-.56.92-.247.268-.543.48-.89.64-.347.16-.74.24-1.18.24-.44 0-.833-.08-1.18-.24-.348-.158-.645-.372-.89-.64-.248-.267-.435-.573-.56-.92-.13-.347-.19-.706-.19-1.08 0-.373.06-.732.19-1.08.125-.347.31-.652.56-.92.245-.267.542-.48.89-.64.347-.162.74-.24 1.18-.24.44 0 .833.08 1.18.24.346.16.643.373.89.64.247.268.434.573.56.92.127.348.19.707.19 1.08 0 .374-.063.734-.19 1.08zm14.22-3.08c.247-.267.543-.48.89-.64.348-.162.74-.24 1.18-.24.32 0 .634.087.94.26.308.174.6.406.88.7l1.66-1.66c-.467-.507-1.01-.876-1.63-1.11s-1.237-.35-1.85-.35c-.72 0-1.4.12-2.04.36-.64.24-1.193.58-1.66 1.02-.467.44-.837.97-1.11 1.59-.272.62-.41 1.31-.41 2.07s.137 1.45.41 2.068c.273.62.644 1.15 1.11 1.59.467.44 1.02.78 1.66 1.02.64.242 1.32.36 2.04.36.213 0 .466-.023.76-.07.293-.046.6-.123.92-.228.32-.106.636-.246.95-.42.312-.174.59-.38.83-.62l-1.6-1.72c-.228.293-.5.517-.82.67-.32.152-.667.23-1.04.23-.44 0-.833-.08-1.18-.24-.348-.16-.644-.373-.89-.64-.248-.268-.435-.574-.56-.922-.128-.346-.19-.705-.19-1.078 0-.374.062-.733.19-1.08.127-.347.313-.652.56-.92zm15.27-1.678c-.395-.44-.867-.777-1.42-1.012-.555-.233-1.165-.35-1.832-.35-.72 0-1.4.118-2.04.358-.64.24-1.192.58-1.66 1.02-.467.44-.836.97-1.11 1.59s-.41 1.312-.41 2.07.137 1.45.41 2.07c.275.62.646 1.15 1.11 1.59.467.44 1.02.78 1.66 1.02.64.24 1.32.36 2.04.36.76 0 1.487-.147 2.18-.44.693-.293 1.32-.787 1.88-1.48l-1.72-1.3c-.307.374-.663.685-1.07.932-.406.245-.91.368-1.51.368-.68 0-1.26-.198-1.74-.6-.48-.4-.76-.96-.84-1.68h7.32v-.66c0-.84-.11-1.584-.33-2.23-.22-.645-.527-1.188-.92-1.627zm-6.072 2.717c.093-.693.35-1.246.77-1.66.42-.412.99-.62 1.71-.62.76 0 1.354.204 1.78.61s.646.964.66 1.67h-4.92zm10.028 5.76h2.4v-15.12h-2.4v15.12zm13.578-8.478c-.394-.44-.866-.777-1.42-1.012-.554-.233-1.163-.35-1.83-.35-.72 0-1.398.118-2.04.358-.64.24-1.192.58-1.66 1.02-.467.44-.837.97-1.108 1.59-.273.62-.41 1.312-.41 2.07s.137 1.45.41 2.07c.27.62.643 1.15 1.11 1.59.466.44 1.02.78 1.658 1.02.642.24 1.32.36 2.04.36.76 0 1.486-.147 2.18-.44.694-.293 1.32-.787 1.882-1.48l-1.722-1.3c-.307.374-.662.685-1.068.932-.407.245-.91.368-1.51.368-.682 0-1.262-.198-1.74-.6-.48-.4-.76-.96-.84-1.68h7.318v-.66c0-.84-.11-1.584-.33-2.23-.22-.644-.527-1.188-.92-1.627zm-6.07 2.717c.093-.693.35-1.246.77-1.66.42-.412.99-.62 1.71-.62.76 0 1.354.204 1.78.61.427.406.646.964.66 1.67h-4.92zM372 97.327c-.407-.452-.896-.81-1.47-1.07-.575-.258-1.2-.39-1.88-.39-.454 0-.855.047-1.2.14s-.654.214-.92.36c-.27.146-.494.304-.682.47-.187.167-.34.33-.46.49h-.06v-6.74h-2.4v15.12h2.28v-1.44h.04c.347.59.812 1.016 1.4 1.28.586.268 1.22.4 1.898.4.733 0 1.394-.13 1.98-.39s1.086-.616 1.5-1.07c.412-.453.726-.986.938-1.6.213-.614.32-1.273.32-1.98 0-.707-.114-1.367-.34-1.98-.225-.613-.538-1.146-.944-1.6zm-1.3 4.66c-.127.347-.313.653-.562.92-.247.268-.543.48-.89.64-.348.16-.74.24-1.18.24-.44 0-.834-.08-1.182-.24-.347-.158-.644-.372-.89-.64-.247-.267-.434-.573-.56-.92-.13-.347-.19-.706-.19-1.08 0-.373.062-.732.19-1.08.126-.347.31-.652.56-.92.246-.267.543-.48.89-.64.348-.162.74-.24 1.18-.24.44 0 .834.08 1.182.24.347.16.643.373.89.64.247.268.435.573.56.92.128.348.19.707.19 1.08.002.374-.062.734-.19 1.08zm10.558-6.12c-.64 0-1.207.154-1.7.46-.492.308-.874.74-1.14 1.3h-.04v-1.52h-2.4v9.6h2.4v-5.14c0-.134.03-.333.09-.6.06-.268.18-.534.36-.8.18-.268.438-.505.78-.71.34-.208.79-.312 1.35-.312.187 0 .376.017.57.05.19.032.39.077.59.13v-2.32c-.147-.04-.29-.072-.43-.1s-.284-.038-.43-.038zm10.926 2.6c-.072-.318-.192-.636-.36-.95-.166-.31-.402-.59-.71-.83-.307-.238-.692-.436-1.16-.59-.466-.15-1.04-.228-1.72-.228-.76 0-1.496.12-2.21.36-.713.238-1.336.632-1.87 1.18l1.26 1.26c.32-.308.7-.55 1.142-.73.44-.18.913-.27 1.42-.27.64 0 1.166.15 1.58.45.413.3.62.75.62 1.35v.26h-.6c-.4 0-.828.01-1.28.03-.454.02-.904.066-1.35.14-.448.074-.878.185-1.29.33-.414.147-.778.345-1.09.59-.314.248-.564.555-.75.92-.19.367-.28.812-.28 1.33 0 .48.1.9.3 1.262.2.36.463.66.79.898.326.24.7.42 1.12.54.42.12.85.18 1.29.18.64 0 1.226-.122 1.76-.368.532-.247.973-.645 1.32-1.19h.06v1.32h2.16v-5.52c0-.23-.008-.49-.02-.792-.016-.302-.06-.613-.132-.932zm-2.15 3.48c0 .68-.198 1.217-.59 1.61-.396.394-1.005.59-1.83.59-.2 0-.4-.022-.602-.07-.2-.046-.38-.123-.54-.23-.16-.104-.29-.235-.39-.39-.1-.152-.15-.343-.15-.568 0-.35.126-.618.38-.812.254-.193.563-.342.93-.44.368-.1.758-.163 1.17-.19s.788-.038 1.12-.038h.5v.537zm8.555-8.62h-2.397v2.78h-1.98v2.04h1.98v4.4c0 .56.043 1.054.13 1.478.086.428.246.783.48 1.07.232.287.554.5.96.64.406.142.93.21 1.57.21.28 0 .603-.022.97-.068.366-.047.677-.13.93-.25v-2.02c-.146.106-.348.184-.6.23s-.487.07-.7.07c-.533 0-.89-.142-1.07-.423-.18-.278-.27-.658-.27-1.14v-4.2h2.64v-2.04h-2.64V93.33zm12.745 3.902c-.394-.44-.867-.777-1.42-1.012-.554-.233-1.163-.35-1.83-.35-.72 0-1.4.118-2.04.358s-1.193.58-1.66 1.02c-.467.44-.837.97-1.108 1.59-.273.62-.41 1.312-.41 2.07s.137 1.45.41 2.07c.27.62.643 1.15 1.108 1.59.467.44 1.02.78 1.66 1.02.64.24 1.32.36 2.04.36.76 0 1.486-.147 2.18-.44.694-.293 1.32-.787 1.88-1.48l-1.72-1.3c-.307.374-.663.685-1.07.932-.405.245-.908.368-1.51.368-.68 0-1.26-.198-1.74-.6-.478-.4-.76-.96-.84-1.68h7.32v-.66c0-.84-.11-1.584-.33-2.23-.22-.644-.527-1.188-.92-1.627zm-6.07 2.717c.095-.693.352-1.246.77-1.66.42-.412.99-.62 1.71-.62.76 0 1.354.204 1.78.61.427.406.647.964.66 1.67h-4.92zm19.54-6.62h-2.4v2.78h-1.978v2.04h1.98v4.4c0 .56.042 1.054.13 1.478.086.428.246.783.478 1.07.233.287.554.5.96.64s.93.21 1.57.21c.28 0 .604-.022.97-.068.366-.047.678-.13.93-.25v-2.02c-.145.106-.347.184-.6.23-.254.046-.486.07-.7.07-.532 0-.89-.142-1.07-.423-.18-.278-.27-.658-.27-1.14v-4.2h2.64v-2.04h-2.64V93.33zm13.063 3.7c-.28-.346-.645-.627-1.09-.84-.447-.213-.99-.32-1.63-.32-.747 0-1.357.164-1.83.49-.475.326-.805.69-.99 1.09h-.04v-6.86h-2.4v15.12h2.4v-5.24c0-.318.04-.626.12-.92.08-.293.21-.553.39-.78.182-.226.407-.405.682-.538.27-.135.608-.202 1.01-.202.413 0 .74.1.98.29s.415.435.528.72c.113.288.184.595.21.922.026.326.04.623.04.89v4.86h2.4v-6.06c0-.494-.062-.968-.18-1.42-.12-.457-.32-.855-.6-1.203zm11.848.202c-.394-.44-.866-.777-1.42-1.012-.554-.233-1.163-.35-1.83-.35-.72 0-1.398.118-2.04.358-.64.24-1.192.58-1.66 1.02-.467.44-.836.97-1.108 1.59-.273.62-.41 1.312-.41 2.07s.137 1.45.41 2.07c.272.62.643 1.15 1.108 1.59.468.44 1.02.78 1.66 1.02.642.24 1.32.36 2.04.36.76 0 1.487-.147 2.182-.44.69-.293 1.318-.787 1.88-1.48l-1.722-1.3c-.307.374-.663.685-1.068.932-.407.245-.91.368-1.51.368-.682 0-1.262-.198-1.74-.6-.48-.4-.76-.96-.84-1.68h7.318v-.66c0-.84-.108-1.584-.33-2.23-.22-.645-.527-1.188-.92-1.627zm-6.07 2.717c.093-.693.35-1.246.77-1.66.42-.412.99-.62 1.71-.62.76 0 1.354.204 1.78.61.427.406.646.964.66 1.67h-4.92zm16.32 5.76h2.4v-15.12h-2.4v15.12zm13.614-7.24c-.074-.318-.193-.636-.36-.95-.167-.31-.402-.59-.71-.83-.307-.238-.692-.436-1.16-.59-.467-.15-1.04-.228-1.72-.228-.76 0-1.497.12-2.21.36-.714.238-1.337.632-1.87 1.18l1.26 1.26c.32-.308.7-.55 1.14-.73.44-.18.915-.27 1.42-.27.642 0 1.168.15 1.58.45.415.3.62.75.62 1.35v.26h-.6c-.4 0-.827.01-1.28.03-.452.02-.902.066-1.35.14-.447.074-.877.185-1.29.33-.413.147-.776.345-1.09.59-.312.248-.562.555-.75.92s-.28.812-.28 1.33c0 .48.1.9.3 1.262.2.36.464.66.79.898.326.24.7.42 1.12.54.42.12.85.18 1.29.18.64 0 1.228-.122 1.76-.368.533-.247.975-.645 1.32-1.19h.06v1.32h2.16v-5.52c0-.23-.007-.49-.02-.792-.014-.302-.058-.613-.13-.932zm-2.15 3.48c0 .68-.196 1.217-.59 1.61-.394.394-1.004.59-1.83.59-.2 0-.4-.022-.6-.07-.2-.046-.38-.123-.54-.23-.16-.104-.29-.235-.392-.39-.1-.152-.148-.343-.148-.568 0-.35.126-.618.38-.812.253-.193.562-.342.93-.44.366-.1.757-.163 1.17-.19s.786-.038 1.12-.038h.5v.537zm11.662-.6c0 .32-.04.628-.12.92s-.21.556-.39.78c-.18.23-.407.407-.68.54-.274.134-.61.2-1.012.2-.427 0-.757-.096-.99-.29-.232-.192-.406-.433-.52-.72-.113-.286-.183-.594-.21-.92-.026-.326-.04-.623-.04-.89v-4.86h-2.398v6.06c0 .494.06.968.18 1.42s.32.856.6 1.21c.28.355.645.635 1.09.842.447.204.99.31 1.632.31.8 0 1.433-.178 1.898-.53.467-.354.813-.77 1.04-1.25h.04v1.54h2.28v-9.602h-2.4v5.24zm13.543-4.32c-.278-.346-.643-.627-1.09-.84-.446-.213-.99-.32-1.63-.32-.8 0-1.434.178-1.9.53-.467.353-.812.77-1.04 1.25h-.04v-1.54h-2.278v9.6h2.398v-5.24c0-.318.04-.626.12-.92.08-.293.21-.553.392-.78.18-.226.405-.405.68-.538.272-.135.61-.202 1.01-.202.413 0 .74.1.98.29.24.193.416.435.528.72.113.288.185.595.21.922.027.326.04.623.04.89v4.86h2.4v-6.06c0-.494-.06-.968-.18-1.42-.12-.457-.32-.855-.6-1.203zm6.528 1.88c.246-.267.543-.48.89-.64.348-.162.74-.24 1.18-.24.32 0 .635.087.94.26.308.174.6.406.88.7l1.66-1.66c-.467-.507-1.01-.876-1.63-1.11s-1.237-.35-1.85-.35c-.722 0-1.4.12-2.04.36-.642.24-1.193.58-1.66 1.02-.467.44-.837.97-1.11 1.59-.272.62-.41 1.31-.41 2.07s.138 1.45.41 2.068c.273.62.645 1.15 1.11 1.59.467.44 1.02.78 1.66 1.02.64.24 1.318.36 2.04.36.213 0 .466-.023.76-.07.293-.046.6-.123.92-.228.32-.106.637-.246.95-.42.312-.174.59-.38.83-.62l-1.602-1.72c-.226.293-.5.517-.82.67-.317.152-.664.23-1.038.23-.44 0-.833-.08-1.18-.24-.348-.16-.645-.373-.89-.64-.248-.268-.436-.574-.563-.922-.127-.346-.19-.705-.19-1.078 0-.374.063-.733.19-1.08.13-.347.316-.652.563-.92zm15.516-1.88c-.28-.346-.645-.627-1.09-.84-.448-.213-.99-.32-1.63-.32-.748 0-1.358.164-1.83.49-.475.326-.805.69-.99 1.09h-.04v-6.86h-2.4v15.12h2.398v-5.24c0-.318.04-.626.12-.92.08-.293.21-.553.392-.78.18-.226.405-.405.68-.538.272-.135.61-.202 1.01-.202.413 0 .74.1.98.29.238.193.416.435.528.72.113.288.185.595.21.922.026.326.04.623.04.89v4.86h2.4v-6.06c0-.494-.06-.968-.18-1.42-.12-.457-.32-.855-.6-1.203zm18.658.22c-.467-.438-1.02-.78-1.66-1.02-.64-.24-1.318-.36-2.04-.36s-1.398.12-2.04.36-1.19.58-1.658 1.02c-.468.44-.837.97-1.11 1.59s-.41 1.312-.41 2.07.138 1.45.41 2.07c.272.62.644 1.15 1.11 1.59.467.44 1.02.78 1.66 1.02.64.24 1.318.36 2.04.36s1.398-.12 2.04-.36 1.19-.58 1.658-1.02c.467-.44.837-.97 1.11-1.59.272-.62.41-1.31.41-2.07 0-.76-.138-1.45-.41-2.07-.273-.62-.643-1.15-1.11-1.59zm-1.07 4.74c-.126.347-.31.653-.56.92-.247.268-.543.48-.89.64-.348.162-.74.24-1.18.24-.44 0-.835-.08-1.182-.24-.347-.158-.645-.372-.89-.64-.247-.267-.435-.573-.56-.92-.128-.347-.19-.706-.19-1.08 0-.373.062-.732.19-1.08.125-.347.31-.652.56-.92.245-.267.543-.48.89-.64.347-.162.74-.24 1.18-.24.44 0 .834.08 1.182.24.347.16.643.373.89.64.247.268.434.573.56.92.127.348.19.707.19 1.08 0 .374-.063.734-.19 1.08zm7.826-11.33c-.467.207-.83.504-1.09.89-.26.39-.437.852-.53 1.39-.093.542-.14 1.146-.14 1.813v1.358h-1.98v2.04h1.98v7.562h2.4v-7.56h2.22v-2.042h-2.22v-1.74c0-.266.017-.52.05-.76s.105-.448.22-.63c.113-.18.27-.322.47-.43.2-.106.468-.16.802-.16.173 0 .34.015.5.04.16.026.325.06.5.1l.16-2.04c-.47-.093-.975-.14-1.522-.14-.747 0-1.353.103-1.82.31zm20.96 8.7c-.267-.3-.59-.547-.97-.74-.38-.192-.79-.316-1.23-.37v-.04c.733-.227 1.327-.6 1.78-1.12.453-.52.68-1.18.68-1.98 0-.64-.126-1.186-.38-1.64-.253-.45-.582-.822-.99-1.11-.405-.284-.868-.49-1.39-.618-.52-.128-1.047-.19-1.58-.19h-5.52v14.16h5.1c.667 0 1.323-.066 1.97-.2.647-.133 1.222-.356 1.722-.67s.9-.728 1.21-1.24c.306-.514.46-1.155.46-1.93 0-.453-.077-.877-.23-1.27-.154-.396-.366-.742-.632-1.043zm-7.08-5.65h2.08c.96 0 1.656.15 2.09.45.435.3.65.757.65 1.37 0 .533-.21.964-.63 1.29-.42.327-1.05.49-1.89.49h-2.302l.002-3.6zm5.12 8.87c-.2.274-.453.483-.76.63-.307.147-.644.24-1.01.28-.367.04-.71.06-1.03.06h-2.32v-4.08h2.42c1.026 0 1.783.147 2.27.44.487.294.73.813.73 1.56 0 .47-.1.838-.3 1.11zm13.89-5.33c-.467-.438-1.02-.78-1.658-1.02-.642-.24-1.32-.36-2.04-.36s-1.4.12-2.04.36c-.64.24-1.194.58-1.66 1.02-.467.44-.837.97-1.11 1.59-.272.62-.41 1.312-.41 2.07s.138 1.45.41 2.07c.273.62.645 1.15 1.11 1.59.466.44 1.02.78 1.66 1.02s1.318.36 2.04.36 1.398-.12 2.04-.36c.64-.24 1.19-.58 1.66-1.02.466-.44.836-.97 1.108-1.59.273-.62.41-1.31.41-2.07 0-.76-.137-1.45-.41-2.07-.272-.62-.642-1.15-1.11-1.59zm-1.068 4.74c-.127.347-.312.653-.56.92-.248.268-.544.48-.892.64-.347.162-.74.24-1.18.24-.44 0-.834-.08-1.182-.24-.347-.158-.644-.372-.89-.64-.247-.267-.434-.573-.56-.92-.127-.347-.19-.706-.19-1.08 0-.373.063-.732.19-1.08.126-.347.31-.652.56-.92.246-.267.543-.48.89-.64.348-.162.74-.24 1.18-.24.44 0 .835.08 1.182.24.348.16.644.373.89.64.247.268.435.573.562.92.126.348.19.707.19 1.08 0 .374-.064.734-.19 1.08zm10.892-1.45c-.388-.206-.804-.36-1.25-.46-.446-.1-.862-.196-1.25-.29s-.707-.206-.96-.34c-.254-.133-.38-.346-.38-.64 0-.36.152-.62.46-.78s.62-.24.94-.24c.786 0 1.412.327 1.88.98l1.6-1.44c-.387-.532-.894-.91-1.52-1.13s-1.26-.33-1.9-.33c-.48 0-.954.06-1.42.18-.467.12-.88.31-1.24.56-.36.255-.65.58-.87.973-.22.394-.33.856-.33 1.39 0 .613.128 1.094.38 1.44.254.346.574.616.96.81.388.194.805.333 1.25.42.447.088.864.18 1.25.28s.708.23.96.39c.254.162.38.407.38.74 0 .188-.05.35-.147.49-.1.14-.23.257-.39.35-.162.094-.334.16-.52.2-.19.04-.368.06-.54.06-.51 0-.94-.11-1.29-.33-.355-.22-.686-.502-.99-.85l-1.6 1.5c.49.56 1.052.946 1.68 1.16.626.213 1.31.32 2.06.32.492 0 .986-.055 1.48-.16.492-.105.936-.28 1.33-.522.392-.24.712-.557.96-.95.245-.393.37-.876.37-1.45 0-.625-.128-1.118-.38-1.478-.256-.363-.576-.646-.962-.853zm9.477 0c-.387-.206-.805-.36-1.25-.46-.447-.1-.863-.196-1.25-.29s-.707-.206-.96-.34c-.254-.133-.38-.346-.38-.64 0-.36.152-.62.46-.78.307-.16.62-.24.938-.24.787 0 1.413.327 1.88.98l1.602-1.44c-.388-.532-.895-.91-1.52-1.13s-1.26-.33-1.9-.33c-.48 0-.953.06-1.42.18-.467.12-.88.31-1.24.56-.36.255-.65.58-.87.973s-.33.856-.33 1.39c0 .613.128 1.094.38 1.44.254.346.574.616.96.81.39.194.806.333 1.25.42.448.088.864.18 1.25.28.39.1.708.23.96.39.256.16.38.407.38.74 0 .188-.05.35-.147.49-.102.14-.23.257-.39.35-.16.094-.334.16-.52.2-.188.04-.368.06-.54.06-.508 0-.938-.11-1.29-.33-.354-.22-.685-.502-.99-.85l-1.6 1.5c.492.56 1.052.946 1.68 1.16.626.213 1.312.32 2.06.32.494 0 .987-.055 1.48-.16.493-.105.938-.28 1.33-.522.394-.24.713-.557.96-.95.247-.393.37-.876.37-1.45 0-.625-.127-1.118-.38-1.478-.256-.36-.576-.646-.963-.853zm11.83-2.07c-.074-.318-.193-.636-.36-.95-.167-.31-.403-.59-.71-.83-.307-.238-.693-.436-1.16-.59-.467-.15-1.04-.228-1.72-.228-.76 0-1.497.12-2.21.36-.714.238-1.337.632-1.87 1.18l1.26 1.26c.32-.308.7-.55 1.14-.73.44-.18.914-.27 1.42-.27.642 0 1.168.15 1.58.45.414.3.62.75.62 1.35v.26h-.6c-.4 0-.827.01-1.28.03-.452.02-.902.066-1.35.14-.447.074-.877.185-1.29.33-.413.147-.776.345-1.09.59-.313.248-.563.555-.75.92-.188.367-.28.812-.28 1.33 0 .48.1.9.3 1.262.2.36.464.66.79.898.326.24.7.42 1.12.54.42.12.85.18 1.29.18.64 0 1.228-.122 1.76-.368.533-.247.975-.645 1.32-1.19h.06v1.32h2.16v-5.52c0-.23-.007-.49-.02-.792-.014-.302-.057-.613-.13-.932zm-2.15 3.48c0 .68-.197 1.217-.59 1.61-.394.394-1.004.59-1.83.59-.2 0-.4-.022-.6-.07-.2-.046-.38-.123-.54-.23-.16-.104-.29-.235-.392-.39-.1-.152-.148-.343-.148-.568 0-.35.126-.618.38-.812.253-.193.562-.342.93-.44.366-.1.757-.163 1.17-.19s.786-.038 1.12-.038h.5v.537zm7.973 1.24c-.32-.292-.693-.437-1.12-.437-.44 0-.816.153-1.13.46-.314.307-.47.673-.47 1.1 0 .215.042.414.13.602.085.188.202.346.35.48.146.132.315.24.51.32.193.078.396.12.61.12.44 0 .815-.154 1.13-.462.312-.308.47-.673.47-1.1 0-.43-.16-.79-.48-1.082z"/></svg>