<?xml version="1.0" encoding="utf-8"?>
<!-- Generator: Adobe Illustrator 16.0.4, SVG Export Plug-In . SVG Version: 6.00 Build 0)  -->
<!DOCTYPE svg PUBLIC "-//W3C//DTD SVG 1.1//EN" "http://www.w3.org/Graphics/SVG/1.1/DTD/svg11.dtd">
<svg version="1.1" id="Layer_1" xmlns="http://www.w3.org/2000/svg" xmlns:xlink="http://www.w3.org/1999/xlink" x="0px" y="0px"
	 width="500px" height="500px" viewBox="0 0 500 500" enable-background="new 0 0 500 500" xml:space="preserve">
<g>
	<path fill="#010101" d="M88.15,376.802c0,0,3.158-0.721,10.972-0.721s11.997,1.062,11.997,1.062l-0.892-70.634l55.345-111.775
		c-4.558,0.652-10.201-0.217-10.201-0.217L106.32,296.743L80.695,247.5C79.48,229.914,79.48,82.816,79.48,82.816l101.004,114.87
		c-15.16,15.882-24.4,36.981-24.4,60.136c0,49.386,42.032,89.42,93.883,89.42c9.108,0,17.831-1.24,26.026-3.545l0.48,49.428
		c0,0,9.545-0.803,21.32,0.402l-1.211-58.448c8.023-4.595,15.213-10.351,21.355-17.038c4.566,7.65,23.312,38.815,38.215,59.917
		c0.457,0.846,0.914,1.68,1.373,2.497c13.877,24.739,42.584,40.024,47.209,41.23c4.625,1.207,7.699,0.201,7.699,0.201
		s-12.602-14.477-15.82-18.699s-12.74-18.106-23.801-35.203c-9.76-15.084-30.791-50.984-35.605-59.227
		c5.482-1.957,31.381-8.88,31.381-33.692c0-19.037-12.982-31.987-29.484-36.796c-8.832-39.98-44.34-69.867-89.137-69.867
		c-4.928,0-9.765,0.363-14.486,1.061l0.006-21.956c15.24,0.312,30.688,0.817,30.688,0.817l3.93-10.073
		c-5.027,0.79-20.132,1.19-34.617,1.392l0.021-87.227c14.699,0.223,28.85,0.406,28.85,0.406c-0.34-0.426-0.355-3.186-0.305-5.52
		c15.092,36.916,51.492,132.674,51.492,132.674l32.303-75.226c15.744,37.114,31.506,74.792,31.506,74.792L440.775,33.91h-14.541
		L384.562,146.77l-27.309-63.924L378.27,33.91l-8.682-0.217l-16.064,40.42l-17.359-40.638c-9.115,0.651-19.316,0.218-19.316,0.218
		c2.281,3.898,14.562,32.377,27.643,63.15l-21.566,54.267L277.781,33.476c-9.117,0.651-19.752,0-19.752,0
		c0.73,1.245,2.381,5.01,4.68,10.563c-4.654,0.286-15.802,0.52-27.2,0.693l0.003-10.062c-3.419,0.922-10.635,0.054-10.635,0.054
		c0.076,0.841,0.171,4.478,0.277,10.151c-11.876,0.15-21.792,0.229-21.792,0.229V8.627h62.206l-5.439-8.575
		c0,0-15.483,0.519-31.905,0.651C200.98,0.923,182.476,0,182.476,0l0.407,45.211l-0.04-0.01l-17.695-0.055l-1.732,5.953v0.865
		h19.529l0.859,95.475c0,0,15.472-0.174,32.726-0.174c2.943,0,6.331,0.031,9.92,0.082c0.091,8.432,0.175,16.494,0.251,23.824
		c-8.32,2.021-16.196,5.098-23.461,9.075L71.956,29.858v200.544l1.737,3.642l-20.367-39.138c-9.549,0.434-28.395-0.389-28.395-0.389
		L87.23,308.146L88.15,376.802z M204.181,139.849l-0.816-87.884h6.265l-0.019-0.004c4.045,0.092,9.619,0.193,15.671,0.293
		c0.331,20.59,0.741,55.8,1.086,87.494C214.114,139.861,204.181,139.849,204.181,139.849z M296.381,325.326l-0.6-28.941
		l0.805-50.281c0,0,18.568-4.027,34.457,0.373c0.51,3.729,0.779,7.539,0.779,11.416C331.822,286.25,317.686,311.152,296.381,325.326
		z M353.303,275.467c0,0,1.799,23.78-27.195,32.226c9.609-14.247,15.121-31.404,15.121-49.87c0-2.375-0.094-4.728-0.271-7.057
		C348.109,255.34,353.242,262.975,353.303,275.467z M255.426,178.023c35.068,0,64.613,24.703,73.594,58.371
		c-1.801-0.156-3.617-0.232-5.443-0.205c-20.15,0.299-48.617,1.303-48.617,1.303l0.947,97.363
		c-6.518,1.892-13.387,2.907-20.48,2.907c-50.788,0-72.274-34.891-72.274-79.001c0-17.047,3.439-32.973,10.498-46.102l41.809,47.548
		l0.019-79.917C241.572,178.812,248.216,178.023,255.426,178.023z M226.821,182.979c0.151,14.837,0.245,24.561,0.245,24.561
		l-14.627-16.755C216.744,187.648,221.533,185.02,226.821,182.979z"/>
	<path fill="#010101" d="M412.271,234.742l45.289-46.735H446.42c0,0-47.955,51.458-56.668,60.554l-0.197-60.119
		c0,0-6.031,0.166-9.504,0.166s-9.596-0.166-9.596-0.166v137.168c0,0,4.775-0.435,9.984-0.435s9.562,0.309,9.562,0.309
		l-0.223-68.458l9.326-9.695l51.656,78.568c0,0,7.379-1.446,12.152-1.446c4.775,0,12.154,0.434,12.154,0.434L412.271,234.742z"/>
	<path fill="#010101" d="M175.027,447.759c-7.643-3.759-21.298-9.897-21.298-18.918c0-9.02,12.653-19.543,30.317-9.145l2.256-3.759
		c0,0-2.13-4.761-18.792-4.761c-14.192,0-19.565,9.903-20.847,17.021l-12.729-0.108l-6.963-0.304
		c-0.041-1.867,0.072-4.081,0.072-4.081l-6.891,0.12v-14.903l31.32,0.627c-0.501-0.877-2.13-4.511-2.13-4.511
		c-6.139,1.002-39.464,0.25-39.464,0.25c0.627,1.503,0.502,18.292,0.502,18.292l0.064,0.416l-26.248,0.46v-31.069l46.729,0.501
		c0,0-2.757-3.256-3.634-5.512l-58.631-0.251c0,0,2.632,102.98,0.877,111.499c0,0,2.882-0.501,7.267-0.501
		c4.386,0,7.392,0.877,7.392,0.877v-71.513c2.971,0.069,9.533,0.286,16.655,0.533l-0.87,2.451h9.896l0.502,48.734
		c0,0,27.027,0.326,37.44,0.188l-2.487,5.449c0,0,5.889,6.264,21.047,6.264c15.159,0,20.672-8.519,23.052-18.917
		S182.779,451.572,175.027,447.759z M182.292,474.067c-0.25,11.901-9.771,13.906-16.16,13.906c-6.308,0-10.664,0.36-17.885-7.585
		c2.233-0.034,3.603-0.092,3.603-0.183c0-0.501,2.882-4.385,2.882-4.385l-33.951,0.126l-0.752-44.476l26.309,0.118
		c0,0.002,0,0.005,0,0.008c0,12.778,8.896,19.544,19.168,24.179C175.779,460.412,182.543,462.166,182.292,474.067z"/>
	<path fill="#010101" d="M437.084,418.63c-8.637-4.248-24.07-11.186-24.07-21.379s14.301-22.086,34.262-10.335l2.549-4.247
		c0,0-2.406-5.38-21.236-5.38s-23.928,15.432-23.928,23.077c0,14.441,10.053,22.087,21.662,27.325s19.256,7.22,18.973,20.67
		c-0.285,13.45-11.045,15.717-18.264,15.717c-7.221,0-12.178,0.424-20.529-8.921l-2.975,6.514c0,0,6.656,7.078,23.787,7.078
		s26.918-14.529,26.918-21.598C454.232,426.133,445.844,422.939,437.084,418.63z"/>
	<path fill="#010101" d="M238.011,373.026l3.965-6.688c0,0-58.896,1.381-62.117,0.885l0.102,6.219l23.117-0.91v105.05h15.361
		l-0.344-104.439L238.011,373.026z"/>
	<path fill="#010101" d="M242.485,408.165c-4.196,0.144-5.304-0.136-5.304-0.136c1.157,19.822,0.809,77.247,0.809,77.247
		s3.854-0.04,6.024-0.04s4.358,0.04,4.358,0.04c-0.109-3.617-0.615-77.338-0.615-77.338S246.681,408.021,242.485,408.165z"/>
	<path fill="#010101" d="M328.93,379.362c-3.4,0.146-6.078-0.217-6.078-0.217l-30.963,78.856l-31.449-78.689
		c-11.431,0.289-15.721-0.023-16.155-0.023l42.973,103.021C287.258,482.311,329.982,379.317,328.93,379.362z"/>
	<path fill="#010101" d="M388.977,414.161c-2.027,0.579-10.418,0.145-10.418,0.145c0.268,14.606,0.117,68.277,0.094,76.125
		l-36.123-85.675c0,0-11.01,27.112-21.275,52.378c-6.02,0.036-10.676-0.029-11.713-0.289l-2.172,3.907h12.414
		c-8.352,20.561-15.822,38.939-15.887,39.066h6.367l15.158-39.066h26.529l16.045,39.212c0,0,12.443-0.436,14.613-0.146l-3.549-8.418
		l33.355,0.171l3.482-5.354l-26.777-0.081L388.977,414.161z M326.848,457.079l11.486-29.606l11.916,29.124
		C344.178,456.754,334.984,456.973,326.848,457.079z"/>
</g>
</svg>
