<?xml version="1.0" encoding="utf-8"?>
<!-- Generator: Adobe Illustrator 16.0.4, SVG Export Plug-In . SVG Version: 6.00 Build 0)  -->
<!DOCTYPE svg PUBLIC "-//W3C//DTD SVG 1.1//EN" "http://www.w3.org/Graphics/SVG/1.1/DTD/svg11.dtd">
<svg version="1.1"
	 id="svg3974" xmlns:svg="http://www.w3.org/2000/svg" xmlns:sodipodi="http://sodipodi.sourceforge.net/DTD/sodipodi-0.dtd" xmlns:inkscape="http://www.inkscape.org/namespaces/inkscape" xmlns:dc="http://purl.org/dc/elements/1.1/" xmlns:cc="http://creativecommons.org/ns#" xmlns:rdf="http://www.w3.org/1999/02/22-rdf-syntax-ns#" sodipodi:version="0.32" inkscape:version="0.46" sodipodi:docname="Webby Awards.svg" inkscape:output_extension="org.inkscape.output.svg.inkscape"
	 xmlns="http://www.w3.org/2000/svg" xmlns:xlink="http://www.w3.org/1999/xlink" x="0px" y="0px" width="500px" height="500px"
	 viewBox="0 0 500 500" enable-background="new 0 0 500 500" xml:space="preserve">
<defs>
	
	
		<inkscape:perspective  id="perspective3982" sodipodi:type="inkscape:persp3d" inkscape:vp_x="0 : 526.18109 : 1" inkscape:vp_y="0 : 1000 : 0" inkscape:vp_z="744.09448 : 526.18109 : 1" inkscape:persp3d-origin="372.04724 : 350.78739 : 1">
		</inkscape:perspective>
	
		<inkscape:perspective  id="perspective3991" sodipodi:type="inkscape:persp3d" inkscape:vp_x="0 : 526.18109 : 1" inkscape:vp_y="0 : 1000 : 0" inkscape:vp_z="744.09448 : 526.18109 : 1" inkscape:persp3d-origin="372.04724 : 350.78739 : 1">
		</inkscape:perspective>
</defs>
<sodipodi:namedview  id="base" showgrid="false" inkscape:cy="526.18109" borderopacity="1.0" bordercolor="#666666" guidetolerance="10" gridtolerance="10000" pagecolor="#ffffff" objecttolerance="10" inkscape:cx="372.04724" inkscape:zoom="0.48272354" inkscape:pageshadow="2" inkscape:window-width="1024" inkscape:current-layer="layer1" inkscape:window-x="-4" inkscape:pageopacity="0.0" inkscape:window-height="721" inkscape:document-units="px" inkscape:window-y="-4">
	</sodipodi:namedview>
<path d="M0,263.986v22.193C171.723,275.968,44.013,270.662,0,263.986z"/>
<path d="M0,300.656v21.793l1.436,0.357C132.261,310.732,94.709,306.332,0,300.656z"/>
<path d="M0,107.611v71.658c107.669-3.642,108.201-9.743,52.364-17.143l10.043-12.193c68.938,10.579,64.566,27.905,15.064,36.584
	c16.587,5.833,75.383,16.644,4.303,38.017c11.567,3.144,76.796,19.29-4.303,33.714c12.849,5.803,81.027,14.125,2.868,35.148
	c20.237,3.323,72.244,14.41,3.587,36.584c25.956,2.715,28.891,3.615,35.865,15.781v46.627h31.562V107.611H0z"/>
<path d="M0,230.273v22.236C32.302,246.157,179.742,243.579,0,230.273z"/>
<path d="M0,192.375v23.553C100.938,210.498,135.042,203.466,0,192.375z"/>
<path d="M188.424,183.548h-17.221v-3.387h38.111v3.387h-17.217v46.018h-3.672L188.424,183.548L188.424,183.548z"/>
<path d="M218.632,180.161h3.671v22.868h31.619v-22.868h3.671v49.403h-3.671v-23.15h-31.619v23.15h-3.671V180.161z"/>
<path d="M270.436,180.161h35.146v3.387h-31.475v19.408h28.299v3.391h-28.299v19.831h31.828v3.388h-35.502L270.436,180.161
	L270.436,180.161z"/>
<path d="M173.757,257.962h16.394l9.761,32.392l10.797-32.549h13.357l10.793,32.549l9.761-32.392h16.078l-18.716,56.388h-13.519
	l-11.199-32.23l-11.275,32.23H192.47L173.757,257.962z"/>
<path d="M260.698,285.49v-0.213c0-16.825,12.034-30.139,29.077-30.139c19.811,0,28.968,14.592,28.968,31.523
	c0,1.277,0,2.77-0.104,4.156h-38.554c1.597,6.281,6.176,9.477,12.456,9.477c4.904,0,8.631-1.811,12.783-5.857l11.181,9.268
	c-5.536,7.025-13.522,11.713-24.919,11.713C273.482,315.416,260.698,303.277,260.698,285.49z M299.891,280.486
	c-0.744-6.395-4.576-10.441-10.115-10.441c-5.328,0-8.944,4.048-10.012,10.441H299.891z"/>
<path d="M329.748,257.962h28.714c7.039,0,11.997,1.759,15.277,4.961c2.237,2.315,3.599,5.277,3.599,9.115v0.159
	c0,6.479-3.681,10.318-8.639,12.479c6.801,2.237,11.12,6.077,11.12,13.678v0.155c0,9.603-7.841,15.439-21.197,15.439h-28.876
	v-55.987L329.748,257.962L329.748,257.962z M362.061,275.238c0-3.12-2.477-4.799-7.034-4.799h-10.161v9.838h9.761
	c4.72,0,7.436-1.603,7.436-4.881L362.061,275.238L362.061,275.238z M356.702,291.152h-11.836v10.318h11.997
	c4.798,0,7.439-1.841,7.439-5.119v-0.158C364.304,293.154,361.9,291.152,356.702,291.152z"/>
<path d="M391.781,257.962h28.714c7.039,0,11.997,1.759,15.277,4.961c2.237,2.315,3.599,5.277,3.599,9.115v0.159
	c0,6.479-3.681,10.318-8.639,12.479c6.801,2.237,11.114,6.077,11.114,13.678v0.155c0,9.603-7.836,15.439-21.191,15.439h-28.876
	v-55.987L391.781,257.962L391.781,257.962z M424.094,275.238c0-3.12-2.477-4.799-7.035-4.799h-10.16v9.838h9.761
	c4.714,0,7.436-1.603,7.436-4.881L424.094,275.238L424.094,275.238z M418.734,291.152h-11.837v10.318h11.996
	c4.799,0,7.439-1.841,7.439-5.119v-0.158C426.335,293.154,423.938,291.152,418.734,291.152z"/>
<path d="M463.204,292.994l-21.355-35.032h17.68l11.515,20.394l11.598-20.394H500l-21.283,34.793v21.194h-15.512L463.204,292.994
	L463.204,292.994z"/>
<path d="M199.09,337.876h3.529l23.006,49.757h-4.021l-6.281-13.834h-29.15l-6.282,13.834h-3.81L199.09,337.876z M213.771,370.48
	l-12.985-28.582l-13.06,28.582H213.771z"/>
<path d="M225.34,338.23h4.094l15.526,43.969l14.472-44.114h2.819l14.472,44.114l15.526-43.969h3.81l-17.925,49.756h-2.964
	l-14.472-42.912l-14.469,42.912h-2.965L225.34,338.23z"/>
<path d="M319.979,337.913h3.529l23.006,49.754h-4.02l-6.282-13.83h-29.149l-6.283,13.83h-3.809L319.979,337.913z M334.66,370.518
	l-12.984-28.582l-13.061,28.582H334.66z"/>
<path d="M355.007,338.23h20.752c6.07,0,10.941,1.902,13.905,4.867c2.329,2.329,3.74,5.646,3.74,9.176v0.141
	c0,8.256-6.141,12.988-14.472,14.115l16.304,21.104h-4.659l-15.737-20.467h-16.162v20.467h-3.671V338.23L355.007,338.23z
	 M375.335,363.848c8.257,0,14.396-4.164,14.396-11.291v-0.143c0-6.632-5.221-10.8-14.187-10.8h-16.868v22.233H375.335
	L375.335,363.848z"/>
<path d="M404.32,338.23h16.446c15.525,0,26.256,10.653,26.256,24.561v0.139c0,13.906-10.729,24.705-26.256,24.705H404.32V338.23z
	 M407.992,341.614v42.631h12.774c13.762,0,22.441-9.388,22.441-21.173v-0.143c0-11.714-8.681-21.313-22.441-21.313h-12.774V341.614z
	"/>
<path d="M453.792,380.436l2.4-2.752c5.438,5.012,10.447,7.338,17.717,7.338c7.406,0,12.49-4.162,12.49-9.809v-0.143
	c0-5.223-2.749-8.256-13.971-10.516c-11.854-2.4-16.662-6.424-16.662-13.906v-0.144c0-7.339,6.71-12.981,15.883-12.981
	c7.203,0,11.929,1.975,16.938,5.996l-2.325,2.895c-4.66-4.021-9.318-5.578-14.751-5.578c-7.27,0-12.065,4.167-12.065,9.316v0.144
	c0,5.222,2.685,8.397,14.391,10.798c11.433,2.326,16.239,6.424,16.239,13.621v0.141c0,7.976-6.846,13.48-16.376,13.48
	C465.795,388.337,459.72,385.729,453.792,380.436z"/>
</svg>
