<?xml version="1.0" encoding="utf-8"?>
<!-- Generator: Adobe Illustrator 16.0.4, SVG Export Plug-In . SVG Version: 6.00 Build 0)  -->
<!DOCTYPE svg PUBLIC "-//W3C//DTD SVG 1.1//EN" "http://www.w3.org/Graphics/SVG/1.1/DTD/svg11.dtd">
<svg version="1.1" id="Layer_1" xmlns="http://www.w3.org/2000/svg" xmlns:xlink="http://www.w3.org/1999/xlink" x="0px" y="0px"
	 width="500px" height="500px" viewBox="0 0 500 500" enable-background="new 0 0 500 500" xml:space="preserve">
<g>
	<path d="M187.826,224.679c-1.029-1.25-2.291-2.212-3.787-2.882c-1.498-0.67-3.229-1.005-5.195-1.005
		c-1.967,0-3.787,0.38-5.463,1.14c-1.676,0.76-3.128,1.821-4.357,3.184c-1.229,1.363-2.19,2.982-2.882,4.859
		c-0.693,1.877-1.039,3.911-1.039,6.1c0,2.235,0.346,4.279,1.039,6.133c0.692,1.855,1.642,3.463,2.849,4.826
		c1.207,1.364,2.625,2.424,4.256,3.184c1.631,0.76,3.385,1.14,5.262,1.14c2.145,0,4.044-0.446,5.698-1.341
		c1.653-0.894,3.016-2.145,4.089-3.754l8.714,6.502c-2.011,2.815-4.558,4.894-7.642,6.233c-3.083,1.341-6.257,2.011-9.518,2.011
		c-3.709,0-7.128-0.581-10.255-1.742c-3.128-1.161-5.832-2.826-8.111-4.994c-2.279-2.167-4.055-4.792-5.329-7.875
		s-1.911-6.524-1.911-10.323c0-3.797,0.637-7.239,1.911-10.322c1.273-3.083,3.05-5.708,5.329-7.876
		c2.279-2.167,4.982-3.832,8.111-4.994c3.127-1.162,6.546-1.743,10.255-1.743c1.34,0,2.737,0.124,4.189,0.369
		c1.452,0.247,2.882,0.637,4.29,1.173c1.408,0.536,2.759,1.251,4.056,2.145c1.295,0.894,2.457,1.989,3.485,3.284L187.826,224.679z"
		/>
	<path d="M202.706,212.346h18.366c2.413,0,4.702,0.235,6.87,0.704c2.167,0.469,4.066,1.251,5.698,2.346
		c1.631,1.096,2.926,2.57,3.888,4.424c0.96,1.854,1.441,4.167,1.441,6.938c0,3.352-0.871,6.2-2.614,8.546
		c-1.743,2.346-4.29,3.832-7.642,4.457l12.065,20.042h-12.535l-9.92-18.969h-5.161v18.969h-10.457V212.346z M213.163,231.985h6.167
		c0.938,0,1.933-0.033,2.983-0.101c1.049-0.067,2-0.268,2.849-0.603c0.849-0.335,1.552-0.86,2.112-1.575
		c0.558-0.714,0.838-1.72,0.838-3.016c0-1.207-0.246-2.167-0.737-2.882c-0.493-0.714-1.118-1.262-1.877-1.643
		c-0.76-0.379-1.632-0.637-2.614-0.771c-0.983-0.134-1.944-0.201-2.882-0.201h-6.837V231.985z"/>
	<path d="M246.543,212.346h32.241v9.652h-21.785v8.848h20.578v9.652h-20.578v9.652h22.991v9.652h-33.447V212.346z"/>
	<path d="M303.986,212.346h8.646l20.646,47.457H321.48l-4.089-10.055h-18.433l-3.955,10.055h-11.529L303.986,212.346z
		 M308.008,226.154l-5.765,14.747h11.596L308.008,226.154z"/>
	<path d="M341.12,221.596h-13.54v-9.25h37.537v9.25h-13.54v38.207H341.12V221.596z"/>
	<path d="M370.278,212.346h10.456v47.457h-10.456V212.346z"/>
	<path d="M385.56,212.346h11.932l11.73,31.102h0.134l11.931-31.102h11.194l-19.572,47.457h-8.379L385.56,212.346z"/>
	<path d="M437.843,212.346h32.241v9.652h-21.785v8.848h20.578v9.652h-20.578v9.652h22.991v9.652h-33.447V212.346z"/>
</g>
<g>
	<path d="M180.251,290.973c-0.85-1.073-2-1.865-3.452-2.38c-1.453-0.514-2.827-0.771-4.123-0.771c-0.76,0-1.542,0.09-2.346,0.268
		c-0.805,0.18-1.565,0.459-2.279,0.838c-0.715,0.38-1.296,0.883-1.743,1.508c-0.447,0.627-0.67,1.386-0.67,2.279
		c0,1.431,0.537,2.525,1.609,3.284c1.072,0.761,2.423,1.408,4.055,1.944c1.631,0.536,3.385,1.072,5.262,1.608
		c1.877,0.536,3.63,1.297,5.262,2.279c1.63,0.983,2.982,2.302,4.055,3.955c1.072,1.653,1.608,3.865,1.608,6.636
		c0,2.637-0.492,4.938-1.475,6.904c-0.983,1.967-2.312,3.597-3.988,4.893c-1.675,1.297-3.62,2.257-5.832,2.883
		c-2.212,0.625-4.547,0.938-7.004,0.938c-3.083,0-5.944-0.469-8.58-1.407c-2.637-0.938-5.094-2.457-7.374-4.558l7.44-8.178
		c1.072,1.431,2.423,2.536,4.055,3.317c1.631,0.783,3.318,1.174,5.061,1.174c0.849,0,1.709-0.101,2.581-0.302
		c0.871-0.201,1.652-0.503,2.346-0.905c0.692-0.402,1.25-0.915,1.676-1.542c0.424-0.625,0.637-1.362,0.637-2.212
		c0-1.43-0.547-2.558-1.642-3.385c-1.096-0.826-2.47-1.53-4.122-2.111c-1.654-0.58-3.442-1.161-5.363-1.743
		c-1.922-0.58-3.709-1.362-5.362-2.346c-1.654-0.982-3.028-2.279-4.122-3.888c-1.096-1.608-1.642-3.73-1.642-6.368
		c0-2.547,0.502-4.78,1.508-6.702c1.005-1.921,2.346-3.53,4.022-4.826s3.608-2.268,5.798-2.916c2.189-0.647,4.446-0.972,6.77-0.972
		c2.681,0,5.272,0.38,7.775,1.14c2.502,0.76,4.759,2.033,6.77,3.82L180.251,290.973z"/>
	<path d="M209.274,279.376h8.647l20.645,47.457h-11.797l-4.088-10.055h-18.433l-3.955,10.055h-11.529L209.274,279.376z
		 M213.296,293.185l-5.765,14.746h11.596L213.296,293.185z"/>
	<path d="M241.649,279.376h14.21l20.176,32.979h0.135v-32.979h10.456v47.457h-13.674L252.24,293.05h-0.135v33.783h-10.456V279.376z"
		/>
	<path d="M294.669,279.376h15.685c3.798,0,7.407,0.426,10.825,1.273c3.419,0.85,6.401,2.224,8.949,4.123
		c2.547,1.899,4.568,4.368,6.065,7.406c1.497,3.039,2.246,6.726,2.246,11.06c0,3.844-0.728,7.229-2.179,10.155
		c-1.453,2.928-3.408,5.386-5.865,7.373c-2.458,1.989-5.295,3.497-8.513,4.524c-3.218,1.028-6.592,1.542-10.121,1.542h-17.093
		V279.376z M305.125,317.181h5.43c2.413,0,4.659-0.245,6.736-0.737c2.078-0.491,3.877-1.307,5.396-2.446
		c1.519-1.14,2.715-2.637,3.586-4.491c0.871-1.854,1.307-4.122,1.307-6.804c0-2.322-0.436-4.345-1.307-6.065
		c-0.871-1.72-2.045-3.14-3.52-4.257c-1.475-1.116-3.207-1.954-5.194-2.514c-1.989-0.559-4.078-0.838-6.268-0.838h-6.167V317.181z"
		/>
	<path d="M343.935,279.376h17.695c2.056,0,4.123,0.146,6.2,0.436c2.078,0.291,3.943,0.872,5.598,1.743
		c1.652,0.871,2.993,2.09,4.021,3.653c1.027,1.564,1.542,3.643,1.542,6.233c0,2.682-0.749,4.904-2.246,6.67
		s-3.475,3.027-5.932,3.787v0.134c1.563,0.224,2.982,0.66,4.256,1.307c1.273,0.648,2.368,1.475,3.285,2.48
		c0.915,1.006,1.619,2.179,2.111,3.519c0.491,1.341,0.737,2.771,0.737,4.29c0,2.503-0.536,4.592-1.609,6.268
		c-1.072,1.676-2.458,3.027-4.155,4.056c-1.699,1.028-3.609,1.766-5.731,2.212c-2.123,0.447-4.234,0.67-6.334,0.67h-19.438V279.376z
		 M354.391,298.346h7.575c0.804,0,1.597-0.089,2.379-0.269c0.781-0.178,1.485-0.469,2.111-0.871s1.128-0.938,1.509-1.608
		c0.379-0.671,0.569-1.475,0.569-2.413c0-0.982-0.213-1.799-0.637-2.447c-0.425-0.646-0.972-1.149-1.643-1.508
		c-0.67-0.357-1.431-0.613-2.278-0.771c-0.85-0.156-1.676-0.235-2.48-0.235h-7.105V298.346z M354.391,317.985h9.385
		c0.804,0,1.619-0.089,2.446-0.269c0.826-0.178,1.575-0.491,2.246-0.938c0.67-0.446,1.217-1.027,1.642-1.742
		c0.424-0.715,0.637-1.586,0.637-2.614c0-1.116-0.279-2.021-0.838-2.715c-0.559-0.692-1.263-1.217-2.111-1.575
		c-0.85-0.357-1.766-0.604-2.748-0.737c-0.983-0.134-1.9-0.201-2.748-0.201h-7.91V317.985z"/>
	<path d="M383.146,303.104c0-3.798,0.637-7.239,1.91-10.322c1.273-3.084,3.05-5.708,5.329-7.876c2.278-2.167,4.981-3.831,8.11-4.994
		c3.127-1.161,6.546-1.742,10.255-1.742s7.128,0.581,10.256,1.742c3.128,1.163,5.832,2.827,8.11,4.994
		c2.279,2.168,4.056,4.792,5.329,7.876c1.273,3.083,1.91,6.524,1.91,10.322c0,3.799-0.637,7.239-1.91,10.322
		c-1.273,3.084-3.05,5.709-5.329,7.876c-2.278,2.168-4.982,3.833-8.11,4.994s-6.547,1.742-10.256,1.742s-7.128-0.581-10.255-1.742
		c-3.129-1.161-5.832-2.826-8.11-4.994c-2.279-2.167-4.056-4.792-5.329-7.876C383.783,310.344,383.146,306.903,383.146,303.104z
		 M394.005,303.104c0,2.235,0.346,4.279,1.039,6.133c0.692,1.855,1.687,3.464,2.982,4.826c1.296,1.364,2.849,2.425,4.659,3.185
		c1.81,0.76,3.831,1.14,6.065,1.14s4.257-0.38,6.066-1.14s3.362-1.82,4.659-3.185c1.295-1.362,2.289-2.971,2.982-4.826
		c0.692-1.854,1.039-3.897,1.039-6.133c0-2.188-0.347-4.223-1.039-6.1c-0.693-1.877-1.688-3.496-2.982-4.859
		c-1.297-1.363-2.85-2.424-4.659-3.185c-1.81-0.759-3.832-1.139-6.066-1.139s-4.256,0.38-6.065,1.139
		c-1.811,0.761-3.363,1.821-4.659,3.185s-2.29,2.982-2.982,4.859C394.351,298.882,394.005,300.916,394.005,303.104z"/>
	<path d="M451.649,302.032l-15.685-22.656h13.138l10.121,16.623l9.72-16.623h12.669l-15.351,22.455l17.16,25.002h-13.138
		l-11.597-19.104l-11.261,19.104h-12.4L451.649,302.032z"/>
</g>
<path d="M131.815,334.832H8.184V212.833h123.632V334.832z M34.184,308.832h71.632v-69.999H34.184V308.832z"/>
</svg>
