<?xml version="1.0" encoding="utf-8"?>
<!-- Generator: Adobe Illustrator 16.0.4, SVG Export Plug-In . SVG Version: 6.00 Build 0)  -->
<!DOCTYPE svg PUBLIC "-//W3C//DTD SVG 1.1//EN" "http://www.w3.org/Graphics/SVG/1.1/DTD/svg11.dtd">
<svg version="1.1" id="Layer_1" xmlns="http://www.w3.org/2000/svg" xmlns:xlink="http://www.w3.org/1999/xlink" x="0px" y="0px"
	 width="500px" height="500px" viewBox="0 0 500 500" enable-background="new 0 0 500 500" xml:space="preserve">
<path d="M241.703,194.592c-0.212,0.257,20.459,49.318,20.459,49.788c14.553,0,29.07,0,43.648,0
	c0.062,0.126-66.54-151.787-66.834-152.088c0.658-0.511-43.906,102.428-44.329,102.3
	C210.353,194.592,225.974,194.592,241.703,194.592z"/>
<path d="M199.42-1C199.399-1,97.461-1,97.122-1c0.104-0.172,0.339,244.698,0.34,245.04C97.803,244.359,199.718-1.064,199.42-1z"/>
<path d="M383.073-1H277.295c0,0,105.771,245.958,105.707,245.166C383.002,244.506,383.073-0.383,383.073-1z"/>
<path d="M144.833,380.014h16.56l-22.729-97.257h-15.907l-22.729,97.257h16.558l3.79-18.201h20.561L144.833,380.014z
	 M123.511,345.282l7.144-36.403l7.144,36.403H123.511L123.511,345.282z"/>
<path d="M211.722,282.757h-14.611v31.542c-4.114-5.42-6.817-7.505-12.554-7.505c-16.451,0-20.996,19.592-20.996,37.651
	c0,21.119,6.171,38.205,20.781,38.205c6.17,0,11.038-4.439,13.311-11.112h0.541l0.433,8.476h13.095V282.757z M188.239,368.621
	c-8.335,0-9.524-14.729-9.524-23.896c0-19.729,5.518-23.621,9.524-23.621c3.895,0,9.521,3.892,9.521,23.621
	C197.76,355.424,196.246,368.621,188.239,368.621z"/>
<path d="M246.797,306.794c-17.207,0-24.784,15.979-24.784,37.792c0,22.091,7.685,38.064,24.784,38.064
	c16.99,0,24.784-15.975,24.784-38.064C271.581,322.773,263.896,306.794,246.797,306.794z M246.797,368.482
	c-4.437,0-9.63-3.194-9.63-23.896c0-20.286,5.193-23.623,9.63-23.623c5.627,0,9.631,4.446,9.631,23.623
	C256.428,362.648,253.074,368.48,246.797,368.482z"/>
<path d="M308.798,306.794c-3.677,0-9.414,1.392-12.442,8.337v-32.374h-14.722v97.257h13.099l0.433-8.476h0.433
	c3.137,7.92,6.926,11.112,13.312,11.112c15.476,0,20.997-16.948,20.997-38.205C329.905,323.051,324.277,306.794,308.798,306.794z
	 M305.23,368.48c-8.334,0-9.523-14.728-9.523-23.896c0-19.729,5.518-23.623,9.523-23.623c3.893,0,9.521,3.895,9.521,23.623
	C314.753,355.285,313.238,368.48,305.23,368.48z"/>
<path d="M385.328,359.591H370.61c-1.411,7.915-4.872,8.892-8.227,8.892c-4.115,0-9.852-1.942-9.852-18.617h33.769v-3.891
	c0-33.763-13.746-39.18-23.482-39.18c-15.479,0-25.438,13.613-25.438,37.792c0,34.729,15.37,38.063,24.354,38.063
	C369.743,382.65,381.648,380.986,385.328,359.591z M362.385,320.963c4.869,0,8.33,2.779,8.766,17.09h-18.616
	C352.642,332.775,354.05,320.963,362.385,320.963z"/>
<polygon points="385.328,359.59 385.328,359.591 385.328,359.591 "/>
<polygon points="434.042,22.584 425.581,-1 417.033,-1 417.033,28.972 423.506,28.972 423.506,5.833 431.623,28.972 436.198,28.972 
	444.404,5.833 444.404,28.973 450.877,28.973 450.877,-1 442.416,-1 "/>
<polygon points="399.762,28.973 406.241,28.973 406.241,4.711 415.476,4.711 415.476,-1 390.523,-1 390.523,4.711 399.762,4.711 "/>
<path d="M22.147,479.634c-1.718,1.581-3.667,2.369-5.854,2.369c-1.459,0-2.813-0.491-4.062-1.471c-1.249-0.98-2.229-2.5-2.941-4.566
	c-0.712-2.063-1.067-4.466-1.067-7.211c0-4.337,0.773-7.85,2.316-10.538s3.705-4.036,6.48-4.036c1.857,0,3.447,0.553,4.778,1.654
	c1.326,1.101,2.251,2.73,2.771,4.88l7.288-2.084c-0.591-2.116-1.381-3.816-2.371-5.101c-1.418-1.839-3.22-3.264-5.399-4.27
	c-2.178-1.007-4.402-1.509-6.676-1.509c-3.088,0-6.027,0.83-8.823,2.484c-2.792,1.658-4.922,4.144-6.387,7.458
	c-1.467,3.312-2.2,7.129-2.2,11.452c0,4.145,0.719,7.746,2.159,10.799c1.442,3.055,3.55,5.349,6.326,6.883
	c2.775,1.535,5.692,2.304,8.747,2.304c2.861,0,5.382-0.604,7.56-1.82c2.175-1.213,3.95-2.891,5.321-5.022
	c0.849-1.318,1.551-3.096,2.108-5.336l-7.208-2.052C24.315,476.964,23.36,478.54,22.147,479.634z"/>
<path d="M54.136,479.06c-1.319,1.404-2.439,2.362-3.358,2.864c-0.92,0.504-1.821,0.753-2.707,0.753c-0.85,0-1.553-0.289-2.107-0.869
	c-0.556-0.579-0.833-1.365-0.833-2.354v-19.469h-7.264v20.897c0,1.771,0.334,3.263,1.004,4.479c0.668,1.215,1.518,2.093,2.55,2.642
	c1.033,0.546,2.129,0.822,3.294,0.822c1.266,0,2.745-0.379,4.438-1.134c1.689-0.756,3.351-1.956,4.983-3.606v4.27h7.209v-28.368
	h-7.209V479.06z"/>
<path d="M78.494,450.821h-7.182v9.161h-4.346v5.153h4.346v15.148c0,1.751,0.393,3.323,1.184,4.708
	c0.788,1.391,1.838,2.376,3.15,2.968c1.309,0.59,3.083,0.884,5.322,0.884c0.088,0,0.927-0.017,2.525-0.051v-5.854
	c-2.136-0.053-3.502-0.306-4.1-0.756c-0.599-0.45-0.899-1.086-0.899-1.896v-15.148h4.999v-5.153h-4.999V450.821z"/>
<path d="M97.964,450.821h-7.182v9.161h-4.35v5.153h4.35v15.148c0,1.751,0.393,3.323,1.184,4.708
	c0.787,1.391,1.838,2.376,3.147,2.968c1.311,0.59,3.085,0.884,5.322,0.884c0.088,0,0.929-0.017,2.525-0.051v-5.854
	c-2.135-0.053-3.501-0.306-4.096-0.756c-0.601-0.45-0.9-1.086-0.9-1.896v-15.148h4.997v-5.153h-4.997V450.821z"/>
<rect x="109.807" y="459.983" width="7.13" height="28.368"/>
<rect x="109.807" y="447.936" width="7.13" height="7.157"/>
<path d="M143.38,459.49c-1.912,0-3.654,0.375-5.234,1.119c-1.578,0.747-3.112,1.83-4.605,3.253h-0.001v-3.878h-7.182v28.369h7.182
	v-19.389c1.544-1.426,2.811-2.382,3.802-2.876c0.987-0.495,1.926-0.744,2.81-0.744c0.832,0,1.475,0.249,1.925,0.744
	c0.451,0.494,0.677,1.321,0.677,2.484v19.778h7.131v-21.603c0-2.41-0.626-4.312-1.875-5.699
	C147.076,460.011,145.532,459.49,143.38,459.49z"/>
<path d="M180.169,459.283c-1.188,0.396-2.432,1.083-3.734,2.054c-1.008-0.623-2.179-1.089-3.514-1.393
	c-1.335-0.309-2.844-0.458-4.528-0.458c-4.39,0-7.51,0.951-9.357,2.849c-1.849,1.904-2.771,4.232-2.771,6.988
	c0,1.721,0.371,3.259,1.119,4.62c0.745,1.361,1.855,2.547,3.331,3.553c-1.283,0.469-2.244,1.109-2.875,1.929
	c-0.633,0.814-0.951,1.714-0.951,2.706c0,1.004,0.278,1.873,0.834,2.604c0.554,0.729,1.422,1.388,2.604,1.978
	c-1.841,0.485-3.163,1.211-3.972,2.173c-0.805,0.962-1.21,2.131-1.21,3.501c0,1.439,0.444,2.711,1.328,3.812
	c0.886,1.102,2.169,1.914,3.854,2.435c2.498,0.766,5.35,1.146,8.562,1.146c5.257,0,8.946-0.838,11.073-2.515
	c2.124-1.674,3.188-3.818,3.188-6.439c0-2.116-0.728-3.834-2.188-5.154c-1.475-1.316-3.783-2.029-6.922-2.133l-7.364-0.261
	c-1.459-0.053-2.44-0.276-2.942-0.678c-0.522-0.38-0.781-0.866-0.781-1.459c0-0.431,0.156-0.842,0.47-1.231
	c0.311-0.395,0.778-0.751,1.403-1.082c1.421,0.173,2.722,0.263,3.904,0.263c3.766,0,6.666-0.925,8.705-2.771
	c2.04-1.85,3.059-4.193,3.059-7.039c0-1.911-0.45-3.595-1.353-5.053c1.007-0.536,2.074-0.806,3.2-0.806h1.354v-4.738h-0.675
	C182.308,458.682,181.358,458.883,180.169,459.283z M163.993,487.989c2.188,0.347,4.598,0.577,7.236,0.688
	c2.637,0.113,4.312,0.412,5.022,0.896c0.713,0.503,1.07,1.163,1.07,1.978c0,0.87-0.428,1.579-1.276,2.139
	c-1.251,0.831-3.394,1.249-6.43,1.249c-3.244,0-5.535-0.445-6.871-1.327c-0.92-0.608-1.38-1.381-1.38-2.319
	c0-0.693,0.223-1.317,0.665-1.871C162.471,488.866,163.127,488.386,163.993,487.989z M172.231,472.997
	c-1.051,1.042-2.331,1.562-3.84,1.562c-1.492,0-2.764-0.521-3.811-1.562c-1.052-1.04-1.576-2.281-1.576-3.72
	c0-1.459,0.524-2.701,1.576-3.736c1.048-1.03,2.354-1.545,3.917-1.545c1.438,0,2.684,0.517,3.734,1.559
	c1.049,1.039,1.574,2.28,1.574,3.724C173.805,470.717,173.28,471.957,172.231,472.997z"/>
<polygon points="206.474,488.575 233.176,488.575 233.176,481.703 214.308,481.703 214.308,470.356 225.811,470.356 
	225.811,464.448 214.308,464.448 214.308,455.677 233.176,455.677 233.176,448.757 206.474,448.757 "/>
<path d="M256.729,463.487c-1.127-1.269-2.336-2.213-3.617-2.836c-1.283-0.626-2.654-0.938-4.112-0.938c-1.49,0-2.857,0.335-4.098,1
	c-1.239,0.67-2.334,1.578-3.279,2.721c-0.946,1.147-1.751,2.68-2.421,4.597c-0.667,1.918-1.002,4.062-1.002,6.438
	c0,4.6,1.181,8.304,3.541,11.115c1.962,2.306,4.354,3.461,7.182,3.461c1.424,0,2.786-0.312,4.086-0.938
	c1.305-0.625,2.543-1.562,3.723-2.812v3.278h7.185v-40.42h-7.185v15.333H256.729z M256.729,480.431
	c-0.795,0.901-1.606,1.578-2.432,2.029c-0.824,0.45-1.672,0.677-2.539,0.677c-1.525,0-2.842-0.687-3.942-2.055
	c-1.102-1.371-1.653-3.523-1.653-6.455c0-3.245,0.531-5.535,1.587-6.87c1.058-1.336,2.369-2.006,3.932-2.006
	c0.832,0,1.668,0.231,2.512,0.69c0.844,0.46,1.686,1.147,2.535,2.067V480.431z"/>
<path d="M294.87,459.504c-1.187,0.401-2.431,1.085-3.731,2.056c-1.008-0.624-2.181-1.088-3.516-1.394
	c-1.338-0.305-2.846-0.457-4.529-0.457c-4.389,0-7.509,0.949-9.354,2.849c-1.849,1.902-2.772,4.23-2.772,6.987
	c0,1.719,0.374,3.26,1.119,4.622c0.744,1.362,1.854,2.545,3.332,3.554c-1.283,0.466-2.244,1.108-2.876,1.925
	c-0.634,0.817-0.949,1.718-0.949,2.706c0,1.007,0.277,1.874,0.832,2.604c0.556,0.729,1.425,1.387,2.603,1.977
	c-1.838,0.486-3.16,1.211-3.967,2.176c-0.81,0.961-1.211,2.129-1.211,3.501c0,1.438,0.44,2.71,1.324,3.812
	c0.889,1.103,2.171,1.914,3.854,2.434c2.5,0.767,5.352,1.146,8.562,1.146c5.26,0,8.949-0.835,11.076-2.511
	c2.124-1.676,3.188-3.822,3.188-6.441c0-2.116-0.729-3.834-2.188-5.154c-1.477-1.315-3.783-2.027-6.922-2.132l-7.364-0.261
	c-1.46-0.051-2.438-0.277-2.942-0.676c-0.521-0.382-0.781-0.867-0.781-1.46c0-0.433,0.158-0.845,0.471-1.233
	c0.311-0.394,0.779-0.751,1.406-1.082c1.42,0.174,2.723,0.261,3.902,0.261c3.765,0,6.668-0.922,8.705-2.771
	c2.037-1.847,3.06-4.194,3.06-7.041c0-1.908-0.452-3.59-1.353-5.05c1.004-0.537,2.07-0.809,3.198-0.809h1.353v-4.734h-0.674
	C297.01,458.905,296.061,459.106,294.87,459.504z M278.695,488.21c2.188,0.347,4.599,0.579,7.238,0.691
	c2.635,0.111,4.31,0.409,5.021,0.896c0.712,0.502,1.067,1.164,1.067,1.979c0,0.866-0.426,1.576-1.275,2.135
	c-1.249,0.833-3.393,1.249-6.428,1.249c-3.245,0-5.535-0.442-6.871-1.327c-0.92-0.606-1.381-1.381-1.381-2.317
	c0-0.691,0.222-1.316,0.666-1.872C277.173,489.088,277.829,488.609,278.695,488.21z M286.934,473.22
	c-1.05,1.041-2.33,1.562-3.84,1.562c-1.492,0-2.763-0.521-3.812-1.562c-1.052-1.041-1.575-2.28-1.575-3.722
	c0-1.456,0.523-2.701,1.575-3.734c1.049-1.029,2.354-1.548,3.918-1.548c1.438,0,2.684,0.521,3.733,1.562
	c1.051,1.042,1.574,2.28,1.574,3.721C288.509,470.939,287.984,472.179,286.934,473.22z"/>
<path d="M314.223,459.713c-3.853,0-7.013,1.296-9.488,3.894c-2.471,2.593-3.705,6.073-3.705,10.447c0,2.88,0.57,5.486,1.718,7.82
	s2.797,4.112,4.958,5.335c2.16,1.225,4.437,1.836,6.832,1.836c1.229,0,2.411-0.158,3.539-0.47c1.129-0.312,2.22-0.798,3.28-1.455
	c1.057-0.662,2.019-1.503,2.887-2.527c0.555-0.659,1.165-1.604,1.822-2.834l-5.855-2.474c-0.66,1.301-1.441,2.286-2.343,2.957
	c-0.903,0.665-1.995,0.999-3.279,0.999c-1.682,0-3.08-0.625-4.188-1.875c-1.111-1.249-1.711-3.158-1.796-5.726h18.01
	c0.051-1.076,0.077-1.89,0.077-2.443c0-4.254-1.137-7.563-3.41-9.933C321.007,460.896,317.99,459.713,314.223,459.713z
	 M308.576,471.348c0.139-2.224,0.743-3.899,1.809-5.037c1.066-1.137,2.372-1.703,3.917-1.703c1.611,0,2.978,0.582,4.086,1.742
	c1.11,1.162,1.718,2.828,1.822,4.998H308.576z"/>
<path d="M359.485,448.757l-12.9,39.818h7.706l3.015-9.342h12.729l3.021,9.342h7.703l-12.964-39.818H359.485z M359.094,473.429
	l4.564-13.898l4.498,13.898H359.094z"/>
<polygon points="408.946,476.317 404.105,460.207 398.77,460.207 393.981,476.136 389.137,460.207 382.739,460.207 391.224,488.575 
	396.245,488.575 401.45,471.474 406.631,488.575 411.654,488.575 420.139,460.207 413.735,460.207 "/>
<path d="M446.049,482.746v-13.22c0-2.189-0.477-4.007-1.42-5.453c-0.946-1.449-2.059-2.485-3.345-3.111
	c-1.771-0.831-3.819-1.248-6.145-1.248c-2.236,0-4.339,0.438-6.296,1.314c-1.964,0.874-3.646,2.146-5.052,3.812l4.27,3.593
	c1.875-2.514,4.191-3.772,6.95-3.772c1.146,0,2.108,0.234,2.892,0.705c0.779,0.467,1.325,1.119,1.64,1.95
	c0.208,0.536,0.312,1.405,0.312,2.604c-2.847,0.312-5.111,0.696-6.793,1.145c-2.239,0.608-4.098,1.408-5.569,2.407
	c-1.471,0.998-2.593,2.166-3.358,3.499c-0.764,1.339-1.144,2.752-1.144,4.243c0,2.134,0.827,3.979,2.481,5.53
	c1.657,1.555,3.773,2.328,6.342,2.328c1.473,0,2.897-0.285,4.278-0.858c1.379-0.571,2.711-1.42,3.996-2.548
	c0.154,0.987,0.38,1.959,0.675,2.913h6.272c-0.243-0.696-0.468-1.631-0.676-2.812C446.153,484.588,446.049,483.579,446.049,482.746z
	 M439.853,481.081c-1.318,1.038-2.537,1.825-3.656,2.354c-1.117,0.529-2.13,0.794-3.031,0.794c-1.057,0-1.929-0.338-2.615-1.015
	c-0.687-0.676-1.028-1.534-1.028-2.578c0-1.283,0.6-2.436,1.799-3.461c1.544-1.351,4.389-2.42,8.533-3.198L439.853,481.081
	L439.853,481.081z"/>
<path d="M461.949,466.997v-6.789h-7.235v28.368h7.235v-15.305c0.813-2.013,2.006-3.561,3.565-4.646
	c1.562-1.087,3.229-1.628,4.999-1.628h0.646v-7.286c-1.682,0.086-3.233,0.646-4.659,1.678
	C465.079,462.425,463.562,464.29,461.949,466.997z"/>
<path d="M492.816,448.155L492.816,448.155l-0.001,15.332c-1.125-1.269-2.334-2.213-3.618-2.836
	c-1.282-0.626-2.652-0.938-4.111-0.938c-1.495,0-2.859,0.335-4.099,1c-1.241,0.67-2.333,1.578-3.279,2.721
	c-0.948,1.147-1.753,2.68-2.422,4.597c-0.668,1.918-1.002,4.062-1.002,6.438c0,4.6,1.18,8.304,3.54,11.115
	c1.96,2.306,4.354,3.461,7.182,3.461c1.427,0,2.788-0.312,4.086-0.938c1.307-0.625,2.545-1.562,3.726-2.812v3.278H500v-40.42
	L492.816,448.155L492.816,448.155z M492.816,480.431c-0.799,0.901-1.607,1.578-2.435,2.029c-0.825,0.45-1.672,0.677-2.539,0.677
	c-1.524,0-2.84-0.687-3.941-2.055c-1.104-1.371-1.651-3.523-1.651-6.455c0-3.245,0.526-5.535,1.587-6.87
	c1.058-1.336,2.369-2.006,3.929-2.006c0.833,0,1.669,0.231,2.514,0.69c0.841,0.46,1.687,1.147,2.538,2.067L492.816,480.431
	L492.816,480.431z"/>
</svg>
