<?xml version="1.0" encoding="utf-8"?>
<!-- Generator: Adobe Illustrator 16.0.4, SVG Export Plug-In . SVG Version: 6.00 Build 0)  -->
<!DOCTYPE svg PUBLIC "-//W3C//DTD SVG 1.1//EN" "http://www.w3.org/Graphics/SVG/1.1/DTD/svg11.dtd">
<svg version="1.1" id="Layer_1" xmlns="http://www.w3.org/2000/svg" xmlns:xlink="http://www.w3.org/1999/xlink" x="0px" y="0px"
	 width="500px" height="500px" viewBox="0 0 500 500" enable-background="new 0 0 500 500" xml:space="preserve">
<path d="M488.291,238.78h-32.847v-33.821l0,0c0-4.554-2.604-8.456-6.182-10.405c-1.626-0.977-3.577-1.464-5.688-1.464H333.494
	c-2.928,0-5.528,0.976-7.646,2.764c-1.46,0.976-2.925,2.438-3.896,4.065l-37.238,69.269l-33.169-67.152
	c-1.463-2.928-2.438-4.064-4.717-5.69c-0.323-0.326-0.812-0.651-1.299-0.977c-0.162,0-0.162-0.162-0.326-0.162
	c-0.487-0.325-0.812-0.488-1.3-0.813c0,0-0.163,0-0.163-0.162c-0.488-0.162-0.813-0.324-1.301-0.486c-0.162,0-0.162,0-0.325-0.163
	c-0.488-0.163-0.976-0.325-1.464-0.325c-0.161,0-0.161,0-0.325,0c-0.487,0-0.976-0.162-1.464-0.162c0,0,0,0-0.161,0l0,0
	c-0.488,0-0.977,0-1.464,0.162c-0.162,0-0.325,0-0.488,0c-0.325,0-0.813,0.162-1.138,0.325c-0.163,0-0.325,0-0.488,0.163
	c-0.488,0.162-0.977,0.324-1.464,0.648c-3.578,1.789-4.227,4.392-6.504,8.617l0,0l-35.285,65.854l-35.122-68.94
	c-1.301-2.603-3.415-4.553-5.853-5.69c-1.626-0.812-3.415-1.302-5.366-1.302h-88.94c-2.115,0-4.065,0.488-5.691,1.464
	c-3.74,1.952-6.179,6.017-6.179,10.406l0,0v33.821H11.87c-6.666,0-11.87,5.365-11.87,11.87c0,6.665,5.366,11.867,11.87,11.867
	h32.846v32.847c0,6.506,5.365,11.869,11.87,11.869c6.504,0,11.87-5.363,11.87-11.869v-32.847h56.584
	c6.504,0,11.87-5.363,11.87-11.867c0-6.505-5.366-11.87-11.87-11.87H68.456V216.67h70.08l41.951,82.277
	c0.326,0.812,0.651,1.462,1.139,2.111c0.161,0.486,0.487,0.812,0.812,1.139c0,0.162,0.164,0.162,0.325,0.326
	c0.164,0.326,0.488,0.647,0.813,0.812l0.164,0.163c0.325,0.322,0.651,0.648,0.976,0.812c0.162,0,0.162,0.166,0.325,0.166
	c0.325,0.156,0.651,0.322,0.976,0.646c0.162,0,0.162,0.162,0.325,0.162c0.326,0.158,0.813,0.484,1.139,0.646h0.162
	c0.325,0.164,0.813,0.324,1.139,0.324c0.162,0,0.325,0,0.325,0.166c0.325,0.159,0.649,0.159,1.138,0.159c0.163,0,0.163,0,0.326,0
	c0.487,0,0.975,0.165,1.301,0.165h0.161c0.164,0,0.164,0,0.326,0c0.325,0,0.487,0,0.813,0c0.162,0,0.325,0,0.487,0
	c0.326,0,0.488,0,0.814-0.165c0.162,0,0.325,0,0.488-0.159c0.325,0,0.486-0.166,0.813-0.166c0.162,0,0.325,0,0.325-0.16
	c0.325-0.164,0.813-0.326,1.138-0.486c3.577-1.629,5.691-4.881,7.317-8.293l34.796-65.854l34.309,67.479
	c0.325,0.812,0.649,1.467,1.14,2.111c0.322,0.488,0.488,0.812,0.812,1.139c0,0.162,0.162,0.162,0.162,0.326
	c0.328,0.326,0.484,0.649,0.812,0.812l0.16,0.163c0.327,0.323,0.649,0.649,0.979,0.978c0.162,0,0.162,0.158,0.322,0.158
	c0.327,0.166,0.649,0.49,0.979,0.652c0.164,0,0.164,0.16,0.326,0.16c0.324,0.166,0.812,0.488,1.301,0.649h0.162
	c0.324,0.161,0.812,0.327,1.14,0.327c0.163,0,0.321,0,0.321,0.159c0.328,0.165,0.654,0.165,1.141,0.165c0.163,0,0.163,0,0.327,0
	c0.485,0,0.812,0.162,1.299,0.162h0.163c0.162,0,0.162,0,0.322,0c0.326,0,0.488,0,0.814,0c0.162,0,0.323,0,0.486,0
	c0.324,0,0.486,0,0.812-0.162c0.162,0,0.324,0,0.486-0.165c0.325,0,0.486-0.159,0.812-0.159c0.16,0,0.326,0,0.326-0.166
	c0.32-0.161,0.812-0.322,1.137-0.484c3.576-1.625,5.853-4.877,6.506-8.453l43.575-80.651h91.708v21.951h-80.002
	c-6.342,0-11.543,5.041-11.87,11.382l0,0v44.716c0,6.667,5.365,11.868,11.87,11.868l0,0c2.438,0,70.565,0,87.479,0
	c1.139,0.327,2.438,0,3.74,0c6.502,0,11.868-5.361,11.868-11.868V262.52h32.847c6.502,0,11.868-5.367,11.868-11.871
	C500.159,243.982,494.793,238.78,488.291,238.78z M363.575,262.52h67.966v20.16h-67.966V262.52z"/>
</svg>
