<?xml version="1.0" encoding="utf-8"?>
<!-- Generator: Adobe Illustrator 16.0.4, SVG Export Plug-In . SVG Version: 6.00 Build 0)  -->
<!DOCTYPE svg PUBLIC "-//W3C//DTD SVG 1.1//EN" "http://www.w3.org/Graphics/SVG/1.1/DTD/svg11.dtd">
<svg version="1.1" id="Layer_1" xmlns="http://www.w3.org/2000/svg" xmlns:xlink="http://www.w3.org/1999/xlink" x="0px" y="0px"
	 width="500px" height="500px" viewBox="0 0 500 500" enable-background="new 0 0 500 500" xml:space="preserve">
<path fill="#010101" d="M394.104,170.892h-5.956c-2.575,0-4.668,2.069-4.668,4.622v6.265c0,2.552,2.093,4.622,4.668,4.622h5.956
	c2.575,0,4.668-2.069,4.668-4.622v-6.265C398.772,172.961,396.68,170.892,394.104,170.892z"/>
<path fill="#010101" d="M394.104,149.948h-5.956c-2.575,0-4.668,2.069-4.668,4.622v6.265c0,2.552,2.093,4.622,4.668,4.622h5.956
	c2.575,0,4.668-2.069,4.668-4.622v-6.265C398.772,152.017,396.68,149.948,394.104,149.948z"/>
<path fill="#010101" d="M394.104,130.292h-5.956c-2.575,0-4.668,2.069-4.668,4.622v6.265c0,2.552,2.093,4.622,4.668,4.622h5.956
	c2.575,0,4.668-2.069,4.668-4.622v-6.265C398.772,132.362,396.68,130.292,394.104,130.292z"/>
<path fill="#010101" d="M414.438,170.892h-5.956c-2.575,0-4.668,2.069-4.668,4.622v6.265c0,2.552,2.093,4.622,4.668,4.622h5.956
	c2.576,0,4.669-2.069,4.669-4.622v-6.265C419.106,172.961,417.014,170.892,414.438,170.892z"/>
<path fill="#010101" d="M373.636,170.892h-5.956c-2.576,0-4.669,2.069-4.669,4.622v6.265c0,2.552,2.093,4.622,4.669,4.622h5.956
	c2.575,0,4.668-2.069,4.668-4.622v-6.265C378.304,172.961,376.211,170.892,373.636,170.892z"/>
<path fill="#010101" d="M373.636,149.948h-5.956c-2.576,0-4.669,2.069-4.669,4.622v6.265c0,2.552,2.093,4.622,4.669,4.622h5.956
	c2.575,0,4.668-2.069,4.668-4.622v-6.265C378.304,152.017,376.211,149.948,373.636,149.948z"/>
<path fill="#010101" d="M373.636,130.292h-5.956c-2.576,0-4.669,2.069-4.669,4.622v6.265c0,2.552,2.093,4.622,4.669,4.622h5.956
	c2.575,0,4.668-2.069,4.668-4.622v-6.265C378.304,132.362,376.211,130.292,373.636,130.292z"/>
<path fill="#010101" d="M414.175,67.911h-45.928c-3.847,0-6.981,3.131-6.981,6.981v41.652c0,3.853,3.135,6.983,6.981,6.983h45.928
	c3.855,0,6.99-3.13,6.99-6.983V74.892C421.165,71.042,418.03,67.911,414.175,67.911z M414.845,116.544
	c0,0.366-0.297,0.667-0.67,0.667h-45.928c-0.364,0-0.67-0.301-0.67-0.667V74.892c0-0.364,0.306-0.665,0.67-0.665h45.928
	c0.373,0,0.67,0.301,0.67,0.665V116.544z"/>
<path fill="#010101" d="M462.044-0.408c-34.703,0-204.648,0.85-204.648,0.85l-3.312-0.377c-10.352,35.229-3.984,87.968,3.982,87.968
	c7.972,0,16.267-4.98,34.524-4.98c13.275,0,17.258,28.217,17.258,42.491c0,14.274-9.616,39.833-20.249,39.833
	c-10.37,0-22.112-6.733-29.212-6.638c-4.262,0.06-6.634,6.969-6.634,6.971c-13.613,26.557-0.67,79.336-0.67,79.336
	s10.294-5.645,46.141-5.645c35.854,0,51.791,7.303,51.791,19.256c0,11.945-7.643,15.932-7.643,28.877s31.203,12.285,31.203,12.285
	s28.552,1.656,37.516-8.303c6.753-7.502-6.643-19.25-6.643-31.865c0-12.617,18.258-20.583,50.792-20.583
	c32.533,0,43.726,6.178,43.726,6.178c0.008-0.008,0.025-0.017,0.033-0.025V32.126C499.999,32.126,496.746-0.408,462.044-0.408z
	 M433.577,185.813c0,7.333-6.168,13.276-13.768,13.276h-57.934c-7.608,0-13.768-5.943-13.768-13.276V67.426
	c0-7.333,6.159-13.276,13.768-13.276h57.934c7.6,0,13.768,5.943,13.768,13.276V185.813z"/>
<path fill="#010101" d="M414.438,130.292h-5.956c-2.575,0-4.668,2.069-4.668,4.622v6.265c0,2.552,2.093,4.622,4.668,4.622h5.956
	c2.576,0,4.669-2.069,4.669-4.622v-6.265C419.106,132.362,417.014,130.292,414.438,130.292z"/>
<path fill="#010101" d="M414.438,149.948h-5.956c-2.575,0-4.668,2.069-4.668,4.622v6.265c0,2.552,2.093,4.622,4.668,4.622h5.956
	c2.576,0,4.669-2.069,4.669-4.622v-6.265C419.106,152.017,417.014,149.948,414.438,149.948z"/>
<polygon fill="#010101" points="104.719,404.357 96.518,404.357 96.518,409.51 104.719,409.305 "/>
<polygon fill="#010101" points="104.719,400.631 104.719,395.682 96.518,395.682 96.653,400.631 "/>
<polygon fill="#010101" points="93.332,395.615 87.097,395.615 87.097,400.697 93.332,400.834 "/>
<polygon fill="#010101" points="82.826,404.086 76.794,404.086 75.438,409.305 82.42,409.305 "/>
<polygon fill="#010101" points="93.264,404.086 87.367,403.951 86.08,409.441 93.196,409.441 "/>
<polygon fill="#010101" points="107.227,409.51 115.428,409.305 115.428,404.357 107.227,404.357 "/>
<polygon fill="#010101" points="83.165,394.869 77.946,394.801 76.658,400.766 82.894,400.9 "/>
<polygon fill="#010101" points="128.94,404.086 129.348,409.305 136.329,409.305 134.973,404.086 "/>
<polygon fill="#010101" points="135.108,400.766 133.821,394.801 128.602,394.869 128.873,400.9 "/>
<polygon fill="#010101" points="63.441,400.562 64.166,395.656 56.935,395.385 57.206,400.631 "/>
<path fill="#010101" d="M153.906,378.254l-0.025-53.705l-93.419,0.059l-0.058,53.732l93.42-0.061
	C153.881,378.279,153.902,378.264,153.906,378.254z"/>
<polygon fill="#010101" points="118.503,404.086 118.57,409.441 125.688,409.441 124.399,403.951 "/>
<polygon fill="#010101" points="115.25,395.682 107.049,395.682 107.049,400.631 115.114,400.631 "/>
<polygon fill="#010101" points="124.671,395.615 118.436,395.615 118.436,400.834 124.671,400.697 "/>
<polygon fill="#010101" points="154.561,400.631 154.832,395.385 147.601,395.656 148.325,400.562 "/>
<polygon fill="#010101" points="156.097,404.332 156.006,403.973 149.681,404.15 149.681,409.123 157.181,409.031 "/>
<polygon fill="#010101" points="143.378,394.732 138.294,394.732 138.294,400.9 145.479,400.766 "/>
<polygon fill="#010101" points="145.343,403.951 139.311,403.951 139.311,409.238 146.563,409.035 "/>
<polygon fill="#010101" points="52.779,418.158 60.008,418.342 61.002,412.465 53.953,412.465 "/>
<path fill="#010101" d="M242.376,414.729c-7.968,0-16.16,2.219-34.418,2.219c-13.28,0-15.737-28.068-15.737-42.344
	s8.095-39.977,18.724-39.977c10.37,0,24.061,8.484,31.161,8.391c4.261-0.059,6.507-8.67,6.507-8.674
	c13.612-26.553-1.152-79.387-1.152-79.387s-10.29,5.643-46.141,5.643s-51.786-7.303-51.786-19.252
	c0-11.946,7.638-15.933,7.638-28.878c0-12.946-31.204-12.285-31.204-12.285s-28.547-1.656-37.511,8.303
	c-6.752,7.502,6.643,19.249,6.643,31.864s-18.258,20.584-50.792,20.584c-32.533,0-43.725-6.182-43.725-6.182
	c-0.013,0.01-0.025,0.018-0.038,0.025v213.096c0,0,3.253,32.533,37.955,32.533c34.703,0,204.648-0.848,204.648-0.848l3.316,0.377
	C256.812,464.705,250.345,414.729,242.376,414.729z M52.017,324.549c0-4.592,3.789-8.328,8.445-8.328h93.362
	c4.655,0,8.444,3.736,8.444,8.328v53.791c0,4.592-3.789,8.328-8.444,8.328H60.462c-4.656,0-8.445-3.736-8.445-8.328V324.549z
	 M36.025,449.629c0,0-0.565-0.562-0.565-3.961c0-3.396,14.902-54.137,14.902-54.137h112.239c0,0,15.468,56.59,15.091,58.098H36.025z
	"/>
<polygon fill="#010101" points="150.924,412.465 151.918,418.342 159.146,418.158 157.974,412.465 "/>
<polygon fill="#010101" points="140.711,412.377 140.711,418.52 148.756,418.248 147.76,412.465 "/>
<polygon fill="#010101" points="63.171,418.248 71.215,418.52 71.215,412.377 64.166,412.465 "/>
<polygon fill="#010101" points="55.671,404.332 54.586,409.031 62.086,409.123 62.086,404.15 55.762,403.973 "/>
<polygon fill="#010101" points="65.204,409.035 72.456,409.238 72.456,403.951 66.424,403.951 "/>
<polygon fill="#010101" points="91.485,439.256 120.329,439.344 120.329,424.934 92.239,424.844 "/>
<polygon fill="#010101" points="75.011,412.555 74.648,418.791 137.185,418.791 136.913,412.555 "/>
<polygon fill="#010101" points="66.288,400.766 73.473,400.9 73.473,394.732 68.39,394.732 "/>
<rect x="325.987" y="371.689" fill="#010101" width="89.857" height="56.717"/>
<path fill="#010101" d="M412.252,435.023c-2.702,0-4.889,2.189-4.889,4.893s2.187,4.893,4.889,4.893s4.897-2.189,4.897-4.893
	S414.954,435.023,412.252,435.023z"/>
<path fill="#010101" d="M411.065,257.572c0,8.039,9.998,22.811,9.998,32.139s-11.955,19.012-49.91,19.012
	c-31.992,0-36.465-18.316-36.465-22.23c0-7.049,7.159-24.084,7.455-26.637c0.645-5.469-15.029-13.218-41.403-13.218
	c-26.375,0-47.284,6.431-47.284,6.431s6.659,49.545,6.439,57.9c-0.322,12.221-8.687,37.633-20.591,38.6
	c-11.903,0.965-25.729-10.295-32.486-5.795c-6.757,4.506-8.04,19.621-8.04,42.463c0,22.832,12.691,25.238,12.691,25.238
	s6.819-0.109,15.182-4.609c8.362-4.508,20.787,3.885,20.787,3.885c25.41,24.125,6.661,88.709,6.661,88.709
	s172.326,0.848,207.029,0.848c34.702,0,37.955-32.533,37.955-32.533V254.678C472.523,238.892,411.065,249.531,411.065,257.572z
	 M343.305,320.855c1.466-1.475,3.847-1.479,5.329-0.018l20.215,20.084c0.805-0.098,1.609-0.188,2.439-0.188
	c0.179,0,0.348,0.035,0.525,0.039l20.071-19.936c1.482-1.461,3.863-1.457,5.329,0.018c1.466,1.479,1.457,3.863-0.018,5.328
	l-16.817,16.713c4.321,2.164,7.778,5.803,9.667,10.281l-37.549,0.055c1.694-4.037,4.677-7.367,8.396-9.592l-17.571-17.457
	C341.848,324.719,341.839,322.334,343.305,320.855z M417.513,462.443h-92.72c-2.397,0-4.338-1.939-4.338-4.338
	c0-2.396,1.94-4.338,4.338-4.338h92.72c2.398,0,4.338,1.941,4.338,4.338C421.851,460.504,419.911,462.443,417.513,462.443z
	 M433.195,438.4c0,6.988-5.778,12.674-12.878,12.674h-98.804c-7.1,0-12.878-5.686-12.878-12.674v-71.049
	c0-6.99,5.778-12.676,12.878-12.676h98.804c7.1,0,12.878,5.686,12.878,12.676V438.4z"/>
<path fill="#010101" d="M121.428,102.838c-2.88,4.297-6.562,8.01-10.829,10.934h21.657
	C127.99,110.848,124.309,107.135,121.428,102.838z"/>
<path fill="#010101" d="M288.734,89.873c0,0-8.049,0-16.41,4.503c-8.362,4.503-18.335,1.93-18.335,1.93
	c-25.41-24.125-9.004-95.531-9.004-95.531S72.659-0.075,37.957-0.075S0.001,32.458,0.001,32.458v213.095
	c4.577,2.569,48.444,18.253,84.588-2.711c6.955-4.035-2.712-23.663-2.712-32.991s5.818-16.688,43.772-17.046
	c34.097-0.322,42.139,17.046,41.495,20.905c-0.644,3.859-7.719,22.515-8.362,27.984c-0.644,5.469,13.188,11.899,39.563,11.899
	s47.284-6.431,47.284-6.431s-6.655-49.548-6.435-57.897c0.321-12.223,8.684-37.634,20.59-38.6
	c11.903-0.966,25.729,10.294,32.482,5.791c6.761-4.503,8.04-19.622,8.04-42.458C300.308,91.161,288.734,89.873,288.734,89.873z
	 M195.343,158.655l-28.188-7.047v-22.517l28.188-6.587V158.655z M162.254,120.153v43.084c0,2.292-1.942,4.149-4.338,4.149h-71.9
	c-2.396,0-4.337-1.858-4.337-4.149v-42.918c-19.404-2.967-34.33-19.721-34.33-39.943c0-22.307,18.147-40.455,40.455-40.455
	c14,0,26.357,7.153,33.624,17.993c7.266-10.84,19.622-17.993,33.623-17.993c22.307,0,40.457,18.148,40.457,40.455
	C195.508,100.222,181.132,116.741,162.254,120.153z"/>
<path fill="#010101" d="M88.197,52.5c-12.543,0-23.154,8.263-26.689,19.641c-0.817,2.601-1.26,5.367-1.26,8.235
	c0,0.951,0.048,1.892,0.144,2.817c1.379,14.142,13.3,25.196,27.806,25.196c15.433,0,27.944-12.511,27.944-27.943
	C116.142,65.011,103.63,52.5,88.197,52.5z"/>
<circle fill="#010101" cx="154.785" cy="80.444" r="27.945"/>
</svg>
