<?xml version="1.0" encoding="utf-8"?>
<!-- Generator: Adobe Illustrator 16.0.4, SVG Export Plug-In . SVG Version: 6.00 Build 0)  -->
<!DOCTYPE svg PUBLIC "-//W3C//DTD SVG 1.1//EN" "http://www.w3.org/Graphics/SVG/1.1/DTD/svg11.dtd">
<svg version="1.1" id="Layer_1" xmlns="http://www.w3.org/2000/svg" xmlns:xlink="http://www.w3.org/1999/xlink" x="0px" y="0px"
	 width="500px" height="500px" viewBox="0 0 500 500" enable-background="new 0 0 500 500" xml:space="preserve">
<path fill="#231F20" d="M317.585,246.18c0-0.706,0-1.412,0-1.878c3.051-1.411,3.051-2.114,2.581-5.167
	c11.27-4.223,17.842-15.492,23.243-25.355c1.878-5.162,5.397-12.208,1.878-19.248c-9.624-19.487-24.885-21.834-33.337-39.443
	c-4.695-10.094-12.913-5.398-18.078-3.756c-6.104-0.236-28.172-6.337-29.581-11.972c3.993-0.706,10.33-1.645,17.141-2.351
	c12.207,2.351,23.006,2.351,26.996-1.172c11.975,0,16.2,5.165,19.251,10.563c6.811,21.365,6.104,22.774,24.183,35.451
	c7.044,6.807,8.922,14.792,8.219,22.538C358.671,224.345,336.6,242.891,317.585,246.18L317.585,246.18z"/>
<path fill="#231F20" d="M11.678,431.412c-6.808-7.981,0.235-16.2,8.687-17.372c6.81-0.939,13.148-4.695,15.026-2.817
	c-0.706,0.471-1.41,1.408-2.818,2.111c-3.755,1.878-9.155,4.226-11.972,9.627c-1.175,2.114-2.818,4.695-4.226,6.104
	C14.497,430.709,12.384,431.179,11.678,431.412L11.678,431.412z"/>
<path fill="#231F20" d="M387.783,418.025c-66.676-12.207-125.838,0.939-186.174,11.27c-17.842-0.939-37.562,0-56.579,1.642
	c-0.704-0.938-2.348,0-2.348-1.172c-0.704-5.871,8.452-15.024,19.251-21.364c16.903-9.628,40.616-17.373,47.189-18.549
	c11.738,0,26.059,1.408,38.267-0.703c7.982-1.175,14.322-4.694,20.66-7.748c5.635-2.816,10.565-5.635,14.086-10.329
	c2.348-3.288,3.523-12.208,4.227-16.435c1.408-2.817,2.348-5.868,5.871-7.513c8.685-4.227,24.18-4.227,38.971-2.348
	c27,3.285,48.832-5.636,58.459-21.832c0-8.452,4.695-19.487,10.799-22.071c1.641-0.702,1.408-2.581,1.408-2.816
	c-7.982-12.441,0.232-26.294,7.275-35.449c1.409-1.877,3.287-3.285,4.463-4.696c0.232-0.937-0.235-0.703,0-1.88
	c-6.34,1.177-11.975,3.761-17.842,6.576c-21.129,11.033-38.035,32.398-50.714,50.943c-1.642,1.175-3.05,3.054-5.631,3.992
	c-2.351,0.706-5.401,0.237-8.219,0.47c-16.2,2.348-38.97,0.236-50.945,3.992c-16.198,5.399-22.774,11.737-26.764,20.188
	c-2.114,4.462-2.584,9.156-5.165,15.261c-0.939,2.115-1.645,4.696-3.756,6.341c-2.817,2.581-5.869,3.051-10.33,4.226
	c-29.58,3.989-51.415,7.746-69.257,15.965c-8.451,3.756-15.494,9.39-23.007,15.024c-11.739,8.686-23.713,19.251-37.095,34.512
	c-7.278,5.868-23.477,11.738-48.597,4.459c-5.399-0.469-9.39,1.177-11.738-0.701c-1.408-1.646-0.234-4.227,0.705-6.574
	c13.146-2.583,24.65-6.573,37.562-11.271c0.235-0.467,0.235-0.936,0.235-1.172c-5.4,0.939-9.626,3.521-14.086,4.227
	c-6.574,1.173-13.617,0.47-22.303,0.47c-2.818,0.703-5.871,1.175-7.278,2.584c-4.461,7.277-3.522,17.372-8.687,17.137
	c-2.819-4.928-4.462-9.391-3.052-12.44c2.112-4.695,8.451-8.922,16.199-11.506c20.659-3.286,38.032-9.627,54.231-17.372
	c30.52-15.025,55.642-37.093,85.457-65.734c17.14-13.617,37.329-27,58.927-39.679c15.024-8.688,30.286-17.608,46.485-23.713
	c17.606-6.572,36.625-14.32,55.406-19.25c11.504-3.049,22.536-4.694,33.571-6.104c0-0.469,0-0.939,0-1.175
	c-22.774-0.939-35.92-3.05-49.304,2.351c-8.451,3.284-17.605,6.34-30.989,8.686c-0.938-4.223,5.401-15.731,7.749-24.649
	c0.469-2.35,0.232-4.695,0.232-6.34c0.939-1.409,1.408-3.287,2.584-4.462c10.33-9.858,22.771-21.599,2.111-37.796
	c-25.588-10.564-34.275-9.627-49.533-33.807c-1.645,0-3.291,0-5.166,0c0,1.172-0.236,2.111-0.473,3.284
	c-4.695,0-3.988-9.858-3.988-11.972c-0.707,0-1.41,0-1.878,0c-0.469,0.469-0.939,1.175-1.175,1.878
	c-6.574,4.695-12.442,12.91-19.015,21.834c-9.157,13.147-18.549,29.111-26.061,43.197c-7.748,14.792-13.617,27.939-21.599,29.345
	c-0.235,0.705-0.235,1.411-0.47,2.35c7.279,0.234,16.433-5.634,22.068-7.512c4.695,0.939,6.105,3.989,4.695,10.563
	c-15.259,11.742-26.294,10.564-45.545-1.878c0-0.938,0-1.877,0.235-2.583c2.818-2.346,5.635-4.46,9.156-5.868
	c0.235-1.173,0.235-2.348,0.47-3.523c-2.818,0-4.931,0.472-7.748,0.472c-4.695-2.351-8.921-3.29-9.86-1.412
	c-2.583,4.463-4.93,5.402-11.504,5.635c3.991,11.035,13.616,10.096,22.068,13.619c5.869,0.939,9.391,4.929,6.808,16.667
	c-2.113,0.707-2.817,2.349-4.93,3.055c-15.024,4.227-26.294,15.258-29.815,29.344c0.705-0.234,1.409-0.234,2.113-0.469
	c8.452-12.678,25.12-17.137,39.911-18.076c-2.113,5.165-14.556,10.801-25.12,19.016c-6.339,7.279-13.617,15.73-19.016,24.183
	c-0.469,0.939,0.47,1.175,0.47,2.114c0.939-0.706,1.878-1.175,2.817-1.878c1.643-0.939,2.112-3.055,3.521-3.993
	c9.861-6.104,15.729-7.276,32.633-8.921c5.4-0.705,11.034-1.878,12.208-5.4c4.226-12.44,11.269-21.13,28.878-26.526
	c0,0.233,0.703,0.938,0.703,1.172c-2.816,1.877-7.983,4.461-12.443,8.219c-4.46,5.867-6.808,9.624-9.389,12.208
	c0.233,0.469,0,1.646,0.233,1.878c0.704,0.938,0.939,0,1.409,0c5.165-11.505,41.321-19.957,52.824-22.538
	c0,0.704,0.234,1.173,0.47,1.644c-5.634,2.347-10.564,5.869-15.964,8.45c-9.86,4.933-20.19,9.861-29.347,16.438
	c-2.818,2.11-5.399,5.162-8.452,7.275c-5.165,3.523-11.034,6.574-16.668,10.098c-8.687,5.165-16.434,12.44-24.416,18.78
	c-22.772,18.781-44.372,39.204-66.91,54.699c-6.104,2.817-22.068,8.688-26.998,9.627c-2.113-0.706-4.226,0-5.869-0.706
	c-11.973-4.459-19.486-8.685-38.973,0c0,0.706,0,1.409,0,2.114c3.991-0.469,7.982-0.705,11.975-0.938
	c0.233,1.878-1.878,3.285-5.165,3.285c-5.869-0.235-12.444,3.287-15.731,7.746c-8.685,11.741-8.452,19.725-2.348,25.592
	c3.053,2.584,7.748,4.226,12.678,6.34c3.992,1.642,7.749,4.226,11.74,6.104c10.095-2.817,18.311-4.462,29.347-4.465
	c11.974,2.816,20.894,5.634,34.746,3.286c4.695-0.939,8.921,0.469,14.32-0.47c2.583-1.409,14.322-3.051,29.113-1.643
	c23.242-5.87,52.118-4.226,73.482,1.409c6.809,0,14.088-0.94,19.957,1.408c22.539,0.232,46.014-0.471,68.787-0.471
	c-0.939-1.645-1.643-1.645-2.581-2.348c10.329-3.053,9.39-0.47,77.239,0c5.398-0.237,10.33,0.233,14.086-0.47
	c3.99-0.469,7.043-1.878,12.91-2.349c7.983-0.235,23.008,0.703,30.521,0.233c6.104-0.468,10.8-1.878,16.434-2.111
	c3.523-0.236,7.046-0.47,10.33-0.47c0-0.469,0-0.938,0-1.175c-45.545-1.172-91.559-6.337-137.104-7.276
	c-0.237-0.939-0.237-1.645-0.47-2.348c42.023-11.505,102.124-7.749,149.077-6.573c9.86,0,12.444-1.41,18.781-2.348
	c3.992-0.706,7.982,0,12.208,0c0-0.47,0-0.706,0-1.176C462.206,421.779,424.877,419.198,387.783,418.025z M238.937,239.134
	c0-14.319,0-28.639,0-42.961c-0.704,0-1.174,0.236-1.878,0.236c-9.86,10.563-17.373,16.667-19.721,35.448
	c-4.46-0.47-7.982-2.348-11.505-3.52c-1.172-8.218,5.401-11.741,11.975-18.548c5.399-5.401,10.563-11.738,15.964-17.609
	c8.685-9.154,14.789-18.545,16.667-22.304c0.706,0.236,2.347,0.236,2.817,0.706c0.706,19.72,10.566,29.583,11.975,33.573
	c-0.235,1.645-0.938,2.348-1.877,3.99c-1.644,2.584-5.871,4.695-10.33,7.985c-6.811,12.675-6.811,12.675-11.738,22.771
	C240.579,238.901,239.876,239.134,238.937,239.134z M248.091,258.152c3.287-6.104,9.626-7.043,10.8-15.964
	c1.174-7.512,5.168-11.033,11.504-12.677c3.051-0.938,5.398-1.878,8.688-3.287c3.287-2.581,5.165-5.398,5.397-8.452
	c0-3.52,0-7.513-0.232-10.799c-6.104-8.218-20.896-20.66-19.721-31.695c4.459,3.523,5.867,7.279,26.996,13.853
	c8.219,4.462,14.793,11.269,9.392,18.781c-11.502,6.807-13.851,10.563-15.024,20.66c-0.703,4.929-1.879,10.562-4.459,14.792
	c-5.402,9.39-16.438,16.433-30.523,16.196C250.205,259.328,248.797,258.389,248.091,258.152z"/>
<path fill="#231F20" d="M126.246,266.84c-8.217-12.208-13.852-21.132-15.259-28.172c-2.583-11.975,3.051-19.018,0.938-31.461
	c-4.226-9.857-9.624-20.66-13.146-29.814c-5.869-29.111,26.061-50.007,35.686-74.422c10.095-30.991,8.452-19.721,11.269-27
	c0.235-0.703-0.235-0.703-0.235-1.644c-12.914,1.878-21.6,4.932-27,9.625c-15.729,13.148-7.746,36.39-25.355,60.336
	c-17.842,12.444-18.312,20.659-16.903,31.225c1.174,9.86,5.869,20.19,11.738,30.753c3.756,7.045,8.686,14.086,11.034,22.071
	c-7.982-5.871-16.434-18.548-23.711-30.989c-8.921-15.028-12.442-31.695-8.217-44.375c14.556-17.842,19.956-34.509,23.007-49.77
	c2.113-10.33,5.634-18.546,14.322-24.65c5.398-3.756,15.258-7.512,27.702-11.035c11.504-3.521,25.12-6.574,35.215-13.147
	c14.321-8.921,21.598-8.452,27.469-7.748c7.748,1.409,19.015,7.043,25.12,9.86c0,0.704,0.235,1.645,0.235,2.348
	c-17.844-9.391-25.122-8.92-43.903,0.47c-0.235,0.94,0,1.878,0,2.817c16.2,0,22.774,4.227,37.095,12.444
	c7.276-2.819,23.242,7.98,27.468,11.972c1.172,2.818,3.52,4.931,2.348,7.514c-2.817,6.574-4.695,17.607-10.33,23.007
	c-5.634,5.401-9.156,10.096-9.86,16.434c-0.706,0-1.409-0.47-1.878-0.47c3.051-19.72,19.721-31.928,2.113-48.362
	c-34.042-27.938-60.102-24.887-73.249,3.052c-1.409,3.522-3.756,6.809-4.695,10.799c-1.643,6.104-1.878,14.321-2.817,21.597
	c-23.007,54.466-35.217,35.921-13.382,91.092c0.47,7.043,1.174,13.85-0.704,19.484c-4.695,15.261-8.218,22.305-0.939,36.157
	C126.952,266.84,126.715,266.84,126.246,266.84L126.246,266.84z"/>
<path fill="#231F20" d="M237.293,118.228c3.755-23.241,31.693-26.527,16.905-52.588c-6.574-0.235-28.174,4.46-29.584-4.93
	c5.167,0.47,10.33,0.705,15.025,0.705c1.645,0,1.645-1.644,3.287-1.644c17.375,0,33.104,8.217,24.885,30.285
	c-0.703,1.645-0.937,4.462-1.875,6.34c-0.473,0.468-0.235,1.409-1.408,2.348c-2.114-0.235-5.168,1.174-8.451,3.521
	c-2.584,6.574-6.81,12.678-12.211,12.912c-2.817,0.939-4.459,2.584-4.695,3.287C238.467,118.464,237.998,118.228,237.293,118.228
	L237.293,118.228z"/>
<path fill="#231F20" d="M206.539,124.334c3.285-3.289,6.338-17.374-2.584-19.487c-15.964-2.113-14.321-4.695-23.711-16.903
	c-16.199-0.939-12.208,28.878-28.642,34.276c-0.939,0.236,0.235-1.878-0.704-1.642c4.226-5.168,9.625-8.218,11.034-14.557
	c1.644-7.278,3.521-14.556,5.635-17.609c0.939-2.113,3.287-3.285,6.104-3.991c2.113-0.234,4.461-0.469,7.982,0.94
	c3.287,1.409,4.93,2.583,9.391,5.635c3.052,2.113,11.505,3.521,15.26,3.755c11.27,0.94,12.208,2.113,16.199,11.27
	c0,1.644-1.172,4.46-3.52,6.104c-2.818,1.878-4.697,6.339-5.634,12.209c-1.41,0.233-4.932,2.112-6.339,1.878
	C206.068,125.977,207.478,123.862,206.539,124.334L206.539,124.334z"/>
<path fill="#231F20" d="M264.761,129.497c0.233-0.466,0.233-0.939,0.233-1.406c17.376-7.045,40.146-28.408,27.938-48.13
	c-8.921-9.86-18.781-15.493-24.179-26.998c1.408-0.235,2.813-0.47,4.459,0c11.738,3.756,30.756,27.704,37.329,35.45
	c6.104,9.392,4.695,17.844-1.878,23.478C298.334,121.281,277.675,129.263,264.761,129.497L264.761,129.497z"/>
<path fill="#231F20" d="M230.718,134.428c4.932-10.566,17.842-15.261,27.703-20.425c11.035-8.217,15.968-19.955,19.956-32.399
	c7.749,3.288,4.696,18.078,1.643,24.652C268.986,118.7,247.152,131.142,230.718,134.428L230.718,134.428z"/>
<path fill="#231F20" d="M287.064,136.776c-0.705-0.469-4.694-1.878-5.635-2.348c0-0.469,0.703-0.703,0.703-0.938
	c13.616-12.208,12.678-11.972,30.52-14.789c2.349-16.2,7.75-14.792,21.13-23.478c3.054-4.226-0.703-9.156-17.606-16.434
	c-2.816-1.878-3.053-2.584-4.226-4.697c2.348,0.235,9.155,2.348,15.024,7.279c5.635-2.583,15.729,3.991,18.781,5.399
	c1.409,15.025-3.287,19.016-14.556,26.294c0.702,10.798-0.47,11.503-4.462,16.905C299.273,127.385,299.977,134.428,287.064,136.776
	L287.064,136.776z"/>
<path fill="#231F20" d="M144.089,181.851c-4.46-9.624-3.288-16.903-2.348-26.763c0.705,0,1.409,0,2.113,0
	c-0.469,9.86-0.234,16.434,2.113,26.763C145.263,181.851,144.794,181.851,144.089,181.851L144.089,181.851z"/>
<path fill="#231F20" d="M359.373,186.546c0.47-9.391,1.176-18.312-1.645-27c-3.052-1.642-6.573-3.05-8.686-5.868
	c-5.398-7.279-11.975-13.146-20.66-16.434c0-0.47,0-0.703,0-1.175c10.562,0.236,11.973,0.939,23.241,10.566
	c4.933,4.226,23.479,16.903,25.827,19.957c0.938,1.406,1.172,3.05,1.408,4.462c0.47,4.692-3.055,10.563-9.627,14.086
	C366.416,186.546,363.6,187.019,359.373,186.546L359.373,186.546z"/>
<path fill="#231F20" d="M181.417,210.962c2.817-8.216,4.226-14.319,4.226-21.832c-3.756-2.111-7.512-0.706-11.269-0.472
	c0-0.467,0-0.7,0-1.173c4.93-1.406,13.616-5.398,15.729-10.796c0.705-1.645,0.235-3.29-0.469-5.167
	c-30.05,16.903-19.72,10.33-19.955,18.079c0,3.05,1.174,12.444-0.235,17.842c-0.704-0.236-1.878-0.469-2.583-0.703
	c-1.174-7.046-4.226-8.688-5.869-12.68c0.235-3.99,0-9.391,0.235-17.137c8.452-0.472,19.955,1.172,33.337-16.434
	c8.921-1.646,18.313-6.34,22.304-15.028c0.469,0,1.172,0,1.876,0c-0.234,1.175,0.471,2.351,0.236,3.523
	c-1.644,3.05-3.991,6.34-6.339,11.035c-3.053,6.102-6.34,13.85-10.565,20.66c-6.339,10.094-13.382,20.66-18.782,30.05
	C182.591,210.729,181.887,210.962,181.417,210.962L181.417,210.962z"/>
<path fill="#231F20" d="M141.742,228.102c-0.235-0.236-0.469-0.47-0.94-0.703c1.646-14.322,3.523-28.878,6.81-42.495
	c0.705,0,1.644,0,2.348,0C148.081,198.051,144.324,213.077,141.742,228.102L141.742,228.102z"/>
</svg>
