<?xml version="1.0" encoding="utf-8"?>
<!-- Generator: Adobe Illustrator 16.0.4, SVG Export Plug-In . SVG Version: 6.00 Build 0)  -->
<!DOCTYPE svg PUBLIC "-//W3C//DTD SVG 1.1//EN" "http://www.w3.org/Graphics/SVG/1.1/DTD/svg11.dtd">
<svg version="1.1" id="Layer_1" xmlns="http://www.w3.org/2000/svg" xmlns:xlink="http://www.w3.org/1999/xlink" x="0px" y="0px"
	 width="500px" height="500px" viewBox="0 0 500 500" enable-background="new 0 0 500 500" xml:space="preserve">
<path d="M88.85,252.334c-0.132,0.159,12.674,30.551,12.674,30.842c9.017,0,18.008,0,27.039,0
	c0.04,0.079-41.219-94.028-41.402-94.214c0.409-0.316-27.198,63.453-27.461,63.373C69.43,252.334,79.107,252.334,88.85,252.334z"/>
<path d="M-0.714,131.168c0.065-0.106,0.21,151.585,0.21,151.797c0.211,0.197,63.346-151.837,63.161-151.797
	C62.644,131.168-0.504,131.168-0.714,131.168z"/>
<path d="M176.427,131.168h-65.528c0,0,65.523,152.366,65.484,151.875C176.383,283.255,176.427,131.551,176.427,131.168z"/>
<path d="M15.165,306.95L1.086,367.197h10.257l2.348-11.274h12.738l2.413,11.274H39.1L25.02,306.95H15.165L15.165,306.95z
	 M15.634,345.684l4.425-22.552l4.426,22.552H15.634z"/>
<path d="M61.228,326.489c-2.548-3.357-4.223-4.648-7.777-4.648c-10.19,0-13.006,12.137-13.006,23.324
	c0,13.082,3.823,23.666,12.874,23.666c3.822,0,6.837-2.752,8.245-6.883h0.335l0.268,5.25h8.112v-60.246h-9.051V326.489z
	 M55.73,360.14c-5.164,0-5.899-9.123-5.899-14.802c0-12.224,3.418-14.634,5.899-14.634c2.413,0,5.899,2.409,5.898,14.634
	C61.628,351.965,60.691,360.14,55.73,360.14z"/>
<path d="M92.007,321.841c-10.66,0-15.353,9.899-15.353,23.41c0,13.686,4.76,23.581,15.353,23.581
	c10.526,0,15.354-9.896,15.354-23.581C107.36,331.739,102.6,321.841,92.007,321.841z M92.007,360.055
	c-2.748,0-5.966-1.978-5.966-14.804c0-12.566,3.218-14.632,5.966-14.632c3.486,0,5.966,2.755,5.966,14.632
	C97.973,356.441,95.895,360.055,92.007,360.055z"/>
<path d="M130.415,321.841c-2.278,0-5.831,0.862-7.708,5.164V306.95h-9.119v60.247h8.113l0.269-5.251h0.267
	c1.943,4.906,4.291,6.883,8.246,6.883c9.588,0,13.007-10.499,13.007-23.666C143.491,331.911,140.003,321.841,130.415,321.841z
	 M128.205,360.055c-5.163,0-5.899-9.123-5.899-14.804c0-12.222,3.417-14.632,5.899-14.632c2.412,0,5.899,2.411,5.899,14.632
	C134.104,351.879,133.166,360.055,128.205,360.055z"/>
<path d="M163.879,321.841c-9.588,0-15.756,8.435-15.756,23.41c0,21.517,9.52,23.581,15.085,23.581
	c4.961,0,12.336-1.029,14.615-14.284h-9.117c-0.875,4.904-3.018,5.507-5.096,5.507c-2.548,0-6.102-1.205-6.102-11.532h20.919v-2.41
	C178.428,325.197,169.912,321.841,163.879,321.841z M157.509,341.203c0.067-3.269,0.939-10.585,6.102-10.585
	c3.017,0,5.161,1.721,5.43,10.585H157.509z"/>
<polygon points="181.042,134.707 186.765,134.707 186.765,149.736 190.778,149.736 190.778,134.707 196.5,134.707 196.5,131.168 
	181.042,131.168 "/>
<polygon points="208,145.78 202.759,131.169 197.464,131.169 197.464,149.736 201.474,149.736 201.474,135.402 206.502,149.736 
	209.338,149.736 214.42,135.402 214.42,149.736 218.429,149.736 218.429,131.169 213.188,131.169 "/>
<path d="M299,253.638c-1.014,0.932-2.162,1.396-3.449,1.396c-0.861,0-1.66-0.289-2.395-0.867c-0.738-0.577-1.314-1.474-1.734-2.691
	c-0.422-1.215-0.629-2.633-0.629-4.249c0-2.557,0.455-4.628,1.365-6.212c0.91-1.586,2.184-2.379,3.82-2.379
	c1.096,0,2.033,0.326,2.818,0.975c0.781,0.649,1.328,1.609,1.633,2.877l4.297-1.229c-0.352-1.247-0.814-2.25-1.4-3.007
	c-0.836-1.083-1.896-1.922-3.182-2.516c-1.283-0.593-2.594-0.888-3.936-0.888c-1.82,0-3.555,0.488-5.201,1.464
	c-1.646,0.978-2.9,2.442-3.764,4.396c-0.865,1.953-1.299,4.203-1.299,6.751c0,2.444,0.424,4.567,1.271,6.368
	c0.85,1.799,2.094,3.15,3.729,4.057c1.635,0.905,3.355,1.359,5.156,1.359c1.684,0,3.172-0.36,4.455-1.074
	c1.281-0.716,2.33-1.704,3.137-2.963c0.5-0.779,0.914-1.824,1.244-3.144l-4.25-1.212C300.277,252.062,299.715,252.994,299,253.638z"
	/>
<path d="M317.855,253.302c-0.777,0.828-1.438,1.392-1.979,1.688s-1.074,0.443-1.596,0.443c-0.5,0-0.914-0.17-1.242-0.513
	c-0.328-0.341-0.49-0.806-0.49-1.389v-11.476h-4.281v12.321c0,1.043,0.193,1.924,0.59,2.64c0.395,0.716,0.896,1.233,1.504,1.557
	c0.607,0.321,1.256,0.484,1.941,0.484c0.746,0,1.619-0.223,2.617-0.668c0.994-0.444,1.977-1.154,2.938-2.126v2.515h4.248v-16.723
	h-4.248v11.246H317.855z"/>
<path d="M327.982,254.022c0,1.032,0.23,1.958,0.697,2.775c0.467,0.819,1.086,1.401,1.857,1.749s1.816,0.522,3.137,0.522
	c0.053,0,0.547-0.01,1.488-0.031v-3.449c-1.258-0.029-2.062-0.18-2.414-0.443c-0.354-0.267-0.531-0.642-0.531-1.12v-8.93h2.945
	v-3.038h-2.945v-5.401h-4.234v5.4h-2.561v3.038h2.561V254.022L327.982,254.022z"/>
<path d="M346.639,259.038v-3.451c-1.258-0.03-2.062-0.18-2.414-0.444c-0.354-0.267-0.531-0.641-0.531-1.119v-8.93h2.945v-3.038
	h-2.945v-5.401h-4.234v5.4h-2.564v3.038h2.564v8.93c0,1.032,0.23,1.958,0.697,2.775c0.467,0.819,1.086,1.401,1.855,1.749
	c0.773,0.348,1.82,0.522,3.139,0.522C345.201,259.069,345.697,259.059,346.639,259.038z"/>
<rect x="350.674" y="242.056" width="4.203" height="16.722"/>
<rect x="350.674" y="234.953" width="4.203" height="4.219"/>
<path d="M370.096,258.778h4.203v-12.733c0-1.421-0.365-2.542-1.104-3.36c-0.553-0.613-1.463-0.92-2.729-0.92
	c-1.127,0-2.156,0.22-3.086,0.659c-0.93,0.441-1.834,1.079-2.715,1.918v-2.287h-4.234v16.723h4.234v-11.429
	c0.91-0.839,1.656-1.404,2.24-1.695c0.582-0.292,1.135-0.438,1.656-0.438c0.49,0,0.869,0.145,1.133,0.438
	c0.266,0.291,0.398,0.779,0.398,1.464L370.096,258.778L370.096,258.778z"/>
<path d="M377.4,261.155c0,0.848,0.26,1.599,0.779,2.248c0.523,0.65,1.279,1.126,2.273,1.436c1.471,0.45,3.152,0.674,5.045,0.674
	c3.102,0,5.273-0.492,6.529-1.479c1.252-0.988,1.879-2.252,1.879-3.797c0-1.246-0.432-2.259-1.289-3.036
	c-0.871-0.778-2.23-1.196-4.08-1.258l-4.34-0.155c-0.861-0.03-1.439-0.163-1.734-0.398c-0.309-0.225-0.465-0.513-0.465-0.86
	c0-0.256,0.094-0.499,0.277-0.728c0.188-0.23,0.463-0.441,0.828-0.638c0.838,0.102,1.607,0.154,2.303,0.154
	c2.221,0,3.93-0.543,5.133-1.635c1.199-1.09,1.803-2.472,1.803-4.148c0-1.125-0.266-2.117-0.797-2.978
	c0.594-0.316,1.223-0.473,1.887-0.473h0.797v-2.793h-0.398c-0.422,0-0.98,0.119-1.682,0.354s-1.434,0.639-2.201,1.211
	c-0.596-0.368-1.283-0.642-2.07-0.821c-0.787-0.18-1.68-0.269-2.67-0.269c-2.588,0-4.428,0.56-5.516,1.679
	c-1.092,1.122-1.633,2.494-1.633,4.12c0,1.013,0.219,1.921,0.658,2.723c0.438,0.802,1.092,1.5,1.961,2.096
	c-0.756,0.275-1.322,0.651-1.693,1.134c-0.371,0.481-0.562,1.011-0.562,1.596c0,0.592,0.164,1.104,0.492,1.534
	c0.33,0.431,0.842,0.818,1.537,1.166c-1.086,0.284-1.863,0.713-2.34,1.28C377.639,259.659,377.4,260.348,377.4,261.155z
	 M382.963,245.333c0.617-0.609,1.387-0.913,2.309-0.913c0.846,0,1.58,0.306,2.201,0.92c0.617,0.614,0.928,1.345,0.928,2.194
	s-0.311,1.581-0.928,2.193c-0.619,0.614-1.373,0.921-2.264,0.921c-0.881,0-1.629-0.307-2.246-0.921
	c-0.621-0.613-0.93-1.344-0.93-2.193C382.033,246.673,382.342,245.941,382.963,245.333z M381.457,259.408
	c0.26-0.327,0.646-0.608,1.158-0.845c1.291,0.205,2.711,0.341,4.266,0.406c1.555,0.068,2.541,0.244,2.961,0.53
	c0.422,0.295,0.633,0.684,0.633,1.165c0,0.514-0.256,0.931-0.754,1.26c-0.736,0.49-2,0.736-3.789,0.736
	c-1.914,0-3.264-0.262-4.051-0.782c-0.543-0.359-0.814-0.814-0.814-1.367C381.064,260.104,381.197,259.736,381.457,259.408z"/>
<polygon points="407.613,258.043 423.354,258.043 423.354,253.993 412.23,253.993 412.23,247.305 419.012,247.305 419.012,243.821 
	412.23,243.821 412.23,238.651 423.354,238.651 423.354,234.57 407.613,234.57 "/>
<path d="M437.236,234.218v9.038c-0.664-0.748-1.377-1.305-2.133-1.672c-0.756-0.368-1.564-0.553-2.424-0.553
	c-0.879,0-1.682,0.197-2.414,0.59c-0.73,0.395-1.375,0.93-1.934,1.604c-0.557,0.676-1.031,1.579-1.426,2.709
	c-0.395,1.129-0.592,2.394-0.592,3.796c0,2.711,0.697,4.896,2.088,6.552c1.156,1.359,2.566,2.039,4.234,2.039
	c0.838,0,1.643-0.184,2.41-0.552s1.498-0.919,2.193-1.656v1.933h4.234v-23.828h-4.234H437.236L437.236,234.218z M437.238,253.243
	c-0.471,0.53-0.949,0.93-1.434,1.195c-0.486,0.267-0.988,0.399-1.498,0.399c-0.898,0-1.676-0.404-2.324-1.212
	c-0.646-0.807-0.975-2.075-0.975-3.804c0-1.913,0.312-3.262,0.936-4.049s1.398-1.183,2.316-1.183c0.492,0,0.984,0.137,1.482,0.406
	c0.496,0.271,0.99,0.679,1.494,1.221L437.238,253.243L437.238,253.243z"/>
<path d="M459.721,240.907c-0.699,0.236-1.434,0.641-2.199,1.212c-0.594-0.367-1.285-0.641-2.07-0.819
	c-0.787-0.182-1.678-0.27-2.67-0.27c-2.586,0-4.426,0.56-5.516,1.682c-1.09,1.12-1.635,2.493-1.635,4.117
	c0,1.014,0.221,1.922,0.66,2.724c0.439,0.803,1.094,1.5,1.965,2.095c-0.758,0.275-1.324,0.653-1.695,1.135
	c-0.375,0.482-0.561,1.012-0.561,1.596c0,0.592,0.162,1.104,0.49,1.535c0.328,0.43,0.84,0.817,1.535,1.165
	c-1.084,0.286-1.865,0.711-2.34,1.279c-0.477,0.567-0.713,1.256-0.713,2.062c0,0.851,0.26,1.598,0.779,2.247
	c0.525,0.65,1.281,1.129,2.271,1.435c1.473,0.451,3.154,0.676,5.047,0.676c3.102,0,5.277-0.491,6.531-1.48
	c1.252-0.986,1.877-2.253,1.877-3.796c0-1.247-0.428-2.26-1.289-3.038c-0.869-0.776-2.229-1.196-4.08-1.258l-4.342-0.153
	c-0.859-0.03-1.438-0.164-1.734-0.398c-0.307-0.226-0.459-0.513-0.459-0.861c0-0.255,0.09-0.498,0.275-0.727
	c0.184-0.231,0.461-0.443,0.828-0.639c0.838,0.103,1.607,0.154,2.303,0.154c2.219,0,3.932-0.544,5.131-1.634
	c1.201-1.088,1.803-2.472,1.803-4.149c0-1.125-0.264-2.116-0.797-2.978c0.592-0.317,1.223-0.473,1.887-0.473h0.797v-2.791h-0.396
	C460.982,240.555,460.424,240.673,459.721,240.907z M450.188,257.829c1.289,0.204,2.711,0.341,4.266,0.407
	c1.553,0.066,2.541,0.242,2.961,0.531c0.42,0.294,0.631,0.684,0.631,1.163c0,0.513-0.252,0.931-0.754,1.259
	c-0.736,0.492-1.998,0.737-3.789,0.737c-1.912,0-3.262-0.26-4.049-0.781c-0.541-0.357-0.814-0.813-0.814-1.367
	c0-0.407,0.129-0.776,0.393-1.102C449.289,258.348,449.676,258.064,450.188,257.829z M455.043,248.993
	c-0.617,0.614-1.373,0.919-2.264,0.919c-0.879,0-1.629-0.305-2.246-0.919c-0.619-0.613-0.928-1.344-0.928-2.194
	c0-0.858,0.309-1.593,0.928-2.202c0.617-0.608,1.387-0.914,2.309-0.914c0.848,0,1.582,0.307,2.201,0.92
	c0.619,0.614,0.928,1.345,0.928,2.194C455.971,247.648,455.662,248.38,455.043,248.993z"/>
<path d="M471.129,241.03c-2.271,0-4.135,0.765-5.594,2.294c-1.455,1.53-2.184,3.582-2.184,6.161c0,1.697,0.336,3.234,1.012,4.609
	s1.648,2.424,2.926,3.146c1.27,0.722,2.615,1.082,4.027,1.082c0.725,0,1.42-0.093,2.086-0.278c0.664-0.182,1.309-0.47,1.934-0.856
	c0.623-0.392,1.189-0.886,1.701-1.49c0.328-0.388,0.688-0.945,1.074-1.671l-3.453-1.459c-0.389,0.768-0.848,1.348-1.381,1.744
	c-0.531,0.393-1.176,0.589-1.932,0.589c-0.992,0-1.816-0.368-2.471-1.105c-0.654-0.736-1.006-1.861-1.059-3.374h10.617
	c0.029-0.635,0.047-1.114,0.047-1.442c0-2.507-0.67-4.457-2.012-5.853C475.129,241.728,473.35,241.03,471.129,241.03z
	 M467.801,247.889c0.084-1.311,0.438-2.3,1.066-2.969c0.629-0.67,1.398-1.005,2.309-1.005c0.949,0,1.752,0.343,2.408,1.028
	c0.654,0.684,1.014,1.667,1.074,2.946H467.801L467.801,247.889z"/>
<path d="M242.094,235.972v3.817h-6.451v17.742h-4.534v-17.742h-6.48v-3.817H242.094z"/>
<path d="M255.848,241.676c0.803,0.342,1.461,0.864,1.975,1.566c0.438,0.596,0.703,1.208,0.801,1.838s0.146,1.657,0.146,3.081v9.37
	h-4.258v-9.708c0-0.859-0.145-1.552-0.436-2.079c-0.377-0.742-1.094-1.113-2.148-1.113c-1.094,0-1.924,0.368-2.49,1.105
	c-0.566,0.737-0.85,1.789-0.85,3.156v8.639h-4.168v-21.487h4.168v7.606c0.604-0.926,1.299-1.572,2.09-1.938s1.625-0.548,2.498-0.548
	C254.156,241.164,255.049,241.335,255.848,241.676z"/>
<path d="M273.078,241.911c1.113,0.498,2.031,1.284,2.756,2.359c0.652,0.947,1.076,2.045,1.27,3.296
	c0.113,0.732,0.158,1.787,0.139,3.164h-11.613c0.064,1.6,0.621,2.721,1.668,3.364c0.637,0.4,1.402,0.6,2.297,0.6
	c0.951,0,1.723-0.243,2.316-0.73c0.322-0.264,0.609-0.63,0.857-1.098h4.256c-0.111,0.946-0.627,1.906-1.545,2.882
	c-1.428,1.551-3.428,2.325-5.998,2.325c-2.123,0-3.994-0.653-5.617-1.961c-1.621-1.308-2.432-3.437-2.432-6.383
	c0-2.762,0.732-4.879,2.195-6.354c1.465-1.474,3.365-2.21,5.701-2.21C270.717,241.164,271.967,241.413,273.078,241.911z
	 M266.842,245.512c-0.588,0.607-0.959,1.43-1.109,2.468h7.182c-0.076-1.106-0.447-1.946-1.111-2.519s-1.488-0.859-2.473-0.859
	C268.26,244.602,267.43,244.905,266.842,245.512z"/>
<path d="M241.961,285.603c-1.262,1.053-3.064,1.58-5.407,1.58h-4.489v7.752h-4.476v-21.561h9.257c2.134,0,3.835,0.556,5.105,1.668
	c1.269,1.111,1.903,2.833,1.903,5.163C243.854,282.75,243.223,284.55,241.961,285.603z M238.522,277.836
	c-0.57-0.479-1.369-0.717-2.397-0.717h-4.06v6.348h4.06c1.028,0,1.827-0.258,2.397-0.775c0.57-0.517,0.856-1.336,0.856-2.457
	S239.092,278.313,238.522,277.836z"/>
<path d="M255.986,278.618c0.055,0.005,0.174,0.012,0.359,0.021v4.271c-0.264-0.029-0.498-0.049-0.703-0.059
	c-0.203-0.01-0.369-0.015-0.496-0.015c-1.678,0-2.805,0.546-3.379,1.639c-0.322,0.614-0.482,1.56-0.482,2.837v7.621h-4.198v-15.943
	h3.978v2.779c0.645-1.063,1.205-1.79,1.684-2.18c0.779-0.653,1.793-0.98,3.041-0.98C255.867,278.61,255.934,278.613,255.986,278.618
	z"/>
<path d="M272.084,292.984c-1.346,1.661-3.389,2.491-6.129,2.491s-4.783-0.83-6.129-2.491s-2.018-3.661-2.018-6
	c0-2.299,0.672-4.291,2.018-5.978c1.346-1.685,3.389-2.527,6.129-2.527s4.783,0.843,6.129,2.527c1.346,1.687,2.02,3.679,2.02,5.978
	C274.104,289.323,273.43,291.323,272.084,292.984z M268.75,290.681c0.652-0.867,0.979-2.1,0.979-3.696s-0.326-2.826-0.979-3.688
	c-0.654-0.862-1.59-1.293-2.809-1.293s-2.158,0.431-2.816,1.293c-0.658,0.861-0.986,2.091-0.986,3.688s0.328,2.829,0.986,3.696
	c0.658,0.866,1.598,1.299,2.816,1.299S268.096,291.547,268.75,290.681z"/>
<path d="M275.273,297.991c0.234,0.02,0.398,0.032,0.496,0.037s0.186,0.007,0.264,0.007c0.41,0,0.719-0.1,0.93-0.3
	c0.209-0.199,0.314-0.587,0.314-1.162v-17.509h4.168v17.581c0,1.609-0.316,2.799-0.951,3.569c-0.633,0.771-1.877,1.155-3.729,1.155
	c-0.127,0-0.314-0.005-0.564-0.015c-0.248-0.01-0.559-0.02-0.928-0.029V297.991z M281.445,277.09h-4.168v-3.848h4.168V277.09z"/>
<path d="M295.799,279.313c1.113,0.499,2.031,1.285,2.756,2.359c0.652,0.947,1.076,2.046,1.27,3.296
	c0.113,0.733,0.158,1.787,0.137,3.164H288.35c0.064,1.6,0.621,2.721,1.668,3.364c0.635,0.4,1.402,0.6,2.297,0.6
	c0.951,0,1.723-0.243,2.316-0.731c0.322-0.263,0.609-0.629,0.857-1.097h4.256c-0.111,0.946-0.627,1.906-1.545,2.882
	c-1.428,1.55-3.428,2.325-5.998,2.325c-2.123,0-3.994-0.654-5.617-1.962c-1.621-1.307-2.432-3.436-2.432-6.383
	c0-2.762,0.73-4.88,2.195-6.353c1.465-1.475,3.365-2.211,5.701-2.211C293.436,278.567,294.686,278.816,295.799,279.313z
	 M289.562,282.915c-0.588,0.607-0.959,1.431-1.111,2.468h7.184c-0.076-1.106-0.447-1.946-1.111-2.519
	c-0.664-0.573-1.488-0.86-2.473-0.86C290.98,282.004,290.15,282.309,289.562,282.915z"/>
<path d="M311.607,284.71c-0.078-0.595-0.279-1.131-0.602-1.608c-0.469-0.644-1.197-0.966-2.186-0.966
	c-1.408,0-2.371,0.697-2.889,2.092c-0.273,0.739-0.41,1.722-0.41,2.947c0,1.167,0.137,2.105,0.41,2.815
	c0.5,1.326,1.438,1.989,2.816,1.989c0.977,0,1.672-0.263,2.082-0.789c0.41-0.527,0.66-1.21,0.748-2.048h4.256
	c-0.098,1.268-0.557,2.467-1.377,3.598c-1.309,1.824-3.246,2.735-5.812,2.735s-4.455-0.761-5.666-2.281
	c-1.211-1.521-1.816-3.494-1.816-5.918c0-2.734,0.67-4.862,2.006-6.384c1.338-1.521,3.182-2.282,5.535-2.282
	c2.002,0,3.639,0.449,4.912,1.346c1.273,0.897,2.027,2.482,2.262,4.754H311.607z"/>
<path d="M317.092,282.106v-2.969h2.223v-4.447h4.125v4.447h2.59v2.969h-2.59v8.426c0,0.653,0.084,1.061,0.248,1.221
	c0.166,0.161,0.674,0.241,1.521,0.241c0.127,0,0.262-0.002,0.402-0.007c0.143-0.005,0.281-0.013,0.418-0.022v3.116l-1.975,0.073
	c-1.971,0.068-3.316-0.273-4.037-1.024c-0.469-0.478-0.703-1.214-0.703-2.209v-9.814H317.092z"/>
<path d="M350.324,292.984c-1.346,1.661-3.389,2.491-6.129,2.491s-4.783-0.83-6.129-2.491s-2.018-3.661-2.018-6
	c0-2.299,0.672-4.291,2.018-5.978c1.346-1.685,3.389-2.527,6.129-2.527s4.783,0.843,6.129,2.527
	c1.346,1.687,2.018,3.679,2.018,5.978C352.342,289.323,351.67,291.323,350.324,292.984z M346.99,290.681
	c0.652-0.867,0.979-2.1,0.979-3.696s-0.326-2.826-0.979-3.688c-0.654-0.862-1.59-1.293-2.809-1.293s-2.158,0.431-2.816,1.293
	c-0.658,0.861-0.988,2.091-0.988,3.688s0.33,2.829,0.988,3.696c0.658,0.866,1.598,1.299,2.816,1.299S346.336,291.547,346.99,290.681
	z"/>
<path d="M361.924,273.177c0.215,0.015,0.506,0.036,0.877,0.065v3.394c-0.234-0.029-0.627-0.051-1.178-0.065
	s-0.932,0.107-1.141,0.365c-0.209,0.259-0.314,0.544-0.314,0.856c0,0.312,0,0.761,0,1.346h2.736v2.939h-2.736v12.857h-4.139v-12.857
	h-2.342v-2.939h2.283v-1.024c0-1.706,0.287-2.881,0.863-3.524c0.604-0.956,2.062-1.435,4.373-1.435
	C361.471,273.154,361.709,273.162,361.924,273.177z"/>
<path d="M371.986,282.106v-2.969h2.225v-4.447h4.123v4.447h2.59v2.969h-2.59v8.426c0,0.653,0.084,1.061,0.25,1.221
	c0.166,0.161,0.672,0.241,1.521,0.241c0.127,0,0.26-0.002,0.402-0.007c0.141-0.005,0.279-0.013,0.416-0.022v3.116l-1.975,0.073
	c-1.969,0.068-3.314-0.273-4.037-1.024c-0.469-0.478-0.701-1.214-0.701-2.209v-9.814H371.986z"/>
<path d="M395.059,279.08c0.801,0.341,1.459,0.863,1.975,1.565c0.436,0.596,0.703,1.208,0.801,1.838
	c0.096,0.629,0.145,1.656,0.145,3.082v9.369h-4.256v-9.709c0-0.859-0.146-1.552-0.436-2.079c-0.379-0.741-1.094-1.113-2.148-1.113
	c-1.094,0-1.924,0.369-2.49,1.106s-0.85,1.788-0.85,3.155v8.64h-4.168v-21.487h4.168v7.606c0.602-0.927,1.299-1.572,2.09-1.938
	c0.791-0.365,1.623-0.548,2.498-0.548C393.367,278.567,394.258,278.737,395.059,279.08z"/>
<path d="M412.289,279.313c1.111,0.499,2.029,1.285,2.754,2.359c0.654,0.947,1.076,2.046,1.271,3.296
	c0.111,0.733,0.156,1.787,0.137,3.164H404.84c0.064,1.6,0.619,2.721,1.666,3.364c0.637,0.4,1.402,0.6,2.299,0.6
	c0.949,0,1.721-0.243,2.314-0.731c0.324-0.263,0.609-0.629,0.859-1.097h4.256c-0.113,0.946-0.629,1.906-1.547,2.882
	c-1.428,1.55-3.428,2.325-5.998,2.325c-2.121,0-3.994-0.654-5.615-1.962c-1.623-1.307-2.434-3.436-2.434-6.383
	c0-2.762,0.732-4.88,2.197-6.353c1.463-1.475,3.363-2.211,5.701-2.211C409.926,278.567,411.176,278.816,412.289,279.313z
	 M406.053,282.915c-0.59,0.607-0.961,1.431-1.111,2.468h7.182c-0.076-1.106-0.445-1.946-1.111-2.519
	c-0.664-0.573-1.488-0.86-2.471-0.86C407.471,282.004,406.641,282.309,406.053,282.915z"/>
<path d="M463.068,279.313c1.113,0.499,2.031,1.285,2.756,2.359c0.652,0.947,1.076,2.046,1.27,3.296
	c0.113,0.733,0.158,1.787,0.139,3.164h-11.613c0.064,1.6,0.621,2.721,1.668,3.364c0.637,0.4,1.402,0.6,2.297,0.6
	c0.951,0,1.723-0.243,2.316-0.731c0.322-0.263,0.609-0.629,0.857-1.097h4.256c-0.111,0.946-0.627,1.906-1.545,2.882
	c-1.428,1.55-3.428,2.325-5.998,2.325c-2.123,0-3.994-0.654-5.617-1.962c-1.621-1.307-2.432-3.436-2.432-6.383
	c0-2.762,0.732-4.88,2.195-6.353c1.465-1.475,3.365-2.211,5.701-2.211C460.707,278.567,461.955,278.816,463.068,279.313z
	 M456.832,282.915c-0.588,0.607-0.959,1.431-1.111,2.468h7.184c-0.076-1.106-0.447-1.946-1.111-2.519
	c-0.664-0.573-1.488-0.86-2.473-0.86C458.25,282.004,457.42,282.309,456.832,282.915z"/>
<path d="M479.729,279.313c1.113,0.499,2.031,1.285,2.756,2.359c0.652,0.947,1.076,2.046,1.27,3.296
	c0.113,0.733,0.158,1.787,0.139,3.164h-11.613c0.064,1.6,0.621,2.721,1.668,3.364c0.637,0.4,1.402,0.6,2.297,0.6
	c0.951,0,1.723-0.243,2.316-0.731c0.322-0.263,0.609-0.629,0.857-1.097h4.256c-0.111,0.946-0.627,1.906-1.545,2.882
	c-1.428,1.55-3.428,2.325-5.998,2.325c-2.123,0-3.994-0.654-5.617-1.962c-1.621-1.307-2.432-3.436-2.432-6.383
	c0-2.762,0.732-4.88,2.195-6.353c1.465-1.475,3.365-2.211,5.701-2.211C477.367,278.567,478.615,278.816,479.729,279.313z
	 M473.492,282.915c-0.588,0.607-0.959,1.431-1.111,2.468h7.184c-0.076-1.106-0.447-1.946-1.111-2.519
	c-0.664-0.573-1.488-0.86-2.473-0.86C474.91,282.004,474.08,282.309,473.492,282.915z"/>
<path d="M485.955,273.447h4.096v11.631l5.258-6.014h5.186l-5.717,5.939l5.938,9.931h-5.074l-3.863-6.812l-1.727,1.795v5.018h-4.096
	V273.447z"/>
<g>
	<path d="M430.682,273.693l2.846,12.347l0.621,3.437l0.621-3.366l2.436-12.417h4.754l2.562,12.345l0.654,3.438l0.666-3.305
		l2.875-12.479h4.586l-6.064,21.561h-4.314l-2.604-12.608l-0.76-4.169l-0.762,4.169l-2.604,12.608h-4.184l-6.113-21.561H430.682z"/>
</g>
</svg>
