<?xml version="1.0" encoding="utf-8"?>
<!-- Generator: Adobe Illustrator 16.0.4, SVG Export Plug-In . SVG Version: 6.00 Build 0)  -->
<!DOCTYPE svg PUBLIC "-//W3C//DTD SVG 1.1//EN" "http://www.w3.org/Graphics/SVG/1.1/DTD/svg11.dtd">
<svg version="1.1" id="Layer_1" xmlns="http://www.w3.org/2000/svg" xmlns:xlink="http://www.w3.org/1999/xlink" x="0px" y="0px"
	 width="500px" height="500px" viewBox="0 0 500 500" enable-background="new 0 0 500 500" xml:space="preserve">
<path fill="#231F20" d="M126.366,273.545c0,6.141,4.915,11.059,11.061,11.059h7.525c6.145,0,10.907-4.766,10.907-11.059v-45.471
	c0-6.299-4.763-11.062-10.907-11.062h-7.525c-6.146,0-11.061,4.918-11.061,11.062V273.545"/>
<path fill="#231F20" d="M409.015,64.289H280.483c-2.397,0-5.738,1.386-7.432,3.08L139.529,200.887h5.423
	c17.204,0,28.57,10.903,28.57,27.188v45.471c0,16.275-11.367,27.189-28.57,27.189h-7.525c-17.359,0-28.574-10.914-28.574-27.189
	v-41.984l-63.833,63.834c-1.693,1.691-3.077,5.039-3.077,7.432l0.001,128.535c0,2.393,1.959,4.35,4.354,4.35h128.531
	c2.394,0,5.738-1.387,7.431-3.078l133.436-133.439h-38.815c-1.067,0-1.528-0.455-1.528-1.535v-93.703
	c0-1.073,0.461-1.536,1.528-1.536h54.23c0.92,0,1.533,0.462,1.533,1.536v13.057c0,1.077-0.46,1.537-1.533,1.537h-36.561
	c-1.076,0-1.536,0.461-1.536,1.538v20.43c0,1.076,0.46,1.536,1.536,1.536h29.951c1.079,0,1.54,0.462,1.54,1.537v13.059
	c0,1.07-0.461,1.531-1.54,1.531h-29.951c-1.076,0-1.536,0.461-1.536,1.537v21.811c0,1.076,0.46,1.537,1.536,1.537h36.561
	c0.229,0,0.44,0.029,0.626,0.092l78.548-78.551c1.694-1.694,3.08-5.037,3.08-7.43l0.002-128.533
	C413.367,66.249,411.409,64.289,409.015,64.289z M254.614,297.658c0,1.08-0.46,1.535-1.536,1.535h-12.75l-1.383-0.764
	l-31.489-61.752l0.768,60.98c0,1.08-0.46,1.535-1.535,1.535h-14.286c-1.075,0-1.537-0.455-1.537-1.535v-93.703
	c0-1.073,0.462-1.536,1.537-1.536h12.902l1.383,0.771l31.339,62.362l-0.617-61.597c0-1.073,0.461-1.536,1.534-1.536h14.133
	c0.921,0,1.536,0.462,1.536,1.536V297.658"/>
<g>
	<g>
		<path fill="#231F20" d="M23.323,207.643H16.3c-0.451,0-0.645,0.193-0.645,0.644v32.536c0,0.451-0.193,0.644-0.644,0.644H8.956
			c-0.451,0-0.645-0.193-0.645-0.644v-32.536c0-0.451-0.193-0.644-0.644-0.644H0.644c-0.451,0-0.644-0.193-0.644-0.645v-5.477
			c0-0.451,0.193-0.644,0.644-0.644h22.679c0.387,0,0.644,0.193,0.644,0.644v5.477C23.967,207.45,23.774,207.643,23.323,207.643z"/>
		<path fill="#231F20" d="M56.632,241.467h-6.056c-0.451,0-0.644-0.193-0.644-0.644V224.91c0-0.451-0.194-0.645-0.645-0.645H37.303
			c-0.451,0-0.644,0.193-0.644,0.645v15.914c0,0.451-0.193,0.644-0.644,0.644h-6.121c-0.451,0-0.644-0.193-0.644-0.644v-39.301
			c0-0.451,0.193-0.644,0.644-0.644h6.121c0.386,0,0.644,0.193,0.644,0.644v15.334c0,0.451,0.193,0.645,0.644,0.645h11.984
			c0.451,0,0.645-0.193,0.645-0.645v-15.334c0-0.451,0.193-0.644,0.644-0.644h6.056c0.451,0,0.645,0.193,0.645,0.644v39.301
			C57.276,241.274,57.083,241.467,56.632,241.467z"/>
		<path fill="#231F20" d="M87.75,241.467H65.007c-0.451,0-0.645-0.193-0.645-0.644v-39.301c0-0.451,0.194-0.644,0.645-0.644H87.75
			c0.386,0,0.644,0.193,0.644,0.644v5.477c0,0.451-0.193,0.645-0.644,0.645H72.417c-0.451,0-0.644,0.193-0.644,0.644v8.569
			c0,0.451,0.193,0.645,0.644,0.645H84.98c0.451,0,0.644,0.193,0.644,0.644v5.476c0,0.451-0.193,0.645-0.644,0.645H72.417
			c-0.451,0-0.644,0.193-0.644,0.645v9.148c0,0.451,0.193,0.644,0.644,0.644H87.75c0.386,0,0.644,0.194,0.644,0.645v5.477
			C88.395,241.274,88.202,241.467,87.75,241.467z"/>
	</g>
	<g>
		<path fill="#231F20" d="M370.564,269.168c0,3.027,2.964,3.93,7.474,5.992c6.895,3.156,10.115,6.699,10.115,13.078
			c0,6.83-4.703,11.404-11.983,11.404h-2.577c-3.673,0-6.442-1.031-8.375-3.027c-2.126-2.191-2.965-4.061-2.965-4.703
			c0-0.131,0.13-0.324,0.388-0.451l5.604-2.771c0.129-0.064,0.193-0.064,0.322-0.064c0.451,0,0.58,0.645,1.225,1.934
			c0.708,1.354,2.319,2.318,3.801,2.318h2.577c2.513,0,4.639-2.061,4.639-4.639c0-3.221-2.706-4.381-6.894-6.379
			c-7.088-3.414-10.695-6.312-10.695-12.691c0-6.83,4.768-11.404,11.984-11.404h0.966c2.964,0,5.283,0.645,7.345,2.127
			c2.513,1.805,4.123,4.703,4.123,5.477c0,0.258-0.129,0.387-0.387,0.516l-5.604,2.77c-0.129,0.064-0.258,0.064-0.323,0.064
			c-0.321,0-0.45-0.387-0.837-0.967c-1.224-2.062-2.319-3.221-4.316-3.221h-0.966C372.69,264.529,370.564,266.527,370.564,269.168z"
			/>
		<path fill="#231F20" d="M420.432,298.998h-6.057c-0.45,0-0.644-0.193-0.644-0.645v-15.914c0-0.451-0.194-0.645-0.645-0.645
			h-11.983c-0.451,0-0.645,0.193-0.645,0.645v15.914c0,0.451-0.193,0.645-0.645,0.645h-6.121c-0.45,0-0.644-0.193-0.644-0.645
			v-39.301c0-0.451,0.193-0.645,0.644-0.645h6.121c0.387,0,0.645,0.193,0.645,0.645v15.334c0,0.451,0.193,0.645,0.645,0.645h11.983
			c0.45,0,0.645-0.193,0.645-0.645v-15.334c0-0.451,0.193-0.645,0.644-0.645h6.057c0.451,0,0.645,0.193,0.645,0.645v39.301
			C421.076,298.805,420.883,298.998,420.432,298.998z"/>
		<path fill="#231F20" d="M442.4,299.643h-3.156c-7.28,0-11.983-4.574-11.983-11.404v-19.07c0-6.83,4.768-11.404,11.983-11.404
			h3.156c7.217,0,11.984,4.574,11.984,11.404v19.07C454.385,295.068,449.617,299.643,442.4,299.643z M446.976,269.168
			c0-2.641-1.997-4.639-4.575-4.639h-3.156c-2.577,0-4.639,2.061-4.639,4.639v19.07c0,2.578,2.062,4.639,4.639,4.639h3.156
			c2.578,0,4.575-1.998,4.575-4.639V269.168z"/>
		<path fill="#231F20" d="M491.431,298.482c-0.064,0.322-0.322,0.516-0.645,0.516h-4.703c-0.386,0-0.579-0.129-0.645-0.451
			l-6.507-25.514l-6.442,25.514c-0.064,0.322-0.258,0.451-0.645,0.451h-4.703c-0.322,0-0.58-0.193-0.645-0.516l-8.505-39.301
			c0-0.064-0.063-0.193-0.063-0.258c0-0.322,0.258-0.516,0.709-0.516h6.57c0.323,0,0.581,0.193,0.645,0.516l4.704,26.223
			l6.12-26.416c0.064-0.322,0.258-0.451,0.644-0.451h3.223c0.386,0,0.579,0.129,0.645,0.451l6.119,26.416l4.768-26.223
			c0.065-0.322,0.323-0.516,0.645-0.516h6.572c0.451,0,0.709,0.193,0.709,0.516c0,0.064-0.065,0.193-0.065,0.258L491.431,298.482z"
			/>
	</g>
</g>
</svg>
