<?xml version="1.0" encoding="utf-8"?>
<!-- Generator: Adobe Illustrator 16.0.4, SVG Export Plug-In . SVG Version: 6.00 Build 0)  -->
<!DOCTYPE svg PUBLIC "-//W3C//DTD SVG 1.1//EN" "http://www.w3.org/Graphics/SVG/1.1/DTD/svg11.dtd">
<svg version="1.1" id="Layer_1" xmlns="http://www.w3.org/2000/svg" xmlns:xlink="http://www.w3.org/1999/xlink" x="0px" y="0px"
	 width="500px" height="500px" viewBox="0 0 500 500" enable-background="new 0 0 500 500" xml:space="preserve">
<polygon fill="#231F20" points="29.938,295.791 29.938,281.968 21.429,295.791 18.388,295.791 9.96,281.968 9.96,295.791 
	7.786,295.791 7.786,280.403 11.429,280.403 19.945,294.211 28.537,280.403 32.155,280.403 32.155,295.791 "/>
<polygon fill="#231F20" points="41.35,295.791 38.269,292.605 38.269,280.403 40.531,280.403 40.531,291.956 42.405,293.897 
	52.076,293.897 53.954,291.956 53.954,280.403 56.216,280.403 56.216,292.605 53.135,295.791 "/>
<polygon fill="#231F20" points="64.199,295.791 61.832,293.344 61.832,291.427 64.07,291.427 64.07,292.67 65.254,293.897 
	76.177,293.897 77.621,292.405 77.621,290.015 76.566,288.924 64.07,288.924 61.832,286.604 61.832,283.146 64.479,280.403 
	77.408,280.403 79.775,282.858 79.775,284.615 77.537,284.615 77.537,283.484 76.354,282.256 65.535,282.256 64.091,283.748 
	64.091,285.955 65.146,287.054 77.641,287.054 79.888,289.373 79.888,293.047 77.232,295.791 "/>
<polygon fill="#231F20" points="85.034,295.791 85.034,294.098 89.728,294.098 89.728,282.08 85.034,282.08 85.034,280.403 
	96.715,280.403 96.715,282.08 91.994,282.08 91.994,294.098 96.715,294.098 96.715,295.791 "/>
<polygon fill="#231F20" points="104.702,295.791 101.621,292.605 101.621,283.588 104.702,280.403 117.314,280.403 119.981,283.171 
	119.981,285.329 117.828,285.329 117.828,283.925 116.255,282.297 105.761,282.297 103.888,284.238 103.888,291.956 
	105.761,293.897 116.255,293.897 117.828,292.269 117.828,290.729 119.981,290.729 119.981,293.023 117.314,295.791 "/>
<polygon fill="#231F20" points="131.996,293.825 131.996,289.06 126.845,289.06 126.845,287.255 131.996,287.255 131.996,282.48 
	133.825,282.48 133.825,287.255 138.976,287.255 138.976,289.06 133.825,289.06 133.825,293.825 "/>
<polygon fill="#231F20" points="146.525,295.791 146.525,280.403 161.974,280.403 161.974,282.28 148.788,282.28 148.788,287.207 
	161.135,287.207 161.135,289.084 148.788,289.084 148.788,295.791 "/>
<polygon fill="#231F20" points="166.654,295.791 166.654,294.098 171.356,294.098 171.356,282.08 166.654,282.08 166.654,280.403 
	178.336,280.403 178.336,282.08 173.614,282.08 173.614,294.098 178.336,294.098 178.336,295.791 "/>
<polygon fill="#231F20" points="184.052,295.791 184.052,280.403 186.311,280.403 186.311,293.897 199.047,293.897 199.047,295.791 
	"/>
<polygon fill="#231F20" points="226.144,295.791 226.144,281.968 217.636,295.791 214.595,295.791 206.167,281.968 206.167,295.791 
	203.997,295.791 203.997,280.403 207.635,280.403 216.151,294.211 224.744,280.403 228.362,280.403 228.362,295.791 "/>
<polygon fill="#231F20" points="240.898,293.825 240.898,289.06 235.743,289.06 235.743,287.255 240.898,287.255 240.898,282.48 
	242.724,282.48 242.724,287.255 247.874,287.255 247.874,289.06 242.724,289.06 242.724,293.825 "/>
<polygon fill="#231F20" points="254.521,295.791 254.521,294.098 259.215,294.098 259.215,282.08 254.521,282.08 254.521,280.403 
	266.194,280.403 266.194,282.08 261.477,282.08 261.477,294.098 266.194,294.098 266.194,295.791 "/>
<polygon fill="#231F20" points="286.629,295.791 274.064,281.992 274.064,295.791 271.914,295.791 271.914,280.403 275.389,280.403 
	287.944,294.211 287.944,280.403 290.103,280.403 290.103,295.791 "/>
<polygon fill="#231F20" points="303.389,295.791 303.389,282.297 295.35,282.297 295.35,280.403 313.689,280.403 313.689,282.297 
	305.65,282.297 305.65,295.791 "/>
<polygon fill="#231F20" points="318.864,295.791 318.864,280.403 334.621,280.403 334.621,282.28 321.127,282.28 321.127,287.207 
	333.771,287.207 333.771,289.084 321.127,289.084 321.127,293.897 334.637,293.897 334.637,295.791 "/>
<path fill="#231F20" d="M342.684,287.607h11.569l1.878-1.941v-1.869l-1.549-1.604h-11.898V287.607z M356.428,295.791l-2.904-6.282
	h-10.84v6.282h-2.262v-15.388h15.315l2.655,2.743v3.17l-2.672,2.768l3.146,6.707H356.428z"/>
<path fill="#231F20" d="M368.807,289.613h9.05l-4.525-7.895L368.807,289.613z M381.41,295.791l-2.471-4.324h-11.208l-2.479,4.324
	h-2.414l8.961-15.388h3.153l8.962,15.388H381.41z"/>
<polygon fill="#231F20" points="391.014,295.791 387.933,292.605 387.933,283.588 391.014,280.403 403.617,280.403 406.289,283.171 
	406.289,285.329 404.131,285.329 404.131,283.925 402.559,282.297 392.064,282.297 390.195,284.238 390.195,291.956 
	392.064,293.897 402.559,293.897 404.131,292.269 404.131,290.729 406.289,290.729 406.289,293.023 403.617,295.791 "/>
<polygon fill="#231F20" points="418.837,295.791 418.837,282.297 410.798,282.297 410.798,280.403 429.139,280.403 429.139,282.297 
	421.1,282.297 421.1,295.791 "/>
<polygon fill="#231F20" points="434.104,295.791 434.104,294.098 438.798,294.098 438.798,282.08 434.104,282.08 434.104,280.403 
	445.786,280.403 445.786,282.08 441.061,282.08 441.061,294.098 445.786,294.098 445.786,295.791 "/>
<polygon fill="#231F20" points="458.302,295.791 450.375,280.403 452.813,280.403 460.114,294.387 467.415,280.403 469.727,280.403 
	461.799,295.791 "/>
<polygon fill="#231F20" points="474.756,295.791 474.756,280.403 490.505,280.403 490.505,282.28 477.019,282.28 477.019,287.207 
	489.663,287.207 489.663,289.084 477.019,289.084 477.019,293.897 490.521,293.897 490.521,295.791 "/>
<path fill="#231F20" d="M278.41,252.794h0.225l0.053-0.056v-0.122l-0.047-0.049h-0.23V252.794z M278.75,253.214l-0.062-0.065v-0.185
	l-0.053-0.051h-0.225v0.185h0.078v0.116h-0.282v-0.116h0.066v-0.53h-0.066v-0.116h0.503l0.112,0.119v0.197l-0.081,0.084l0.081,0.084
	v0.162h0.069v0.116H278.75z M278.066,252.451v0.766l0.137,0.142h0.675l0.138-0.142v-0.766l-0.138-0.143h-0.675L278.066,252.451z
	 M278.138,253.481l-0.212-0.223v-0.847l0.212-0.223h0.807l0.212,0.223v0.847l-0.212,0.223H278.138z"/>
<polygon fill="#231F20" points="17.441,267.294 5.997,255.452 5.997,246.089 32.348,246.089 32.348,249.347 34.277,251.336 
	79.406,251.336 80.931,249.764 80.931,240.425 79.916,239.374 17.341,239.374 5.997,227.633 5.997,208.193 18.861,194.879 
	95.432,194.879 107.293,207.158 107.293,216.076 80.521,216.076 80.521,212.61 78.596,210.62 34.277,210.62 32.757,212.193 
	32.757,221.219 33.768,222.262 96.342,222.262 107.699,234.027 107.699,253.96 94.818,267.294 "/>
<polygon fill="#231F20" points="174.702,267.294 174.702,251.553 188.18,251.553 170.542,239.591 152.852,251.553 165.772,251.553 
	165.772,267.294 112.46,267.294 112.46,251.553 121.281,251.553 153.634,231.399 123.725,210.616 113.471,210.616 113.471,194.879 
	165.74,194.879 165.74,210.616 152.907,210.616 170.51,221.636 188.152,210.616 175.271,210.616 175.271,194.879 227.56,194.879 
	227.56,210.616 217.167,210.616 184.67,230.569 219.754,251.553 228.579,251.553 228.579,267.294 "/>
<polygon fill="#231F20" points="245.206,267.294 233.337,255.011 233.337,246.089 260.113,246.089 260.113,249.347 262.038,251.336 
	307.167,251.336 308.691,249.764 308.691,240.425 307.672,239.374 245.102,239.374 233.742,227.621 233.742,208.201 
	246.622,194.879 323.188,194.879 335.055,207.158 335.055,216.076 308.282,216.076 308.282,212.61 306.356,210.62 262.038,210.62 
	260.514,212.193 260.514,221.219 261.533,222.262 324.104,222.262 335.464,234.027 335.464,253.96 322.587,267.294 "/>
<polygon fill="#231F20" points="432.981,267.294 416.246,213.77 399.518,267.294 362.901,267.294 346.174,210.616 338.359,210.616 
	338.359,194.879 385.013,194.879 385.013,210.616 371.928,210.616 382.782,248.608 400.938,194.879 434.401,194.879 
	452.453,248.608 463.3,210.616 450.223,210.616 450.223,194.879 493.321,194.879 493.321,210.616 485.515,210.616 468.779,267.294 
	"/>
<path fill="#231F20" d="M484.039,308.25v-3.642h-1.364v-0.642h3.418v0.642h-1.3v3.642H484.039z M490.481,308.25v-3.698l-1.212,3.698
	h-0.803l-1.203-3.69v3.69h-0.689v-4.283h1.131l1.172,3.554l1.188-3.554h1.123v4.283H490.481z"/>
</svg>
