<?xml version="1.0" encoding="utf-8"?>
<!-- Generator: Adobe Illustrator 16.0.4, SVG Export Plug-In . SVG Version: 6.00 Build 0)  -->
<!DOCTYPE svg PUBLIC "-//W3C//DTD SVG 1.1//EN" "http://www.w3.org/Graphics/SVG/1.1/DTD/svg11.dtd">
<svg version="1.1" id="Layer_1" xmlns="http://www.w3.org/2000/svg" xmlns:xlink="http://www.w3.org/1999/xlink" x="0px" y="0px"
	 width="500px" height="500px" viewBox="0 0 500 500" enable-background="new 0 0 500 500" xml:space="preserve">
<path d="M488.291,206.78h-32.847v-33.821l0,0c0-4.554-2.604-8.456-6.183-10.405c-1.626-0.977-3.577-1.464-5.688-1.464h-110.08
	c-2.928,0-5.528,0.976-7.646,2.764c-1.46,0.976-2.925,2.438-3.896,4.065l-37.238,69.269l-33.169-67.151
	c-1.463-2.928-2.438-4.064-4.717-5.69c-0.323-0.326-0.812-0.651-1.299-0.977c-0.162,0-0.162-0.162-0.326-0.162
	c-0.487-0.325-0.812-0.488-1.3-0.813c0,0-0.163,0-0.163-0.162c-0.488-0.162-0.813-0.324-1.301-0.486c-0.162,0-0.162,0-0.325-0.163
	c-0.488-0.163-0.976-0.325-1.464-0.325c-0.161,0-0.161,0-0.325,0c-0.487,0-0.976-0.162-1.464-0.162c0,0,0,0-0.161,0l0,0
	c-0.488,0-0.977,0-1.464,0.162c-0.162,0-0.325,0-0.488,0c-0.325,0-0.813,0.162-1.138,0.325c-0.163,0-0.325,0-0.488,0.163
	c-0.488,0.162-0.977,0.324-1.464,0.648c-3.578,1.789-4.227,4.392-6.504,8.617l0,0l-35.285,65.854l-35.122-68.94
	c-1.301-2.603-3.415-4.553-5.853-5.69c-1.626-0.812-3.415-1.302-5.366-1.302h-88.94c-2.115,0-4.065,0.488-5.691,1.464
	c-3.74,1.952-6.179,6.017-6.179,10.406l0,0v33.821H11.87c-6.666,0-11.87,5.365-11.87,11.87c0,6.665,5.366,11.867,11.87,11.867
	h32.846v32.847c0,6.506,5.365,11.869,11.87,11.869c6.504,0,11.87-5.363,11.87-11.869v-32.847h56.584
	c6.504,0,11.87-5.363,11.87-11.867c0-6.505-5.366-11.87-11.87-11.87H68.456V184.67h70.08l41.951,82.277
	c0.326,0.812,0.651,1.462,1.139,2.111c0.161,0.485,0.487,0.812,0.812,1.139c0,0.162,0.164,0.162,0.325,0.326
	c0.164,0.326,0.488,0.646,0.813,0.812l0.164,0.163c0.325,0.322,0.651,0.648,0.976,0.812c0.162,0,0.162,0.166,0.325,0.166
	c0.325,0.155,0.651,0.321,0.976,0.646c0.162,0,0.162,0.162,0.325,0.162c0.326,0.157,0.813,0.483,1.139,0.646h0.162
	c0.325,0.164,0.813,0.324,1.139,0.324c0.162,0,0.325,0,0.325,0.166c0.325,0.159,0.649,0.159,1.138,0.159c0.163,0,0.163,0,0.326,0
	c0.487,0,0.975,0.165,1.301,0.165h0.161c0.164,0,0.164,0,0.326,0c0.325,0,0.487,0,0.813,0c0.162,0,0.325,0,0.487,0
	c0.326,0,0.488,0,0.814-0.165c0.162,0,0.325,0,0.488-0.159c0.325,0,0.486-0.166,0.813-0.166c0.162,0,0.325,0,0.325-0.16
	c0.325-0.164,0.813-0.326,1.138-0.486c3.577-1.629,5.691-4.881,7.317-8.293l34.796-65.854l34.309,67.479
	c0.325,0.812,0.649,1.468,1.14,2.111c0.322,0.488,0.488,0.812,0.812,1.139c0,0.162,0.162,0.162,0.162,0.326
	c0.328,0.326,0.483,0.649,0.812,0.812l0.16,0.163c0.327,0.323,0.649,0.649,0.979,0.978c0.162,0,0.162,0.158,0.321,0.158
	c0.327,0.166,0.649,0.49,0.979,0.652c0.164,0,0.164,0.16,0.326,0.16c0.323,0.166,0.812,0.487,1.301,0.648h0.162
	c0.324,0.161,0.812,0.327,1.14,0.327c0.163,0,0.321,0,0.321,0.159c0.328,0.164,0.654,0.164,1.141,0.164c0.163,0,0.163,0,0.327,0
	c0.485,0,0.812,0.162,1.299,0.162h0.163c0.162,0,0.162,0,0.322,0c0.326,0,0.488,0,0.813,0c0.162,0,0.323,0,0.486,0
	c0.323,0,0.485,0,0.812-0.162c0.162,0,0.324,0,0.486-0.164c0.325,0,0.486-0.159,0.812-0.159c0.16,0,0.326,0,0.326-0.166
	c0.319-0.161,0.812-0.322,1.137-0.483c3.576-1.625,5.853-4.878,6.506-8.453l43.575-80.651h91.708v21.951h-80.002
	c-6.343,0-11.543,5.041-11.87,11.382l0,0v44.716c0,6.667,5.364,11.868,11.87,11.868l0,0c2.438,0,70.564,0,87.479,0
	c1.139,0.326,2.438,0,3.74,0c6.502,0,11.868-5.361,11.868-11.868v-32.19h32.847c6.502,0,11.868-5.367,11.868-11.871
	C500.159,211.982,494.793,206.78,488.291,206.78z M363.575,230.52h67.966v20.16h-67.966V230.52z"/>
<g>
	<path d="M53.647,361.67c0,1.041,0.084,1.984,0.25,2.836c0.168,0.852,0.484,1.566,0.946,2.151c0.46,0.579,1.081,1.036,1.857,1.367
		c0.778,0.335,1.754,0.502,2.929,0.502c1.387,0,2.635-0.448,3.747-1.344c1.112-0.891,1.669-2.272,1.669-4.141
		c0-0.998-0.136-1.858-0.409-2.588c-0.275-0.726-0.725-1.378-1.355-1.962c-0.63-0.584-1.457-1.109-2.486-1.592
		c-1.029-0.476-2.299-0.963-3.81-1.463c-2.014-0.662-3.759-1.393-5.229-2.181c-1.469-0.788-2.696-1.713-3.683-2.773
		c-0.985-1.062-1.71-2.282-2.173-3.674s-0.69-3.002-0.69-4.831c0-4.404,1.236-7.684,3.715-9.844
		c2.477-2.161,5.875-3.241,10.201-3.241c2.015,0,3.873,0.219,5.574,0.652c1.698,0.438,3.167,1.144,4.408,2.121
		c1.236,0.973,2.204,2.219,2.895,3.737c0.693,1.518,1.039,3.333,1.039,5.455v1.245h-8.69c0-2.122-0.377-3.751-1.134-4.895
		c-0.754-1.14-2.014-1.713-3.778-1.713c-1.007,0-1.847,0.146-2.519,0.438c-0.671,0.292-1.206,0.676-1.605,1.152
		c-0.399,0.478-0.671,1.027-0.82,1.65c-0.146,0.622-0.219,1.271-0.219,1.931c0,1.373,0.292,2.526,0.881,3.46
		c0.589,0.936,1.849,1.796,3.778,2.585l6.99,2.992c1.723,0.749,3.129,1.527,4.221,2.335c1.09,0.812,1.961,1.684,2.613,2.618
		c0.65,0.934,1.102,1.965,1.353,3.085c0.253,1.124,0.379,2.369,0.379,3.742c0,4.695-1.377,8.11-4.126,10.247
		c-2.75,2.141-6.582,3.212-11.491,3.212c-5.124,0-8.786-1.1-10.99-3.304c-2.204-2.2-3.306-5.358-3.306-9.475v-1.806h9.068V361.67z"
		/>
	<path d="M79.051,329.765h9.067v44.492h-9.067V329.765z"/>
	<path d="M121.001,337.116h-9.824v37.141h-9.067v-37.141h-9.824v-7.352h28.715V337.116z"/>
	<path d="M150.113,337.116h-16.057v10.472h15.113v7.353h-15.113v11.965h16.688v7.352h-25.754v-44.492h25.124V337.116z"/>
	<path d="M178.734,359.646c0.146,2.098,0.44,3.8,0.881,5.108c0.442,1.31,1.071,2.263,1.89,2.866c0.82,0.604,1.9,0.906,3.243,0.906
		s2.423-0.303,3.243-0.906c0.817-0.604,1.448-1.557,1.89-2.866c0.441-1.309,0.733-3.011,0.881-5.108
		c0.146-2.098,0.219-4.642,0.219-7.635c0-2.991-0.073-5.522-0.219-7.6c-0.148-2.078-0.44-3.781-0.881-5.114
		c-0.442-1.328-1.073-2.291-1.89-2.896c-0.82-0.604-1.9-0.904-3.243-0.904s-2.423,0.301-3.243,0.904
		c-0.819,0.604-1.448,1.567-1.89,2.896c-0.441,1.333-0.735,3.036-0.881,5.114c-0.148,2.077-0.221,4.608-0.221,7.6
		C178.513,355.004,178.585,357.548,178.734,359.646z M169.917,342.693c0.315-2.842,1.006-5.284,2.077-7.318
		c1.071-2.039,2.615-3.625,4.629-4.769s4.722-1.713,8.124-1.713c3.401,0,6.108,0.569,8.124,1.713
		c2.013,1.144,3.556,2.729,4.629,4.769c1.071,2.034,1.761,4.477,2.078,7.318c0.314,2.846,0.472,5.951,0.472,9.317
		c0,3.406-0.158,6.521-0.472,9.348c-0.317,2.827-1.007,5.255-2.078,7.289c-1.073,2.039-2.616,3.596-4.629,4.676
		c-2.016,1.08-4.723,1.621-8.124,1.621c-3.402,0-6.109-0.541-8.124-1.621s-3.559-2.637-4.629-4.676
		c-1.071-2.034-1.762-4.462-2.077-7.289c-0.314-2.827-0.473-5.941-0.473-9.348C169.445,348.645,169.603,345.539,169.917,342.693z"/>
	<path d="M230.309,329.765v7.352h-16.057v10.472h15.113v7.353h-15.113v19.316h-9.07v-44.492H230.309z"/>
	<path d="M275.777,337.116h-9.829v37.141h-9.065v-37.141h-9.823v-7.352h28.718V337.116z"/>
	<path d="M288.827,329.765v17.011h10.579v-17.011h9.068v44.492h-9.068v-19.755h-10.579v19.755h-9.069v-44.492H288.827z"/>
	<path d="M339.694,337.116h-16.057v10.472h15.112v7.353h-15.112v11.965h16.685v7.352h-25.755v-44.492h25.127V337.116z"/>
	<path d="M373.507,367.649c1.596,0,2.875-0.267,3.839-0.808c0.968-0.54,1.731-1.43,2.301-2.681c0.57-1.245,0.944-2.886,1.135-4.92
		c0.184-2.039,0.281-4.574,0.281-7.605c0-2.535-0.083-4.754-0.252-6.666c-0.166-1.912-0.517-3.498-1.037-4.769
		c-0.525-1.265-1.304-2.223-2.331-2.866c-1.031-0.642-2.402-0.963-4.125-0.963h-3.84v31.277H373.507z M375.273,329.765
		c3.142,0,5.683,0.511,7.619,1.528c1.927,1.017,3.431,2.472,4.501,4.359c1.07,1.893,1.796,4.165,2.175,6.826
		c0.375,2.657,0.564,5.631,0.564,8.909c0,3.908-0.243,7.304-0.725,10.189c-0.481,2.885-1.314,5.265-2.487,7.133
		c-1.177,1.868-2.754,3.266-4.725,4.176c-1.971,0.915-4.471,1.371-7.493,1.371h-14.295v-44.492H375.273z"/>
	<path d="M404.838,357.495l4.34-20.004h0.127l4.35,20.004H404.838z M403.641,329.765l-11.901,44.492h9.444l2.077-9.409h11.965
		l2.078,9.409h9.449l-11.902-44.492H403.641z"/>
	<path d="M439.175,346.965h0.127l6.296-17.2h9.824l-11.648,26.981v17.511h-9.07v-17.511l-11.648-26.981h10.198L439.175,346.965z"/>
</g>
</svg>
