<?xml version="1.0" encoding="utf-8"?>
<!-- Generator: Adobe Illustrator 16.0.4, SVG Export Plug-In . SVG Version: 6.00 Build 0)  -->
<!DOCTYPE svg PUBLIC "-//W3C//DTD SVG 1.1//EN" "http://www.w3.org/Graphics/SVG/1.1/DTD/svg11.dtd">
<svg version="1.1" id="Layer_1" xmlns="http://www.w3.org/2000/svg" xmlns:xlink="http://www.w3.org/1999/xlink" x="0px" y="0px"
	 width="500px" height="500px" viewBox="0 0 500 500" enable-background="new 0 0 500 500" xml:space="preserve">
<path d="M171.812,138.916c3.763,0.884,7.589,1.562,11.275,2.697c6.161,1.896,11.188,5.52,15.245,10.892
	c-4.223,4.798-8.36,9.498-12.602,14.316c-7.167-4.827-14.63-6.456-22.068-1.517c-5.241,3.48-6.183,9.199-6.229,15.471
	c13.223,0,26.109,0,39.185,0c0,28.879,0,57.417,0,86.206c-8.227,0-16.492,0-25.188,0c0-22.043,0-44.142,0-66.399
	c-4.864,0-9.297,0-14.041,0c0,22.208,0,44.218,0,66.438c-8.459,0-16.611,0-25.055,0c0-22.063,0-44.078,0-66.363
	c-4.826,0-9.374,0-14.318,0c0,21.979,0,44.076,0,66.373c-8.535,0-16.681,0-25.098,0c0-22.119,0-44.134,0-66.397
	c-2.765,0-5.266,0-8.076,0c5.148,10.082,6.895,20.747,6.501,32.252c-21.664,0-43.077,0-64.548,0
	c1.145,7.05,6.223,12.031,13.282,13.339c6.401,1.186,12.507,0.782,17.946-3.314c0.502-0.379,1.191-0.718,1.795-0.721
	c8.976-0.046,17.951-0.031,27.032-0.031c-6.2,15.94-21.616,28.407-45.33,27.139c-18.798-1.006-36.71-16.489-40.542-35.678
	c-4.267-21.376,5.676-41.623,25.041-50.994c17.391-8.416,44.066-5.189,57.833,16.109c0-6.146,0-11.781,0-17.794
	c3.068,0,5.815,0,8.404,0c1.102-4.834,1.756-9.394,3.194-13.691c4.385-13.1,15.669-21.188,29.446-21.678
	c5.802-0.206,11.413,0.349,16.774,2.752c0.644,0.288,1.873,0.335,2.279-0.064c6.285-6.195,14.116-8.374,22.602-8.957
	c0.186-0.013,0.355-0.252,0.532-0.385C168.66,138.916,170.235,138.916,171.812,138.916z M64.904,214.571
	c-1.985-8.793-10.559-13.626-22.743-12.836c-8.84,0.572-16.146,7.449-15.934,12.836C39.102,214.571,51.982,214.571,64.904,214.571z
	 M131.91,180.6c0.648-4.711,1.269-9.217,1.881-13.723c-9.089-1.435-14.661,3.361-15.721,13.723
	C122.621,180.6,127.154,180.6,131.91,180.6z"/>
<path d="M290.416,232.837c-21.559,0-42.907,0-64.263,0c0.239,6.42,5.93,12.098,13.173,13.407c6.409,1.158,12.5,0.727,17.938-3.364
	c0.574-0.433,1.424-0.701,2.146-0.705c8.77-0.048,17.537-0.031,26.332-0.031c-1.95,15.502-26.348,29.37-46.589,27.051
	c-25.64-2.937-41.034-26.409-40.122-46.688c1.283-28.499,25.745-45.822,48.36-44.162
	C278.861,180.655,291.297,206.251,290.416,232.837z M225.309,214.517c12.952,0,25.873,0,38.871,0
	c-2.755-9.132-10.998-13.632-23.032-12.792C233.154,202.283,226.352,207.697,225.309,214.517z"/>
<path d="M499.419,327.227c-0.562-6.465-3.451-11.824-8.961-15.013c-5.08-2.938-10.714-4.964-16.202-7.144
	c-3.521-1.396-7.304-2.141-10.817-3.553c-3.76-1.51-5.386-5.021-4.372-8.423c0.949-3.192,3.399-4.897,7.131-4.956
	c4.062-0.062,5.874,1.309,7.309,5.075c0.434,1.136,1.493,2.858,2.312,2.888c7.054,0.229,14.116,0.131,21.128,0.131
	c0.994-7.272-3.545-17.031-10.273-21.373c-11.729-7.572-24.17-7.308-36.688-2.279c-6.866,2.757-11.638,7.868-14.354,14.804
	c-0.471,1.201-0.901,2.417-1.352,3.626c-0.184-0.031-0.362-0.062-0.543-0.092c0-15.689,0-31.38,0-47.004c-8.656,0-17.013,0-25.547,0
	c0,6.263,0,12.219,0,18.176c0,6.014,0,12.028,0,18.83c-9.128-10.072-20.041-11.758-31.896-9.654
	c-11.876,2.105-20.883,8.579-27.646,18.77c0-6.446,0-12.893,0-19.426c-9.34-0.217-16.273,3.447-21.644,10.81
	c0-3.094,0-6.188,0-9.338c-8.227,0-16.136,0-24.069,0c0,28.872,0,57.499,0,86.187c8.604,0,16.979,0,25.627,0
	c0-1.416-0.014-2.632,0.002-3.848c0.189-15.396,0.135-30.8,0.673-46.186c0.332-9.506,7.19-14.607,16.843-13.434
	c-9.212,21.487-6.29,40.877,12.33,55.572c16.178,12.768,33.627,12.145,50.705-0.484c0,2.934,0,5.59,0,8.299
	c8.452,0,16.569,0,25.017,0c0-5.219,0-10.146,0-15.074c4.135,8.391,10.485,13.826,19.301,16.363
	c2.216,0.637,4.485,1.076,6.731,1.607c3.15,0,6.302,0,9.454,0c2.882-0.686,5.843-1.136,8.631-2.092
	c12.07-4.137,19.908-11.922,21.188-25.188c0.037-0.375,0.371-0.724,0.566-1.082c0-1.353,0-2.701,0-4.054
	C499.799,328.189,499.463,327.721,499.419,327.227z M389.169,335.904c-14.106-0.332-22.348-9.938-22.245-21.545
	c0.104-11.537,9.731-21.047,21.417-21.025c11.604,0.021,20.896,9.529,20.993,21.482C409.426,326.139,400.126,336.16,389.169,335.904
	z M473.649,335.541c-0.405,3.113-2.914,5.432-6.409,5.922c-6.517,0.916-10.328-1.914-11.545-8.854c-3.516,0-7.089,0-10.664,0
	c-3.562,0-7.121,0-11.099,0c0-4.849,0-9.303,0-13.76c0-4.383,0-8.763,0-13.171c0.185,0,0.444-0.038,0.46,0.007
	c4.123,12.146,14.274,16.465,25.368,19.573c3.112,0.871,6.286,1.591,9.308,2.716C472.911,329.406,474.148,331.71,473.649,335.541z"
	/>
<path d="M274.277,272.104c0,2.84,0,5.414,0,7.822c-17.327-14.363-34.192-11.371-51.296,0.652c0.926-3.055,1.729-5.705,2.595-8.564
	c-9.732,0-19.143,0-28.591,0c-4.697,16.582-9.349,33.008-14.276,50.405c-0.681-1.696-1.023-2.394-1.245-3.127
	c-4.424-14.664-8.887-29.315-13.195-44.015c-0.739-2.521-1.695-3.688-4.569-3.514c-4.821,0.287-9.672,0.07-14.511,0.068
	c-6.652-0.003-6.625,0.007-8.554,6.513c-4.285,14.452-8.601,28.896-13.088,43.964c-0.468-1.279-0.77-1.965-0.97-2.678
	c-4.217-14.961-8.493-29.904-12.556-44.908c-0.639-2.361-1.618-2.959-3.908-2.94c-13.391,0.104-26.783,0.058-40.175,0.077
	c-0.859,0-1.719,0.119-2.856,0.203c0,2.836,0,5.472,0,8.432c-2.395-1.958-4.302-3.868-6.536-5.247
	c-2.256-1.394-4.75-2.552-7.289-3.308c-16.283-4.854-34.172,1.981-44.936,16.813c-13.146,18.115-11.145,46.701,9.315,62.329
	c12.628,9.646,31.868,10.904,44.613,2.666c1.819-1.176,3.524-2.527,5.713-4.107c0,3.209,0,5.869,0,8.566c8.403,0,16.534,0,24.849,0
	c0-19.796,0-39.338,0-58.882c0.796,0.774,1.118,1.661,1.417,2.557c5.991,17.938,12.024,35.865,17.905,53.843
	c0.679,2.075,1.5,2.832,3.701,2.786c6.75-0.138,13.507-0.185,20.252,0.041c2.473,0.083,3.267-0.944,3.901-3.008
	c3.387-11.013,6.86-21.998,10.338-32.979c1.39-4.392,2.868-8.752,4.583-13.973c0.664,1.852,1.025,2.762,1.318,3.69
	c4.524,14.399,9.041,28.805,13.554,43.211c0.495,1.577,0.702,3.094,3.129,3.036c7.311-0.176,14.63,0.007,21.941-0.161
	c0.942-0.021,2.34-1.099,2.698-2.013c1.51-3.849,2.705-7.818,4.017-11.744c2.321-6.944,4.643-13.891,6.963-20.836
	c3.539,15.062,11.319,26.752,25.845,32.382c14.373,5.571,28.336,4.37,41.066-6.649c0,3.422,0,6.066,0,8.737
	c8.521,0,16.679,0,24.93,0c0-28.854,0-57.487,0-86.146C291.646,272.104,283.166,272.104,274.277,272.104z M47.679,335.811
	c-14.607-0.252-22.525-10.855-21.809-22.867c0.633-10.602,10.409-19.825,21.399-19.562c12.107,0.292,20.955,9.621,20.755,21.808
	C67.841,326.473,59.895,336.021,47.679,335.811z M255.659,335.865c-13.567-0.201-22.184-9.08-22.352-21.102
	c-0.166-11.813,9.482-21.326,21.38-21.346c11.668-0.02,20.932,9.379,21.035,21.338C275.823,326.15,266.777,336.029,255.659,335.865z
	"/>
</svg>
